<?xml version="1.0" encoding="utf-8"?>
<!-- Generator: Adobe Illustrator 16.0.0, SVG Export Plug-In . SVG Version: 6.00 Build 0)  -->
<!DOCTYPE svg PUBLIC "-//W3C//DTD SVG 1.1//EN" "http://www.w3.org/Graphics/SVG/1.1/DTD/svg11.dtd">
<svg version="1.1" id="Layer_1" xmlns="http://www.w3.org/2000/svg" xmlns:xlink="http://www.w3.org/1999/xlink" x="0px" y="0px"
	 width="1258px" height="258.563px" viewBox="0 0 1258 258.563" style="enable-background:new 0 0 1258 258.563;"
	 xml:space="preserve">
<style type="text/css">
<![CDATA[
	.st0{opacity:0.6;fill:#FFFFFF;}
	.st1{fill:#494244;}
	.st2{fill:#AFA8A0;}
	.st3{fill:none;stroke:#D1D2D3;stroke-width:6;stroke-miterlimit:10;}
	.st4{clip-path:url(#SVGID_7_);fill:url(#SVGID_8_);}
	.st5{fill:#E3F4FC;}
	.st6{fill:#E3F4FD;}
	.st7{fill:#E4B97F;}
	.st8{fill:#E4F4FC;}
	.st9{fill:#E4F5FD;}
	.st10{fill:#E6E6E6;}
	.st11{fill:#E6E7E8;}
	.st12{fill:#E9F4D3;}
	.st13{fill:#E9F5F6;}
	.st14{fill:#E9F6F7;}
	.st15{fill:#808184;}
	.st16{fill:#808285;}
	.st17{fill:#B0844F;}
	.st18{fill:#816026;}
	.st19{opacity:0.24;}
	.st20{opacity:0.34;}
	.st21{fill:#B58D58;}
	.st22{fill:none;stroke:#BE1E2D;stroke-linecap:round;stroke-miterlimit:10;}
	.st23{fill:#ED1C24;}
	.st24{opacity:0.2;fill:#221F1F;}
	.st25{fill:none;stroke:#FFFFFF;stroke-miterlimit:10;}
	.st26{fill-rule:evenodd;clip-rule:evenodd;fill:#E4B97F;}
	.st27{fill:#8A5F3C;}
	.st28{fill:#8B5E3C;}
	.st29{fill:#58595B;}
	.st30{fill:#592713;}
	.st31{fill:#592815;}
	.st32{fill:#594A42;}
	.st33{fill:#8DC63F;}
	.st34{fill:#BE1E2D;}
	.st35{fill:#221F1F;}
	.st36{fill:#231F20;}
	.st37{fill:#F26522;}
	.st38{fill:#BE1E2D;stroke:#231F20;stroke-miterlimit:10;}
	.st39{fill:#F4F4F4;}
	.st40{opacity:0.7;fill:url(#SVGID_12_);}
	.st41{opacity:0.7;fill:url(#SVGID_13_);}
	.st42{fill:#F7941E;}
	.st43{clip-path:url(#SVGID_3_);}
	.st44{clip-path:url(#SVGID_5_);}
	.st45{clip-path:url(#SVGID_7_);}
	.st46{fill:#C09464;}
	.st47{fill:#929497;}
	.st48{opacity:0.24;fill:#221F1F;}
	.st49{fill:#93091A;}
	.st50{fill:#C2986B;}
	.st51{fill:url(#SVGID_1_);}
	.st52{fill:#939598;}
	.st53{opacity:0.24;fill:#231F20;}
	.st54{fill:#C49A6C;}
	.st55{fill:#C4A883;}
	.st56{fill:#C5925F;}
	.st57{fill:#FAC6B4;}
	.st58{fill:#FBB040;}
	.st59{fill:#FBC7B4;}
	.st60{opacity:0.75;fill:#FFFFFF;}
	.st61{clip-path:url(#SVGID_21_);fill:#E8615B;}
	.st62{opacity:0.21;fill:#221F1F;}
	.st63{fill:#FFDE17;}
	.st64{fill:#FFEFE3;}
	.st65{fill:#FFF0E2;}
	.st66{fill:#FFF0E3;}
	.st67{fill:#FFFFFF;}
	.st68{fill:#27AAE1;stroke:#FFFFFF;stroke-width:2;stroke-miterlimit:10;}
	.st69{fill-rule:evenodd;clip-rule:evenodd;fill:#231F20;}
	.st70{fill:#231F20;stroke:#BE1E2D;stroke-miterlimit:10;}
	.st71{fill:#675675;}
	.st72{fill:#CBA277;}
	.st73{fill:#CC5C3A;}
	.st74{fill:#9E9790;}
	.st75{fill:#CEA06E;}
	.st76{fill:#CEAF8A;}
	.st77{fill-rule:evenodd;clip-rule:evenodd;fill:#929497;}
	.st78{fill:#6B6188;}
	.st79{fill:#6C6288;}
	.st80{opacity:0.34;fill:#FFFFFF;}
	.st81{fill:#6D6E71;}
	.st82{fill:#D0D8AD;}
	.st83{opacity:0.21;fill:#FFFFFF;}
	.st84{fill-rule:evenodd;clip-rule:evenodd;fill:#FFFFFF;}
	.st85{clip-path:url(#SVGID_10_);fill:url(#SVGID_11_);}
	.st86{fill:#D1D2D3;}
	.st87{fill:#D1D3D4;}
	.st88{fill:#231F20;stroke:#FFFFFF;stroke-width:2;stroke-miterlimit:10;}
	.st89{fill:#D39A4F;}
	.st90{opacity:0.13;fill:#221F1F;}
	.st91{fill:#FFFFFF;stroke:#8DC63F;stroke-miterlimit:10;}
	.st92{fill:#D7AB77;}
	.st93{fill:#D7DF23;}
	.st94{fill:url(#SVGID_14_);}
	.st95{fill:url(#SVGID_15_);}
	.st96{fill:url(#SVGID_16_);}
	.st97{fill:url(#SVGID_17_);}
	.st98{fill:url(#SVGID_18_);}
	.st99{fill:url(#SVGID_25_);}
	.st100{fill:url(#SVGID_26_);}
	.st101{fill:url(#SVGID_27_);}
	.st102{fill:url(#SVGID_28_);}
	.st103{fill:url(#SVGID_29_);}
	.st104{fill:url(#SVGID_30_);}
	.st105{fill:url(#SVGID_31_);}
	.st106{fill:url(#SVGID_32_);}
	.st107{fill:url(#SVGID_33_);}
	.st108{fill:url(#SVGID_34_);}
	.st109{fill:url(#SVGID_35_);}
	.st110{fill:url(#SVGID_36_);}
	.st111{fill:url(#SVGID_37_);}
	.st112{fill:url(#SVGID_38_);}
	.st113{clip-path:url(#SVGID_21_);}
	.st114{clip-path:url(#SVGID_40_);}
	.st115{fill:#A31123;}
	.st116{fill:#A6A5A5;}
	.st117{fill:#788E7A;}
	.st118{fill:#A81124;}
	.st119{fill:#A87C51;}
	.st120{fill:#A97C50;}
	.st121{fill:#A9CA78;}
	.st122{fill:#414042;}
	.st123{fill:#424143;}
]]>
</style>
<g>
	<defs>
		<rect id="SVGID_2_" x="1923" y="-335" width="1258" height="258.563"/>
	</defs>
	<clipPath id="SVGID_1_">
		<use xlink:href="#SVGID_2_"  style="overflow:visible;"/>
	</clipPath>
	<g style="clip-path:url(#SVGID_1_);">
		<path class="st92" d="M1671.001-77.417c0,0-156.895-27.031-251.032-107.324L1147.152-68.609l147.301,89.679l383.931-0.923
			L1671.001-77.417z"/>
		<path class="st7" d="M1970.121-4.689c0,0-106.617-14.872-216.254-143.283L1231.394-27.378l314.155,42.05l9.921,41.974
			l397.788,7.113L1970.121-4.689z"/>
	</g>
</g>
<g>
	<defs>
		<rect id="SVGID_39_" width="1258" height="258.563"/>
	</defs>
	<clipPath id="SVGID_3_">
		<use xlink:href="#SVGID_39_"  style="overflow:visible;"/>
	</clipPath>
	<g class="st43">
		<path class="st56" d="M1752.832,206.782c0,0-178.106-54.073-299.202-151.695l-161.845,87.792L997.153,276.468
			c0,0,755.679-20.843,755.679-24.038C1752.832,249.235,1752.832,206.782,1752.832,206.782z"/>
		<path class="st56" d="M676.14,191.004c0,0-135.988-19.119-231.367-92.627c-22.877-17.629-43.429-29.613-62.519-32.502
			c-26.198-3.963-42.807-2.782-60.026,0.267c-23.149,4.095-52.075,25.479-52.075,25.479l-86.65,68.36L-84.848,367.738
			l726.822,62.678L676.14,191.004z"/>
		<ellipse class="st90" cx="355.883" cy="95.025" rx="66.299" ry="22.712"/>
		<ellipse class="st121" cx="354.74" cy="90.695" rx="64.6" ry="22.715"/>
		<path class="st24" d="M366.786,107.954c-0.108-0.974-0.836-1.526-1.605-1.659c-0.141-0.241-0.352-0.423-0.596-0.549
			c-0.236-0.545-0.524-1.06-0.881-1.527c-1.033-1.358-3.238-0.996-3.307,0.895c-0.243,6.804-6.391,10.929-9.705,16.522
			c-2.562-5.832-3.172-12.415-6.155-18.126c-3.806-7.293-8.724-14.351-14.476-20.237c-1.602-1.639-4.109,0.874-2.509,2.511
			c5.62,5.752,10.002,12.526,13.92,19.517c3.15,5.62,3.623,12.23,6.156,18.101c-0.001,0.058-0.012,0.112-0.01,0.171
			c0.126,3.092,1.023,5.773,3.069,7.777c0.324,1.393,0.771,2.757,1.254,4.054c0.319,0.854,0.989,1.292,1.763,1.262
			c0.186,0.116,0.384,0.231,0.608,0.327c3.256,1.418,4.628-2.004,5.485-4.781C363.673,124.348,367.82,117.209,366.786,107.954z"/>
		<path class="st71" d="M343.781,29.312c-0.184-1.144-0.562-2.257-0.962-3.34c-0.244-0.658-0.516-1.308-0.785-1.956
			c-0.377-0.912-0.243-1.307,0.024-2.184c0.671-2.186-1.542-3.119-3.206-3.618c-1.581-0.475-3.626-0.631-5.287-1.279
			c0.412-0.186,0.755-0.457,0.933-0.867c0.43-1.003-0.201-1.864-0.873-2.57c-1.535-1.606-4.067-2.979-6.313-3.545V9.92h-0.117
			c-0.048-0.011-0.1-0.026-0.148-0.038c-0.311-0.487-1.167-0.533-1.464,0.038h-0.401v1.719c-0.804,3.328-2.13,6.942-0.489,10.132
			c0.139,0.271,0.307,0.499,0.489,0.705v57.014c-1.314,0.511-2.147,1.252-2.147,2.078c0,1.541,2.86,2.786,6.389,2.786
			s6.389-1.245,6.389-2.786c0-1.538-2.86-2.784-6.389-2.784c-0.742,0-1.45,0.058-2.111,0.158V23.715
			c1.375,0.419,2.949,0.556,4.18,1.264c-1.367,5.433,9.702,5.631,9.94,10.977c0.036,0.793,1.344,1.057,1.597,0.26
			C343.752,33.944,344.164,31.685,343.781,29.312z"/>
		<g>
			<g>
				<g>
					<g>
						<path class="st27" d="M401.485,82.613c0,0.167-0.136,0.305-0.303,0.305h-0.466c-0.168,0-0.305-0.138-0.305-0.305l-0.152-9.312
							c0-0.168,0.137-0.304,0.305-0.304h0.769c0.168,0,0.304,0.136,0.304,0.304L401.485,82.613z"/>
						<path class="st35" d="M401.182,83.069h-0.466c-0.251,0-0.457-0.204-0.457-0.456l-0.153-9.31c0-0.254,0.207-0.458,0.458-0.458
							h0.769c0.252,0,0.457,0.204,0.457,0.455l-0.153,9.313C401.638,82.865,401.434,83.069,401.182,83.069z M400.565,73.149
							c-0.084,0-0.153,0.068-0.153,0.151l0.153,9.311c0,0.086,0.068,0.153,0.151,0.153h0.466c0.083,0,0.152-0.067,0.152-0.151
							l0.151-9.314c0-0.081-0.067-0.149-0.151-0.149H400.565z"/>
					</g>
					<path class="st35" d="M401.512,73.924c-0.252,0.369-0.782,0.737-1.197,0.908c-0.269,0.112-0.152,0.553,0.121,0.441
						c0.535-0.221,0.929-0.542,1.253-1.018C401.856,74.01,401.677,73.681,401.512,73.924z"/>
					<path class="st35" d="M401.435,76.048c-0.193,0.312-0.751,0.548-1.073,0.685c-0.27,0.115-0.037,0.51,0.231,0.395
						c0.405-0.172,0.804-0.351,1.045-0.742C401.792,76.134,401.588,75.795,401.435,76.048z"/>
					<path class="st35" d="M401.368,78.017c-0.275,0.2-0.706,0.487-1.002,0.57c-0.283,0.08-0.162,0.521,0.121,0.439
						c0.416-0.117,0.796-0.313,1.101-0.661C401.779,78.143,401.638,77.817,401.368,78.017z"/>
					<path class="st35" d="M401.338,79.979c-0.294,0.236-0.603,0.439-0.94,0.586c-0.241,0.105-0.136,0.548,0.107,0.441
						c0.37-0.162,0.713-0.374,1.038-0.633C401.755,80.206,401.553,79.809,401.338,79.979z"/>
					<path class="st35" d="M400.486,82.377c0.427-0.061,0.811-0.175,1.05-0.561c0.155-0.253-0.041-0.59-0.195-0.339
						c-0.169,0.274-0.681,0.417-0.976,0.458"/>
				</g>
				<g>
					<path class="st64" d="M404.016,71.559c-0.012-0.52-0.184-0.953-0.452-1.357c0.002-0.02,0.005-0.038,0.005-0.058
						c-0.019-1-0.276-1.979-0.224-2.98c0.004-0.083-0.021-0.145-0.064-0.189c-0.008-0.055-0.035-0.11-0.093-0.158
						c-1.316-1.083-3.683-1.015-4.687,0.465c-0.166-0.043-0.358,0.038-0.334,0.254c0.177,1.578-0.37,3.066-0.522,4.622
						c-0.013,0.122,0.048,0.202,0.132,0.242c-0.018,0.659,0.194,1.433,0.943,1.523c0.391,0.045,0.651-0.142,0.816-0.422
						c0.181,0.291,0.491,0.412,0.847,0.425c0.539,0.02,0.854-0.28,1.024-0.685c0.154,0.231,0.36,0.409,0.632,0.457
						c0.364,0.065,0.599-0.123,0.749-0.402c0.234,0.267,0.614,0.284,0.949,0.174c0.083-0.029,0.179-0.1,0.195-0.196
						c0.074-0.494,0.084-0.99,0.084-1.489c0-0.041-0.008-0.076-0.02-0.108C404.009,71.642,404.018,71.602,404.016,71.559z"/>
					<path class="st35" d="M398.837,74.08c-0.044,0-0.089-0.003-0.137-0.008c-0.793-0.096-1.074-0.869-1.076-1.593
						c-0.096-0.078-0.145-0.201-0.13-0.338c0.054-0.56,0.16-1.111,0.262-1.648c0.192-1.001,0.372-1.945,0.259-2.94
						c-0.017-0.151,0.04-0.249,0.089-0.307c0.077-0.086,0.199-0.134,0.327-0.129c0.55-0.749,1.503-1.193,2.575-1.193
						c0.851,0,1.683,0.283,2.28,0.775c0.07,0.057,0.115,0.127,0.136,0.207c0.056,0.075,0.082,0.165,0.076,0.264
						c-0.029,0.551,0.04,1.113,0.107,1.656c0.053,0.428,0.109,0.87,0.118,1.314c0,0.008,0,0.016-0.001,0.022
						c0.293,0.458,0.435,0.902,0.447,1.393c0.001,0.04-0.004,0.081-0.015,0.119c0.01,0.035,0.015,0.072,0.015,0.108
						c0,0.479-0.007,0.994-0.086,1.513c-0.026,0.169-0.177,0.276-0.298,0.316c-0.143,0.048-0.286,0.07-0.423,0.07l0,0
						c-0.208,0-0.391-0.053-0.539-0.158c-0.208,0.274-0.458,0.337-0.643,0.337c-0.055,0-0.11-0.005-0.166-0.015
						c-0.217-0.038-0.411-0.146-0.578-0.327c-0.233,0.384-0.592,0.578-1.057,0.558c-0.354-0.013-0.638-0.125-0.834-0.323
						C399.359,73.969,399.119,74.08,398.837,74.08z M398.414,67.422c-0.034,0-0.066,0.01-0.082,0.027
						c-0.014,0.015-0.018,0.037-0.014,0.068c0.117,1.042-0.075,2.055-0.263,3.031c-0.102,0.53-0.205,1.078-0.259,1.621
						c-0.006,0.058,0.018,0.077,0.043,0.088l0.094,0.042l-0.002,0.102c-0.009,0.298,0.023,1.273,0.806,1.367
						c0.295,0.037,0.511-0.078,0.669-0.347l0.127-0.217l0.133,0.216c0.135,0.222,0.378,0.34,0.722,0.351
						c0.416,0.015,0.708-0.184,0.878-0.591l0.109-0.262l0.156,0.236c0.15,0.226,0.329,0.354,0.533,0.394
						c0.255,0.044,0.445-0.062,0.588-0.326l0.105-0.193l0.145,0.164c0.133,0.152,0.322,0.186,0.456,0.186
						c0.104,0,0.217-0.019,0.329-0.056c0.048-0.016,0.088-0.053,0.091-0.073c0.076-0.497,0.083-0.998,0.083-1.467
						c0-0.021-0.002-0.035-0.009-0.053l-0.023-0.057l0.025-0.058c0.005-0.017,0.008-0.034,0.008-0.053
						c-0.009-0.445-0.145-0.854-0.426-1.279l-0.033-0.05l0.01-0.059c0.001-0.01,0.002-0.02,0.002-0.029
						c-0.008-0.428-0.062-0.863-0.114-1.284c-0.068-0.556-0.141-1.13-0.108-1.708c0.001-0.044-0.013-0.062-0.024-0.075l-0.036-0.037
						l-0.005-0.051c-0.001-0.007-0.002-0.029-0.038-0.058c-0.542-0.449-1.302-0.704-2.085-0.704c-1.007,0-1.896,0.423-2.378,1.137
						l-0.062,0.09l-0.104-0.027C398.447,67.424,398.43,67.422,398.414,67.422z"/>
				</g>
				<g>
					<path class="st5" d="M399.273,48.245c0,0,2.217,2.543,2.826,5.756c0.609,3.21,1.421,15.311,1.421,15.311h-5.982l-0.752-7.247
						V51.933l0.752-3.446L399.273,48.245z"/>
					<path class="st35" d="M403.681,69.465H397.4l-0.769-7.4V51.915l0.78-3.564l1.922-0.269l0.053,0.064
						c0.022,0.025,2.251,2.611,2.861,5.824c0.604,3.186,1.415,15.211,1.424,15.33L403.681,69.465z M397.676,69.16h5.681
						c-0.099-1.454-0.846-12.168-1.408-15.132c-0.542-2.858-2.402-5.211-2.74-5.62l-1.546,0.216l-0.728,3.326v10.107L397.676,69.16z
						"/>
				</g>
				<g class="st19">
					<g>
						<path class="st35" d="M409.325,112.087c2.572,3.843,12.849,17.988,15.677,21.895c2.75,3.789,5.559,7.562,8.401,11.32
							c-0.754-0.302-1.362-0.285-1.84-0.169c-0.961,0.225-1.542,0.937-2.206,1.531c-0.761,0.7-1.773,1.106-2.701,1.604l-2.8,1.505
							c-3.808-4.342-7.649-8.668-11.553-12.978c-4.222-4.655-19.587-21.656-24.063-26.344c-1.885-1.97-6.235-5.633-6.211-7.026
							c-0.133-0.138-0.262-0.272-0.389-0.409c-1.438-1.548-0.098-1.688,0.503-1.739c0.58-0.046,1.25,0.006,1.937,0.075
							c-0.832-0.63-1.595-1.376-2.108-2.131c-0.028-0.027-0.049-0.049-0.077-0.081c-0.167-0.2-0.277-0.369-0.345-0.515
							c-0.4-0.451-0.727-0.884-0.658-1.104c0.003-0.014,0.01-0.024,0.014-0.035c-0.003-0.014-0.009-0.028-0.009-0.04
							c0.145-0.662,1.335-0.553,2.271-0.46c0.41,0.04,0.914,0.103,1.483,0.257c0.775,0.1,1.685,0.401,2.873,1.214
							c0.231,0.122,0.461,0.294,0.689,0.506c0.055,0.043,0.109,0.084,0.166,0.13c0.094,0.075,0.169,0.172,0.192,0.233
							c0.717,0.797,1.375,1.892,1.796,2.71c0.829,0.109,1.66,0.224,2.492,0.338c0.076,0.009,0.157,0.022,0.234,0.031
							c-0.567-0.586-1.14-1.169-1.716-1.759c-0.244-0.25-0.381-0.452-0.472-0.636c-0.103-0.073-0.21-0.189-0.235-0.263
							c-0.365-1.095,0.311-1.241,1.305-1.069c0.442,0.002,0.973,0.098,1.423,0.186c1.021,0.198,2.346,0.467,3.72,1.288
							c0.024,0.015,0.041,0.027,0.058,0.041c0.026,0.014,0.053,0.027,0.081,0.044c0.453,0.259,0.8,0.628,1.091,1.001
							c0.047,0.047,0.09,0.092,0.135,0.139c0.141,0.125,0.276,0.261,0.399,0.411c0.062,0.075,0.078,0.128,0.068,0.162
							c0.333,0.479,0.51,0.927,0.607,1.318c0.044,0.033,0.083,0.07,0.118,0.11c0.284,0.044,0.568,0.088,0.854,0.134
							c1.281,0.203,2.992,0.391,4.628,2.365c0.354,0.426,0.64,0.85,0.892,1.264C407.559,108.639,408.445,110.765,409.325,112.087z"
							/>
					</g>
				</g>
				<g>
					<path class="st119" d="M386.671,94.626c-1.346,0.39-2.578,0.609-3.977,0.43c-0.594-0.077-2.158-0.16-2.59-0.802
						c0.016-0.158,0.045-0.313,0.058-0.43c0.019-0.193-0.283-0.223-0.304-0.027c0,0.003,0,0.005,0,0.005
						c-0.082,0.006-0.168,0.067-0.164,0.174c0.008,0.144,0.049,0.269,0.112,0.379c-0.009,0.317,0.046,0.632,0.328,0.82
						c0.017,0.012,0.033,0.021,0.049,0.03c0.008,0.012,0.015,0.021,0.027,0.03c0.776,0.569,1.963,0.647,2.886,0.701
						c0.405,0.022,0.891,0.042,1.365-0.008c0.914,0.032,1.77-0.172,2.361-1.065C386.888,94.763,386.809,94.586,386.671,94.626z"/>
					<path class="st35" d="M383.808,96.112c-0.261,0-0.511-0.013-0.72-0.025c-0.905-0.051-2.14-0.123-2.967-0.729
						c-0.018-0.011-0.029-0.025-0.039-0.036c-0.01-0.007-0.021-0.013-0.032-0.02c-0.355-0.239-0.401-0.626-0.396-0.912
						c-0.066-0.129-0.104-0.264-0.11-0.405c-0.009-0.15,0.08-0.259,0.192-0.309c0.048-0.101,0.15-0.166,0.273-0.166
						c0.089,0,0.175,0.038,0.232,0.101c0.055,0.061,0.08,0.143,0.071,0.229c-0.006,0.055-0.013,0.117-0.022,0.184
						c-0.011,0.06-0.019,0.121-0.027,0.188c0.377,0.468,1.547,0.594,2.183,0.662c0.103,0.012,0.194,0.021,0.269,0.03
						c0.322,0.042,0.649,0.064,0.971,0.064c0.883,0,1.763-0.147,2.943-0.487c0.131-0.038,0.264,0.021,0.331,0.144
						c0.056,0.104,0.052,0.231-0.01,0.324c-0.512,0.773-1.247,1.134-2.312,1.134l0,0c-0.057,0-0.113,0-0.171-0.002
						C384.264,96.102,384.05,96.112,383.808,96.112z M380.308,95.117c0.756,0.55,1.936,0.617,2.796,0.666
						c0.206,0.013,0.449,0.024,0.704,0.024c0.235,0,0.442-0.012,0.636-0.03l0.011-0.002h0.01c0.058,0.002,0.114,0.003,0.171,0.003
						c0.955,0,1.607-0.317,2.059-0.998v-0.003c-1.199,0.345-2.1,0.492-3.009,0.492c-0.335,0-0.674-0.021-1.01-0.064
						c-0.073-0.008-0.162-0.019-0.261-0.03c-0.755-0.079-2.018-0.216-2.435-0.837l-0.031-0.046l0.006-0.056
						c0.008-0.088,0.021-0.178,0.033-0.258c0.001-0.008,0.002-0.018,0.004-0.025l-0.125,0.002c-0.008,0-0.018,0.005-0.019,0.008
						c0.006,0.115,0.036,0.216,0.092,0.316l0.021,0.036l-0.002,0.044c-0.009,0.35,0.071,0.561,0.262,0.689
						c0.006,0.005,0.014,0.008,0.02,0.013l0.046,0.027L380.308,95.117z"/>
				</g>
				<g>
					<path class="st64" d="M386.415,94.236c-0.062-0.098-0.153-0.171-0.215-0.273c-0.167-0.286-0.306-0.553-0.664-0.611
						c-0.125-0.022-0.282-0.034-0.396,0.035c-0.141,0.081-0.189,0.271-0.286,0.393c-0.07,0.088-0.156,0.164-0.217,0.261
						c-0.085,0.139-0.143,0.292-0.14,0.456c-0.115,0.424,0.47,0.561,0.763,0.583c0.25,0.018,0.501-0.013,0.733-0.111
						c0.188-0.08,0.271-0.2,0.382-0.361c0.054-0.078,0.081-0.177,0.073-0.271C386.444,94.294,386.432,94.264,386.415,94.236z"/>
					<path class="st35" d="M385.395,95.235L385.395,95.235c-0.048,0-0.096,0-0.146-0.005c-0.101-0.008-0.621-0.059-0.831-0.357
						c-0.083-0.115-0.108-0.251-0.074-0.396c0.003-0.173,0.058-0.347,0.164-0.518c0.044-0.072,0.096-0.13,0.146-0.184
						c0.028-0.03,0.055-0.06,0.08-0.091c0.026-0.034,0.051-0.079,0.078-0.128c0.059-0.109,0.125-0.229,0.25-0.304
						c0.122-0.072,0.273-0.091,0.5-0.053c0.409,0.067,0.58,0.359,0.745,0.641l0.024,0.043c0.025,0.041,0.061,0.083,0.098,0.124
						c0.038,0.044,0.077,0.09,0.113,0.145c0.034,0.051,0.051,0.106,0.057,0.171c0.01,0.127-0.026,0.26-0.099,0.367
						c-0.118,0.171-0.219,0.317-0.449,0.417C385.853,95.192,385.63,95.235,385.395,95.235z M385.361,93.487
						c-0.062,0-0.11,0.01-0.144,0.028c-0.054,0.033-0.095,0.107-0.138,0.188c-0.031,0.057-0.063,0.116-0.106,0.169
						c-0.028,0.038-0.062,0.075-0.094,0.108c-0.043,0.048-0.084,0.093-0.113,0.139c-0.08,0.13-0.12,0.254-0.118,0.376l0.001,0.021
						l-0.005,0.021c-0.018,0.065-0.013,0.115,0.02,0.161c0.097,0.135,0.382,0.213,0.606,0.229c0.238,0.02,0.466-0.013,0.663-0.098
						c0.148-0.063,0.211-0.156,0.317-0.31c0.034-0.048,0.05-0.113,0.045-0.169c-0.001-0.021-0.005-0.027-0.007-0.03
						c-0.024-0.035-0.054-0.072-0.088-0.108c-0.042-0.049-0.092-0.104-0.131-0.171l-0.026-0.045c-0.167-0.288-0.274-0.45-0.53-0.494
						C385.452,93.49,385.405,93.487,385.361,93.487z"/>
				</g>
				<g>
					<g>
						<path class="st64" d="M384.21,93.402c-0.263-1.209-2.166-1.137-3.089-0.799c-0.592,0.216-1.047,1.095-0.754,1.674
							c0.257,0.503,0.693,0.639,1.085,0.354c0.052,0.082,0.121,0.155,0.216,0.218c0.26,0.169,0.537,0.137,0.686-0.055
							c0.066,0.113,0.165,0.213,0.302,0.224c0.158,0.013,0.286-0.096,0.386-0.217c0.074,0.136,0.182,0.239,0.344,0.271
							c0.208,0.04,0.433-0.123,0.584-0.293c0.003-0.003,0.006-0.005,0.01-0.006c0.162-0.12,0.225-0.302,0.268-0.485
							C384.313,94.006,384.287,93.684,384.21,93.402z"/>
						<path class="st35" d="M383.454,95.232L383.454,95.232c-0.032,0-0.063-0.003-0.094-0.01c-0.131-0.026-0.244-0.089-0.334-0.187
							c-0.12,0.103-0.244,0.146-0.38,0.134c-0.088-0.008-0.203-0.041-0.311-0.151c-0.205,0.134-0.5,0.121-0.748-0.043
							c-0.065-0.043-0.121-0.088-0.169-0.143c-0.123,0.064-0.25,0.098-0.376,0.098c-0.325,0-0.619-0.214-0.809-0.584
							c-0.145-0.285-0.145-0.641-0.002-1.003c0.164-0.414,0.485-0.754,0.839-0.884c0.383-0.141,0.889-0.224,1.351-0.224
							c1.076,0,1.783,0.412,1.94,1.134c0.089,0.329,0.102,0.671,0.038,0.952c-0.046,0.198-0.121,0.422-0.325,0.573
							C383.969,95.008,383.73,95.232,383.454,95.232z M383.065,94.53l0.11,0.197c0.062,0.114,0.139,0.175,0.242,0.195
							c0.013,0.003,0.023,0.003,0.036,0.003l0,0c0.114,0,0.268-0.094,0.404-0.247l0.041-0.034c0.119-0.086,0.168-0.239,0.203-0.391
							c0.054-0.233,0.041-0.521-0.038-0.812c-0.178-0.814-1.207-0.902-1.644-0.902c-0.43,0-0.896,0.078-1.247,0.206
							c-0.27,0.099-0.53,0.377-0.661,0.709c-0.108,0.276-0.111,0.551-0.008,0.752c0.208,0.411,0.544,0.53,0.858,0.302l0.131-0.096
							l0.087,0.136c0.043,0.07,0.1,0.125,0.173,0.173c0.182,0.12,0.38,0.11,0.483-0.02l0.139-0.176l0.112,0.193
							c0.054,0.093,0.115,0.143,0.183,0.147c0.001,0,0.001,0,0.001,0c0.086,0,0.165-0.053,0.252-0.162L383.065,94.53z"/>
					</g>
					<g>
						<line class="st64" x1="381.453" y1="94.632" x2="381.503" y2="93.931"/>
						
							<rect x="381.326" y="93.932" transform="matrix(0.9973 0.0736 -0.0736 0.9973 7.9782 -27.8345)" class="st35" width="0.305" height="0.701"/>
					</g>
					<g>
						<line class="st64" x1="382.355" y1="94.795" x2="382.409" y2="93.899"/>
						
							<rect x="382.231" y="93.901" transform="matrix(0.9983 0.0577 -0.0577 0.9983 6.0797 -21.9021)" class="st35" width="0.305" height="0.896"/>
					</g>
					<g>
						<line class="st64" x1="383.073" y1="94.851" x2="383.183" y2="93.988"/>
						
							<rect x="382.976" y="93.985" transform="matrix(0.9921 0.1256 -0.1256 0.9921 14.8961 -47.3807)" class="st35" width="0.303" height="0.869"/>
					</g>
				</g>
				<path class="st35" d="M386.139,94.355c-0.353-0.282-1-0.145-1.388,0.047c-0.057,0.028-0.018,0.088,0.037,0.083
					c0.006,0.025,0.036,0.048,0.079,0.041c0.406-0.056,0.821-0.053,1.23-0.089C386.154,94.431,386.176,94.385,386.139,94.355z
					 M385.941,94.357c-0.336,0.022-0.673,0.03-1.008,0.072C385.237,94.305,385.654,94.22,385.941,94.357z"/>
				<g>
					<path class="st119" d="M385.824,92.581c-0.08-0.065-0.183-0.116-0.292-0.146c-1.598-0.448-3.617-0.53-5.192,0.01
						c-0.037,0.011-0.061,0.035-0.079,0.062c-0.12,0.063-0.087,0.287,0.081,0.285c0.363-0.001,0.726,0,1.078,0.027
						c0.032,0.012,0.068,0.017,0.106,0.008c1.216,0.107,2.271,0.512,2.654,1.944c0.047,0.18,0.283,0.104,0.296-0.053
						c0.035-0.392,0.133-0.844,0.509-1.048c0.126-0.069,0.267-0.096,0.403-0.138c0.231-0.07,0.457,0.088,0.65,0.191
						c0.067,0.035,0.173,0.015,0.206-0.063C386.479,93.104,386.228,92.769,385.824,92.581z"/>
					<path class="st35" d="M384.306,95.028c-0.13,0-0.237-0.088-0.272-0.219c-0.306-1.151-1.055-1.698-2.501-1.829
						c-0.05,0.007-0.096,0.004-0.142-0.011c-0.241-0.018-0.508-0.025-0.844-0.025l-0.204,0.001c-0.142,0-0.261-0.091-0.295-0.229
						c-0.031-0.125,0.014-0.251,0.109-0.321c0.035-0.045,0.08-0.076,0.134-0.096c0.735-0.249,1.611-0.383,2.539-0.383
						c0.93,0,1.878,0.127,2.744,0.372c0.127,0.036,0.241,0.092,0.332,0.162c0.544,0.263,0.714,0.711,0.481,1.27
						c-0.044,0.105-0.152,0.175-0.275,0.175l0,0c-0.051,0-0.101-0.013-0.145-0.037c-0.026-0.013-0.053-0.028-0.083-0.045
						c-0.155-0.086-0.317-0.174-0.45-0.134c-0.036,0.011-0.075,0.021-0.112,0.032c-0.094,0.026-0.183,0.053-0.261,0.094
						c-0.251,0.136-0.386,0.43-0.431,0.927C384.615,94.896,384.471,95.028,384.306,95.028z M381.497,92.674l0.043,0.002
						c1.064,0.094,2.339,0.409,2.782,2.038c0.003-0.004,0.005-0.005,0.005-0.009c0.032-0.381,0.13-0.919,0.586-1.167
						c0.109-0.061,0.221-0.091,0.329-0.121c0.034-0.008,0.067-0.018,0.102-0.029c0.053-0.016,0.108-0.025,0.165-0.025
						c0.198,0,0.371,0.1,0.523,0.186c0.027,0.016,0.053,0.028,0.079,0.041c0.165-0.405,0.053-0.682-0.351-0.87l-0.033-0.021
						c-0.061-0.05-0.145-0.091-0.235-0.117c-0.842-0.236-1.761-0.362-2.663-0.362c-0.893,0-1.737,0.128-2.439,0.369l-0.022,0.033
						l-0.034,0.02h0.213c0.352,0,0.634,0.008,0.885,0.027l0.046,0.01L381.497,92.674z"/>
				</g>
				<g>
					<path class="st119" d="M388.879,94.378c1.334,0.427,2.56,0.683,3.963,0.542c0.595-0.06,2.161-0.096,2.612-0.729
						c-0.011-0.158-0.036-0.313-0.044-0.428c-0.013-0.197,0.29-0.213,0.304-0.02c0.001,0.002,0.001,0.005,0.001,0.007
						c0.082,0.006,0.166,0.071,0.158,0.177c-0.012,0.144-0.058,0.266-0.122,0.374c0,0.319-0.065,0.631-0.353,0.812
						c-0.015,0.011-0.032,0.021-0.05,0.028c-0.008,0.013-0.015,0.021-0.027,0.03c-0.793,0.546-1.981,0.591-2.904,0.616
						c-0.406,0.012-0.892,0.018-1.364-0.046c-0.915,0.006-1.766-0.223-2.33-1.131C388.659,94.508,388.745,94.333,388.879,94.378z"/>
					<path class="st35" d="M391.973,95.949c-0.354,0-0.659-0.019-0.929-0.056h-0.026c-1.143,0-1.913-0.382-2.423-1.202
						c-0.059-0.093-0.059-0.221-0.003-0.321c0.067-0.123,0.205-0.179,0.335-0.139c1.256,0.404,2.196,0.575,3.146,0.575
						c0.25,0,0.503-0.014,0.754-0.039c0.076-0.008,0.166-0.014,0.27-0.022c0.638-0.051,1.812-0.142,2.2-0.601
						c-0.005-0.063-0.012-0.127-0.019-0.187c-0.008-0.065-0.015-0.131-0.019-0.184c-0.006-0.086,0.021-0.164,0.076-0.222
						c0.057-0.062,0.141-0.098,0.229-0.098c0.125,0,0.229,0.068,0.278,0.173c0.111,0.053,0.196,0.164,0.184,0.312
						c-0.011,0.144-0.051,0.274-0.121,0.402c-0.005,0.286-0.062,0.671-0.423,0.899c-0.011,0.006-0.022,0.013-0.033,0.02
						c-0.011,0.013-0.025,0.025-0.043,0.038c-0.84,0.579-2.079,0.614-2.983,0.641C392.28,95.945,392.129,95.949,391.973,95.949z
						 M391.062,95.59h0.011c0.259,0.035,0.554,0.053,0.899,0.053c0.153,0,0.301-0.003,0.44-0.008
						c0.863-0.023,2.045-0.058,2.815-0.584l0.011-0.012l0.08-0.054c0.193-0.123,0.28-0.334,0.28-0.684V94.26l0.022-0.036
						c0.059-0.1,0.092-0.198,0.1-0.307c-0.001-0.01-0.009-0.015-0.019-0.015l-0.125-0.013c0.002,0.011,0.003,0.022,0.004,0.033
						c0.009,0.082,0.02,0.169,0.025,0.259l0.004,0.055l-0.031,0.044c-0.435,0.609-1.702,0.71-2.457,0.769
						c-0.101,0.008-0.188,0.015-0.264,0.022c-0.26,0.025-0.525,0.038-0.784,0.038c-0.977,0-1.941-0.174-3.219-0.581
						c0,0-0.002,0.005,0,0.007c0.454,0.728,1.122,1.055,2.164,1.055H391.062z"/>
				</g>
				<g>
					<path class="st64" d="M389.144,93.992c0.05-0.079,0.135-0.135,0.192-0.208c0.054-0.07,0.097-0.146,0.142-0.219
						c0.145-0.238,0.32-0.41,0.609-0.435c0.134-0.011,0.296-0.011,0.404,0.081c0.116,0.098,0.14,0.268,0.237,0.382
						c0.167,0.201,0.34,0.427,0.342,0.701c0.003,0.278-0.19,0.463-0.449,0.529c-0.167,0.039-0.364,0.057-0.537,0.046
						c-0.336-0.022-0.821-0.165-0.942-0.523c-0.029-0.082-0.039-0.185-0.027-0.271C389.119,94.04,389.13,94.014,389.144,93.992z"/>
					<path class="st35" d="M390.191,95.025c-0.04,0-0.078,0-0.117-0.004c-0.407-0.027-0.935-0.206-1.076-0.624
						c-0.038-0.11-0.05-0.235-0.035-0.345c0.007-0.053,0.025-0.101,0.051-0.143c0.039-0.059,0.086-0.105,0.128-0.144
						c0.028-0.025,0.055-0.051,0.072-0.075c0.04-0.053,0.076-0.11,0.111-0.171l0.02-0.033c0.123-0.203,0.332-0.477,0.727-0.508
						c0.041-0.004,0.08-0.005,0.123-0.005c0.168,0,0.296,0.041,0.393,0.123c0.089,0.076,0.137,0.174,0.176,0.26
						c0.026,0.055,0.05,0.104,0.079,0.14c0.189,0.228,0.375,0.478,0.379,0.797c0.004,0.33-0.213,0.589-0.566,0.677
						C390.515,95.006,390.348,95.025,390.191,95.025z M390.197,93.277c-0.033,0-0.066,0.004-0.098,0.007
						c-0.203,0.016-0.346,0.12-0.491,0.361l-0.019,0.031c-0.041,0.065-0.082,0.135-0.131,0.198c-0.033,0.045-0.072,0.08-0.104,0.112
						c-0.034,0.03-0.063,0.061-0.082,0.089c0,0.002-0.004,0.005-0.006,0.02c-0.008,0.063,0,0.137,0.021,0.202
						c0.102,0.298,0.556,0.404,0.809,0.421c0.158,0.009,0.338-0.007,0.489-0.044c0.103-0.025,0.339-0.113,0.335-0.378
						c-0.003-0.219-0.148-0.414-0.309-0.605c-0.055-0.065-0.089-0.139-0.12-0.204c-0.032-0.065-0.059-0.126-0.099-0.158
						C390.354,93.295,390.289,93.277,390.197,93.277z"/>
				</g>
				<g>
					<g>
						<path class="st64" d="M391.375,93.227c0.299-1.202,2.198-1.076,3.111-0.714c0.585,0.233,1.016,1.126,0.705,1.696
							c-0.272,0.496-0.712,0.619-1.095,0.324c-0.054,0.08-0.125,0.15-0.221,0.209c-0.266,0.165-0.54,0.125-0.686-0.072
							c-0.068,0.112-0.169,0.206-0.309,0.215c-0.157,0.009-0.281-0.103-0.377-0.228c-0.102,0.171-0.288,0.298-0.49,0.256
							c-0.19-0.04-0.322-0.177-0.453-0.307c-0.142-0.141-0.211-0.304-0.25-0.498C391.256,93.824,391.291,93.505,391.375,93.227z"/>
						<path class="st35" d="M392.093,95.073c-0.038,0-0.075-0.005-0.11-0.012c-0.227-0.048-0.382-0.201-0.517-0.337l-0.013-0.011
							c-0.149-0.15-0.241-0.333-0.292-0.575c-0.056-0.283-0.033-0.623,0.067-0.958c0.17-0.679,0.847-1.072,1.856-1.072
							c0.499,0,1.045,0.1,1.459,0.264c0.351,0.141,0.664,0.489,0.814,0.909c0.132,0.365,0.121,0.722-0.033,0.999
							c-0.195,0.358-0.488,0.564-0.803,0.564c-0.133,0-0.268-0.038-0.396-0.108c-0.049,0.051-0.107,0.096-0.172,0.137
							c-0.253,0.155-0.545,0.161-0.75,0.021c-0.112,0.107-0.227,0.138-0.314,0.143l-0.026,0.002c-0.125,0-0.242-0.05-0.352-0.147
							C392.394,95.006,392.244,95.073,392.093,95.073z M393.084,92.414c-0.504,0-1.378,0.11-1.563,0.848
							c-0.086,0.296-0.108,0.583-0.062,0.817c0.039,0.186,0.101,0.311,0.208,0.417l0.011,0.013c0.118,0.117,0.225,0.224,0.365,0.254
							c0.116,0.024,0.25-0.051,0.328-0.185l0.115-0.193l0.137,0.179c0.086,0.113,0.165,0.169,0.239,0.169
							c0.077-0.003,0.141-0.053,0.196-0.142l0.118-0.192l0.133,0.181c0.101,0.135,0.298,0.148,0.482,0.035
							c0.073-0.046,0.132-0.101,0.178-0.167l0.09-0.133l0.128,0.098c0.308,0.237,0.648,0.127,0.868-0.276
							c0.109-0.198,0.113-0.473,0.013-0.753c-0.12-0.335-0.372-0.621-0.64-0.728C394.05,92.505,393.548,92.414,393.084,92.414z"/>
					</g>
					<g>
						<line class="st64" x1="394.096" y1="94.533" x2="394.066" y2="93.83"/>
						
							<rect x="393.73" y="94.03" transform="matrix(0.0431 0.9991 -0.9991 0.0431 471.2008 -303.5913)" class="st35" width="0.703" height="0.303"/>
					</g>
					<g>
						<line class="st64" x1="393.189" y1="94.67" x2="393.161" y2="93.774"/>
						
							<rect x="392.727" y="94.07" transform="matrix(0.0305 0.9995 -0.9995 0.0305 475.3805 -301.6416)" class="st35" width="0.898" height="0.304"/>
					</g>
					<g>
						<line class="st64" x1="392.471" y1="94.705" x2="392.385" y2="93.84"/>
						
							<rect x="391.993" y="94.121" transform="matrix(0.0993 0.9951 -0.9951 0.0993 447.2747 -305.5762)" class="st35" width="0.871" height="0.304"/>
					</g>
				</g>
				<path class="st35" d="M389.459,94.204c0.41,0.05,0.823,0.06,1.229,0.128c0.042,0.006,0.072-0.017,0.078-0.04
					c0.056,0.005,0.098-0.056,0.041-0.085c-0.383-0.201-1.025-0.359-1.386-0.084C389.382,94.151,389.403,94.197,389.459,94.204z
					 M390.624,94.229c-0.333-0.051-0.67-0.067-1.006-0.101C389.91,94.001,390.324,94.097,390.624,94.229z"/>
				<g>
					<path class="st119" d="M389.34,93.422c0.013,0.014,0.028,0.026,0.043,0.04c0.172,0.129,0.416-0.115,0.587-0.15
						c0.106-0.02,0.204,0.015,0.306,0.036c0.382,0.087,0.659,0.392,0.742,0.767c0.022,0.105,0.033,0.211,0.045,0.316
						c0.006,0.067,0.008,0.147,0.051,0.205c0.02,0.021,0.124,0.021,0.152,0.016c0.053-0.013,0.086-0.05,0.114-0.096
						c0.081-0.128,0.101-0.291,0.159-0.43c0.092-0.229,0.276-0.445,0.44-0.631c0.317-0.357,0.801-0.533,1.25-0.651
						c0.275-0.074,0.563-0.1,0.847-0.117c0.038,0.01,0.074,0.007,0.105-0.006c0.354-0.015,0.716-0.008,1.079,0.006
						c0.169,0.007,0.207-0.217,0.088-0.285c-0.015-0.026-0.038-0.052-0.075-0.064c-1.559-0.584-3.581-0.561-5.19-0.158
						c-0.108,0.027-0.212,0.075-0.294,0.14c-0.175,0.136-0.379,0.189-0.478,0.411C389.237,92.937,389.21,93.26,389.34,93.422z"/>
					<path class="st35" d="M391.212,94.807c-0.106,0-0.177-0.024-0.217-0.079c-0.065-0.083-0.074-0.182-0.082-0.254l-0.005-0.051
						c-0.01-0.096-0.019-0.187-0.039-0.274c-0.073-0.331-0.312-0.582-0.625-0.65c-0.023-0.005-0.043-0.01-0.065-0.016
						c-0.068-0.017-0.124-0.032-0.18-0.021c-0.034,0.006-0.095,0.039-0.148,0.068c-0.106,0.058-0.225,0.121-0.352,0.121l0,0
						c-0.078,0-0.147-0.023-0.208-0.07c-0.025-0.018-0.048-0.038-0.068-0.065c-0.181-0.221-0.139-0.611-0.054-0.807
						c0.088-0.199,0.242-0.292,0.377-0.375c0.052-0.032,0.102-0.062,0.147-0.098c0.095-0.073,0.217-0.131,0.351-0.164
						c0.778-0.195,1.63-0.299,2.465-0.299c1.039,0,2.011,0.16,2.815,0.462c0.054,0.021,0.099,0.053,0.133,0.099
						c0.09,0.072,0.131,0.198,0.099,0.317c-0.036,0.14-0.149,0.229-0.292,0.229c-0.274-0.01-0.476-0.014-0.661-0.014
						c-0.134,0-0.267,0.001-0.398,0.008c-0.045,0.011-0.093,0.013-0.141,0.006c-0.262,0.017-0.538,0.04-0.799,0.11
						c-0.387,0.104-0.871,0.267-1.173,0.605c-0.164,0.187-0.332,0.383-0.415,0.586c-0.019,0.048-0.034,0.103-0.049,0.151
						c-0.029,0.101-0.06,0.206-0.121,0.304c-0.02,0.032-0.082,0.133-0.211,0.163C391.27,94.805,391.234,94.807,391.212,94.807z
						 M390.037,93.153c0.08,0,0.151,0.018,0.216,0.033l0.055,0.015c0.432,0.094,0.76,0.433,0.858,0.883
						c0.023,0.103,0.034,0.206,0.045,0.307l0.005,0.057c0.001,0.014,0.003,0.036,0.005,0.054c0.006,0,0.008,0,0.012,0
						c-0.002,0,0.004-0.005,0.017-0.025c0.038-0.062,0.061-0.143,0.086-0.227c0.018-0.062,0.036-0.123,0.06-0.181
						c0.1-0.248,0.285-0.468,0.467-0.674c0.356-0.401,0.895-0.585,1.324-0.698c0.292-0.078,0.595-0.105,0.877-0.121l0.023-0.002
						l0.021,0.005l0.021-0.008h0.042c0.143-0.006,0.287-0.01,0.432-0.01c0.19,0,0.393,0.004,0.66,0.013l-0.036-0.019l-0.013-0.035
						c-0.768-0.289-1.705-0.441-2.706-0.441c-0.81,0-1.638,0.101-2.392,0.289c-0.091,0.022-0.176,0.062-0.239,0.11
						c-0.059,0.047-0.118,0.082-0.175,0.117c-0.114,0.07-0.205,0.126-0.254,0.237c-0.062,0.141-0.07,0.396,0.009,0.49
						c0.005,0.007,0.011,0.013,0.016,0.018c0.031,0.022,0.141-0.028,0.231-0.078c0.076-0.04,0.154-0.083,0.234-0.099
						C389.973,93.156,390.005,93.153,390.037,93.153z"/>
				</g>
				<g>
					<path class="st5" d="M376.19,48.886c1.08,0.274,1.492,1.146,1.73,2.139c0.596,1.373,0.921,2.909,1.117,4.344
						c0.206,1.48,0.619,3.686-0.93,4.6c-0.504,0.295-1.041,0.446-1.597,0.562c-0.072,0.017-0.141,0.032-0.21,0.043
						c-0.088,0.018-0.178,0.034-0.265,0.05c-0.787,0.147-1.816,0.401-2.572,0.021c-0.677-0.34-1.122-1.183-1.562-1.775
						c-0.334-0.452-0.623-0.932-0.892-1.422c-0.322-0.485-0.626-0.988-0.854-1.52c-0.031-0.044-0.053-0.095-0.069-0.149
						c-0.403-0.905-0.375-2.009,0.212-2.846c0.467-0.669,1.135-1.257,1.77-1.761c0.039-0.032,0.08-0.06,0.12-0.088
						c0.465-0.444,0.953-0.829,1.434-1.246c0.299-0.289,0.598-0.58,0.895-0.874l0.581-0.514L376.19,48.886z"/>
					<path class="st35" d="M374.434,60.994c-0.41,0-0.75-0.07-1.039-0.216c-0.562-0.28-0.968-0.878-1.325-1.405
						c-0.101-0.146-0.195-0.287-0.292-0.417c-0.297-0.402-0.584-0.857-0.903-1.436c-0.283-0.428-0.61-0.951-0.854-1.521
						c-0.031-0.048-0.055-0.104-0.076-0.168c-0.446-1.006-0.359-2.151,0.228-2.988c0.505-0.72,1.228-1.336,1.801-1.793
						c0.029-0.022,0.057-0.043,0.087-0.064l0.03-0.021c0.322-0.306,0.657-0.587,0.981-0.859c0.149-0.126,0.301-0.253,0.45-0.384
						l0.084-0.081c0.27-0.262,0.539-0.522,0.805-0.784l0.658-0.585l1.17,0.47c1.216,0.314,1.615,1.357,1.826,2.236
						c0.516,1.189,0.882,2.619,1.124,4.371l0.035,0.257c0.216,1.511,0.51,3.58-1.04,4.494c-0.554,0.325-1.142,0.478-1.644,0.579
						c-0.069,0.017-0.142,0.032-0.213,0.045c-0.088,0.016-0.176,0.033-0.265,0.051c-0.075,0.014-0.153,0.027-0.233,0.045
						C375.397,60.9,374.908,60.994,374.434,60.994z M375.131,48.624l-0.511,0.453c-0.261,0.259-0.53,0.52-0.8,0.781l-0.092,0.089
						c-0.157,0.136-0.309,0.263-0.459,0.391c-0.324,0.271-0.658,0.551-0.975,0.854l-0.056,0.042
						c-0.025,0.018-0.049,0.037-0.074,0.054c-0.557,0.444-1.26,1.042-1.741,1.731c-0.527,0.752-0.603,1.786-0.198,2.696l0.007,0.018
						c0.014,0.046,0.03,0.083,0.05,0.108l0.012,0.025c0.238,0.553,0.558,1.066,0.841,1.496c0.319,0.577,0.6,1.022,0.888,1.414
						c0.101,0.134,0.197,0.276,0.299,0.428c0.337,0.495,0.717,1.058,1.209,1.303c0.245,0.123,0.541,0.183,0.902,0.183
						c0.446,0,0.92-0.09,1.338-0.171c0.081-0.017,0.159-0.03,0.236-0.045c0.088-0.016,0.175-0.032,0.264-0.05
						c0.068-0.013,0.137-0.027,0.204-0.041c0.481-0.103,1.04-0.244,1.555-0.548c1.373-0.809,1.096-2.762,0.894-4.188l-0.035-0.259
						c-0.239-1.729-0.601-3.138-1.108-4.303l-0.008-0.025c-0.204-0.851-0.554-1.757-1.62-2.028l-0.019-0.005L375.131,48.624z"/>
				</g>
				<g>
					<path class="st79" d="M388.706,27.157c-1.75-0.354-3.688-0.203-5.219,0.526c-1.046,0.498-2.123,0.968-3.058,1.664
						c-0.507,0.377-0.957,0.871-1.226,1.445c-0.179,0.384-0.288,0.853-0.432,1.236c3.886-0.709,7.884-1.285,11.844-1.058
						c1.274,0.075,2.65,0.213,3.877,0.582c-0.063-0.018-0.48-1.053-0.564-1.165c-0.8-1.074-2.104-2.012-3.29-2.59
						C390.046,27.512,389.39,27.294,388.706,27.157z"/>
					<path class="st35" d="M378.534,32.228l0.094-0.251c0.054-0.146,0.104-0.304,0.155-0.471c0.083-0.264,0.167-0.534,0.281-0.778
						c0.263-0.559,0.702-1.078,1.273-1.503c0.824-0.613,1.765-1.057,2.672-1.483c0.137-0.065,0.275-0.129,0.412-0.194
						c0.994-0.475,2.187-0.726,3.448-0.726c0.627,0,1.256,0.064,1.866,0.187c0.709,0.143,1.371,0.363,1.968,0.653
						c1.36,0.663,2.612,1.648,3.347,2.637c0.043,0.058,0.113,0.211,0.263,0.55c0.097,0.216,0.243,0.544,0.285,0.601
						c-0.001-0.002-0.021-0.027-0.062-0.04l-0.088,0.292l0,0l0,0c-1.282-0.387-2.728-0.51-3.842-0.575
						c-0.584-0.033-1.189-0.051-1.8-0.051c-3.487,0-7.016,0.559-10.008,1.104L378.534,32.228z M386.87,27.126
						c-1.217,0-2.363,0.24-3.317,0.695c-0.138,0.063-0.275,0.131-0.413,0.196c-0.895,0.42-1.82,0.856-2.621,1.451
						c-0.531,0.395-0.938,0.876-1.178,1.389c-0.106,0.224-0.188,0.486-0.267,0.739c-0.026,0.078-0.05,0.158-0.074,0.236
						c2.95-0.533,6.394-1.062,9.806-1.062c0.617,0,1.229,0.017,1.816,0.05c1.034,0.061,2.347,0.171,3.566,0.49
						c-0.041-0.09-0.091-0.201-0.153-0.34c-0.083-0.19-0.199-0.447-0.229-0.492c-0.706-0.948-1.916-1.9-3.235-2.542
						c-0.573-0.281-1.212-0.492-1.896-0.631C388.084,27.188,387.477,27.126,386.87,27.126z"/>
				</g>
				<g>
					<polygon class="st79" points="378.58,33.224 377.137,49.86 396.786,49.86 394.755,32.373 389.45,31.489 383.688,32.057 					
						"/>
					<path class="st35" d="M396.956,50.012h-19.983l1.464-16.912l5.235-1.195l5.783-0.568l0.021,0.004l5.417,0.901l0.014,0.115
						L396.956,50.012z M377.304,49.707h19.309l-1.998-17.202l-5.17-0.862l-5.732,0.563l-4.991,1.141L377.304,49.707z"/>
				</g>
				<g>
					<path class="st65" d="M380.03,32.057l4.482-0.766h6.432l2.633,0.382c0,0,1.169,4.735,0.389,6.807s-4.713,4.851-4.713,4.851
						s-1.416,0.343-3.664,0c-2.247-0.344-4.976-4.883-4.976-4.883S379.834,35.745,380.03,32.057z"/>
					<path class="st35" d="M387.539,43.637c-0.638,0-1.301-0.053-1.972-0.155c-2.292-0.352-4.971-4.769-5.083-4.955l-0.015-0.037
						c-0.008-0.027-0.784-2.768-0.591-6.442l0.007-0.12l4.628-0.789l6.455,0.002l2.731,0.399l0.026,0.098
						c0.048,0.196,1.172,4.807,0.385,6.897c-0.788,2.09-4.606,4.805-4.769,4.92l-0.023,0.018l-0.029,0.007
						C389.263,43.484,388.629,43.637,387.539,43.637z M380.755,38.387c0.188,0.304,2.776,4.475,4.858,4.795
						c0.655,0.099,1.303,0.148,1.926,0.148c0.926,0,1.52-0.113,1.651-0.141c0.333-0.24,3.912-2.846,4.635-4.764
						c0.692-1.84-0.212-5.926-0.373-6.615l-2.519-0.367h-6.407l-4.351,0.742C380.015,35.584,380.688,38.141,380.755,38.387z"/>
				</g>
				<path class="st48" d="M392.554,31.343c-1.994-0.032-3.986-0.067-5.981-0.07c-1.854-0.003-3.846-0.216-5.665,0.219
					c-0.719,0.171-1.591,0.565-2.194,0.978c-0.268,0.184-0.311,0.72-0.283,1.012c0.002,0.04,0.013,0.072,0.026,0.1
					c-0.084,0.086-0.002,0.279,0.155,0.257c0.905-0.136,1.821-0.191,2.717-0.374c1.15-0.232,2.271-0.421,3.441-0.528
					c2.174-0.198,4.368-0.29,6.551-0.269c0.925,0.009,1.896-0.004,2.811,0.147c0.304,0.05,0.731,0.104,0.834-0.27
					C395.325,31.237,393.236,31.354,392.554,31.343z"/>
				<g>
					<path class="st50" d="M378.58,32.079c0,0-1.442,0.752,0,1.145c0,0,7.335-1.702,16.175-0.851c0,0,0.618-0.61-0.263-0.819
						C394.492,31.554,389.777,29.752,378.58,32.079z"/>
					<path class="st31" d="M378.575,33.382l-0.037-0.011c-0.477-0.131-0.722-0.318-0.749-0.573c-0.047-0.432,0.59-0.788,0.718-0.854
						l0.041-0.015c3.81-0.791,7.283-1.191,10.322-1.191c3.759,0,5.507,0.613,5.667,0.671c0.317,0.076,0.507,0.219,0.563,0.42
						c0.089,0.317-0.206,0.619-0.239,0.651l-0.051,0.053l-0.071-0.008c-1.639-0.158-3.341-0.238-5.064-0.238
						c-6.312,0-11.015,1.073-11.063,1.086L378.575,33.382z M378.632,32.223c-0.236,0.128-0.559,0.38-0.541,0.543
						c0.011,0.104,0.194,0.217,0.491,0.302c0.464-0.104,5.05-1.084,11.093-1.084c1.704,0,3.393,0.078,5.016,0.231
						c0.065-0.083,0.142-0.213,0.116-0.306c-0.024-0.086-0.15-0.159-0.35-0.207l-0.02-0.007c-0.018-0.006-1.77-0.654-5.568-0.654
						C385.857,31.041,382.413,31.438,378.632,32.223z"/>
				</g>
				<g>
					<circle class="st67" cx="390.103" cy="35.616" r="2.863"/>
					<path class="st35" d="M390.104,38.633c-1.663,0-3.016-1.354-3.016-3.017s1.353-3.016,3.016-3.016
						c1.663,0,3.016,1.354,3.016,3.016S391.766,38.633,390.104,38.633z M390.104,32.906c-1.496,0-2.711,1.215-2.711,2.71
						s1.215,2.712,2.711,2.712c1.495,0,2.712-1.217,2.712-2.712S391.598,32.906,390.104,32.906z"/>
				</g>
				<g>
					<circle class="st67" cx="385.011" cy="35.616" r="2.14"/>
					<path class="st35" d="M385.011,37.906c-1.264,0-2.291-1.025-2.291-2.29c0-1.264,1.027-2.292,2.291-2.292
						c1.263,0,2.291,1.028,2.291,2.292C387.302,36.881,386.274,37.906,385.011,37.906z M385.011,33.628
						c-1.096,0-1.987,0.893-1.987,1.988c0,1.097,0.891,1.988,1.987,1.988c1.096,0,1.988-0.892,1.988-1.988
						C386.999,34.521,386.106,33.628,385.011,33.628z"/>
				</g>
				<ellipse class="st13" cx="390.268" cy="36.152" rx="2.433" ry="1.938"/>
				<path class="st35" d="M388.757,35.483c-0.254,0-0.254,0.394,0,0.394C389.01,35.877,389.01,35.483,388.757,35.483z"/>
				<ellipse class="st13" cx="385.097" cy="35.986" rx="1.744" ry="1.379"/>
				<path class="st35" d="M385.932,35.418c-0.253,0-0.253,0.393,0,0.393C386.186,35.811,386.186,35.418,385.932,35.418z"/>
				<g>
					<ellipse class="st57" cx="387.24" cy="39.512" rx="2.144" ry="1.169"/>
					<path class="st35" d="M387.24,40.832c-1.288,0-2.297-0.58-2.297-1.32c0-0.743,1.009-1.323,2.297-1.323s2.297,0.58,2.297,1.323
						C389.538,40.252,388.528,40.832,387.24,40.832z M387.24,38.494c-1.081,0-1.993,0.465-1.993,1.018
						c0,0.551,0.913,1.017,1.993,1.017c1.08,0,1.993-0.466,1.993-1.017C389.233,38.959,388.32,38.494,387.24,38.494z"/>
				</g>
				<ellipse class="st67" cx="387.239" cy="39.178" rx="0.7" ry="0.382"/>
				<g>
					<path class="st86" d="M382.941,32.894c-0.008,0-0.017-0.002-0.025-0.002c-0.292-0.007-0.29,0.445,0,0.45
						c0.7,0.015,1.394,0.123,2.095,0.135c0.382,0.006,1.325,0.062,1.398-0.487C386.564,31.815,383.496,32.756,382.941,32.894z"/>
					<path class="st35" d="M385.296,33.634c-0.002,0-0.002,0-0.002,0c-0.078,0-0.15-0.003-0.212-0.003l-0.075-0.003
						c-0.359-0.005-0.721-0.037-1.07-0.067c-0.335-0.03-0.684-0.059-1.024-0.066c-0.211-0.004-0.37-0.17-0.367-0.386
						c0.001-0.215,0.156-0.37,0.364-0.37h0.015c0.049-0.013,0.117-0.03,0.198-0.051c0.523-0.143,1.614-0.433,2.405-0.433
						c0.444,0,0.739,0.091,0.902,0.275c0.11,0.125,0.153,0.288,0.128,0.479C386.478,33.633,385.589,33.634,385.296,33.634z
						 M382.912,33.043c-0.018,0-0.062,0.002-0.062,0.069c0,0.028,0.009,0.076,0.069,0.076c0.351,0.008,0.704,0.04,1.045,0.069
						c0.343,0.03,0.699,0.061,1.047,0.066h0.075c0.062,0.004,0.131,0.005,0.207,0.005c0.616,0,0.932-0.118,0.964-0.359
						c0.014-0.104-0.004-0.181-0.056-0.239c-0.068-0.078-0.241-0.173-0.673-0.173c-0.75,0-1.814,0.286-2.328,0.424
						c-0.094,0.025-0.171,0.046-0.224,0.059l-0.02,0.005h-0.022l-0.02-0.153L382.912,33.043
						C382.913,33.043,382.913,33.043,382.912,33.043z"/>
				</g>
				<g>
					<path class="st8" d="M399.086,88.732c-0.275-1.114-0.491-2.247-0.727-3.371c-0.519-2.461-0.998-4.932-1.295-7.428
						c-0.382-3.195-0.488-6.42-0.584-9.638c-0.013-1.05-0.03-2.102-0.067-3.149c-0.025-0.696-0.063-1.403-0.128-2.108
						c-0.081-1.437-0.231-2.878-0.668-4.254c-0.2-0.631-0.496-1.181-0.852-1.682c-0.086-0.173-0.179-0.344-0.276-0.512
						c-0.9-1.555-2.233-2.635-3.773-3.249c-0.742-0.472-1.542-0.836-2.407-0.994c-1.05-0.189-2.09,0.101-2.984,0.64
						c-0.934,0.267-1.715,0.782-2.32,1.611c-0.706,0.963-1.003,2.18-1.256,3.328c-0.64,2.886-0.926,5.75-1.086,8.698
						c-0.132,2.465-0.375,4.914-0.538,7.374c-0.167,0.876-0.345,1.752-0.529,2.628c-0.323,1.543-0.391,3.132-0.69,4.68
						c-0.151,0.786-0.362,1.802-0.783,2.642c-0.259,0.156-0.487,0.397-0.65,0.742c-0.035,0.072-0.062,0.146-0.092,0.219
						c-0.057,0.062-0.112,0.125-0.164,0.19c-0.141,0.105-0.291,0.198-0.455,0.267c-0.212-0.038-0.46,0.08-0.463,0.361
						c-0.007,1.028-0.075,2.069-0.265,3.083c-0.128,0.692-0.403,1.354-0.445,2.062c-0.063,1.054,1.583,1.306,2.306,1.413
						c1.213,0.179,2.434,0.148,3.652,0.211c2.407,0.116,4.825,0.115,7.237,0.126c2.486,0.011,4.971-0.01,7.455-0.048
						c1.235-0.018,2.955,0.03,3.157-1.591C399.491,90.23,399.265,89.459,399.086,88.732z"/>
					<path class="st35" d="M390.21,92.779C390.21,92.779,390.21,92.779,390.21,92.779c-0.478,0-0.953-0.001-1.428-0.005
						l-0.725-0.003c-2.137-0.01-4.349-0.018-6.519-0.126c-0.362-0.016-0.733-0.025-1.09-0.035c-0.843-0.022-1.717-0.046-2.575-0.174
						c-0.687-0.1-2.509-0.367-2.436-1.571c0.028-0.452,0.145-0.887,0.259-1.306c0.068-0.255,0.14-0.517,0.188-0.779
						c0.168-0.89,0.253-1.889,0.263-3.055c0.002-0.366,0.312-0.543,0.592-0.516c0.125-0.056,0.248-0.13,0.37-0.221
						c0.043-0.056,0.092-0.108,0.142-0.161c0.025-0.07,0.052-0.136,0.083-0.203c0.161-0.338,0.386-0.602,0.671-0.782
						c0.389-0.791,0.591-1.737,0.75-2.563c0.142-0.732,0.233-1.486,0.322-2.217c0.098-0.812,0.198-1.651,0.37-2.466
						c0.201-0.961,0.373-1.817,0.525-2.617c0.069-1.031,0.153-2.079,0.234-3.092c0.113-1.399,0.228-2.846,0.304-4.271
						c0.188-3.479,0.523-6.169,1.087-8.725c0.274-1.234,0.578-2.421,1.284-3.386c0.598-0.817,1.399-1.376,2.382-1.66
						c1.004-0.6,2.084-0.827,3.072-0.648c0.812,0.149,1.612,0.479,2.451,1.008c1.636,0.656,2.962,1.801,3.835,3.311
						c0.092,0.159,0.182,0.325,0.273,0.506c0.394,0.556,0.676,1.118,0.868,1.715c0.461,1.454,0.6,2.985,0.675,4.292
						c0.057,0.64,0.101,1.331,0.127,2.11c0.04,1.148,0.059,2.289,0.067,3.154c0.09,2.971,0.19,6.342,0.583,9.619
						c0.312,2.607,0.828,5.213,1.292,7.418c0.062,0.296,0.124,0.593,0.185,0.888c0.166,0.814,0.339,1.658,0.542,2.478l0.056,0.225
						c0.17,0.678,0.347,1.379,0.258,2.083c-0.211,1.687-1.911,1.707-3.149,1.723l-0.158,0.002
						C394.027,92.762,392.054,92.779,390.21,92.779z M376.681,85.512c-0.023,0-0.229,0.006-0.23,0.216
						c-0.01,1.185-0.097,2.203-0.268,3.11c-0.05,0.271-0.124,0.542-0.193,0.802c-0.116,0.424-0.223,0.822-0.248,1.242
						c-0.057,0.927,1.565,1.165,2.176,1.254c0.841,0.123,1.704,0.147,2.54,0.17c0.36,0.011,0.731,0.021,1.097,0.038
						c2.164,0.105,4.371,0.115,6.506,0.124l0.724,0.004c0.476,0.001,0.951,0.003,1.426,0.003h0c1.844,0,3.813-0.016,6.025-0.05
						l0.158-0.003c1.191-0.015,2.673-0.033,2.852-1.456c0.081-0.648-0.088-1.319-0.252-1.97l-0.056-0.227
						c-0.204-0.824-0.377-1.671-0.545-2.49c-0.061-0.295-0.122-0.591-0.184-0.886c-0.465-2.212-0.983-4.825-1.296-7.444
						c-0.394-3.291-0.495-6.669-0.585-9.65c-0.01-0.865-0.026-2.003-0.067-3.149c-0.028-0.772-0.068-1.459-0.126-2.099
						c-0.075-1.292-0.211-2.799-0.662-4.221c-0.181-0.57-0.454-1.108-0.832-1.64l-0.011-0.02c-0.092-0.181-0.181-0.345-0.272-0.503
						c-0.842-1.455-2.119-2.556-3.697-3.185l-0.025-0.011c-0.809-0.515-1.577-0.834-2.354-0.975c-0.921-0.168-1.931,0.05-2.878,0.62
						l-0.038,0.014c-0.937,0.271-1.67,0.778-2.237,1.556c-0.672,0.917-0.966,2.07-1.232,3.271c-0.562,2.54-0.894,5.213-1.08,8.675
						c-0.078,1.43-0.195,2.878-0.306,4.279c-0.081,1.014-0.165,2.062-0.234,3.098l-0.003,0.018
						c-0.152,0.804-0.325,1.666-0.529,2.631c-0.167,0.803-0.268,1.637-0.364,2.439c-0.089,0.736-0.181,1.497-0.324,2.239
						c-0.167,0.859-0.379,1.848-0.798,2.68l-0.019,0.038l-0.039,0.024c-0.25,0.15-0.449,0.378-0.59,0.676
						c-0.033,0.068-0.059,0.139-0.085,0.211l-0.012,0.028l-0.021,0.022c-0.055,0.056-0.108,0.116-0.156,0.176l-0.028,0.028
						c-0.16,0.121-0.319,0.214-0.487,0.286l-0.042,0.018l-0.045-0.008C376.717,85.513,376.699,85.512,376.681,85.512z"/>
				</g>
				<g>
					<path class="st79" d="M386.549,51.144c-0.018-1.421,0.182-3.09-0.776-4.345c-0.869-1.139-2.576-1.301-4.028-1.278
						c-0.138,0.004-0.256,0.029-0.356,0.074c-0.19-0.007-0.385,0.057-0.552,0.223c-1.41,1.396-3.921,1.438-5.665,2.428
						c-0.397,0.226-0.468,0.577-0.288,0.933c1.417,2.81,1.419,5.907,1.501,8.913c0.088,3.192,0.089,6.385-0.031,9.577
						c-0.123,3.213-0.442,14.908-0.804,18.11c-0.152,1.353-1.417,3.801,0.11,4.85c1.486,1.02,4.11,0.761,5.884,0.769
						c1.577,0.01,3.704,0.347,4.608-1.076c0.378-0.594,0.379-1.339,0.391-1.993c0.028-1.418,0.024-11.313,0.042-12.731
						c0.039-3.189,0.055-6.379,0.065-9.567C386.663,61.064,386.613,56.105,386.549,51.144z"/>
					<path class="st35" d="M383.206,91.59L383.206,91.59c-0.308,0-0.617-0.01-0.916-0.021c-0.262-0.01-0.509-0.02-0.746-0.02h-0.105
						c-0.267,0-0.55,0.005-0.846,0.01c-0.323,0.006-0.658,0.013-0.998,0.013c-1.398,0-2.969-0.098-4.021-0.819
						c-1.23-0.843-0.79-2.491-0.438-3.813c0.116-0.437,0.225-0.847,0.263-1.179c0.288-2.546,0.548-10.487,0.705-15.232
						c0.039-1.21,0.072-2.214,0.097-2.866c0.116-3.033,0.126-6.163,0.033-9.568l-0.014-0.509c-0.074-2.812-0.15-5.72-1.473-8.338
						c-0.229-0.456-0.098-0.879,0.348-1.135c0.735-0.416,1.605-0.67,2.45-0.916c1.171-0.342,2.382-0.693,3.184-1.487
						c0.177-0.174,0.394-0.268,0.63-0.268c0.117-0.045,0.246-0.07,0.382-0.074c0.083,0,0.166,0,0.249,0
						c1.238,0,2.986,0.138,3.904,1.34c0.839,1.098,0.824,2.508,0.811,3.75c-0.003,0.231-0.005,0.463-0.001,0.686
						c0.056,4.422,0.113,9.647,0.098,14.886c-0.009,3.859-0.031,6.811-0.063,9.569c-0.008,0.616-0.011,2.871-0.015,5.259
						c-0.005,3.127-0.011,6.669-0.025,7.473l-0.001,0.063c-0.013,0.656-0.026,1.399-0.412,2.009
						C385.616,91.449,384.354,91.59,383.206,91.59z M381.439,91.245h0.107c0.242,0.001,0.49,0.01,0.756,0.021
						c0.295,0.01,0.6,0.021,0.904,0.021c1.064,0,2.232-0.124,2.819-1.048c0.341-0.536,0.353-1.234,0.364-1.851l0.001-0.063
						c0.017-0.802,0.022-4.343,0.026-7.468c0.004-2.388,0.009-4.646,0.015-5.263c0.034-2.756,0.053-5.706,0.064-9.567
						c0.014-5.235-0.043-10.459-0.101-14.881c-0.002-0.224,0-0.457,0.002-0.691c0.015-1.252,0.029-2.549-0.747-3.563
						c-0.636-0.832-1.8-1.22-3.663-1.22c-0.083,0-0.163,0-0.243,0.002c-0.109,0.001-0.209,0.023-0.298,0.062l-0.032,0.014
						l-0.055-0.002c-0.158,0-0.298,0.061-0.419,0.181c-0.856,0.846-2.106,1.212-3.312,1.562c-0.828,0.241-1.681,0.49-2.385,0.89
						c-0.383,0.217-0.334,0.519-0.226,0.733c1.353,2.678,1.43,5.619,1.504,8.465l0.014,0.51c0.093,3.411,0.083,6.548-0.032,9.589
						c-0.024,0.651-0.058,1.654-0.097,2.863c-0.157,4.751-0.418,12.699-0.707,15.256c-0.039,0.354-0.151,0.778-0.271,1.224
						c-0.345,1.295-0.734,2.763,0.316,3.484c0.984,0.674,2.498,0.766,3.849,0.766c0.338,0,0.671-0.005,0.99-0.013
						C380.885,91.25,381.171,91.245,381.439,91.245z"/>
				</g>
				<g>
					<path class="st79" d="M388.981,66.028c0.009,3.188,0.022,6.378,0.058,9.567c0.015,1.418,0.011,11.313,0.038,12.731
						c0.01,0.654,0.012,1.399,0.349,1.993c0.811,1.423,2.72,1.086,4.132,1.076c1.59-0.008,3.943,0.251,5.275-0.769
						c1.37-1.049,0.235-3.497,0.099-4.85c-0.325-3.202-0.61-14.897-0.72-18.11c-0.108-3.192-0.107-6.385-0.029-9.577
						c0.075-3.006,0.075-6.104,1.347-8.913c0.161-0.355,0.098-0.707-0.257-0.933c-1.564-0.99-3.814-1.031-5.079-2.428
						c-0.152-0.166-0.327-0.229-0.496-0.223c-0.09-0.045-0.195-0.07-0.319-0.074c-1.303-0.022-2.833,0.14-3.611,1.278
						c-0.86,1.255-0.681,2.924-0.697,4.345C389.014,56.105,388.969,61.064,388.981,66.028z"/>
					<path class="st35" d="M392.069,91.59h-0.001c-1.034,0-2.174-0.141-2.773-1.194c-0.345-0.607-0.357-1.347-0.369-2l0-0.066
						c-0.014-0.799-0.02-4.325-0.023-7.435c-0.004-2.405-0.007-4.678-0.014-5.297c-0.031-2.771-0.048-5.723-0.059-9.569
						c-0.011-5.21,0.039-10.448,0.09-14.886c0.002-0.223,0.001-0.454-0.001-0.686c-0.012-1.242-0.025-2.647,0.724-3.745
						c0.827-1.205,2.404-1.345,3.518-1.345c0.076,0,0.15,0,0.223,0c0.125,0.004,0.243,0.029,0.349,0.074
						c0.216,0.003,0.415,0.097,0.576,0.274c0.716,0.79,1.751,1.126,2.847,1.481c0.757,0.246,1.539,0.5,2.2,0.92
						c0.4,0.253,0.519,0.674,0.314,1.125c-1.186,2.62-1.254,5.527-1.321,8.339l-0.012,0.513c-0.084,3.398-0.075,6.529,0.029,9.568
						c0.022,0.656,0.053,1.665,0.088,2.882c0.14,4.74,0.374,12.676,0.63,15.219c0.032,0.333,0.131,0.744,0.234,1.18
						c0.317,1.319,0.709,2.963-0.393,3.806c-0.948,0.727-2.363,0.824-3.619,0.824c-0.305,0-0.606-0.007-0.895-0.013
						c-0.265-0.005-0.519-0.01-0.758-0.01h-0.094c-0.213,0-0.434,0.01-0.667,0.02C392.623,91.58,392.345,91.59,392.069,91.59z
						 M393.159,45.671c-1.662,0-2.7,0.385-3.265,1.214c-0.697,1.016-0.685,2.314-0.672,3.569c0.002,0.234,0.005,0.466,0.002,0.691
						c-0.052,4.437-0.103,9.675-0.089,14.881c0.009,3.848,0.028,6.797,0.057,9.567c0.007,0.622,0.011,2.895,0.014,5.301
						c0.005,3.109,0.009,6.631,0.023,7.43l0.001,0.066c0.011,0.617,0.022,1.314,0.328,1.854c0.524,0.917,1.563,1.041,2.51,1.041
						h0.001c0.271,0,0.544-0.011,0.81-0.021c0.236-0.011,0.46-0.02,0.678-0.021h0.097c0.24,0,0.498,0.005,0.763,0.01
						c0.288,0.008,0.585,0.013,0.89,0.013c1.205,0,2.558-0.092,3.436-0.762c0.944-0.723,0.592-2.193,0.281-3.493
						c-0.105-0.445-0.207-0.867-0.243-1.22c-0.257-2.553-0.49-10.494-0.631-15.239c-0.038-1.217-0.066-2.226-0.088-2.881
						c-0.105-3.046-0.114-6.182-0.029-9.587l0.013-0.511c0.066-2.843,0.134-5.781,1.347-8.46c0.097-0.217,0.145-0.523-0.201-0.742
						c-0.628-0.397-1.392-0.646-2.13-0.885c-1.087-0.353-2.208-0.719-2.979-1.568c-0.106-0.116-0.228-0.174-0.36-0.174l-0.055,0.002
						l-0.035-0.017c-0.076-0.038-0.162-0.058-0.255-0.059C393.305,45.671,393.232,45.671,393.159,45.671z"/>
				</g>
				<g>
					<path class="st86" d="M387.533,32.798c0.071,0.551,1.015,0.495,1.398,0.488c0.7-0.013,1.395-0.121,2.093-0.134
						c0.291-0.007,0.291-0.457,0-0.452c-0.008,0-0.016,0.001-0.025,0.001C390.444,32.564,387.378,31.624,387.533,32.798z"/>
					<path class="st35" d="M388.646,33.442c-0.293,0-1.182,0-1.265-0.624c-0.025-0.191,0.019-0.354,0.128-0.479
						c0.162-0.185,0.458-0.274,0.902-0.274c0.791,0,1.881,0.292,2.406,0.431c0.08,0.022,0.148,0.042,0.197,0.053h0.007l0,0
						c0.216,0,0.371,0.155,0.374,0.369c0.001,0.218-0.157,0.384-0.369,0.389c-0.338,0.005-0.687,0.036-1.023,0.065
						c-0.349,0.03-0.71,0.061-1.071,0.066l-0.074,0.002C388.796,33.441,388.723,33.442,388.646,33.442z M388.412,32.368
						c-0.432,0-0.604,0.093-0.674,0.172c-0.05,0.058-0.068,0.136-0.055,0.238c0.033,0.243,0.348,0.361,0.963,0.361
						c0.075,0,0.144-0.002,0.206-0.005h0.076c0.349-0.007,0.705-0.037,1.048-0.067c0.341-0.03,0.695-0.061,1.045-0.068
						c0.061,0,0.068-0.048,0.068-0.079c0-0.066-0.045-0.066-0.061-0.066l-0.066-0.005c-0.053-0.013-0.13-0.033-0.226-0.06
						C390.227,32.653,389.162,32.368,388.412,32.368z"/>
				</g>
				<g>
					<g>
						<path class="st86" d="M390.698,41.961C390.723,42.025,390.714,41.994,390.698,41.961L390.698,41.961z"/>
						<path class="st35" d="M390.796,42.151h-0.083c-0.105-0.002-0.137-0.087-0.156-0.138l0.112-0.046l-0.08-0.058l0.08,0.058
							l0.044-0.02l0.001-0.103l-0.001,0.103l0.124-0.051c0.022,0.048,0.051,0.111,0.003,0.184L390.796,42.151z"/>
					</g>
					<g>
						<path class="st86" d="M393.353,46.309c-0.019-0.517-0.092-1.02-0.25-1.467c0.042-0.091,0.073-0.189,0.083-0.297
							c0.087-0.814-0.226-1.576-0.58-2.293c-0.029-0.061-0.066-0.11-0.106-0.155c0.054-0.648-0.084-1.25-0.479-1.793
							c-0.122-0.171-0.295-0.288-0.484-0.326c-0.226-0.208-0.528-0.396-0.827-0.473c-0.48-0.128-0.85,0.444-1.186,0.691
							c-0.266,0.195-0.558,0.354-0.864,0.476c-0.061-0.063-0.143-0.109-0.248-0.121c-0.577-0.065-1.077,0.007-1.586,0.221
							l-0.125-0.126c-0.119-0.195-0.337-0.228-0.533-0.141c-0.549,0.249-1.05,0.033-1.519-0.279
							c-0.121-0.084-0.218-0.268-0.328-0.369c-0.113-0.104-0.238-0.2-0.377-0.266c-0.214-0.101-0.537-0.164-0.762-0.075
							c-0.252,0.103-0.379,0.401-0.501,0.623c-0.166,0.301-0.323,0.607-0.469,0.915c-0.215,0.459-0.386,0.939-0.427,1.445
							c-0.014,0.17,0.121,0.318,0.28,0.372c-0.007,0.083,0.019,0.16,0.069,0.223c-0.174,0.669-0.221,1.348,0.055,2.044
							c0.041,0.106,0.125,0.199,0.224,0.251c0.028,0.088,0.073,0.167,0.125,0.24c-0.103,0.776-0.227,1.542-0.169,2.327
							c0.034,0.462,0.408,0.751,0.865,0.66c0.044-0.01,0.085-0.017,0.128-0.024c-0.051,0.259-0.09,0.521-0.173,0.771
							c-0.147,0.448-0.438,1.009,0.103,1.325c0.087,0.053,0.185,0.078,0.287,0.085c-0.042,0.271-0.108,0.538-0.21,0.803
							c-0.132,0.349,0.145,0.748,0.478,0.841c0.057,0.014,0.109,0.021,0.164,0.022c-0.02,0.07-0.037,0.139-0.056,0.209
							c-0.06,0.238,0.011,0.488,0.177,0.664c0.113,0.118,0.265,0.15,0.42,0.165c0.038,0.003,0.42,0.001,0.424,0.036
							c0.054,0.457-0.159,0.905-0.016,1.365c0.062,0.2,0.192,0.361,0.392,0.425c0.114,0.034,0.335,0.015,0.397,0.103
							c0.055,0.08,0.017,0.322,0.022,0.42c0.006,0.138,0.009,0.276,0.01,0.415c0.005,0.39,0.286,0.63,0.612,0.66
							c0.053,0.442,0.502,0.745,0.999,0.514c0.131-0.061,0.25-0.129,0.363-0.201c0.045-0.023,0.285,0.14,0.33,0.158
							c0.148,0.064,0.273,0.072,0.422,0.015c0.517-0.195,0.758-0.631,1.087-1.032c0.133-0.161,0.361-0.099,0.53-0.207
							c0.2-0.13,0.309-0.356,0.335-0.588c0.013-0.11,0.01-0.216-0.004-0.324c0.28-0.085,0.49-0.345,0.49-0.649v-0.137
							c0.118-0.089,0.21-0.215,0.268-0.365c0.178-0.458,0.25-0.913,0.24-1.383c-0.001-0.056,0.164-0.178,0.198-0.23
							c0.089-0.136,0.076-0.408,0.192-0.514c0.086-0.082,0.24-0.061,0.339-0.143c0.109-0.089,0.174-0.224,0.201-0.362
							c0.116-0.585,0.138-1.164,0.136-1.749c0.029,0.004,0.056,0.01,0.083,0.01c0.311,0,0.513-0.169,0.614-0.45
							c0.108-0.307,0.058-0.633,0.04-0.948s0.049-0.609,0.071-0.92c0.004-0.072-0.018-0.253,0.018-0.311
							C393.489,46.854,393.492,46.54,393.353,46.309z M388.667,42.989c-0.426-0.523-0.997-0.608-1.615-0.362
							c-0.487,0.196-0.872,0.506-1.432,0.425c-0.333-0.046-0.661-0.151-0.964-0.297c-0.185-0.088-0.367-0.168-0.534-0.291
							c-0.242-0.177-0.145-0.359,0.021-0.583c-0.006,0.01-0.013,0.018-0.018,0.026c0.112-0.123,0.248-0.263,0.274-0.434
							c0.017,0.007,0.125,0.027,0.128,0.037c0.057,0.125,0.102,0.234,0.135,0.309c0.099,0.225,0.458,0.252,0.612,0.079
							c0.198-0.224,0.396-0.3,0.601-0.305c0.171,0.043,0.347,0.076,0.521,0.103c0.177,0.056,0.362,0.121,0.556,0.154
							c0.344,0.062,0.642-0.013,0.917-0.156c0.197-0.03,0.427-0.133,0.621-0.133c0.272,0,0.546-0.033,0.807-0.104
							c0.244-0.067,0.457-0.204,0.689-0.278c0.079,0.01,0.249,0.263,0.303,0.318c0.103,0.111,0.216,0.219,0.322,0.329
							c0.195,0.206-0.046,0.299-0.232,0.391c-0.284,0.141-0.568,0.283-0.856,0.411c-0.276,0.124-0.559,0.295-0.852,0.365
							C388.67,42.994,388.668,42.991,388.667,42.989z"/>
						<path class="st35" d="M387.049,57.646c-0.379,0-0.696-0.25-0.788-0.611c-0.375-0.086-0.628-0.396-0.635-0.792
							c-0.001-0.136-0.004-0.273-0.011-0.409c-0.001-0.033,0-0.079,0.004-0.132c0.002-0.053,0.006-0.153,0-0.203
							c-0.032-0.01-0.099-0.016-0.141-0.021c-0.061-0.007-0.122-0.013-0.176-0.03c-0.235-0.074-0.41-0.259-0.492-0.524
							c-0.093-0.295-0.054-0.576-0.018-0.847c0.02-0.151,0.039-0.297,0.035-0.438c-0.05-0.005-0.127-0.006-0.221-0.009
							c-0.038,0-0.063-0.002-0.074-0.002c-0.159-0.015-0.364-0.05-0.515-0.211c-0.208-0.219-0.288-0.519-0.215-0.807
							c0.004-0.014,0.008-0.028,0.012-0.045c-0.004-0.001-0.008-0.003-0.013-0.004c-0.224-0.06-0.424-0.229-0.535-0.449
							c-0.1-0.195-0.114-0.404-0.043-0.591c0.076-0.198,0.134-0.404,0.177-0.623c-0.068-0.019-0.131-0.043-0.187-0.078
							c-0.586-0.342-0.379-0.918-0.23-1.338c0.02-0.057,0.04-0.112,0.058-0.167c0.056-0.172,0.092-0.351,0.125-0.539
							c-0.508,0.056-0.914-0.293-0.953-0.81c-0.052-0.713,0.043-1.419,0.135-2.101l0.028-0.201
							c-0.039-0.058-0.069-0.116-0.093-0.176c-0.107-0.068-0.191-0.176-0.24-0.297c-0.247-0.624-0.272-1.284-0.078-2.073
							c-0.025-0.048-0.042-0.096-0.05-0.148c-0.186-0.102-0.302-0.292-0.285-0.483c0.037-0.46,0.177-0.936,0.44-1.497
							c0.147-0.311,0.307-0.622,0.474-0.926c0.016-0.032,0.033-0.063,0.051-0.095c0.113-0.219,0.259-0.488,0.526-0.595
							c0.236-0.095,0.595-0.058,0.884,0.076c0.137,0.067,0.273,0.161,0.415,0.291c0.057,0.054,0.107,0.119,0.155,0.18
							c0.052,0.07,0.107,0.143,0.155,0.175c0.571,0.382,0.961,0.455,1.372,0.27c0.27-0.123,0.565-0.048,0.716,0.182l0.042,0.044
							c0.501-0.195,1.002-0.258,1.565-0.193c0.095,0.01,0.185,0.043,0.26,0.098c0.268-0.114,0.519-0.258,0.747-0.424
							c0.081-0.061,0.168-0.144,0.26-0.233c0.246-0.237,0.524-0.506,0.878-0.506c0.058,0,0.118,0.007,0.176,0.022
							c0.29,0.076,0.602,0.251,0.859,0.483c0.21,0.052,0.398,0.183,0.539,0.374c0.382,0.528,0.555,1.146,0.51,1.832
							c0.035,0.043,0.063,0.091,0.086,0.139c0.364,0.734,0.685,1.53,0.596,2.376c-0.009,0.1-0.034,0.197-0.072,0.288
							c0.136,0.404,0.215,0.88,0.237,1.416c0.147,0.273,0.139,0.626-0.023,0.89c-0.005,0.03-0.003,0.108-0.003,0.146
							c0.001,0.042,0.003,0.078,0.001,0.105c-0.008,0.108-0.021,0.217-0.037,0.324c-0.022,0.198-0.047,0.383-0.035,0.575
							c0.003,0.053,0.007,0.105,0.011,0.158c0.02,0.279,0.041,0.566-0.059,0.85c-0.12,0.333-0.362,0.526-0.688,0.549
							c-0.003,0.492-0.026,1.054-0.137,1.621c-0.038,0.187-0.126,0.344-0.256,0.45c-0.076,0.062-0.164,0.085-0.235,0.103
							c-0.039,0.01-0.083,0.019-0.097,0.032c-0.029,0.026-0.051,0.127-0.068,0.201c-0.022,0.099-0.045,0.201-0.098,0.285
							c-0.024,0.035-0.06,0.069-0.102,0.11c-0.021,0.02-0.054,0.05-0.071,0.07c0.006,0.493-0.076,0.953-0.249,1.404
							c-0.059,0.149-0.147,0.28-0.259,0.381v0.066c0,0.319-0.192,0.614-0.48,0.75c0.004,0.083,0.001,0.163-0.007,0.241
							c-0.036,0.302-0.185,0.558-0.405,0.698c-0.098,0.063-0.201,0.081-0.292,0.099c-0.105,0.018-0.164,0.03-0.203,0.077
							c-0.066,0.081-0.128,0.162-0.19,0.244c-0.251,0.325-0.509,0.664-0.96,0.835c-0.183,0.068-0.343,0.063-0.534-0.018
							c-0.017-0.008-0.053-0.027-0.095-0.053c-0.034-0.021-0.104-0.062-0.148-0.086c-0.111,0.071-0.218,0.129-0.326,0.179
							C387.321,57.615,387.184,57.646,387.049,57.646z M383.553,48.4l-0.074,0.382c-0.039,0.207-0.079,0.421-0.147,0.629
							c-0.018,0.056-0.039,0.115-0.061,0.174c-0.167,0.473-0.246,0.773,0.098,0.975c0.059,0.035,0.135,0.056,0.22,0.062l0.166,0.013
							l-0.026,0.162c-0.048,0.301-0.12,0.572-0.219,0.834c-0.041,0.104-0.03,0.227,0.031,0.345c0.07,0.143,0.203,0.256,0.343,0.294
							c0.038,0.012,0.077,0.015,0.127,0.017l0.194,0.005l-0.064,0.244c-0.014,0.051-0.027,0.101-0.04,0.151
							c-0.047,0.184,0.005,0.38,0.141,0.522c0.065,0.066,0.159,0.102,0.322,0.116c0.007,0,0.026,0,0.051,0.002
							c0.338,0.006,0.493,0.01,0.512,0.169c0.024,0.216-0.003,0.422-0.029,0.621c-0.035,0.249-0.065,0.485,0.007,0.718
							c0.036,0.118,0.116,0.268,0.291,0.322c0.024,0.008,0.071,0.013,0.117,0.018c0.131,0.013,0.279,0.03,0.36,0.146
							c0.062,0.091,0.061,0.222,0.052,0.397c-0.002,0.04-0.004,0.075-0.004,0.103c0.008,0.137,0.01,0.279,0.013,0.42
							c0.004,0.32,0.24,0.488,0.474,0.511l0.123,0.011l0.013,0.123c0.032,0.266,0.246,0.459,0.508,0.459
							c0.091,0,0.185-0.022,0.277-0.065c0.11-0.052,0.219-0.112,0.344-0.193l0.04-0.022l0.056-0.003
							c0.075,0,0.156,0.041,0.319,0.139c0.027,0.018,0.049,0.028,0.06,0.035c0.113,0.048,0.197,0.053,0.306,0.011
							c0.371-0.139,0.592-0.428,0.826-0.732c0.063-0.085,0.129-0.171,0.198-0.254c0.112-0.136,0.261-0.163,0.382-0.186
							c0.073-0.013,0.136-0.022,0.183-0.055c0.144-0.092,0.241-0.265,0.267-0.478c0.01-0.089,0.01-0.184-0.004-0.287l-0.015-0.126
							l0.122-0.038c0.225-0.067,0.382-0.275,0.382-0.503v-0.211l0.061-0.047c0.095-0.071,0.17-0.176,0.218-0.3
							c0.164-0.424,0.238-0.856,0.229-1.322c-0.002-0.104,0.078-0.178,0.168-0.264c0.024-0.022,0.045-0.042,0.057-0.056
							c0.023-0.035,0.04-0.112,0.056-0.186c0.028-0.125,0.06-0.267,0.158-0.357c0.073-0.065,0.163-0.088,0.233-0.105
							c0.046-0.012,0.09-0.021,0.112-0.04c0.095-0.078,0.134-0.193,0.15-0.274c0.12-0.604,0.135-1.208,0.132-1.721v-0.174
							l0.195,0.025c0.014,0.002,0.027,0.005,0.041,0.005c0.234,0,0.386-0.115,0.47-0.35c0.08-0.222,0.062-0.467,0.043-0.726
							c-0.004-0.056-0.008-0.108-0.011-0.162c-0.013-0.221,0.013-0.429,0.039-0.63c0.012-0.101,0.025-0.204,0.033-0.31
							c0.001-0.02,0-0.045-0.001-0.073c-0.004-0.133-0.004-0.233,0.044-0.307c0.113-0.181,0.116-0.435,0.005-0.616l-0.02-0.032
							l-0.001-0.04c-0.02-0.548-0.1-1.025-0.24-1.423l-0.021-0.06l0.026-0.056c0.037-0.08,0.061-0.161,0.069-0.246
							c0.078-0.728-0.17-1.41-0.565-2.21c-0.022-0.045-0.047-0.083-0.083-0.123l-0.043-0.05l0.005-0.063
							c0.053-0.646-0.093-1.201-0.45-1.691c-0.103-0.142-0.242-0.236-0.392-0.264l-0.044-0.008l-0.031-0.03
							c-0.226-0.211-0.509-0.374-0.76-0.44c-0.265-0.069-0.521,0.172-0.766,0.408c-0.1,0.097-0.194,0.188-0.292,0.259
							c-0.272,0.201-0.575,0.368-0.897,0.495l-0.095,0.039l-0.071-0.074c-0.043-0.044-0.093-0.068-0.157-0.076
							c-0.545-0.06-1.023,0.005-1.508,0.211l-0.093,0.038l-0.221-0.226c-0.07-0.116-0.202-0.142-0.341-0.079
							c-0.179,0.081-0.362,0.119-0.55,0.119c-0.441,0-0.829-0.22-1.116-0.415c-0.091-0.059-0.162-0.151-0.229-0.239
							c-0.043-0.056-0.082-0.108-0.12-0.143c-0.118-0.108-0.23-0.188-0.339-0.239c-0.21-0.099-0.486-0.133-0.64-0.072
							c-0.165,0.067-0.274,0.275-0.371,0.457c-0.019,0.033-0.036,0.067-0.053,0.101c-0.165,0.296-0.322,0.603-0.464,0.907
							c-0.248,0.527-0.379,0.968-0.414,1.391c-0.007,0.095,0.084,0.184,0.177,0.216l0.113,0.038l-0.01,0.117
							c-0.003,0.041,0.01,0.081,0.037,0.118l0.047,0.059l-0.019,0.072c-0.196,0.752-0.181,1.37,0.049,1.948
							c0.029,0.075,0.085,0.139,0.151,0.171l0.059,0.028l0.018,0.062c0.022,0.065,0.056,0.131,0.104,0.198l0.034,0.05l-0.042,0.319
							c-0.094,0.696-0.184,1.354-0.133,2.037c0.023,0.319,0.243,0.534,0.545,0.534c0.045,0,0.09-0.005,0.136-0.015
							c0.03-0.007,0.059-0.01,0.086-0.016L383.553,48.4z M385.8,43.218c-0.066,0-0.134-0.005-0.202-0.015
							c-0.34-0.049-0.679-0.153-1.007-0.311l-0.074-0.035c-0.162-0.077-0.328-0.155-0.484-0.269
							c-0.118-0.087-0.187-0.188-0.204-0.302c-0.027-0.183,0.08-0.346,0.19-0.495l0.004,0.001l0.015-0.016
							c0.095-0.105,0.194-0.214,0.21-0.326l0.029-0.192l0.18,0.074c0,0,0.013,0.002,0.026,0.007c0.09,0.021,0.152,0.035,0.182,0.108
							c0.038,0.082,0.069,0.155,0.096,0.216l0.04,0.094c0.033,0.074,0.125,0.101,0.195,0.101c0.069,0,0.131-0.023,0.165-0.062
							c0.208-0.233,0.44-0.35,0.71-0.354h0.021l0.019,0.005c0.172,0.041,0.344,0.074,0.506,0.097l0.026,0.007l0.093,0.028
							c0.144,0.048,0.293,0.096,0.442,0.123c0.277,0.05,0.541,0.005,0.821-0.144l0.021-0.013l0.026-0.002
							c0.072-0.011,0.151-0.033,0.235-0.058c0.133-0.038,0.273-0.076,0.407-0.076c0.264,0,0.522-0.033,0.768-0.101
							c0.121-0.032,0.232-0.085,0.352-0.141c0.106-0.048,0.214-0.098,0.33-0.136l0.032-0.01l0.034,0.005
							c0.112,0.015,0.207,0.128,0.338,0.297c0.023,0.03,0.043,0.056,0.057,0.069c0.05,0.056,0.105,0.109,0.159,0.164
							c0.055,0.055,0.108,0.108,0.161,0.164c0.09,0.097,0.128,0.193,0.109,0.291c-0.03,0.168-0.195,0.248-0.34,0.319l-0.045,0.021
							c-0.302,0.152-0.577,0.288-0.862,0.416c-0.08,0.033-0.159,0.074-0.239,0.113c-0.205,0.101-0.415,0.206-0.639,0.259
							l-0.096,0.023l-0.06-0.08c-0.362-0.443-0.856-0.549-1.441-0.315c-0.122,0.048-0.239,0.106-0.354,0.161
							C386.465,43.071,386.166,43.218,385.8,43.218z M384.238,42.009c-0.051,0.07-0.117,0.173-0.109,0.231
							c0.006,0.037,0.05,0.075,0.085,0.103c0.132,0.096,0.277,0.166,0.433,0.239l0.076,0.034c0.301,0.145,0.61,0.241,0.919,0.285
							c0.052,0.009,0.105,0.012,0.158,0.012c0.296,0,0.552-0.125,0.822-0.256c0.118-0.059,0.242-0.118,0.374-0.171
							c0.682-0.271,1.287-0.151,1.728,0.336c0.163-0.052,0.326-0.133,0.487-0.213c0.084-0.04,0.166-0.081,0.25-0.12
							c0.279-0.124,0.55-0.257,0.851-0.408l0.045-0.021c0.05-0.026,0.136-0.067,0.169-0.098c-0.006-0.008-0.012-0.018-0.025-0.03
							c-0.05-0.055-0.103-0.105-0.155-0.158c-0.057-0.058-0.113-0.113-0.168-0.17c-0.017-0.019-0.042-0.052-0.074-0.091
							c-0.03-0.04-0.095-0.123-0.137-0.167c-0.074,0.028-0.15,0.063-0.227,0.099c-0.127,0.059-0.257,0.12-0.403,0.159
							c-0.27,0.072-0.555,0.109-0.846,0.109c-0.093,0-0.211,0.033-0.324,0.066c-0.082,0.022-0.165,0.045-0.246,0.06
							c-0.333,0.172-0.657,0.222-0.996,0.163c-0.17-0.032-0.328-0.083-0.48-0.133l-0.08-0.025c-0.164-0.024-0.333-0.056-0.504-0.098
							c-0.177,0.008-0.323,0.086-0.47,0.252c-0.091,0.104-0.235,0.163-0.392,0.163c-0.213,0-0.398-0.11-0.473-0.282l-0.042-0.095
							c-0.006-0.018-0.015-0.033-0.021-0.051c-0.059,0.094-0.132,0.176-0.197,0.247L384.238,42.009L384.238,42.009z"/>
					</g>
				</g>
				<g>
					<g>
						<path class="st47" d="M377.15,59.863c-0.519-1.635-2.085-2.855-3.226-4.064c-1.434-1.517-2.888-3.039-4.294-4.581
							c-0.719-0.789-1.374-1.61-2.223-2.265c-1.062-0.813-2.3-0.464-3.288,0.277c-0.268,0.201-0.526,0.409-0.781,0.626
							c-0.037,0.03-0.375,0.31-0.381,0.323c-0.644,0.463-1.461,0.788-2.164,1.142c-1.529,0.772-2.966,1.632-4.247,2.783
							c-0.755,0.679-0.589,1.567-0.047,2.132c0.073,0.152,0.165,0.298,0.277,0.434c2.523,3.075,5.015,6.274,6.948,9.759
							c0.646,1.163,1.594,3.116,3.162,3.114c1.533-0.002,2.803-1.448,3.762-2.486c0.454-0.489,0.872-0.995,1.373-1.438
							c0.771-0.677,1.724-1.159,2.58-1.719c0.663-0.433,1.34-0.886,1.95-1.391C377.329,61.863,377.441,60.785,377.15,59.863z"/>
						<path class="st35" d="M366.885,69.694h-0.002c-1.544,0-2.511-1.765-3.152-2.935c-0.048-0.09-0.094-0.176-0.14-0.258
							c-1.937-3.489-4.478-6.742-6.934-9.736c-0.113-0.136-0.208-0.284-0.285-0.442c-0.326-0.347-0.504-0.789-0.488-1.214
							c0.015-0.415,0.209-0.802,0.56-1.118c1.133-1.019,2.454-1.885,4.28-2.806c0.196-0.1,0.399-0.193,0.606-0.292
							c0.528-0.248,1.074-0.505,1.526-0.829c0.04-0.038,0.125-0.11,0.334-0.283l0.05-0.043c0.279-0.234,0.536-0.442,0.786-0.629
							c0.678-0.508,1.382-0.776,2.037-0.776c0.521,0,1.003,0.169,1.435,0.5c0.679,0.522,1.245,1.158,1.79,1.774
							c0.149,0.169,0.301,0.339,0.455,0.508c1.103,1.209,2.251,2.424,3.364,3.597c0.309,0.329,0.62,0.656,0.929,0.985
							c0.249,0.262,0.513,0.521,0.793,0.797c1.009,0.99,2.051,2.012,2.466,3.324c0.277,0.869,0.25,2.063-0.648,2.808
							c-0.625,0.518-1.312,0.977-1.963,1.401c-0.266,0.174-0.544,0.343-0.814,0.504c-0.6,0.366-1.224,0.741-1.746,1.201
							c-0.366,0.322-0.681,0.674-1.016,1.043c-0.114,0.129-0.23,0.257-0.347,0.385l-0.119,0.128
							C369.704,68.304,368.422,69.693,366.885,69.694z M363.085,50.268l-0.006,0.011l-0.034,0.025
							c-0.479,0.342-1.042,0.608-1.586,0.866c-0.204,0.096-0.406,0.189-0.598,0.289c-1.802,0.908-3.103,1.76-4.214,2.758
							c-0.29,0.26-0.447,0.573-0.46,0.903c-0.011,0.35,0.141,0.719,0.421,1.011l0.016,0.018l0.011,0.024
							c0.069,0.141,0.154,0.276,0.255,0.401c2.467,3.004,5.017,6.27,6.965,9.781c0.047,0.083,0.093,0.169,0.143,0.259
							c0.641,1.171,1.519,2.775,2.883,2.775v0.153l0-0.153c1.406,0,2.586-1.279,3.534-2.306l0.119-0.13
							c0.118-0.128,0.231-0.254,0.345-0.382c0.326-0.36,0.662-0.732,1.039-1.066c0.543-0.479,1.179-0.862,1.791-1.233
							c0.269-0.161,0.543-0.33,0.804-0.499c0.644-0.422,1.324-0.874,1.937-1.38c0.782-0.648,0.799-1.708,0.553-2.482
							c-0.392-1.24-1.408-2.237-2.389-3.2c-0.284-0.276-0.548-0.538-0.802-0.807c-0.309-0.327-0.618-0.654-0.929-0.981
							c-1.112-1.176-2.264-2.392-3.368-3.604c-0.155-0.169-0.306-0.34-0.457-0.511c-0.562-0.634-1.091-1.229-1.747-1.734
							c-0.377-0.289-0.798-0.436-1.25-0.436c-0.744,0-1.418,0.389-1.854,0.715c-0.245,0.184-0.497,0.385-0.772,0.618l-0.053,0.043
							C363.32,50.067,363.143,50.216,363.085,50.268z"/>
					</g>
					<path class="st35" d="M368.025,49.547c-0.41,0.256-0.754,0.598-1.096,0.938c-0.139,0.138,0.076,0.353,0.215,0.216
						c0.322-0.323,0.647-0.648,1.037-0.892C368.346,49.707,368.192,49.443,368.025,49.547z"/>
					<path class="st35" d="M363.4,62.042c-0.069,0.131-0.174,0.224-0.327,0.229c-0.195,0.006-0.195,0.312,0,0.305
						c0.258-0.008,0.47-0.153,0.589-0.38C363.753,62.022,363.491,61.868,363.4,62.042z"/>
					<path class="st35" d="M363.804,62.394c-0.217,0.207-0.481,0.34-0.771,0.417c-0.188,0.049-0.109,0.341,0.081,0.293
						c0.339-0.091,0.65-0.252,0.904-0.496C364.159,62.47,363.944,62.256,363.804,62.394z"/>
					<path class="st35" d="M364.443,62.748c-0.402,0.237-0.816,0.442-1.258,0.594c-0.185,0.063-0.104,0.357,0.082,0.294
						c0.465-0.16,0.907-0.374,1.33-0.624C364.766,62.91,364.612,62.648,364.443,62.748z"/>
					<path class="st35" d="M373.659,55.768h-1.381c0.017,0,0.033,0,0.05-0.005c0.308-0.1,0.626-0.144,0.95-0.147
						c0.195-0.003,0.196-0.307,0-0.305c-0.348,0.005-0.699,0.053-1.031,0.158c-0.161,0.051-0.123,0.277,0.012,0.299h-0.504
						c-0.195,0-0.195,0.305,0,0.305h1.904C373.854,56.072,373.854,55.768,373.659,55.768z"/>
					<path class="st35" d="M367.914,67.991c0.101-0.389,0.058-0.741-0.137-1.112c-0.092-0.174-0.354-0.021-0.263,0.152
						c0.187,0.355,0.19,0.653,0.062,1.025c-0.027,0.073,0.028,0.172,0.104,0.187c0.485,0.094,0.52,0.455,0.428,0.878
						c-0.043,0.192,0.25,0.273,0.292,0.082C368.519,68.665,368.435,68.166,367.914,67.991z"/>
					<path class="st35" d="M374.877,63.475c-0.513-0.226-0.98-0.525-1.447-0.837c-0.162-0.11-0.315,0.155-0.153,0.262
						c0.466,0.312,0.933,0.613,1.446,0.84C374.901,63.817,375.057,63.555,374.877,63.475z"/>
					<path class="st35" d="M375.486,63.02c-0.47-0.241-0.898-0.545-1.406-0.701c-0.188-0.058-0.269,0.236-0.082,0.292
						c0.482,0.15,0.89,0.442,1.333,0.671C375.507,63.371,375.66,63.108,375.486,63.02z"/>
					<path class="st35" d="M376.049,62.738c-0.276-0.271-0.598-0.487-0.979-0.572c-0.191-0.043-0.273,0.25-0.082,0.293
						c0.334,0.075,0.604,0.257,0.846,0.493C375.974,63.091,376.189,62.876,376.049,62.738z"/>
					<path class="st35" d="M358.253,57.183c-0.156,0.148-0.37,0.18-0.577,0.184c-0.197,0.001-0.197,0.307,0,0.305
						c0.29-0.005,0.576-0.068,0.792-0.273C358.611,57.262,358.396,57.047,358.253,57.183z"/>
					<path class="st80" d="M366.651,48.63c-0.544,0.004-1.062,0.06-1.572,0.263c-0.46,0.185-0.816,0.498-1.167,0.84
						c-0.467,0.453-0.932,0.727-1.539,0.969c-0.515,0.206-0.933,0.447-1.388,0.762c-0.221,0.153-0.478,0.198-0.718,0.309
						c-0.268,0.121-0.516,0.287-0.772,0.433c-0.51,0.291-1.006,0.573-1.471,0.937c-0.416,0.322-0.856,0.619-1.262,0.954
						c-0.334,0.276-0.513,0.636-0.529,1.068c-0.005,0.098,0.148,0.098,0.152,0c0.021-0.556,0.357-0.883,0.784-1.188
						c0.43-0.309,0.837-0.644,1.264-0.954c0.432-0.314,0.91-0.554,1.372-0.82c0.438-0.252,0.939-0.387,1.354-0.674
						c0.446-0.309,0.872-0.527,1.377-0.729c0.421-0.169,0.811-0.357,1.156-0.653c0.404-0.347,0.736-0.749,1.212-1.004
						c0.541-0.291,1.144-0.354,1.746-0.361C366.75,48.78,366.75,48.629,366.651,48.63z"/>
				</g>
				<g>
					<path class="st64" d="M360.092,58.457c-0.179-0.329-0.535-0.427-0.888-0.387c-0.255,0.031-0.47,0.146-0.663,0.297
						c-0.589,0.216-1.086,0.87-0.77,1.378c0.017,0.048,0.04,0.095,0.069,0.14c0.011,0.035,0.031,0.061,0.06,0.076
						c0.036,0.038,0.076,0.077,0.124,0.108c0.092,0.065,0.209,0.058,0.306,0.008c0.062-0.006,0.119-0.03,0.167-0.076
						c0.481-0.139,1.041-0.329,1.404-0.669C360.127,59.119,360.245,58.742,360.092,58.457z"/>
					<path class="st35" d="M358.176,60.27L358.176,60.27c-0.086,0-0.168-0.025-0.237-0.075c-0.047-0.032-0.089-0.07-0.133-0.115
						c-0.046-0.03-0.082-0.075-0.102-0.128c-0.028-0.045-0.051-0.089-0.069-0.141c-0.126-0.211-0.147-0.455-0.062-0.705
						c0.128-0.371,0.478-0.713,0.894-0.872c0.236-0.183,0.473-0.284,0.72-0.312c0.056-0.01,0.113-0.013,0.167-0.013
						c0.398,0,0.706,0.169,0.872,0.476c0.198,0.365,0.034,0.819-0.22,1.058c-0.369,0.346-0.907,0.541-1.436,0.696
						c-0.056,0.043-0.121,0.074-0.195,0.088C358.311,60.255,358.244,60.27,358.176,60.27z M357.985,59.832l0.012,0.006l0.018,0.02
						c0.033,0.036,0.064,0.063,0.098,0.088c0.038,0.027,0.095,0.023,0.149-0.004l0.023-0.013l0.027-0.003
						c0.034-0.003,0.061-0.015,0.082-0.035l0.025-0.023l0.035-0.01c0.478-0.143,1.012-0.328,1.343-0.638
						c0.174-0.163,0.282-0.466,0.161-0.689c-0.14-0.261-0.406-0.316-0.603-0.316c-0.044,0-0.088,0.003-0.133,0.008
						c-0.2,0.024-0.387,0.107-0.585,0.266l-0.042,0.021c-0.339,0.128-0.634,0.407-0.733,0.696c-0.057,0.169-0.045,0.324,0.04,0.462
						l0.015,0.028c0.013,0.038,0.031,0.072,0.052,0.105L357.985,59.832z"/>
				</g>
				<g>
					<path class="st64" d="M361.103,59.148c-0.21-0.39-0.629-0.503-1.044-0.455c-0.301,0.035-0.554,0.169-0.78,0.348
						c-0.694,0.257-1.277,1.023-0.908,1.623c0.021,0.056,0.048,0.111,0.083,0.162c0.012,0.042,0.037,0.074,0.071,0.092
						c0.042,0.046,0.089,0.089,0.145,0.127c0.107,0.077,0.247,0.067,0.359,0.01c0.073-0.008,0.142-0.036,0.196-0.088
						c0.568-0.167,1.227-0.391,1.652-0.792C361.143,59.926,361.283,59.481,361.103,59.148z"/>
					<path class="st35" d="M358.848,61.253L358.848,61.253c-0.098,0-0.188-0.028-0.264-0.081c-0.055-0.039-0.106-0.083-0.158-0.138
						c-0.05-0.033-0.088-0.081-0.11-0.141c-0.034-0.05-0.061-0.105-0.083-0.163c-0.144-0.244-0.169-0.523-0.07-0.811
						c0.148-0.434,0.554-0.828,1.039-1.015c0.277-0.211,0.551-0.329,0.839-0.364c0.067-0.008,0.131-0.011,0.195-0.011
						c0.458,0,0.812,0.194,1.001,0.544c0.227,0.422,0.039,0.939-0.254,1.213c-0.432,0.405-1.062,0.632-1.682,0.817
						c-0.065,0.051-0.142,0.085-0.227,0.098C359.001,61.235,358.923,61.253,358.848,61.253z M360.235,58.835
						c-0.052,0-0.105,0.003-0.159,0.01c-0.242,0.027-0.465,0.129-0.704,0.316l-0.042,0.023c-0.406,0.148-0.76,0.484-0.878,0.832
						c-0.071,0.21-0.055,0.399,0.049,0.567l0.014,0.028c0.017,0.047,0.038,0.09,0.064,0.13l0.02,0.043l0.024,0.011l0.013,0.018
						c0.041,0.045,0.079,0.078,0.121,0.107c0.025,0.019,0.056,0.028,0.09,0.028l0,0c0.037,0,0.075-0.011,0.113-0.028l0.023-0.013
						l0.028-0.003c0.03-0.005,0.074-0.017,0.109-0.05l0.028-0.025l0.034-0.01c0.565-0.166,1.198-0.387,1.591-0.756
						c0.213-0.197,0.343-0.568,0.195-0.845C360.796,58.902,360.475,58.835,360.235,58.835z"/>
				</g>
				<g>
					<path class="st64" d="M361.892,60.124c-0.207-0.385-0.624-0.498-1.037-0.449c-0.299,0.034-0.551,0.166-0.776,0.344
						c-0.691,0.256-1.27,1.019-0.901,1.613c0.021,0.057,0.047,0.109,0.083,0.162c0.012,0.042,0.035,0.07,0.07,0.088
						c0.041,0.047,0.088,0.09,0.144,0.13c0.108,0.075,0.245,0.066,0.357,0.008c0.072-0.008,0.141-0.037,0.197-0.088
						c0.563-0.166,1.217-0.388,1.64-0.784C361.933,60.9,362.072,60.458,361.892,60.124z"/>
					<path class="st35" d="M359.652,62.218L359.652,62.218c-0.097,0-0.188-0.029-0.264-0.082c-0.053-0.038-0.103-0.081-0.154-0.134
						c-0.05-0.033-0.087-0.083-0.112-0.143c-0.031-0.049-0.058-0.104-0.081-0.162c-0.144-0.24-0.168-0.52-0.07-0.807
						c0.147-0.427,0.551-0.821,1.032-1.006c0.275-0.21,0.547-0.329,0.834-0.361c0.065-0.008,0.129-0.012,0.192-0.012
						c0.456,0,0.808,0.19,0.997,0.54c0.225,0.419,0.037,0.933-0.253,1.206c-0.43,0.402-1.056,0.629-1.671,0.812
						c-0.064,0.051-0.141,0.084-0.225,0.099C359.805,62.2,359.727,62.218,359.652,62.218z M361.03,59.815
						c-0.05,0-0.105,0.003-0.158,0.01c-0.239,0.028-0.46,0.128-0.7,0.313l-0.04,0.023c-0.404,0.148-0.754,0.48-0.873,0.827
						c-0.072,0.206-0.055,0.395,0.049,0.562l0.014,0.028c0.017,0.047,0.038,0.09,0.064,0.128l0.021,0.043l0.022,0.013l0.015,0.017
						c0.039,0.044,0.078,0.078,0.119,0.106c0.026,0.018,0.055,0.025,0.089,0.025l0,0c0.036,0,0.074-0.009,0.109-0.028l0.026-0.011
						l0.027-0.004c0.043-0.005,0.08-0.022,0.109-0.048l0.026-0.025l0.034-0.008c0.591-0.176,1.19-0.387,1.581-0.751
						c0.211-0.198,0.341-0.566,0.193-0.84C361.588,59.881,361.27,59.815,361.03,59.815z"/>
				</g>
				<g>
					<path class="st64" d="M362.366,61.173c-0.179-0.334-0.537-0.431-0.894-0.39c-0.256,0.03-0.472,0.146-0.666,0.297
						c-0.594,0.219-1.093,0.877-0.775,1.389c0.018,0.048,0.039,0.094,0.07,0.139c0.011,0.035,0.032,0.062,0.062,0.076
						c0.035,0.039,0.076,0.078,0.124,0.11c0.091,0.065,0.21,0.058,0.307,0.01c0.062-0.008,0.121-0.033,0.167-0.077
						c0.485-0.142,1.048-0.333,1.413-0.675C362.401,61.839,362.52,61.459,362.366,61.173z"/>
					<path class="st35" d="M360.439,62.994L360.439,62.994c-0.088,0-0.171-0.026-0.239-0.074c-0.047-0.031-0.093-0.07-0.135-0.116
						c-0.045-0.032-0.082-0.077-0.102-0.128c-0.027-0.046-0.05-0.091-0.07-0.141c-0.127-0.212-0.149-0.46-0.062-0.711
						c0.129-0.373,0.479-0.717,0.898-0.878c0.237-0.182,0.475-0.284,0.724-0.314c0.057-0.005,0.113-0.01,0.169-0.01
						c0.398,0,0.711,0.169,0.875,0.478c0.2,0.37,0.035,0.822-0.221,1.062c-0.372,0.35-0.911,0.544-1.443,0.702
						c-0.057,0.045-0.124,0.073-0.196,0.086C360.573,62.979,360.505,62.994,360.439,62.994z M360.245,62.556l0.011,0.007l0.018,0.02
						c0.034,0.036,0.066,0.063,0.101,0.089c0.018,0.013,0.038,0.02,0.064,0.02l0,0c0.026,0,0.057-0.008,0.085-0.022l0.023-0.012
						l0.027-0.006c0.034-0.003,0.061-0.015,0.083-0.035l0.026-0.024l0.034-0.011c0.481-0.141,1.019-0.327,1.351-0.641
						c0.176-0.163,0.285-0.468,0.163-0.696c-0.14-0.262-0.409-0.316-0.607-0.316c-0.045,0-0.09,0.004-0.134,0.009
						c-0.201,0.023-0.39,0.108-0.59,0.265l-0.042,0.022c-0.341,0.126-0.638,0.409-0.738,0.701c-0.059,0.169-0.046,0.325,0.039,0.463
						l0.016,0.03c0.012,0.037,0.029,0.073,0.051,0.105L360.245,62.556z"/>
				</g>
				<path class="st35" d="M399.759,73.459c-0.113-0.54-0.081-1.359-0.545-1.742c-0.149-0.123-0.368,0.091-0.216,0.216
					c0.405,0.333,0.369,1.132,0.468,1.607C399.507,73.732,399.799,73.649,399.759,73.459z"/>
				<path class="st35" d="M401.49,72.991c-0.01-0.562-0.298-1.078-0.874-1.211c-0.189-0.045-0.272,0.248-0.08,0.294
					c0.443,0.101,0.642,0.487,0.649,0.917c0.001,0.086,0.062,0.132,0.128,0.144c0,0.037,0.001,0.073-0.002,0.11
					c-0.007,0.099,0.146,0.098,0.152,0c0.005-0.056,0.004-0.113,0.001-0.171C401.48,73.052,401.491,73.026,401.49,72.991z"/>
				<path class="st35" d="M401.998,71.723c-0.196-0.006-0.196,0.299,0,0.306c0.01,0,0.018,0.001,0.029,0.001
					c0.193,0.112,0.39,0.224,0.548,0.384c0.041,0.041,0.071,0.088,0.099,0.134c0.089,0.246,0.104,0.543,0.084,0.799
					c-0.014,0.198,0.292,0.196,0.305,0C403.116,72.604,402.866,71.753,401.998,71.723z"/>
				<g>
					<g>
						<circle class="st67" cx="371.123" cy="98.271" r="1.263"/>
						<path class="st35" d="M371.123,99.687c-0.781,0-1.416-0.636-1.416-1.416c0-0.779,0.635-1.414,1.416-1.414
							c0.779,0,1.414,0.635,1.414,1.414C372.537,99.051,371.902,99.687,371.123,99.687z M371.123,97.162
							c-0.613,0-1.111,0.498-1.111,1.108c0,0.613,0.498,1.111,1.111,1.111c0.612,0,1.111-0.498,1.111-1.111
							C372.234,97.66,371.735,97.162,371.123,97.162z"/>
					</g>
					<path class="st35" d="M372.386,98.341c-0.115-0.077-0.214-0.17-0.31-0.266c0.071-0.124,0.145-0.251,0.223-0.372
						c0.052-0.083-0.08-0.16-0.132-0.076c-0.07,0.109-0.137,0.225-0.202,0.338c-0.098-0.101-0.195-0.202-0.305-0.295
						c0.073-0.133,0.149-0.263,0.238-0.385c0.058-0.08-0.075-0.157-0.132-0.077c-0.083,0.116-0.155,0.238-0.228,0.361
						c-0.132-0.109-0.266-0.219-0.407-0.321c0.088-0.063,0.182-0.113,0.283-0.138c0.097-0.023,0.056-0.171-0.039-0.146
						c-0.139,0.033-0.26,0.105-0.369,0.193c-0.054-0.039-0.108-0.075-0.164-0.11c-0.083-0.053-0.159,0.08-0.077,0.131
						c0.043,0.027,0.083,0.058,0.124,0.085c-0.091,0.091-0.172,0.191-0.249,0.289c-0.112-0.074-0.226-0.141-0.35-0.2
						c-0.087-0.041-0.167,0.091-0.077,0.131c0.118,0.057,0.229,0.122,0.336,0.193c-0.081,0.11-0.158,0.224-0.228,0.344
						c-0.081-0.073-0.162-0.147-0.244-0.219c-0.075-0.064-0.183,0.045-0.108,0.108c0.093,0.078,0.183,0.161,0.272,0.241
						c-0.047,0.088-0.093,0.174-0.137,0.262c-0.055-0.048-0.112-0.091-0.176-0.128c-0.085-0.049-0.162,0.083-0.078,0.13
						c0.069,0.041,0.131,0.089,0.188,0.141c-0.02,0.044-0.044,0.091-0.063,0.137c-0.039,0.09,0.092,0.166,0.132,0.077
						c0.013-0.034,0.03-0.069,0.045-0.103c0.093,0.1,0.181,0.204,0.277,0.301c0.05,0.049,0.105,0.096,0.162,0.137
						c-0.05,0.08-0.1,0.166-0.141,0.254s0.092,0.166,0.132,0.077c0.039-0.085,0.083-0.166,0.132-0.246
						c0.135,0.091,0.274,0.177,0.395,0.281c0.018,0.014,0.037,0.019,0.055,0.018c-0.001,0.07,0.102,0.118,0.141,0.043
						c0.069-0.131,0.137-0.264,0.204-0.395c0.058,0.038,0.116,0.078,0.17,0.124c0.077,0.06,0.185-0.046,0.108-0.108
						c-0.069-0.054-0.138-0.102-0.211-0.148c0.061-0.118,0.121-0.234,0.183-0.352c0.076,0.072,0.148,0.147,0.213,0.23
						c0.059,0.078,0.191,0.002,0.132-0.075c-0.083-0.108-0.176-0.203-0.273-0.291c0.055-0.104,0.109-0.207,0.167-0.31
						c0.093,0.096,0.191,0.188,0.307,0.267C372.39,98.527,372.464,98.395,372.386,98.341z M371.012,97.347
						c0.155,0.113,0.305,0.236,0.452,0.358c-0.063,0.114-0.124,0.231-0.186,0.347c-0.008-0.007-0.018-0.015-0.027-0.024
						c-0.16-0.138-0.32-0.27-0.489-0.393C370.836,97.532,370.919,97.434,371.012,97.347z M370.582,97.896
						c0.029-0.045,0.059-0.091,0.092-0.139c0.162,0.116,0.316,0.244,0.47,0.378c0.02,0.018,0.041,0.034,0.061,0.052
						c-0.029,0.056-0.059,0.111-0.09,0.166c-0.048,0.081-0.101,0.159-0.155,0.237c-0.002-0.003-0.007-0.005-0.009-0.008
						c-0.173-0.151-0.34-0.307-0.508-0.458C370.487,98.048,370.532,97.972,370.582,97.896z M370.682,98.971
						c-0.068-0.049-0.131-0.104-0.193-0.161c-0.094-0.094-0.178-0.193-0.267-0.285c0.046-0.092,0.093-0.18,0.142-0.268
						c0.158,0.145,0.316,0.291,0.477,0.435c0.008,0.007,0.018,0.015,0.027,0.022C370.806,98.799,370.742,98.885,370.682,98.971z
						 M371.222,99.364l-0.001-0.002c-0.132-0.113-0.276-0.206-0.418-0.305c0.058-0.087,0.119-0.171,0.18-0.254
						c0.129,0.093,0.266,0.169,0.398,0.252C371.329,99.159,371.275,99.262,371.222,99.364z M371.45,98.923
						c-0.128-0.076-0.255-0.153-0.378-0.242c0.059-0.082,0.118-0.165,0.173-0.251c0.029-0.046,0.056-0.093,0.084-0.139
						c0.108,0.083,0.213,0.166,0.316,0.254C371.579,98.671,371.515,98.796,371.45,98.923z M371.403,98.156
						c0.063-0.116,0.123-0.234,0.184-0.35c0.012,0.01,0.023,0.018,0.034,0.027c0.097,0.08,0.183,0.169,0.268,0.259
						c-0.06,0.105-0.116,0.213-0.171,0.319C371.615,98.324,371.51,98.241,371.403,98.156z"/>
				</g>
				<g>
					<path class="st15" d="M369.874,57.238c-0.353-0.289-0.542-0.73-0.801-1.098c-0.271-0.378-0.59-0.729-0.896-1.081
						c-0.453-0.519-0.919-1.025-1.362-1.552c0.302-0.567,0.605-1.093,0.69-1.741c0.038-0.29-0.419-0.287-0.457,0
						c-0.062,0.48-0.287,0.938-0.532,1.382c-0.181-0.228-0.358-0.459-0.526-0.696c-0.167-0.24-0.565-0.012-0.394,0.229
						c0.217,0.309,0.446,0.604,0.683,0.895c-0.084,0.151-0.164,0.3-0.235,0.45c-0.11,0.231-0.213,0.467-0.314,0.703
						c-0.508-0.497-0.982-1.021-1.299-1.669c-0.131-0.264-0.524-0.034-0.395,0.229c0.361,0.736,0.917,1.329,1.5,1.891
						c-0.142,0.344-0.283,0.686-0.434,1.024c-0.024,0.054-0.045,0.105-0.067,0.159c-0.684-0.724-1.398-1.416-2.049-2.17
						c-0.193-0.226-0.514,0.101-0.322,0.322c0.691,0.802,1.447,1.541,2.174,2.308c-0.232,0.561-0.45,1.131-0.671,1.694
						c-1.024-1.076-2.066-2.137-3.084-3.221c-0.203-0.216-0.524,0.108-0.323,0.321c1.063,1.132,2.156,2.24,3.223,3.369
						c-0.252,0.633-0.517,1.262-0.823,1.872c-0.13,0.265,0.263,0.493,0.395,0.231c0.284-0.565,0.538-1.146,0.78-1.729
						c0.479,0.508,0.95,1.023,1.411,1.547c0.196,0.223,0.518-0.102,0.324-0.322c-0.505-0.573-1.021-1.134-1.543-1.689
						c0.225-0.562,0.445-1.128,0.67-1.691c0.736,0.81,1.408,1.667,2.187,2.446c0.208,0.21,0.531-0.113,0.322-0.32
						c-0.822-0.826-1.534-1.729-2.315-2.589c-0.001-0.002-0.004-0.003-0.006-0.007c0.108-0.267,0.217-0.53,0.33-0.793
						c0.061-0.141,0.12-0.283,0.181-0.424c0.034,0.033,0.069,0.065,0.104,0.1c0.794,0.749,1.377,1.71,2.222,2.398
						c0.225,0.186,0.551-0.138,0.323-0.324c-0.787-0.643-1.325-1.536-2.058-2.242c-0.133-0.126-0.266-0.253-0.399-0.38
						c0.16-0.377,0.327-0.751,0.506-1.118c0.355,0.415,0.721,0.822,1.086,1.229c0.389,0.435,0.777,0.875,1.115,1.352
						c0.25,0.353,0.418,0.747,0.758,1.024C369.776,57.746,370.1,57.425,369.874,57.238z"/>
					<path class="st123" d="M370.025,57.06c-0.352-0.289-0.541-0.73-0.801-1.096c-0.27-0.38-0.589-0.731-0.894-1.081
						c-0.454-0.521-0.919-1.027-1.363-1.553c0.302-0.566,0.606-1.094,0.69-1.742c0.039-0.291-0.419-0.287-0.457,0
						c-0.063,0.482-0.288,0.938-0.532,1.382c-0.182-0.226-0.358-0.459-0.527-0.696c-0.167-0.24-0.564-0.012-0.394,0.229
						c0.217,0.309,0.446,0.604,0.684,0.896c-0.084,0.15-0.164,0.299-0.236,0.449c-0.11,0.231-0.212,0.466-0.314,0.703
						c-0.507-0.499-0.982-1.022-1.299-1.669c-0.13-0.266-0.523-0.032-0.395,0.231c0.361,0.734,0.917,1.327,1.501,1.889
						c-0.143,0.344-0.284,0.688-0.435,1.025c-0.023,0.053-0.045,0.105-0.067,0.158c-0.683-0.724-1.397-1.416-2.049-2.172
						c-0.192-0.222-0.514,0.103-0.323,0.324c0.692,0.8,1.448,1.541,2.176,2.308c-0.233,0.562-0.45,1.129-0.671,1.694
						c-1.023-1.076-2.065-2.139-3.084-3.221c-0.201-0.216-0.523,0.106-0.323,0.322c1.064,1.133,2.154,2.239,3.221,3.368
						c-0.25,0.633-0.515,1.262-0.821,1.873c-0.131,0.264,0.262,0.494,0.395,0.23c0.282-0.567,0.538-1.146,0.778-1.729
						c0.478,0.508,0.951,1.022,1.412,1.548c0.195,0.221,0.517-0.104,0.322-0.324c-0.503-0.573-1.021-1.134-1.544-1.689
						c0.227-0.562,0.447-1.128,0.67-1.691c0.739,0.812,1.409,1.667,2.188,2.446c0.208,0.21,0.532-0.113,0.323-0.32
						c-0.823-0.826-1.535-1.727-2.315-2.589c-0.003-0.002-0.005-0.004-0.007-0.007c0.107-0.265,0.217-0.53,0.33-0.794
						c0.061-0.141,0.12-0.28,0.18-0.423c0.035,0.033,0.068,0.065,0.104,0.099c0.794,0.749,1.379,1.711,2.221,2.399
						c0.227,0.185,0.551-0.136,0.323-0.323c-0.787-0.642-1.323-1.537-2.056-2.243c-0.133-0.126-0.266-0.253-0.402-0.381
						c0.162-0.375,0.329-0.75,0.509-1.117c0.354,0.415,0.72,0.822,1.087,1.229c0.387,0.435,0.776,0.875,1.115,1.353
						c0.25,0.353,0.417,0.746,0.758,1.025C369.929,57.568,370.253,57.246,370.025,57.06z"/>
					<path class="st81" d="M370.025,57.211c-0.352-0.287-0.541-0.729-0.801-1.094c-0.27-0.38-0.589-0.731-0.894-1.083
						c-0.454-0.521-0.919-1.026-1.363-1.553c0.302-0.566,0.606-1.092,0.69-1.74c0.039-0.291-0.419-0.287-0.457,0
						c-0.063,0.48-0.288,0.938-0.532,1.382c-0.182-0.228-0.358-0.459-0.527-0.698c-0.167-0.239-0.564-0.012-0.394,0.231
						c0.217,0.307,0.446,0.604,0.684,0.893c-0.084,0.152-0.164,0.302-0.236,0.452c-0.11,0.231-0.212,0.465-0.314,0.702
						c-0.507-0.498-0.982-1.023-1.299-1.668c-0.13-0.266-0.523-0.034-0.395,0.229c0.361,0.734,0.917,1.329,1.501,1.891
						c-0.143,0.344-0.284,0.686-0.435,1.024c-0.023,0.053-0.045,0.105-0.067,0.159c-0.683-0.725-1.397-1.418-2.049-2.172
						c-0.192-0.224-0.514,0.103-0.323,0.322c0.692,0.804,1.448,1.543,2.176,2.31c-0.233,0.561-0.45,1.129-0.671,1.694
						c-1.023-1.078-2.065-2.139-3.084-3.223c-0.201-0.214-0.523,0.108-0.323,0.322c1.064,1.134,2.154,2.241,3.221,3.368
						c-0.25,0.635-0.515,1.264-0.821,1.874c-0.131,0.263,0.262,0.495,0.395,0.229c0.282-0.565,0.538-1.145,0.778-1.729
						c0.478,0.511,0.951,1.023,1.412,1.548c0.195,0.222,0.517-0.103,0.322-0.321c-0.503-0.573-1.021-1.134-1.544-1.689
						c0.227-0.562,0.447-1.129,0.67-1.693c0.739,0.812,1.409,1.669,2.188,2.448c0.208,0.208,0.532-0.113,0.323-0.322
						c-0.823-0.824-1.535-1.727-2.315-2.587c-0.003-0.004-0.005-0.007-0.007-0.007c0.107-0.267,0.217-0.53,0.33-0.794
						c0.061-0.142,0.12-0.282,0.18-0.423c0.035,0.032,0.068,0.065,0.104,0.099c0.794,0.748,1.379,1.711,2.221,2.399
						c0.227,0.184,0.551-0.138,0.323-0.324c-0.787-0.643-1.323-1.538-2.056-2.242c-0.133-0.127-0.266-0.254-0.402-0.381
						c0.162-0.376,0.329-0.75,0.509-1.117c0.354,0.415,0.72,0.82,1.087,1.229c0.387,0.435,0.776,0.875,1.115,1.351
						c0.25,0.354,0.417,0.748,0.758,1.027C369.929,57.719,370.253,57.399,370.025,57.211z"/>
				</g>
				<path class="st48" d="M410.033,102.604c-0.529-0.525-1.108-1.089-1.726-1.632c-0.275-0.729-0.881-1.397-1.606-1.896
					c-0.27-0.568-0.66-1.031-1.174-1.414c-0.15-0.112-0.438-0.072-0.555,0.071c-0.3,0.377-1.276,0.243-1.686,0.187
					c-0.128-0.018-0.238,0.014-0.328,0.07c-0.346-0.249-0.736-0.421-1.196-0.526c-0.304-0.07-0.554,0.159-0.573,0.421
					c-0.084,0.192-0.065,0.444,0.146,0.604c0.31,0.232,0.586,0.481,0.913,0.672c0.051,0.046,0.115,0.083,0.193,0.101
					c0.025,0.012,0.051,0.025,0.077,0.037c0.544,0.229,1.154,0.27,1.716,0.443c0.374,0.113,0.729,0.283,1.078,0.478
					c0.033,0.022,0.067,0.042,0.102,0.057c0.731,0.416,1.428,0.937,2.161,1.312c0.632,0.522,1.233,1.086,1.811,1.661
					C409.805,103.665,410.449,103.021,410.033,102.604z"/>
				<g>
					<g>
						<path class="st10" d="M405.321,95.6c-0.021-0.343-0.012-1.009-0.366-1.217c-0.085-0.048-0.257-0.054-0.337,0.005
							c-0.355,0.262-0.782,0.445-1.193,0.593c-0.458,0.164-0.957,0.189-1.437,0.239c-0.239,0.025-0.471,0.09-0.705,0.138V82.896
							c0-0.156-0.127-0.282-0.282-0.282c-0.157,0-0.285,0.126-0.285,0.282v12.61c-0.023,0.03-0.041,0.065-0.048,0.102
							c-0.007,0.02-0.012,0.042-0.016,0.064c-0.038,0.452-0.069,1.113,0.129,1.536c0.219,0.472,0.745,0.575,1.214,0.659
							c0.727,0.132,1.561,0.09,2.296,0.064c0.394-0.015,0.95-0.1,1.074-0.548C405.513,96.851,405.354,96.143,405.321,95.6z"/>
						<path class="st35" d="M403.225,98.035L403.225,98.035c-0.5,0-0.895-0.03-1.243-0.091c-0.458-0.085-1.03-0.187-1.269-0.701
							c-0.206-0.444-0.177-1.113-0.137-1.578c0.002-0.028,0.009-0.056,0.02-0.083c0.005-0.03,0.02-0.066,0.044-0.101V82.896
							c0-0.198,0.161-0.357,0.36-0.357c0.197,0,0.36,0.159,0.36,0.357v12.367c0.03-0.008,0.062-0.015,0.092-0.021
							c0.172-0.038,0.349-0.078,0.527-0.098c0.081-0.008,0.162-0.016,0.242-0.023c0.395-0.039,0.805-0.078,1.177-0.211
							c0.321-0.115,0.791-0.301,1.174-0.583c0.068-0.05,0.162-0.058,0.212-0.058c0.079,0,0.154,0.018,0.208,0.048
							c0.351,0.208,0.378,0.776,0.396,1.153c0.003,0.045,0.004,0.086,0.007,0.124c0.008,0.145,0.027,0.301,0.045,0.465
							c0.051,0.441,0.108,0.94-0.002,1.345c-0.103,0.379-0.49,0.58-1.144,0.604l-0.167,0.005
							C403.834,98.024,403.53,98.035,403.225,98.035z M401.001,82.689c-0.115,0-0.208,0.091-0.208,0.206v12.636l-0.015,0.021
							c-0.019,0.024-0.03,0.048-0.036,0.07c-0.008,0.029-0.012,0.042-0.012,0.056c-0.04,0.447-0.069,1.09,0.12,1.5
							c0.207,0.442,0.735,0.538,1.16,0.615c0.339,0.061,0.724,0.089,1.215,0.089l0,0c0.303,0,0.606-0.011,0.898-0.021l0.167-0.007
							c0.581-0.019,0.918-0.185,1.004-0.491c0.103-0.374,0.045-0.859-0.003-1.286c-0.02-0.167-0.037-0.324-0.047-0.474
							c-0.002-0.039-0.004-0.08-0.006-0.125c-0.015-0.345-0.041-0.864-0.322-1.028c-0.056-0.034-0.206-0.037-0.253,0
							c-0.399,0.294-0.883,0.485-1.211,0.604c-0.392,0.139-0.811,0.181-1.215,0.219c-0.079,0.008-0.16,0.015-0.239,0.024
							c-0.171,0.019-0.344,0.056-0.51,0.094c-0.063,0.015-0.125,0.028-0.187,0.042l-0.092,0.019V82.896
							C401.208,82.78,401.115,82.689,401.001,82.689z"/>
					</g>
					<path class="st35" d="M403.108,95.14c0.104,0.012,0.205,0.013,0.311,0h0.812c0.01,0,0.016-0.003,0.025-0.006
						c0.008,0.003,0.015,0.006,0.026,0.006c0.003,0,0.006-0.003,0.012-0.003c0.004,0,0.007,0.003,0.012,0.003h0.057
						c0.004,0.053,0.006,0.107,0.01,0.163c-0.893,0.07-1.785,0.138-2.679,0.141c-0.007,0-0.013,0.002-0.018,0.003
						c-0.003-0.033-0.004-0.07-0.008-0.105c-0.009-0.096-0.161-0.097-0.152,0c0.071,0.794,0.077,1.591,0.101,2.385
						c0.004,0.099,0.155,0.099,0.153,0c-0.002-0.065-0.005-0.134-0.006-0.201c0.89,0.003,1.778,0.045,2.668,0.048
						c0,0.078,0.001,0.153,0.001,0.231c0,0.096,0.152,0.096,0.152,0c0-0.479-0.002-0.957-0.014-1.433
						c0.003-0.005,0.003-0.013,0.004-0.019c-0.002-0.021-0.005-0.042-0.005-0.064l0,0c-0.008-0.273-0.016-0.545-0.032-0.817
						c-0.009-0.025-0.012-0.052-0.012-0.078v-0.075c0-0.008,0.001-0.017,0.001-0.024c0,0,0,0-0.001,0
						c-0.01-0.158-0.021-0.316-0.034-0.474c0.001-0.012,0-0.022-0.002-0.034c-0.002-0.027-0.003-0.053-0.007-0.076
						c0-0.017-0.006-0.029-0.012-0.039c0-0.021,0.005-0.041,0.009-0.063c0.025-0.094-0.122-0.136-0.145-0.04
						c-0.021,0.082-0.024,0.161,0.004,0.238c0.004,0.061,0.008,0.121,0.012,0.182h-0.045c-0.005,0-0.008,0.002-0.012,0.002
						c-0.006,0-0.009-0.002-0.012-0.002c-0.011,0-0.019,0.002-0.026,0.005c-0.009-0.003-0.015-0.005-0.025-0.005h-0.838
						c-0.013,0-0.023,0.005-0.035,0.008 M404.425,96.967c-0.85,0.01-1.695,0.088-2.545,0.075c-0.01-0.008-0.023-0.015-0.042-0.015
						h-0.092c-0.001-0.053-0.002-0.108-0.004-0.164c0,0,0,0,0.001,0c0.871-0.003,1.742-0.048,2.613-0.05
						c0.002,0,0.003-0.001,0.007-0.003c0.019,0,0.039-0.002,0.059-0.002C404.423,96.86,404.423,96.914,404.425,96.967z
						 M404.421,96.657c-0.035,0-0.068,0-0.103,0.003c0,0,0,0.002-0.001,0.002c-0.857,0.005-1.715,0.046-2.573,0.051
						c-0.003,0-0.004,0-0.007,0c-0.001-0.062-0.002-0.124-0.005-0.187c0.89-0.115,1.789-0.118,2.686-0.118
						C404.417,96.489,404.419,96.574,404.421,96.657z M404.412,96.256c-0.897,0-1.795,0.005-2.687,0.118
						c-0.004-0.108-0.006-0.219-0.012-0.328c0.874-0.158,1.76-0.052,2.643-0.044c0.011,0,0.021-0.001,0.029-0.008h0.019
						C404.407,96.082,404.409,96.168,404.412,96.256z M401.693,95.595c0.897-0.003,1.793-0.07,2.687-0.142
						c0.007,0.131,0.013,0.26,0.018,0.39h-0.092c-0.009,0-0.016,0.003-0.024,0.006c-0.861-0.013-1.724-0.104-2.578,0.045
						c-0.005-0.101-0.011-0.199-0.018-0.3C401.689,95.594,401.69,95.595,401.693,95.595z M401.758,97.371
						c-0.001-0.064-0.004-0.126-0.006-0.19h0.004c0.011,0.008,0.021,0.013,0.039,0.013c0.878,0.02,1.752-0.066,2.631-0.075
						c0.001,0.103,0.001,0.202,0.001,0.304C403.539,97.419,402.648,97.376,401.758,97.371z"/>
				</g>
				<polygon class="st31" points="378.992,31.992 379.317,33.01 379.927,32.907 379.572,31.919 				"/>
				<polygon class="st31" points="381.987,31.421 382.349,32.603 382.958,32.502 382.565,31.348 				"/>
				<polygon class="st31" points="385.386,31.142 385.71,32.158 386.384,32.229 385.965,31.068 				"/>
				<polygon class="st31" points="388.519,31.029 388.844,32.045 389.503,32.07 389.098,30.954 				"/>
				<polygon class="st31" points="391.882,31.081 392.206,32.098 392.907,32.229 392.461,31.009 				"/>
			</g>
		</g>
		<path class="st21" d="M546.176,82.171c0,0-115.338,89.81-310.192,114.301l6.39,44.523l250.223-76.475L546.176,82.171z"/>
		<path class="st75" d="M246.973,233.866c0,0,178.106-54.073,299.203-151.695l161.844,87.792l294.633,133.589
			c0,0-755.679-20.843-755.679-24.038C246.973,276.319,246.973,233.866,246.973,233.866z"/>
		<path class="st46" d="M351.736,145.857c0,0,170.003,93.346,289.619,73.592l-4.259,25.433L437.983,228.91l-95.83-67.547
			L351.736,145.857z"/>
		<path class="st17" d="M-279.175,107.519c0,0,115.337,89.81,310.191,114.301l-6.389,44.523l-250.223-76.475L-279.175,107.519z"/>
		<path class="st56" d="M20.027,259.214c0,0-178.106-54.073-299.202-151.695l-161.845,87.792l-294.633,133.589
			c0,0,755.68-20.843,755.68-24.038C20.027,301.667,20.027,259.214,20.027,259.214z"/>
		<path class="st21" d="M71.927,136.137c0,0-115.337,89.81-310.192,114.302l6.39,44.522l250.223-76.475L71.927,136.137z"/>
		<path class="st75" d="M-227.275,287.832c0,0,178.106-54.073,299.203-151.695l161.844,87.793l294.633,133.588
			c0,0-755.68-20.843-755.68-24.038C-227.275,330.285-227.275,287.832-227.275,287.832z"/>
		<path class="st92" d="M641.355,269.679c0,0-181.011-31.187-289.619-123.821L36.985,279.839l169.942,103.464l442.946-1.064
			L641.355,269.679z"/>
		<path class="st72" d="M-169.133,187.027c0,0,105.15,75.39,224.19,105.864c119.039,30.474,0,4.358,0,4.358l-7.936,69.765
			L-43.34,344.2l-171.607-132.996L-169.133,187.027z"/>
		<path class="st7" d="M47.121,330.311c0,0-106.617-14.872-216.254-143.283l-522.474,120.595l314.155,42.05l9.921,41.974
			l397.788,7.113L47.121,330.311z"/>
		<path class="st72" d="M447.566,171.338c0,0-112.866,80.922-240.64,113.633c-127.773,32.71,0,4.677,0,4.677l8.519,74.884
			l97.099-24.488l184.199-142.754L447.566,171.338z"/>
		<path class="st21" d="M1139.061,118.375c0,0-105.15,75.39-224.189,105.864c-119.038,30.474,0,4.358,0,4.358l7.937,69.764
			l90.462-22.813l171.606-132.996L1139.061,118.375z"/>
		<path class="st75" d="M922.808,261.658c0,0,106.617-14.872,216.253-143.283l709.471,164.765l-501.151-2.122l-9.921,41.976
			l-397.788,7.113L922.808,261.658z"/>
		<path class="st46" d="M806.824,152.712c0,0,147.354,80.909,251.032,63.788l-3.691,22.044L881.58,224.701l-83.062-58.549
			L806.824,152.712z"/>
		<path class="st92" d="M1057.856,260.036c0,0-156.894-27.031-251.032-107.324L534.008,268.844l147.3,89.679l383.933-0.923
			L1057.856,260.036z"/>
		<path class="st46" d="M961.427,172.529c0,0-94.592,67.82-201.68,95.234c-107.086,27.415,0,3.921,0,3.921l7.14,62.76l81.378-20.523
			l154.377-119.642L961.427,172.529z"/>
		<path class="st92" d="M766.887,301.426c0,0,95.912-13.38,194.54-128.896l470.014,108.485l-282.612,37.826l-8.925,37.762
			l-357.846,6.399L766.887,301.426z"/>
		<path class="st7" d="M215.445,325.135c0,0,114.44-15.964,232.121-153.797l560.81,129.442L671.17,345.915l-10.648,45.056
			l-426.975,7.635L215.445,325.135z"/>
	</g>
</g>
</svg>
