<?xml version="1.0" encoding="utf-8"?>
<!-- Generator: Adobe Illustrator 16.0.0, SVG Export Plug-In . SVG Version: 6.00 Build 0)  -->
<!DOCTYPE svg PUBLIC "-//W3C//DTD SVG 1.1//EN" "http://www.w3.org/Graphics/SVG/1.1/DTD/svg11.dtd">
<svg version="1.1" id="Layer_1" xmlns="http://www.w3.org/2000/svg" xmlns:xlink="http://www.w3.org/1999/xlink" x="0px" y="0px"
	 width="1258px" height="335.643px" viewBox="653.947 0 1258 335.643" enable-background="new 653.947 0 1258 335.643"
	 xml:space="preserve">
<path opacity="0.6" fill="#FFFFFF" d="M1136.217,22.112c0.125-4.589,3.946-8.208,8.535-8.083c1.896,0.051,3.627,0.735,4.996,1.843
	c1.341-5.528,6.394-9.563,12.309-9.402c2.512,0.068,4.824,0.884,6.737,2.226c2.753-4.729,7.938-7.847,13.795-7.689
	c8.54,0.232,15.273,7.343,15.043,15.883c-0.227,8.313-6.972,14.913-15.209,15.044c-3.24,0.907-6.805,0.938-10.062,0.843
	c-2.412-0.07-4.818-0.271-7.226-0.374c-2.294-0.097-4.59,0.003-6.883,0.072c-4.893,0.148-10.262,0.452-14.926-1.314
	c-0.904-0.343-1.798-0.821-2.595-1.423C1137.979,28.32,1136.127,25.416,1136.217,22.112z"/>
<path opacity="0.6" fill="#FFFFFF" d="M1782.553,84.269c0.058-2.122,1.824-3.795,3.946-3.738c0.877,0.023,1.677,0.34,2.31,0.852
	c0.621-2.556,2.958-4.422,5.693-4.348c1.16,0.032,2.23,0.409,3.114,1.029c1.273-2.187,3.671-3.629,6.379-3.555
	c3.949,0.107,7.062,3.395,6.956,7.345c-0.105,3.843-3.225,6.896-7.032,6.956c-1.498,0.419-3.147,0.434-4.653,0.39
	c-1.115-0.032-2.228-0.125-3.342-0.173c-1.06-0.045-2.121,0.001-3.182,0.033c-2.263,0.068-4.746,0.209-6.901-0.608
	c-0.419-0.158-0.832-0.379-1.2-0.658C1783.367,87.14,1782.511,85.796,1782.553,84.269z"/>
<path opacity="0.6" fill="#FFFFFF" d="M738.445,42.233c-0.108-3.998-3.438-7.15-7.435-7.042c-1.652,0.045-3.159,0.641-4.352,1.605
	c-1.169-4.815-5.57-8.331-10.723-8.191c-2.188,0.061-4.202,0.771-5.869,1.94c-2.399-4.121-6.915-6.837-12.017-6.699
	c-7.438,0.204-13.306,6.396-13.104,13.835c0.197,7.242,6.073,12.992,13.247,13.104c2.823,0.791,5.929,0.817,8.767,0.735
	c2.101-0.062,4.195-0.236,6.294-0.325c1.998-0.085,3.998,0.001,5.994,0.063c4.264,0.128,8.94,0.392,13.002-1.146
	c0.788-0.298,1.568-0.715,2.261-1.24C736.912,47.642,738.523,45.111,738.445,42.233z"/>
<linearGradient id="SVGID_1_" gradientUnits="userSpaceOnUse" x1="1282.9482" y1="189.5298" x2="1282.9482" y2="409.2827" gradientTransform="matrix(1 0 0 -1 0 409.2832)">
	<stop  offset="0" style="stop-color:#9B8579;stop-opacity:0.79"/>
	<stop  offset="1" style="stop-color:#D4C499"/>
</linearGradient>
<polygon opacity="0.7" fill="url(#SVGID_1_)" enable-background="new    " points="1795.447,131.5 1795.447,131.5 1628.449,12.401 
	1577.447,62 1443.959,0 1351.447,73.557 1289.467,27.056 1193.447,96 1074.977,27.056 1025.447,73.557 936.053,0 817.447,94 
	774.062,58.68 688.566,83.512 653.947,56.117 653.947,203.771 988.551,213.609 975.982,198.009 1119.975,213.609 1629.949,207.882 
	1911.947,219.754 1911.947,56.117 "/>
<path fill="#C4A883" d="M1911.947,335.642V174.943c-100.166,1.724-198.446,5.193-297.53,5.562
	c-76.089-2.564-152.192-2.541-228.343-2.133c-82.992,0.446-165.947,1.512-248.945,1.061c-161.065-0.871-322.109-4.088-483.182-4.49
	v160.699L1911.947,335.642L1911.947,335.642z"/>
</svg>
