<?xml version="1.0" encoding="utf-8"?>
<!-- Generator: Adobe Illustrator 16.0.0, SVG Export Plug-In . SVG Version: 6.00 Build 0)  -->
<!DOCTYPE svg PUBLIC "-//W3C//DTD SVG 1.1//EN" "http://www.w3.org/Graphics/SVG/1.1/DTD/svg11.dtd">
<svg version="1.1" id="Layer_1" xmlns="http://www.w3.org/2000/svg" xmlns:xlink="http://www.w3.org/1999/xlink" x="0px" y="0px"
	 width="608.484px" height="220.744px" viewBox="0 0 608.484 220.744" style="enable-background:new 0 0 608.484 220.744;"
	 xml:space="preserve">
<style type="text/css">
<![CDATA[
	.st0{opacity:0.6;fill:#FFFFFF;}
	.st1{fill:#494244;}
	.st2{fill:#AFA8A0;}
	.st3{fill:none;stroke:#D1D2D3;stroke-width:6;stroke-miterlimit:10;}
	.st4{fill:#E3F4FC;}
	.st5{fill:#E3F4FD;}
	.st6{fill:#E4B97F;}
	.st7{fill:#E4F4FC;}
	.st8{fill:#E4F5FD;}
	.st9{fill:#E6E6E6;}
	.st10{fill:#E6E7E8;}
	.st11{fill:#E9F5F6;}
	.st12{fill:#E9F6F7;}
	.st13{fill:#808184;}
	.st14{fill:#808285;}
	.st15{fill:#B0844F;}
	.st16{fill:#816026;}
	.st17{fill:#818386;}
	.st18{fill:#81DCFC;}
	.st19{opacity:0.24;}
	.st20{opacity:0.34;}
	.st21{fill:#B58D58;}
	.st22{fill:none;stroke:#BE1E2D;stroke-linecap:round;stroke-miterlimit:10;}
	.st23{fill:#ED1C24;}
	.st24{opacity:0.2;fill:#221F1F;}
	.st25{clip-path:url(#SVGID_24_);fill:#E8615B;}
	.st26{fill:none;stroke:#FFFFFF;stroke-miterlimit:10;}
	.st27{fill-rule:evenodd;clip-rule:evenodd;fill:#E4B97F;}
	.st28{fill:#8A5F3C;}
	.st29{fill:#8B5E3C;}
	.st30{fill:#58595B;}
	.st31{fill:#592713;}
	.st32{fill:#592815;}
	.st33{fill:#594A42;}
	.st34{fill:#8DC63F;}
	.st35{fill:#BE1E2D;}
	.st36{fill:#221F1F;}
	.st37{fill:#231F20;}
	.st38{fill:#F26522;}
	.st39{fill:#BE1E2D;stroke:#231F20;stroke-miterlimit:10;}
	.st40{fill:#F4F4F4;}
	.st41{opacity:0.7;fill:url(#SVGID_13_);}
	.st42{opacity:0.7;fill:url(#SVGID_14_);}
	.st43{fill:#F7941E;}
	.st44{clip-path:url(#SVGID_11_);fill:url(#SVGID_12_);}
	.st45{clip-path:url(#SVGID_4_);}
	.st46{clip-path:url(#SVGID_6_);}
	.st47{clip-path:url(#SVGID_8_);}
	.st48{fill:#C09464;}
	.st49{fill:#929497;}
	.st50{opacity:0.24;fill:#221F1F;}
	.st51{fill:#93091A;}
	.st52{fill:#C2986B;}
	.st53{fill:url(#SVGID_1_);}
	.st54{fill:url(#SVGID_2_);}
	.st55{fill:#939598;}
	.st56{opacity:0.24;fill:#231F20;}
	.st57{fill:#C49A6C;}
	.st58{fill:#C5925F;}
	.st59{fill:#FAC6B4;}
	.st60{fill:#FBB040;}
	.st61{fill:#FBC7B4;}
	.st62{fill-rule:evenodd;clip-rule:evenodd;}
	.st63{opacity:0.75;fill:#FFFFFF;}
	.st64{opacity:0.21;fill:#221F1F;}
	.st65{fill:#FFDE17;}
	.st66{fill:#FFEFE3;}
	.st67{fill:#FFF0E2;}
	.st68{fill:#FFF0E3;}
	.st69{fill:#FFFFFF;}
	.st70{opacity:0.21;fill:#231F20;}
	.st71{fill:#27AAE1;stroke:#FFFFFF;stroke-width:2;stroke-miterlimit:10;}
	.st72{fill-rule:evenodd;clip-rule:evenodd;fill:#231F20;}
	.st73{fill:#231F20;stroke:#BE1E2D;stroke-miterlimit:10;}
	.st74{fill:#675675;}
	.st75{fill:#CBA277;}
	.st76{fill:#CC5C3A;}
	.st77{fill:#9E9790;}
	.st78{fill:#CEA06E;}
	.st79{fill:#CEAD84;}
	.st80{fill:#CEAF8A;}
	.st81{fill-rule:evenodd;clip-rule:evenodd;fill:#929497;}
	.st82{fill:#6B6188;}
	.st83{fill:#6C6288;}
	.st84{opacity:0.34;fill:#FFFFFF;}
	.st85{fill:#6D6E71;}
	.st86{fill:#D0D8AD;}
	.st87{opacity:0.21;fill:#FFFFFF;}
	.st88{fill-rule:evenodd;clip-rule:evenodd;fill:#FFFFFF;}
	.st89{fill:#D1D2D3;}
	.st90{fill:#D1D3D4;}
	.st91{fill:#231F20;stroke:#FFFFFF;stroke-width:2;stroke-miterlimit:10;}
	.st92{fill:#D39A4F;}
	.st93{opacity:0.13;fill:#221F1F;}
	.st94{fill:#FFFFFF;stroke:#8DC63F;stroke-miterlimit:10;}
	.st95{fill:#D7AB77;}
	.st96{fill:#D7DF23;}
	.st97{fill:url(#SVGID_15_);}
	.st98{fill:url(#SVGID_16_);}
	.st99{fill:url(#SVGID_17_);}
	.st100{fill:url(#SVGID_19_);}
	.st101{fill:url(#SVGID_21_);}
	.st102{fill:url(#SVGID_28_);}
	.st103{fill:url(#SVGID_29_);}
	.st104{fill:url(#SVGID_30_);}
	.st105{fill:url(#SVGID_31_);}
	.st106{fill:url(#SVGID_32_);}
	.st107{fill:url(#SVGID_33_);}
	.st108{fill:url(#SVGID_34_);}
	.st109{fill:url(#SVGID_35_);}
	.st110{fill:url(#SVGID_36_);}
	.st111{fill:url(#SVGID_37_);}
	.st112{fill:url(#SVGID_38_);}
	.st113{fill:url(#SVGID_39_);}
	.st114{fill:url(#SVGID_40_);}
	.st115{fill:url(#SVGID_41_);}
	.st116{fill:url(#SVGID_50_);}
	.st117{fill:url(#SVGID_51_);}
	.st118{fill:url(#SVGID_52_);}
	.st119{fill:url(#SVGID_53_);}
	.st120{clip-path:url(#SVGID_24_);}
	.st121{clip-path:url(#SVGID_27_);}
	.st122{clip-path:url(#SVGID_43_);}
	.st123{clip-path:url(#SVGID_45_);}
	.st124{clip-path:url(#SVGID_47_);}
	.st125{clip-path:url(#SVGID_49_);}
	.st126{fill:#A31123;}
	.st127{clip-path:url(#SVGID_8_);fill:url(#SVGID_9_);}
	.st128{fill:#A6A5A5;}
	.st129{fill:#788E7A;}
	.st130{fill:#A81124;}
	.st131{fill:#A87C51;}
	.st132{fill:#A97C50;}
	.st133{fill:#A9CA78;}
	.st134{fill:#414042;}
	.st135{fill:#424143;}
	.st136{clip-path:url(#SVGID_27_);fill:#E8615B;}
]]>
</style>
<g>
	<linearGradient id="SVGID_1_" gradientUnits="userSpaceOnUse" x1="533.8447" y1="217.8955" x2="533.8447" y2="74.5859">
		<stop  offset="0" style="stop-color:#A7A9AC"/>
		<stop  offset="1" style="stop-color:#6D6E71"/>
	</linearGradient>
	<path class="st53" d="M516.629,85.705c0.574-3.214,2.277-6.065,3.354-9.129c0.287-0.815-1.006-1.164-1.291-0.355
		c-0.801,2.283-1.895,4.416-2.672,6.668c-0.266-2.484-0.221-4.997-0.527-7.493c-0.104-0.844-1.443-0.854-1.338,0
		c0.299,2.422,0.275,4.858,0.502,7.268c-1.158-2.642-2.156-5.352-3.77-7.772c-0.475-0.714-1.635-0.044-1.154,0.676
		c2.115,3.173,3.178,6.851,4.932,10.211c-29.195,92.554-55.459,131.06-55.459,131.06l98.305,1.059L516.451,86.899l0,0
		l41.059,130.996l50.975-0.371C582.496,200.914,525.721,101.77,516.629,85.705z"/>
	<linearGradient id="SVGID_2_" gradientUnits="userSpaceOnUse" x1="366.0078" y1="217.417" x2="366.0078" y2="120.1064">
		<stop  offset="0" style="stop-color:#A7A9AC"/>
		<stop  offset="1" style="stop-color:#6D6E71"/>
	</linearGradient>
	<path class="st54" d="M354.318,127.656c0.391-2.183,1.545-4.118,2.277-6.198c0.193-0.554-0.684-0.791-0.877-0.241
		c-0.545,1.55-1.287,2.998-1.814,4.526c-0.182-1.686-0.15-3.393-0.357-5.087c-0.072-0.573-0.98-0.58-0.908,0
		c0.201,1.645,0.186,3.298,0.34,4.935c-0.787-1.793-1.463-3.634-2.559-5.277c-0.324-0.484-1.111-0.03-0.785,0.46
		c1.436,2.151,2.158,4.647,3.346,6.928c-19.822,62.839-37.654,88.997-37.654,88.997l66.75,0.719l34.613-0.252
		C399.043,205.886,360.49,138.564,354.318,127.656z"/>
	<linearGradient id="SVGID_4_" gradientUnits="userSpaceOnUse" x1="34.4414" y1="216.4062" x2="34.4414" y2="150.2783">
		<stop  offset="0" style="stop-color:#A7A9AC"/>
		<stop  offset="1" style="stop-color:#6D6E71"/>
	</linearGradient>
	<path style="fill:url(#SVGID_4_);" d="M26.5,155.415c0.266-1.484,1.047-2.804,1.543-4.219c0.133-0.376-0.463-0.537-0.594-0.164
		c-0.371,1.054-0.875,2.038-1.234,3.076c-0.123-1.146-0.102-2.306-0.242-3.457c-0.049-0.39-0.666-0.394-0.617,0
		c0.137,1.118,0.127,2.241,0.23,3.354c-0.535-1.219-0.994-2.47-1.738-3.586c-0.221-0.329-0.754-0.021-0.533,0.312
		c0.975,1.461,1.469,3.153,2.275,4.7C12.119,198.14,0,215.918,0,215.918l45.361,0.488l23.521-0.171
		C56.895,208.572,30.705,162.847,26.5,155.415z"/>
	<linearGradient id="SVGID_6_" gradientUnits="userSpaceOnUse" x1="281.8086" y1="200.6914" x2="281.8086" y2="107.6484">
		<stop  offset="0" style="stop-color:#A7A9AC"/>
		<stop  offset="1" style="stop-color:#6D6E71"/>
	</linearGradient>
	<path style="fill:url(#SVGID_6_);" d="M290.658,142.666v-3.164h-0.01v-21.303c15.426,0.758,17.518-1.34,17.518-1.34
		c-3.074-0.432-5.258-3.684-5.258-3.684h-12.26v-1.572v-0.288c0-0.476-0.387-0.862-0.863-0.862h-0.996v-0.865
		c0-0.377-0.305-0.682-0.682-0.682h-1.338v-0.773c0-0.268-0.217-0.484-0.484-0.484h-8.953c-0.268,0-0.484,0.217-0.484,0.484v0.773
		h-1.338c-0.375,0-0.682,0.305-0.682,0.682v0.865h-0.996c-0.477,0-0.863,0.387-0.863,0.862v0.288v1.572h-12.26
		c0,0-2.184,3.252-5.258,3.684c0,0,2.092,2.098,17.518,1.34v21.303v3.242c-0.57,0.604-4.582,4.473-8.844-1.588
		c0,0,3.494,7.691,8.844,4.283v12.109v4.064h-2.283c-0.248,0-0.449,0.201-0.449,0.449s0.201,0.449,0.449,0.449h0.473
		c-0.162,0.068-0.273,0.227-0.273,0.413c0,0.247,0.199,0.449,0.449,0.449h0.684c-0.248,0-0.451,0.201-0.451,0.45
		c0,0.247,0.203,0.449,0.451,0.449h0.951v12.582l2.463-0.004v0.004h-2.463v5.5v1.295v0.305v2.92v0.308v0.026v1.295v12.188h17.689
		v-12.188v-1.295v-0.308v-2.972v-0.279v-0.027v-1.268v-5.5h-2.463v-0.022l2.463-0.003v-12.557h0.953
		c0.248,0,0.447-0.202,0.447-0.449c0-0.249-0.199-0.45-0.447-0.45h0.682c0.248,0,0.449-0.202,0.449-0.449
		c0-0.187-0.111-0.345-0.273-0.413h0.473c0.246,0,0.449-0.201,0.449-0.449s-0.203-0.449-0.449-0.449h-2.283v-4.064v-12.15
		c5.393,3.522,8.916-4.242,8.916-4.242C294.971,147.699,290.658,142.666,290.658,142.666z M285.533,176.855v-0.02h0.432v0.02
		H285.533z M278.094,176.848v0.008h-0.434v-0.008H278.094z M278.992,176.846l5.643-0.008v0.018h-5.643V176.846z M276.33,176.852
		l0.432-0.002v0.006h-0.432V176.852z M287.297,176.855h-0.434v-0.021l0.434-0.001V176.855z"/>
	<polygon class="st30" points="409.816,162.125 409.816,117.375 450.816,117.375 450.816,162.064 	"/>
	<rect x="409.816" y="162.125" class="st92" width="41" height="55.25"/>
	<g>
		<path class="st60" d="M428.025,122.375c0,0.368-0.299,0.667-0.668,0.667h-13.248c-0.369,0-0.668-0.299-0.668-0.667l0,0
			c0-0.368,0.299-0.667,0.668-0.667h13.248C427.727,121.708,428.025,122.007,428.025,122.375L428.025,122.375z"/>
		<path class="st60" d="M447.191,122.375c0,0.368-0.299,0.667-0.668,0.667h-13.248c-0.369,0-0.668-0.299-0.668-0.667l0,0
			c0-0.368,0.299-0.667,0.668-0.667h13.248C446.893,121.708,447.191,122.007,447.191,122.375L447.191,122.375z"/>
	</g>
	
		<rect x="427.191" y="140.708" transform="matrix(0.7072 -0.707 0.707 0.7072 24.3091 346.3625)" class="st60" width="6.25" height="6.25"/>
	<path class="st76" d="M419.65,145.168c0.367,0,0.666,0.206,0.666,0.46v9.121c0,0.254-0.299,0.46-0.666,0.46l0,0
		c-0.369,0-0.668-0.206-0.668-0.46v-9.121C418.982,145.374,419.281,145.168,419.65,145.168L419.65,145.168z"/>
	<path class="st76" d="M440.982,145.084c0.369,0,0.668,0.209,0.668,0.468v9.273c0,0.259-0.299,0.468-0.668,0.468l0,0
		c-0.367,0-0.666-0.209-0.666-0.468v-9.273C440.316,145.293,440.615,145.084,440.982,145.084L440.982,145.084z"/>
	<path class="st30" d="M403.482,127.835c0,0.574,0.467,1.041,1.043,1.041h5.416c0.576,0,1.041-0.467,1.041-1.041l0,0
		c0-0.576-0.465-1.042-1.041-1.042h-5.416C403.949,126.793,403.482,127.259,403.482,127.835L403.482,127.835z"/>
	<path class="st30" d="M404.982,129.835c0,0.574,0.467,1.041,1.043,1.041h5.416c0.576,0,1.041-0.467,1.041-1.041l0,0
		c0-0.576-0.465-1.042-1.041-1.042h-5.416C405.449,128.793,404.982,129.259,404.982,129.835L404.982,129.835z"/>
	<path class="st30" d="M406.566,131.918c0,0.574,0.467,1.041,1.041,1.041h5.418c0.574,0,1.041-0.467,1.041-1.041l0,0
		c0-0.576-0.467-1.042-1.041-1.042h-5.418C407.033,130.876,406.566,131.342,406.566,131.918L406.566,131.918z"/>
	<path class="st30" d="M457.15,127.835c0,0.574-0.467,1.041-1.041,1.041h-5.418c-0.574,0-1.041-0.467-1.041-1.041l0,0
		c0-0.576,0.467-1.042,1.041-1.042h5.418C456.684,126.793,457.15,127.259,457.15,127.835L457.15,127.835z"/>
	<path class="st30" d="M455.65,129.835c0,0.574-0.467,1.041-1.041,1.041h-5.418c-0.574,0-1.041-0.467-1.041-1.041l0,0
		c0-0.576,0.467-1.042,1.041-1.042h5.418C455.184,128.793,455.65,129.259,455.65,129.835L455.65,129.835z"/>
	<path class="st30" d="M454.066,131.918c0,0.574-0.467,1.041-1.041,1.041h-5.418c-0.574,0-1.041-0.467-1.041-1.041l0,0
		c0-0.576,0.467-1.042,1.041-1.042h5.418C453.6,130.876,454.066,131.342,454.066,131.918L454.066,131.918z"/>
	<g>
		<circle class="st43" cx="420.491" cy="133.875" r="8.667"/>
		<circle class="st71" cx="420.49" cy="133.875" r="5.801"/>
	</g>
	<g>
		<circle class="st43" cx="439.995" cy="133.875" r="8.667"/>
		<circle class="st71" cx="439.994" cy="133.875" r="5.801"/>
	</g>
	<polygon class="st38" points="442.717,177.164 434.49,185.417 426.266,177.167 418.041,185.417 410.17,177.523 409.816,177.875 
		409.816,178.582 418.041,186.833 426.266,178.583 434.49,186.833 442.713,178.586 450.459,186.476 450.816,186.125 
		450.816,185.411 	"/>
	<polygon class="st38" points="450.463,177.461 442.592,185.355 434.367,177.105 426.143,185.355 417.916,177.103 409.816,185.35 
		409.816,186.062 410.174,186.414 417.922,178.524 426.143,186.771 434.367,178.521 442.592,186.771 450.816,178.521 
		450.816,177.812 	"/>
	<rect x="409.816" y="186.125" class="st65" width="41" height="3"/>
	<rect x="409.816" y="174.875" class="st65" width="41" height="3"/>
	<rect x="409.816" y="75.542" class="st129" width="41" height="41.833"/>
	<path class="st33" d="M450.816,82.875c0,0,10,11.667,20.666-3.5c0,0-8.166,18-20.666,9.833"/>
	<path class="st33" d="M409.982,82.875c0,0-10,11.667-20.666-3.5c0,0,8.166,18,20.666,9.833"/>
	<g>
		<circle class="st39" cx="421.232" cy="86.375" r="3"/>
		<circle class="st37" cx="421.232" cy="86.375" r="1.75"/>
	</g>
	<g>
		<circle class="st39" cx="439.398" cy="86.375" r="3"/>
		<circle class="st37" cx="439.398" cy="86.375" r="1.75"/>
	</g>
	<path class="st65" d="M445.92,93.396c0,0.207-0.168,0.375-0.375,0.375h-30.5c-0.207,0-0.375-0.168-0.375-0.375l0,0
		c0-0.206,0.168-0.375,0.375-0.375h30.5C445.752,93.021,445.92,93.189,445.92,93.396L445.92,93.396z"/>
	<path class="st96" d="M445.92,95.376c0,0.207-0.168,0.375-0.375,0.375h-30.5c-0.207,0-0.375-0.168-0.375-0.375l0,0
		c0-0.207,0.168-0.375,0.375-0.375h30.5C445.752,95.001,445.92,95.169,445.92,95.376L445.92,95.376z"/>
	<g>
		<path class="st22" d="M411.43,79.041c0,0,18.834-4.203,19,21.065"/>
		<path class="st22" d="M449.201,79.041c0,0-18.834-4.203-19,21.065"/>
	</g>
	<path class="st134" d="M427.232,97.356c0,0.207-0.168,0.375-0.375,0.375h-11.812c-0.207,0-0.375-0.168-0.375-0.375l0,0
		c0-0.207,0.168-0.375,0.375-0.375h11.812C427.064,96.981,427.232,97.149,427.232,97.356L427.232,97.356z"/>
	<path class="st134" d="M445.92,97.356c0,0.207-0.168,0.375-0.375,0.375h-11.812c-0.207,0-0.375-0.168-0.375-0.375l0,0
		c0-0.207,0.168-0.375,0.375-0.375h11.812C445.752,96.981,445.92,97.149,445.92,97.356L445.92,97.356z"/>
	<path class="st91" d="M444.004,107.894c0,2.312-1.875,4.188-4.188,4.188h-19c-2.312,0-4.188-1.875-4.188-4.188l0,0
		c0-2.312,1.875-4.188,4.188-4.188h19C442.129,103.706,444.004,105.581,444.004,107.894L444.004,107.894z"/>
	<path class="st73" d="M444.004,107.894c0,2.312-1.875,4.188-4.188,4.188h-19c-2.312,0-4.188-1.875-4.188-4.188l0,0
		c0-2.312,1.875-4.188,4.188-4.188h19C442.129,103.706,444.004,105.581,444.004,107.894L444.004,107.894z"/>
	<g>
		<path class="st14" d="M416.566,155.835c0.574,0,1.041,0.466,1.041,1.041v5.417c0,0.575-0.467,1.042-1.041,1.042l0,0
			c-0.576,0-1.043-0.467-1.043-1.042v-5.417C415.523,156.301,415.99,155.835,416.566,155.835L416.566,155.835z"/>
		<path class="st14" d="M419.65,155.835c0.574,0,1.041,0.466,1.041,1.041v5.417c0,0.575-0.467,1.042-1.041,1.042l0,0
			c-0.576,0-1.043-0.467-1.043-1.042v-5.417C418.607,156.301,419.074,155.835,419.65,155.835L419.65,155.835z"/>
		<path class="st14" d="M422.734,155.835c0.574,0,1.041,0.466,1.041,1.041v5.417c0,0.575-0.467,1.042-1.041,1.042l0,0
			c-0.576,0-1.041-0.467-1.041-1.042v-5.417C421.693,156.301,422.158,155.835,422.734,155.835L422.734,155.835z"/>
	</g>
	<g>
		<path class="st14" d="M437.898,155.835c0.574,0,1.041,0.466,1.041,1.041v5.417c0,0.575-0.467,1.042-1.041,1.042l0,0
			c-0.576,0-1.041-0.467-1.041-1.042v-5.417C436.857,156.301,437.322,155.835,437.898,155.835L437.898,155.835z"/>
		<path class="st14" d="M440.984,155.835c0.574,0,1.041,0.466,1.041,1.041v5.417c0,0.575-0.467,1.042-1.041,1.042l0,0
			c-0.576,0-1.043-0.467-1.043-1.042v-5.417C439.941,156.301,440.408,155.835,440.984,155.835L440.984,155.835z"/>
		<path class="st14" d="M444.068,155.835c0.574,0,1.041,0.466,1.041,1.041v5.417c0,0.575-0.467,1.042-1.041,1.042l0,0
			c-0.576,0-1.043-0.467-1.043-1.042v-5.417C443.025,156.301,443.492,155.835,444.068,155.835L444.068,155.835z"/>
	</g>
	<rect x="409.816" y="10.875" class="st35" width="40.979" height="64.667"/>
	<path class="st51" d="M441.807,2.831c0-0.619-0.504-1.122-1.123-1.122h-20.756c-0.619,0-1.121,0.503-1.121,1.122v3.088
		c0,0.62,0.502,1.122,1.121,1.122h20.756c0.619,0,1.123-0.502,1.123-1.122V2.831z"/>
	<path class="st130" d="M446.486,6.203c0-0.872-0.707-1.579-1.58-1.579h-29.201c-0.873,0-1.58,0.707-1.58,1.579v4.344
		c0,0.872,0.707,1.579,1.58,1.579h29.201c0.873,0,1.58-0.707,1.58-1.579V6.203z"/>
	<path class="st35" d="M450.795,10.209c0-1.104-0.895-2-2-2h-36.979c-1.105,0-2,0.896-2,2v5.5c0,1.104,0.895,2,2,2h36.979
		c1.105,0,2-0.896,2-2V10.209z"/>
	<g>
		<path class="st126" d="M450.525,14.521h28.688c0,0,5.062,7.536,12.188,8.536c0,0-4.875,4.903-41,3.087L450.525,14.521z"/>
		<path class="st126" d="M410.088,14.521H381.4c0,0-5.062,7.536-12.188,8.536c0,0,4.875,4.903,41,3.087L410.088,14.521z"/>
	</g>
	<path class="st34" d="M433.682,41.708c0,1.864-1.512,3.375-3.375,3.375l0,0c-1.865,0-3.375-1.511-3.375-3.375V28.333
		c0-1.864,1.51-3.375,3.375-3.375l0,0c1.863,0,3.375,1.511,3.375,3.375V41.708z"/>
	<g>
		<g>
			<g>
				<circle class="st26" cx="420.336" cy="21.261" r="4.688"/>
				<circle class="st26" cx="420.336" cy="26.511" r="4.688"/>
			</g>
			<circle class="st94" cx="420.336" cy="23.886" r="4.688"/>
			<circle class="st23" cx="420.336" cy="23.886" r="2.062"/>
		</g>
		<g>
			<g>
				<circle class="st26" cx="440.275" cy="21.261" r="4.688"/>
				<circle class="st26" cx="440.275" cy="26.511" r="4.688"/>
			</g>
			<circle class="st94" cx="440.275" cy="23.886" r="4.688"/>
			<circle class="st23" cx="440.275" cy="23.886" r="2.062"/>
		</g>
	</g>
	<path class="st37" d="M446.369,66.062c0,1.104-0.896,2-2,2h-28.125c-1.105,0-2-0.896-2-2V52.688c0-1.104,0.895-2,2-2h28.125
		c1.104,0,2,0.896,2,2V66.062z"/>
	<g>
		<path class="st69" d="M419.342,59.375c2.66,0,2.74,7.687,2.74,7.687H416.6C416.6,67.062,416.682,59.375,419.342,59.375"/>
		<path class="st69" d="M419.342,59.375c-2.66,0-2.742-7.686-2.742-7.686h5.482C422.082,51.689,422.002,59.375,419.342,59.375"/>
		<path class="st69" d="M424.824,59.375c2.66,0,2.74,7.687,2.74,7.687h-5.482C422.082,67.062,422.164,59.375,424.824,59.375"/>
		<path class="st69" d="M424.824,59.375c-2.66,0-2.742-7.686-2.742-7.686h5.482C427.564,51.689,427.484,59.375,424.824,59.375"/>
		<path class="st69" d="M430.307,59.375c2.66,0,2.74,7.687,2.74,7.687h-5.482C427.564,67.062,427.646,59.375,430.307,59.375"/>
		<path class="st69" d="M430.307,59.375c-2.66,0-2.742-7.686-2.742-7.686h5.482C433.047,51.689,432.967,59.375,430.307,59.375"/>
		<path class="st69" d="M435.789,59.375c2.66,0,2.74,7.687,2.74,7.687h-5.482C433.047,67.062,433.129,59.375,435.789,59.375"/>
		<path class="st69" d="M435.789,59.375c-2.66,0-2.742-7.686-2.742-7.686h5.482C438.529,51.689,438.449,59.375,435.789,59.375"/>
		<path class="st69" d="M441.271,59.375c2.66,0,2.74,7.687,2.74,7.687h-5.482C438.529,67.062,438.611,59.375,441.271,59.375"/>
		<path class="st69" d="M441.271,59.375c-2.66,0-2.742-7.686-2.742-7.686h5.482C444.012,51.689,443.932,59.375,441.271,59.375"/>
	</g>
	<g>
		<path class="st29" d="M177.02,2.444c-1.199,3.414-2.834,6.604-3.998,9.969c-0.398-3.712-0.33-7.47-0.789-11.203
			c-0.154-1.263-2.156-1.278-2,0c0.445,3.623,0.412,7.264,0.75,10.867c-1.732-3.949-3.223-8.004-5.637-11.622
			c-0.711-1.066-2.443-0.066-1.727,1.01c3.316,4.975,4.891,10.785,7.75,16c0.1,0.182,0.232,0.291,0.375,0.368
			c0,0.596,0.488,0.864,0.994,0.811c0.654,0.135,1.449-0.362,1.209-1.199c-0.039-0.135-0.062-0.271-0.098-0.407
			c0.781-4.976,3.441-9.348,5.098-14.062C179.375,1.756,177.443,1.235,177.02,2.444z"/>
		<path class="st2" d="M88.061,212.727c0,0,39.922-58.519,84.01-199.406l62.998,200.989L88.061,212.727z"/>
		<path class="st77" d="M172.07,13.32c0,0,96.912,173.388,139.227,200.436l-76.229,0.554L172.07,13.32z"/>
		
			<ellipse transform="matrix(0.9994 0.035 -0.035 0.9994 5.9974 -5.6774)" class="st85" cx="165.232" cy="168.541" rx="22.75" ry="36"/>
	</g>
	<g>
		<g>
			<g>
				<path class="st68" d="M136.41,174.072c-0.023-0.976-0.346-1.789-0.846-2.549c0.004-0.032,0.008-0.068,0.008-0.105
					c-0.035-1.875-0.518-3.712-0.42-5.59c0.01-0.154-0.041-0.271-0.121-0.354c-0.012-0.103-0.062-0.206-0.172-0.296
					c-2.467-2.033-6.908-1.902-8.789,0.87c-0.312-0.083-0.674,0.072-0.627,0.478c0.334,2.959-0.693,5.748-0.98,8.664
					c-0.021,0.232,0.092,0.383,0.25,0.453c-0.035,1.239,0.361,2.688,1.766,2.857c0.734,0.088,1.223-0.263,1.533-0.789
					c0.336,0.547,0.92,0.771,1.588,0.797c1.008,0.036,1.602-0.525,1.92-1.285c0.289,0.435,0.674,0.769,1.184,0.858
					c0.686,0.122,1.125-0.233,1.406-0.756c0.439,0.499,1.152,0.532,1.777,0.326c0.158-0.053,0.338-0.187,0.365-0.368
					c0.141-0.928,0.158-1.855,0.158-2.795c0-0.073-0.016-0.14-0.039-0.199C136.398,174.225,136.412,174.153,136.41,174.072z"/>
				<path class="st37" d="M126.699,178.8c-0.082,0-0.168-0.007-0.256-0.017c-1.488-0.182-2.014-1.627-2.018-2.984
					c-0.182-0.148-0.271-0.377-0.246-0.637c0.104-1.045,0.301-2.085,0.494-3.09c0.357-1.877,0.695-3.646,0.484-5.515
					c-0.031-0.282,0.074-0.466,0.168-0.571c0.145-0.164,0.371-0.253,0.611-0.244c1.031-1.405,2.822-2.238,4.83-2.238
					c1.598,0,3.154,0.529,4.273,1.453c0.131,0.109,0.219,0.241,0.258,0.391c0.102,0.139,0.15,0.309,0.141,0.494
					c-0.057,1.034,0.074,2.085,0.199,3.103c0.1,0.803,0.205,1.636,0.219,2.468c0,0.013,0,0.027,0,0.04
					c0.549,0.861,0.816,1.695,0.838,2.614c0.004,0.076-0.006,0.151-0.023,0.223c0.016,0.066,0.023,0.133,0.023,0.199
					c0,0.902-0.012,1.865-0.16,2.84c-0.051,0.318-0.332,0.518-0.561,0.592c-0.268,0.09-0.535,0.133-0.795,0.133l0,0
					c-0.387,0-0.73-0.1-1.01-0.293c-0.387,0.512-0.857,0.629-1.205,0.629c-0.102,0-0.205-0.01-0.311-0.026
					c-0.408-0.072-0.771-0.276-1.084-0.612c-0.438,0.715-1.111,1.082-1.982,1.043c-0.662-0.025-1.195-0.234-1.564-0.606
					C127.678,178.588,127.227,178.8,126.699,178.8z M125.904,166.312c-0.064,0-0.123,0.02-0.152,0.053
					c-0.023,0.025-0.033,0.07-0.025,0.129c0.221,1.954-0.143,3.852-0.492,5.684c-0.189,0.992-0.387,2.02-0.486,3.039
					c-0.012,0.109,0.031,0.145,0.08,0.166l0.176,0.078l-0.006,0.191c-0.016,0.557,0.047,2.387,1.516,2.564
					c0.553,0.066,0.955-0.147,1.252-0.65l0.24-0.41l0.25,0.406c0.254,0.415,0.709,0.636,1.354,0.658
					c0.779,0.025,1.328-0.344,1.646-1.107l0.205-0.49l0.295,0.441c0.281,0.422,0.617,0.668,0.996,0.736
					c0.48,0.082,0.838-0.113,1.105-0.611l0.195-0.363l0.271,0.311c0.252,0.287,0.604,0.348,0.855,0.348
					c0.195,0,0.41-0.037,0.617-0.106c0.09-0.028,0.166-0.097,0.172-0.138c0.145-0.933,0.156-1.869,0.156-2.752
					c0-0.031-0.006-0.064-0.018-0.094l-0.045-0.107l0.045-0.109c0.014-0.029,0.018-0.061,0.018-0.1
					c-0.02-0.836-0.273-1.6-0.801-2.398l-0.061-0.092l0.02-0.111c0.002-0.018,0.004-0.033,0.004-0.055
					c-0.016-0.803-0.115-1.619-0.213-2.406c-0.129-1.042-0.264-2.119-0.205-3.203c0.004-0.082-0.023-0.121-0.043-0.144l-0.066-0.069
					l-0.012-0.094c-0.002-0.014-0.006-0.055-0.07-0.107c-1.018-0.842-2.443-1.321-3.91-1.321c-1.889,0-3.555,0.796-4.461,2.132
					l-0.113,0.168l-0.197-0.051C125.967,166.316,125.936,166.312,125.904,166.312z"/>
			</g>
			<g>
				<path class="st5" d="M127.514,130.354c0,0,4.16,4.767,5.303,10.79c1.141,6.022,2.664,28.714,2.664,28.714h-11.217l-1.414-13.591
					V137.27l1.414-6.467L127.514,130.354z"/>
				<path class="st37" d="M135.785,170.143h-11.779l-1.441-13.875v-19.031l1.461-6.688l3.604-0.5l0.1,0.117
					c0.043,0.047,4.225,4.896,5.367,10.925c1.133,5.972,2.654,28.522,2.67,28.747L135.785,170.143z M124.52,169.571h10.654
					c-0.188-2.724-1.586-22.814-2.639-28.374c-1.016-5.36-4.506-9.773-5.139-10.539l-2.898,0.402l-1.363,6.238v18.955
					L124.52,169.571z"/>
			</g>
			<g>
				<path class="st132" d="M103.885,217.326c-2.521,0.73-4.83,1.142-7.455,0.805c-1.113-0.145-4.045-0.299-4.855-1.505
					c0.029-0.296,0.082-0.586,0.104-0.802c0.039-0.366-0.531-0.418-0.568-0.051v0.01c-0.154,0.009-0.316,0.126-0.307,0.324
					c0.016,0.268,0.092,0.5,0.209,0.709c-0.018,0.598,0.088,1.184,0.617,1.54c0.029,0.02,0.061,0.038,0.092,0.056
					c0.016,0.02,0.027,0.041,0.051,0.056c1.457,1.069,3.68,1.216,5.41,1.315c0.76,0.045,1.674,0.08,2.559-0.016
					c1.715,0.061,3.322-0.322,4.428-1.996C104.293,217.584,104.143,217.252,103.885,217.326z"/>
				<path class="st37" d="M98.518,220.112c-0.49,0-0.959-0.022-1.352-0.046c-1.695-0.098-4.014-0.23-5.562-1.367
					c-0.031-0.022-0.057-0.047-0.074-0.068c-0.021-0.012-0.041-0.023-0.061-0.037c-0.666-0.447-0.752-1.174-0.744-1.709
					c-0.125-0.242-0.191-0.493-0.205-0.762c-0.016-0.28,0.15-0.484,0.361-0.574c0.09-0.191,0.279-0.312,0.51-0.312
					c0.172,0,0.33,0.068,0.438,0.188c0.104,0.114,0.15,0.267,0.135,0.427c-0.01,0.103-0.027,0.219-0.045,0.344
					c-0.018,0.111-0.033,0.229-0.049,0.35c0.707,0.881,2.9,1.117,4.094,1.244c0.191,0.021,0.361,0.041,0.502,0.059
					c0.605,0.077,1.217,0.117,1.822,0.117c1.654,0,3.307-0.275,5.52-0.912c0.244-0.07,0.496,0.039,0.619,0.267
					c0.104,0.198,0.096,0.438-0.02,0.611c-0.961,1.451-2.338,2.129-4.336,2.129l0,0c-0.107,0-0.213-0.003-0.32-0.006
					C99.373,220.092,98.971,220.112,98.518,220.112z M91.955,218.25c1.418,1.026,3.627,1.154,5.242,1.247
					c0.385,0.021,0.844,0.044,1.32,0.044c0.439,0,0.828-0.02,1.191-0.057l0.021-0.004h0.02c0.107,0.005,0.213,0.008,0.32,0.008
					c1.789,0,3.016-0.594,3.859-1.873v-0.006c-2.246,0.647-3.938,0.926-5.643,0.926c-0.629,0-1.266-0.041-1.895-0.12
					c-0.137-0.019-0.303-0.036-0.49-0.058c-1.414-0.151-3.783-0.406-4.564-1.572l-0.059-0.084l0.01-0.104
					c0.018-0.167,0.041-0.332,0.064-0.484c0.002-0.016,0.004-0.033,0.006-0.048l-0.234,0.003c-0.018,0-0.033,0.01-0.035,0.016
					c0.01,0.215,0.066,0.404,0.17,0.592l0.041,0.068l-0.002,0.082c-0.02,0.654,0.131,1.051,0.488,1.293
					c0.014,0.009,0.027,0.018,0.039,0.025l0.084,0.051L91.955,218.25z"/>
			</g>
			<g>
				<path class="st68" d="M103.406,216.595c-0.117-0.183-0.289-0.32-0.402-0.513c-0.314-0.535-0.574-1.036-1.246-1.146
					c-0.236-0.039-0.529-0.062-0.744,0.064c-0.262,0.156-0.355,0.508-0.535,0.736c-0.131,0.168-0.295,0.31-0.408,0.491
					c-0.16,0.259-0.268,0.548-0.262,0.854c-0.219,0.793,0.881,1.055,1.432,1.094c0.467,0.035,0.938-0.022,1.371-0.209
					c0.354-0.151,0.51-0.374,0.719-0.68c0.1-0.145,0.15-0.33,0.137-0.505C103.459,216.703,103.438,216.645,103.406,216.595z"/>
				<path class="st37" d="M101.492,218.471L101.492,218.471c-0.092,0-0.182-0.003-0.273-0.01c-0.191-0.014-1.166-0.11-1.561-0.67
					c-0.152-0.217-0.199-0.472-0.137-0.744c0.006-0.323,0.109-0.65,0.307-0.97c0.084-0.135,0.182-0.241,0.277-0.346
					c0.049-0.056,0.102-0.111,0.148-0.17c0.049-0.064,0.096-0.148,0.146-0.24c0.107-0.201,0.232-0.427,0.469-0.567
					c0.23-0.133,0.512-0.171,0.936-0.1c0.768,0.126,1.088,0.672,1.396,1.199l0.049,0.084c0.047,0.078,0.113,0.154,0.182,0.231
					c0.074,0.083,0.148,0.167,0.215,0.271c0.061,0.095,0.094,0.199,0.104,0.32c0.02,0.24-0.047,0.49-0.184,0.689
					c-0.221,0.32-0.412,0.596-0.842,0.782C102.35,218.389,101.936,218.471,101.492,218.471z M101.43,215.19
					c-0.115,0-0.207,0.019-0.271,0.056c-0.1,0.059-0.178,0.199-0.258,0.349c-0.059,0.108-0.119,0.218-0.197,0.319
					c-0.055,0.07-0.117,0.138-0.178,0.202c-0.08,0.089-0.156,0.173-0.211,0.261c-0.15,0.24-0.225,0.477-0.223,0.703l0.002,0.039
					l-0.012,0.039c-0.031,0.122-0.02,0.215,0.043,0.303c0.178,0.252,0.713,0.399,1.135,0.431c0.445,0.032,0.873-0.028,1.24-0.187
					c0.277-0.118,0.396-0.291,0.596-0.58c0.062-0.09,0.094-0.211,0.086-0.318c-0.002-0.039-0.012-0.05-0.014-0.057
					c-0.045-0.068-0.104-0.133-0.164-0.202c-0.08-0.092-0.172-0.195-0.246-0.321l-0.049-0.083c-0.314-0.54-0.518-0.848-0.996-0.926
					C101.602,215.197,101.512,215.19,101.43,215.19z"/>
			</g>
			<g>
				<g>
					<path class="st68" d="M99.273,215.033c-0.496-2.268-4.062-2.135-5.795-1.501c-1.111,0.406-1.965,2.056-1.412,3.14
						c0.48,0.943,1.299,1.199,2.033,0.666c0.098,0.151,0.227,0.287,0.406,0.406c0.486,0.319,1.006,0.258,1.287-0.101
						c0.125,0.211,0.307,0.397,0.568,0.418c0.295,0.024,0.533-0.179,0.719-0.407c0.141,0.256,0.344,0.449,0.648,0.51
						c0.389,0.078,0.812-0.231,1.096-0.551c0.006-0.004,0.012-0.006,0.016-0.012c0.305-0.224,0.426-0.563,0.504-0.909
						C99.467,216.164,99.414,215.561,99.273,215.033z"/>
					<path class="st37" d="M97.852,218.463L97.852,218.463c-0.059,0-0.119-0.006-0.178-0.02c-0.246-0.049-0.455-0.166-0.627-0.348
						c-0.225,0.189-0.455,0.272-0.711,0.252c-0.164-0.016-0.381-0.08-0.582-0.284c-0.387,0.249-0.938,0.226-1.404-0.083
						c-0.121-0.078-0.225-0.165-0.316-0.266c-0.23,0.119-0.471,0.184-0.707,0.184c-0.607,0-1.16-0.402-1.516-1.098
						c-0.271-0.531-0.273-1.198-0.006-1.879c0.307-0.779,0.91-1.415,1.574-1.657c0.717-0.263,1.666-0.419,2.535-0.419
						c2.016,0,3.342,0.775,3.639,2.127c0.166,0.617,0.191,1.258,0.07,1.784c-0.088,0.372-0.227,0.792-0.611,1.075
						C98.82,218.041,98.369,218.463,97.852,218.463z M97.127,217.146l0.205,0.371c0.115,0.211,0.26,0.328,0.453,0.365
						c0.023,0.006,0.045,0.009,0.066,0.009l0,0c0.213,0,0.504-0.182,0.76-0.466l0.076-0.064c0.221-0.161,0.312-0.448,0.377-0.732
						c0.102-0.439,0.078-0.979-0.066-1.521c-0.336-1.528-2.268-1.692-3.084-1.692c-0.807,0-1.68,0.145-2.338,0.386
						c-0.51,0.186-0.996,0.707-1.24,1.33c-0.203,0.518-0.209,1.032-0.016,1.411c0.391,0.767,1.021,0.993,1.613,0.563l0.244-0.176
						l0.162,0.254c0.082,0.128,0.188,0.233,0.324,0.32c0.338,0.225,0.711,0.209,0.906-0.035l0.26-0.33l0.211,0.362
						c0.1,0.175,0.215,0.267,0.342,0.276h0.004c0.162,0,0.309-0.1,0.473-0.302L97.127,217.146z"/>
				</g>
				<g>
					<line class="st68" x1="94.1" y1="217.338" x2="94.193" y2="216.021"/>
					
						<rect x="93.862" y="216.022" transform="matrix(0.9975 0.07 -0.07 0.9975 15.406 -6.0614)" class="st37" width="0.572" height="1.317"/>
				</g>
				<g>
					<line class="st68" x1="95.793" y1="217.644" x2="95.893" y2="215.963"/>
					
						<rect x="95.558" y="215.964" transform="matrix(0.9981 0.0615 -0.0615 0.9981 13.521 -5.4862)" class="st37" width="0.571" height="1.682"/>
				</g>
				<g>
					<line class="st68" x1="97.137" y1="217.749" x2="97.346" y2="216.13"/>
					
						<rect x="96.957" y="216.123" transform="matrix(0.9919 0.127 -0.127 0.9919 28.3367 -10.5924)" class="st37" width="0.569" height="1.632"/>
				</g>
			</g>
			<path class="st37" d="M102.889,216.818c-0.662-0.532-1.877-0.271-2.604,0.088c-0.109,0.053-0.033,0.165,0.068,0.158
				c0.012,0.046,0.068,0.088,0.148,0.076c0.764-0.105,1.539-0.1,2.309-0.17C102.916,216.961,102.957,216.877,102.889,216.818z
				 M102.518,216.821c-0.631,0.044-1.264,0.06-1.893,0.134C101.195,216.723,101.979,216.566,102.518,216.821z"/>
			<g>
				<path class="st132" d="M102.297,213.49c-0.15-0.123-0.344-0.217-0.547-0.273c-2.994-0.842-6.781-0.996-9.736,0.017
					c-0.07,0.022-0.113,0.067-0.145,0.117c-0.227,0.12-0.168,0.54,0.148,0.538c0.682-0.006,1.363,0,2.021,0.049
					c0.059,0.023,0.127,0.032,0.201,0.018c2.279,0.199,4.26,0.957,4.975,3.641c0.09,0.34,0.531,0.2,0.559-0.098
					c0.064-0.732,0.248-1.578,0.953-1.963c0.236-0.129,0.498-0.18,0.754-0.258c0.434-0.133,0.855,0.164,1.219,0.358
					c0.127,0.067,0.326,0.025,0.387-0.119C103.525,214.472,103.053,213.844,102.297,213.49z"/>
				<path class="st37" d="M99.451,218.08c-0.244,0-0.445-0.161-0.512-0.41c-0.574-2.158-1.979-3.184-4.691-3.428
					c-0.092,0.012-0.18,0.004-0.266-0.023c-0.449-0.032-0.953-0.046-1.58-0.046l-0.383,0.003c-0.27,0-0.49-0.174-0.555-0.433
					c-0.057-0.233,0.025-0.47,0.203-0.602c0.066-0.085,0.15-0.144,0.254-0.179c1.375-0.471,3.021-0.719,4.76-0.719
					c1.742,0,3.521,0.24,5.145,0.697c0.238,0.068,0.453,0.173,0.623,0.306c1.02,0.489,1.34,1.333,0.9,2.381
					c-0.082,0.198-0.285,0.325-0.516,0.325l0,0c-0.096,0-0.188-0.023-0.27-0.065c-0.051-0.028-0.102-0.057-0.154-0.087
					c-0.291-0.162-0.598-0.328-0.846-0.25c-0.068,0.021-0.139,0.039-0.209,0.061c-0.18,0.047-0.348,0.094-0.494,0.174
					c-0.467,0.255-0.723,0.809-0.805,1.738C100.029,217.83,99.758,218.08,99.451,218.08z M94.186,213.664l0.078,0.006
					c1.996,0.174,4.389,0.766,5.219,3.819c0.002-0.005,0.006-0.009,0.006-0.016c0.062-0.714,0.244-1.723,1.102-2.188
					c0.203-0.111,0.412-0.17,0.615-0.226c0.064-0.017,0.127-0.036,0.191-0.056c0.1-0.031,0.203-0.045,0.309-0.045
					c0.369,0,0.695,0.184,0.982,0.344c0.051,0.029,0.098,0.055,0.146,0.08c0.309-0.76,0.1-1.281-0.658-1.634l-0.061-0.038
					c-0.113-0.094-0.271-0.17-0.441-0.218c-1.576-0.446-3.301-0.681-4.992-0.681c-1.676,0-3.258,0.24-4.576,0.691l-0.041,0.064
					l-0.062,0.033h0.4c0.658,0,1.186,0.016,1.66,0.051l0.082,0.02L94.186,213.664z"/>
			</g>
			<g>
				<path class="st132" d="M108.029,216.86c2.5,0.8,4.797,1.279,7.43,1.017c1.117-0.111,4.053-0.182,4.896-1.365
					c-0.02-0.296-0.066-0.586-0.082-0.803c-0.025-0.368,0.543-0.401,0.57-0.036v0.009c0.154,0.014,0.314,0.139,0.297,0.336
					c-0.021,0.269-0.107,0.498-0.229,0.7c0,0.6-0.121,1.183-0.66,1.524c-0.031,0.018-0.062,0.035-0.094,0.053
					c-0.016,0.02-0.029,0.037-0.053,0.056c-1.486,1.024-3.713,1.107-5.445,1.157c-0.762,0.02-1.674,0.031-2.557-0.089
					c-1.717,0.011-3.312-0.417-4.371-2.12C107.613,217.105,107.773,216.777,108.029,216.86z"/>
				<path class="st37" d="M113.828,219.807c-0.664,0-1.234-0.033-1.744-0.104h-0.047c-2.146,0-3.59-0.717-4.547-2.254
					c-0.107-0.176-0.111-0.414-0.004-0.604c0.127-0.229,0.385-0.336,0.629-0.256c2.355,0.752,4.119,1.073,5.9,1.073
					c0.469,0,0.943-0.022,1.414-0.07c0.143-0.014,0.312-0.027,0.504-0.042c1.199-0.096,3.398-0.268,4.129-1.126
					c-0.012-0.12-0.023-0.239-0.037-0.351c-0.014-0.126-0.029-0.245-0.037-0.346c-0.01-0.159,0.039-0.307,0.143-0.418
					c0.107-0.115,0.264-0.182,0.43-0.182c0.234,0,0.43,0.131,0.52,0.326c0.207,0.098,0.367,0.307,0.346,0.585
					c-0.021,0.269-0.096,0.517-0.23,0.756c-0.008,0.536-0.113,1.257-0.791,1.687c-0.02,0.012-0.041,0.024-0.061,0.035
					c-0.021,0.023-0.047,0.047-0.08,0.07c-1.578,1.09-3.9,1.154-5.596,1.204C114.404,219.801,114.121,219.807,113.828,219.807z
					 M112.121,219.134l0.02,0.003c0.488,0.064,1.041,0.098,1.688,0.098c0.287,0,0.564-0.006,0.822-0.014
					c1.621-0.045,3.836-0.109,5.279-1.098l0.021-0.022L120.1,218c0.365-0.23,0.525-0.625,0.525-1.282v-0.079l0.043-0.068
					c0.109-0.184,0.172-0.371,0.189-0.576c-0.004-0.016-0.021-0.025-0.037-0.027l-0.234-0.021c0.002,0.021,0.004,0.041,0.006,0.062
					c0.018,0.153,0.037,0.318,0.049,0.488l0.006,0.1l-0.059,0.081c-0.816,1.146-3.189,1.333-4.609,1.443
					c-0.188,0.016-0.354,0.028-0.49,0.041c-0.49,0.049-0.986,0.074-1.473,0.074c-1.834,0-3.641-0.326-6.037-1.09
					c0,0-0.002,0.005,0,0.01c0.85,1.366,2.104,1.979,4.059,1.979H112.121z"/>
			</g>
			<g>
				<path class="st68" d="M108.521,216.139c0.096-0.148,0.254-0.251,0.363-0.393c0.1-0.13,0.18-0.27,0.264-0.408
					c0.271-0.446,0.6-0.77,1.143-0.816c0.252-0.02,0.555-0.02,0.758,0.153c0.217,0.185,0.264,0.499,0.443,0.716
					c0.312,0.379,0.639,0.799,0.645,1.315c0.006,0.522-0.359,0.868-0.844,0.989c-0.314,0.076-0.684,0.109-1.006,0.088
					c-0.629-0.041-1.539-0.31-1.768-0.98c-0.055-0.156-0.076-0.347-0.051-0.512C108.477,216.227,108.496,216.18,108.521,216.139z"/>
				<path class="st37" d="M110.486,218.075c-0.074,0-0.146-0.003-0.219-0.007c-0.764-0.051-1.752-0.387-2.02-1.172
					c-0.068-0.205-0.092-0.44-0.062-0.645c0.014-0.101,0.045-0.189,0.096-0.268c0.07-0.109,0.16-0.197,0.24-0.271
					c0.053-0.048,0.102-0.097,0.137-0.142c0.074-0.098,0.139-0.205,0.207-0.32l0.039-0.064c0.23-0.376,0.621-0.889,1.363-0.947
					c0.074-0.008,0.15-0.012,0.229-0.012c0.316,0,0.557,0.075,0.738,0.229c0.168,0.146,0.254,0.329,0.332,0.492
					c0.045,0.099,0.09,0.193,0.145,0.26c0.355,0.427,0.703,0.896,0.711,1.494c0.008,0.619-0.398,1.104-1.061,1.269
					C111.092,218.039,110.781,218.075,110.486,218.075z M110.496,214.8c-0.062,0-0.123,0.003-0.182,0.007
					c-0.383,0.033-0.65,0.229-0.922,0.678l-0.037,0.062c-0.074,0.123-0.152,0.25-0.244,0.373c-0.062,0.081-0.135,0.148-0.197,0.207
					c-0.061,0.059-0.119,0.115-0.152,0.166c-0.002,0.004-0.008,0.012-0.012,0.037c-0.016,0.12-0.002,0.262,0.039,0.383
					c0.189,0.554,1.043,0.756,1.518,0.785c0.295,0.02,0.635-0.011,0.916-0.08c0.191-0.048,0.635-0.212,0.629-0.709
					c-0.006-0.412-0.277-0.774-0.58-1.137c-0.102-0.123-0.166-0.26-0.223-0.382c-0.061-0.124-0.109-0.234-0.186-0.299
					C110.791,214.83,110.67,214.8,110.496,214.8z"/>
			</g>
			<g>
				<g>
					<path class="st68" d="M112.705,214.701c0.561-2.253,4.123-2.02,5.838-1.337c1.096,0.438,1.904,2.112,1.32,3.179
						c-0.51,0.931-1.334,1.162-2.053,0.609c-0.102,0.146-0.236,0.282-0.418,0.394c-0.494,0.306-1.012,0.23-1.283-0.137
						c-0.131,0.209-0.318,0.388-0.578,0.401c-0.297,0.018-0.529-0.192-0.709-0.427c-0.189,0.321-0.541,0.558-0.918,0.479
						c-0.355-0.074-0.604-0.33-0.85-0.576c-0.264-0.264-0.395-0.566-0.469-0.93C112.48,215.824,112.549,215.223,112.705,214.701z"/>
					<path class="st37" d="M114.051,218.162c-0.068,0-0.139-0.006-0.205-0.021c-0.426-0.089-0.717-0.376-0.971-0.632l-0.021-0.021
						c-0.281-0.28-0.455-0.621-0.547-1.077c-0.105-0.531-0.062-1.168,0.127-1.793c0.316-1.275,1.586-2.013,3.479-2.013
						c0.936,0,1.959,0.184,2.736,0.493c0.658,0.263,1.242,0.915,1.525,1.703c0.248,0.686,0.225,1.354-0.061,1.877
						c-0.365,0.67-0.916,1.055-1.506,1.055c-0.25,0-0.502-0.07-0.74-0.203c-0.096,0.098-0.203,0.182-0.324,0.257
						c-0.473,0.292-1.023,0.304-1.406,0.042c-0.209,0.199-0.426,0.256-0.592,0.266l-0.049,0.002c-0.234,0-0.451-0.09-0.658-0.275
						C114.617,218.039,114.336,218.162,114.051,218.162z M115.912,213.178c-0.945,0-2.584,0.205-2.93,1.59
						c-0.164,0.553-0.203,1.092-0.115,1.533c0.07,0.348,0.186,0.582,0.391,0.785l0.021,0.02c0.217,0.219,0.422,0.423,0.684,0.479
						c0.219,0.043,0.469-0.097,0.613-0.346l0.215-0.364l0.258,0.335c0.162,0.214,0.311,0.316,0.447,0.316
						c0.146-0.006,0.264-0.096,0.371-0.266l0.219-0.358l0.252,0.338c0.186,0.253,0.559,0.278,0.906,0.063
						c0.137-0.084,0.244-0.186,0.33-0.314l0.172-0.246l0.238,0.185c0.578,0.443,1.215,0.234,1.627-0.521
						c0.205-0.373,0.213-0.887,0.027-1.408c-0.229-0.633-0.699-1.166-1.203-1.367C117.723,213.348,116.779,213.178,115.912,213.178z
						"/>
				</g>
				<g>
					<line class="st68" x1="117.811" y1="217.152" x2="117.754" y2="215.836"/>
					
						<rect x="117.123" y="216.209" transform="matrix(0.043 0.9991 -0.9991 0.043 329.0132 89.5144)" class="st37" width="1.318" height="0.571"/>
				</g>
				<g>
					<line class="st68" x1="116.109" y1="217.409" x2="116.057" y2="215.729"/>
					
						<rect x="115.242" y="216.283" transform="matrix(0.0313 0.9995 -0.9995 0.0313 328.9065 93.7544)" class="st37" width="1.682" height="0.571"/>
				</g>
				<g>
					<line class="st68" x1="114.764" y1="217.476" x2="114.602" y2="215.852"/>
					
						<rect x="113.866" y="216.378" transform="matrix(0.0994 0.995 -0.995 0.0994 318.8754 81.017)" class="st37" width="1.631" height="0.571"/>
				</g>
			</g>
			<path class="st37" d="M109.113,216.536c0.766,0.093,1.543,0.108,2.305,0.237c0.078,0.012,0.137-0.029,0.148-0.074
				c0.104,0.01,0.182-0.102,0.074-0.157c-0.717-0.378-1.922-0.674-2.6-0.161C108.969,216.437,109.008,216.523,109.113,216.536z
				 M111.299,216.582c-0.625-0.093-1.258-0.125-1.887-0.188C109.957,216.156,110.736,216.333,111.299,216.582z"/>
			<g>
				<path class="st132" d="M108.893,215.066c0.023,0.027,0.049,0.053,0.078,0.074c0.322,0.245,0.781-0.215,1.102-0.279
					c0.199-0.037,0.381,0.028,0.574,0.072c0.713,0.156,1.234,0.728,1.389,1.436c0.043,0.195,0.062,0.395,0.084,0.592
					c0.014,0.127,0.018,0.275,0.098,0.381c0.035,0.045,0.23,0.042,0.283,0.031c0.1-0.023,0.162-0.094,0.215-0.18
					c0.15-0.24,0.189-0.545,0.297-0.805c0.174-0.432,0.52-0.836,0.826-1.184c0.596-0.67,1.502-0.998,2.342-1.223
					c0.516-0.136,1.059-0.186,1.588-0.219c0.074,0.019,0.139,0.012,0.199-0.009c0.66-0.028,1.342-0.017,2.023,0.009
					c0.316,0.012,0.387-0.407,0.166-0.533c-0.029-0.05-0.072-0.096-0.143-0.121c-2.924-1.096-6.715-1.052-9.732-0.297
					c-0.203,0.051-0.4,0.141-0.553,0.26c-0.33,0.256-0.711,0.357-0.895,0.774C108.697,214.156,108.646,214.768,108.893,215.066z"/>
				<path class="st37" d="M112.398,217.664c-0.199,0-0.328-0.046-0.408-0.146c-0.119-0.156-0.137-0.34-0.15-0.477l-0.01-0.096
					c-0.02-0.181-0.037-0.351-0.072-0.516c-0.137-0.621-0.586-1.09-1.174-1.219c-0.039-0.01-0.078-0.018-0.119-0.029
					c-0.131-0.03-0.232-0.059-0.338-0.039c-0.066,0.014-0.18,0.075-0.279,0.131c-0.199,0.105-0.422,0.225-0.66,0.225l0,0
					c-0.146,0-0.277-0.043-0.389-0.131c-0.047-0.032-0.09-0.076-0.127-0.121c-0.34-0.414-0.26-1.148-0.1-1.514
					c0.164-0.376,0.451-0.549,0.705-0.705c0.098-0.059,0.189-0.114,0.275-0.182c0.18-0.141,0.408-0.246,0.658-0.309
					c1.457-0.365,3.059-0.559,4.623-0.559c1.945,0,3.771,0.297,5.279,0.863c0.102,0.038,0.186,0.1,0.25,0.186
					c0.17,0.135,0.246,0.371,0.186,0.6c-0.066,0.256-0.281,0.424-0.547,0.424c-0.516-0.018-0.891-0.025-1.24-0.025
					c-0.25,0-0.5,0.003-0.746,0.012c-0.086,0.023-0.176,0.029-0.266,0.016c-0.49,0.028-1.008,0.075-1.496,0.207
					c-0.729,0.193-1.637,0.499-2.201,1.135c-0.309,0.348-0.623,0.719-0.777,1.101c-0.037,0.091-0.064,0.187-0.092,0.284
					c-0.055,0.188-0.113,0.382-0.225,0.565c-0.039,0.062-0.154,0.251-0.396,0.306C112.51,217.662,112.443,217.664,112.398,217.664z
					 M110.197,214.565c0.148,0,0.285,0.032,0.404,0.062l0.105,0.027c0.807,0.178,1.424,0.812,1.607,1.654
					c0.043,0.193,0.064,0.387,0.084,0.576l0.01,0.104c0.004,0.027,0.008,0.07,0.012,0.105c0.01,0,0.016,0,0.023-0.002
					c-0.006,0,0.008-0.01,0.029-0.048c0.072-0.114,0.115-0.267,0.162-0.427c0.033-0.114,0.068-0.229,0.111-0.337
					c0.188-0.464,0.537-0.878,0.879-1.263c0.666-0.753,1.676-1.096,2.48-1.31c0.551-0.147,1.115-0.196,1.645-0.227l0.043-0.002
					l0.039,0.007l0.041-0.013l0.082-0.003c0.266-0.012,0.535-0.018,0.807-0.018c0.357,0,0.738,0.008,1.238,0.026l-0.066-0.038
					l-0.025-0.068c-1.439-0.539-3.195-0.825-5.074-0.825c-1.52,0-3.07,0.188-4.484,0.544c-0.172,0.041-0.33,0.114-0.447,0.205
					c-0.111,0.086-0.221,0.152-0.328,0.219c-0.217,0.131-0.387,0.236-0.479,0.445c-0.117,0.265-0.131,0.742,0.018,0.922
					c0.01,0.014,0.02,0.023,0.031,0.031c0.059,0.045,0.262-0.055,0.432-0.146c0.143-0.076,0.291-0.154,0.439-0.185
					C110.078,214.571,110.139,214.565,110.197,214.565z"/>
			</g>
			<g>
				<path class="st5" d="M84.234,131.553c2.023,0.516,2.799,2.149,3.242,4.014c1.119,2.573,1.727,5.453,2.098,8.143
					c0.383,2.777,1.158,6.914-1.746,8.625c-0.943,0.556-1.953,0.838-2.996,1.057c-0.133,0.028-0.264,0.057-0.395,0.08
					c-0.164,0.032-0.33,0.062-0.496,0.092c-1.475,0.275-3.404,0.752-4.824,0.039c-1.27-0.637-2.105-2.219-2.928-3.33
					c-0.627-0.85-1.168-1.746-1.674-2.664c-0.602-0.912-1.174-1.854-1.602-2.852c-0.055-0.081-0.096-0.178-0.127-0.279
					c-0.758-1.697-0.705-3.768,0.396-5.338c0.877-1.252,2.129-2.354,3.32-3.303c0.072-0.059,0.148-0.111,0.225-0.166
					c0.873-0.828,1.785-1.553,2.688-2.332c0.562-0.543,1.125-1.088,1.68-1.639l1.092-0.967L84.234,131.553z"/>
				<path class="st37" d="M80.939,154.261c-0.77,0-1.408-0.132-1.949-0.404c-1.055-0.528-1.814-1.647-2.484-2.634
					c-0.189-0.278-0.367-0.541-0.547-0.783c-0.557-0.754-1.096-1.609-1.695-2.693c-0.527-0.802-1.143-1.783-1.602-2.854
					c-0.057-0.089-0.104-0.191-0.143-0.314c-0.834-1.887-0.67-4.031,0.43-5.603c0.945-1.351,2.301-2.509,3.377-3.364
					c0.053-0.042,0.105-0.08,0.16-0.119l0.059-0.04c0.604-0.574,1.23-1.103,1.84-1.612c0.281-0.236,0.564-0.473,0.844-0.719
					l0.16-0.152c0.504-0.49,1.008-0.979,1.508-1.472l1.232-1.098l2.195,0.883c2.279,0.589,3.029,2.546,3.424,4.192
					c0.967,2.229,1.656,4.911,2.109,8.195l0.068,0.482c0.4,2.834,0.953,6.716-1.951,8.426c-1.039,0.612-2.143,0.896-3.086,1.09
					c-0.129,0.03-0.264,0.059-0.398,0.083c-0.164,0.032-0.33,0.063-0.498,0.095c-0.141,0.025-0.287,0.053-0.438,0.084
					C82.746,154.084,81.828,154.261,80.939,154.261z M82.246,131.062l-0.959,0.852c-0.49,0.483-0.996,0.973-1.502,1.465l-0.17,0.164
					c-0.297,0.256-0.58,0.494-0.863,0.733c-0.605,0.51-1.232,1.036-1.828,1.601l-0.105,0.08c-0.045,0.033-0.092,0.066-0.137,0.102
					c-1.045,0.832-2.361,1.953-3.264,3.243c-0.99,1.413-1.131,3.351-0.371,5.06l0.012,0.03c0.027,0.087,0.059,0.153,0.094,0.204
					l0.025,0.049c0.441,1.037,1.045,2,1.574,2.805c0.6,1.081,1.125,1.917,1.666,2.652c0.188,0.25,0.369,0.519,0.561,0.801
					c0.631,0.928,1.346,1.981,2.268,2.444c0.459,0.231,1.014,0.343,1.693,0.343c0.834,0,1.723-0.17,2.508-0.32
					c0.15-0.029,0.299-0.059,0.441-0.086c0.166-0.028,0.332-0.061,0.496-0.093c0.129-0.024,0.258-0.05,0.385-0.078
					c0.9-0.188,1.947-0.456,2.914-1.024c2.576-1.518,2.055-5.182,1.676-7.855l-0.066-0.484c-0.449-3.242-1.127-5.883-2.078-8.068
					l-0.016-0.046c-0.381-1.597-1.037-3.294-3.035-3.804l-0.035-0.01L82.246,131.062z"/>
			</g>
			<g>
				<path class="st82" d="M107.699,90.807c-3.281-0.661-6.914-0.379-9.785,0.99c-1.963,0.936-3.98,1.814-5.734,3.119
					c-0.953,0.709-1.795,1.633-2.299,2.711c-0.336,0.719-0.541,1.6-0.811,2.318c7.287-1.329,14.785-2.411,22.209-1.98
					c2.391,0.139,4.971,0.396,7.271,1.09c-0.117-0.035-0.898-1.975-1.057-2.186c-1.498-2.016-3.945-3.772-6.17-4.856
					C110.215,91.471,108.984,91.067,107.699,90.807z"/>
				<path class="st37" d="M88.627,100.316l0.176-0.469c0.104-0.276,0.195-0.57,0.293-0.883c0.154-0.494,0.314-1.002,0.525-1.458
					c0.492-1.05,1.318-2.023,2.387-2.821c1.549-1.15,3.311-1.979,5.012-2.781c0.258-0.123,0.516-0.243,0.773-0.365
					c1.863-0.889,4.1-1.359,6.463-1.359c1.178,0,2.355,0.119,3.5,0.35c1.33,0.269,2.572,0.68,3.693,1.225
					c2.551,1.244,4.896,3.094,6.275,4.945c0.078,0.107,0.211,0.396,0.492,1.027c0.182,0.408,0.457,1.025,0.533,1.129
					c-0.002-0.004-0.039-0.051-0.115-0.074l-0.164,0.545h-0.002l0,0c-2.404-0.725-5.113-0.953-7.205-1.076
					c-1.094-0.063-2.229-0.096-3.375-0.096c-6.539,0-13.156,1.047-18.768,2.072L88.627,100.316z M104.256,90.75
					c-2.279,0-4.43,0.452-6.219,1.305c-0.256,0.121-0.516,0.244-0.773,0.367c-1.678,0.789-3.412,1.606-4.914,2.724
					c-0.994,0.739-1.758,1.64-2.211,2.603c-0.197,0.422-0.35,0.912-0.498,1.387c-0.047,0.147-0.092,0.295-0.141,0.443
					c5.531-1.001,11.992-1.993,18.389-1.993c1.158,0,2.305,0.03,3.408,0.095c1.938,0.111,4.398,0.318,6.686,0.918
					c-0.078-0.169-0.17-0.377-0.287-0.639c-0.156-0.354-0.373-0.836-0.43-0.921c-1.326-1.782-3.594-3.565-6.068-4.769
					c-1.076-0.525-2.271-0.923-3.555-1.182C106.537,90.865,105.398,90.75,104.256,90.75z"/>
			</g>
			<g>
				<polygon class="st82" points="88.711,102.186 86.01,133.379 122.85,133.379 119.043,100.592 109.096,98.934 98.291,99.996 				
					"/>
				<path class="st37" d="M123.17,133.666H85.699l2.746-31.713l9.816-2.242l10.844-1.064l0.037,0.006l10.16,1.691l0.023,0.215
					L123.17,133.666z M86.322,133.094h36.207l-3.744-32.257l-9.699-1.616l-10.75,1.059l-9.357,2.139L86.322,133.094z"/>
			</g>
			<g>
				<path class="st67" d="M91.43,99.996l8.408-1.436H111.9l4.934,0.719c0,0,2.193,8.88,0.73,12.762
					c-1.461,3.883-8.84,9.096-8.84,9.096s-2.652,0.645-6.867,0c-4.213-0.645-9.33-9.156-9.33-9.156S91.064,106.914,91.43,99.996z"/>
				<path class="st37" d="M105.512,121.711c-1.197,0-2.439-0.1-3.697-0.291c-4.297-0.658-9.32-8.941-9.531-9.293l-0.029-0.068
					c-0.016-0.05-1.473-5.191-1.109-12.078l0.014-0.228l8.68-1.478l12.104,0.004l5.123,0.746l0.047,0.185
					c0.09,0.367,2.197,9.011,0.721,12.933c-1.475,3.919-8.639,9.014-8.941,9.227l-0.045,0.032l-0.053,0.013
					C108.744,121.426,107.557,121.711,105.512,121.711z M92.791,111.865c0.352,0.572,5.205,8.391,9.109,8.99
					c1.229,0.187,2.443,0.281,3.611,0.281c1.736,0,2.85-0.213,3.096-0.266c0.623-0.449,7.336-5.334,8.691-8.93
					c1.299-3.45-0.396-11.115-0.697-12.408l-4.723-0.688H99.861l-8.158,1.395C91.402,106.611,92.666,111.406,92.791,111.865z"/>
			</g>
			<path class="st56" d="M114.916,98.658c-3.736-0.06-7.475-0.125-11.213-0.133c-3.479-0.008-7.211-0.402-10.625,0.411
				c-1.346,0.32-2.982,1.058-4.113,1.833c-0.502,0.344-0.584,1.35-0.531,1.899c0.006,0.073,0.023,0.132,0.049,0.185
				c-0.158,0.161-0.006,0.523,0.291,0.48c1.697-0.254,3.416-0.356,5.098-0.699c2.154-0.438,4.256-0.794,6.449-0.992
				c4.078-0.371,8.191-0.545,12.285-0.505c1.736,0.019,3.557-0.007,5.27,0.276c0.572,0.095,1.373,0.198,1.566-0.506
				C120.113,98.462,116.195,98.68,114.916,98.658z"/>
			<g>
				<path class="st57" d="M88.711,100.037c0,0-2.701,1.413,0,2.148c0,0,13.754-3.193,30.332-1.594c0,0,1.16-1.146-0.49-1.537
					C118.553,99.055,109.711,95.676,88.711,100.037z"/>
				<path class="st31" d="M88.705,102.48l-0.068-0.02c-0.895-0.244-1.355-0.596-1.408-1.075c-0.086-0.808,1.109-1.477,1.352-1.603
					l0.072-0.027c7.146-1.482,13.66-2.234,19.357-2.234c7.049,0,10.328,1.15,10.625,1.26c0.596,0.144,0.953,0.409,1.059,0.787
					c0.168,0.596-0.387,1.163-0.449,1.225l-0.096,0.095l-0.133-0.014c-3.07-0.296-6.266-0.446-9.496-0.446
					c-11.838,0-20.656,2.015-20.744,2.035L88.705,102.48z M88.811,100.308c-0.441,0.239-1.047,0.711-1.014,1.017
					c0.021,0.195,0.365,0.406,0.922,0.566c0.869-0.192,9.467-2.034,20.801-2.034c3.197,0,6.361,0.147,9.406,0.437
					c0.123-0.155,0.266-0.398,0.217-0.572c-0.045-0.16-0.279-0.299-0.656-0.389l-0.035-0.011c-0.033-0.014-3.318-1.229-10.441-1.229
					C102.361,98.092,95.902,98.838,88.811,100.308z"/>
			</g>
			<g>
				<circle class="st69" cx="110.322" cy="106.671" r="5.369"/>
				<path class="st37" d="M110.322,112.326c-3.119,0-5.654-2.536-5.654-5.655c0-3.116,2.535-5.655,5.654-5.655
					c3.117,0,5.656,2.539,5.656,5.655C115.979,109.79,113.439,112.326,110.322,112.326z M110.322,101.588
					c-2.803,0-5.084,2.281-5.084,5.083c0,2.804,2.281,5.085,5.084,5.085s5.084-2.281,5.084-5.085
					C115.406,103.869,113.125,101.588,110.322,101.588z"/>
			</g>
			<g>
				<path class="st69" d="M104.785,106.671c0,2.216-1.797,4.014-4.014,4.014c-2.215,0-4.012-1.798-4.012-4.014
					c0-2.214,1.797-4.013,4.012-4.013C102.988,102.658,104.785,104.457,104.785,106.671z"/>
				<path class="st37" d="M100.771,110.969c-2.369,0-4.297-1.928-4.297-4.298c0-2.368,1.928-4.296,4.297-4.296
					s4.297,1.928,4.297,4.296C105.068,109.041,103.141,110.969,100.771,110.969z M100.771,102.944c-2.055,0-3.727,1.671-3.727,3.727
					s1.672,3.728,3.727,3.728s3.727-1.672,3.727-3.728S102.826,102.944,100.771,102.944z"/>
			</g>
			<ellipse class="st12" cx="110.629" cy="107.678" rx="4.561" ry="3.633"/>
			<path class="st37" d="M107.797,106.423c-0.475,0-0.475,0.737,0,0.737C108.273,107.16,108.273,106.423,107.797,106.423z"/>
			<ellipse class="st12" cx="100.936" cy="107.367" rx="3.271" ry="2.584"/>
			<path class="st37" d="M102.5,106.301c-0.475,0-0.475,0.738,0,0.738S102.975,106.301,102.5,106.301z"/>
			<g>
				<ellipse class="st61" cx="104.953" cy="113.974" rx="4.021" ry="2.193"/>
				<path class="st37" d="M104.953,116.453c-2.416,0-4.309-1.088-4.309-2.479c0-1.39,1.893-2.478,4.309-2.478
					c2.414,0,4.307,1.088,4.307,2.478C109.26,115.365,107.367,116.453,104.953,116.453z M104.953,112.067
					c-2.025,0-3.736,0.872-3.736,1.906s1.711,1.909,3.736,1.909s3.736-0.875,3.736-1.909S106.979,112.067,104.953,112.067z"/>
			</g>
			<ellipse class="st69" cx="104.952" cy="113.35" rx="1.313" ry="0.717"/>
			<g>
				<path class="st90" d="M96.891,101.564c-0.016,0-0.031-0.003-0.047-0.003c-0.545-0.011-0.545,0.837,0,0.845
					c1.311,0.027,2.613,0.231,3.928,0.252c0.717,0.014,2.486,0.117,2.621-0.912C103.684,99.541,97.934,101.309,96.891,101.564z"/>
				<path class="st37" d="M101.307,102.953h-0.004c-0.145,0-0.281-0.003-0.396-0.006l-0.141-0.003
					c-0.674-0.011-1.352-0.069-2.006-0.128c-0.631-0.055-1.283-0.109-1.92-0.123c-0.398-0.008-0.693-0.318-0.689-0.725
					c0.004-0.401,0.291-0.693,0.686-0.693l0.025,0.002c0.094-0.024,0.221-0.059,0.373-0.098c0.982-0.265,3.025-0.812,4.51-0.812
					c0.832,0,1.387,0.169,1.691,0.518c0.207,0.234,0.287,0.539,0.24,0.898C103.521,102.951,101.857,102.953,101.307,102.953z
					 M96.836,101.847c-0.033,0-0.115,0.003-0.115,0.128c0,0.055,0.016,0.145,0.129,0.148c0.656,0.012,1.32,0.07,1.961,0.125
					c0.645,0.057,1.311,0.115,1.965,0.127l0.141,0.001c0.115,0.003,0.246,0.007,0.387,0.007c1.156,0,1.746-0.222,1.807-0.674
					c0.025-0.194-0.008-0.339-0.104-0.449c-0.129-0.146-0.453-0.322-1.262-0.322c-1.408,0-3.404,0.535-4.363,0.792
					c-0.178,0.05-0.322,0.089-0.424,0.111l-0.037,0.009h-0.039l-0.037-0.288l-0.004,0.285
					C96.838,101.847,96.838,101.847,96.836,101.847z"/>
			</g>
			<g>
				<path class="st8" d="M127.164,206.274c-0.514-2.091-0.92-4.214-1.363-6.319c-0.971-4.615-1.867-9.248-2.428-13.932
					c-0.717-5.99-0.914-12.035-1.094-18.074c-0.023-1.968-0.057-3.936-0.127-5.904c-0.047-1.307-0.119-2.631-0.238-3.953
					c-0.154-2.696-0.434-5.395-1.254-7.975c-0.375-1.186-0.93-2.214-1.598-3.156c-0.164-0.32-0.336-0.643-0.518-0.956
					c-1.686-2.918-4.186-4.941-7.072-6.093c-1.393-0.884-2.895-1.568-4.518-1.865c-1.971-0.357-3.916,0.191-5.596,1.199
					c-1.748,0.499-3.215,1.466-4.35,3.018c-1.322,1.809-1.881,4.09-2.357,6.242c-1.197,5.412-1.736,10.785-2.035,16.313
					c-0.248,4.62-0.703,9.214-1.008,13.827c-0.314,1.645-0.646,3.286-0.992,4.931c-0.605,2.892-0.732,5.872-1.293,8.774
					c-0.285,1.472-0.678,3.375-1.469,4.953c-0.486,0.292-0.912,0.742-1.221,1.391c-0.064,0.135-0.117,0.273-0.168,0.412
					c-0.111,0.113-0.215,0.232-0.311,0.354c-0.262,0.196-0.545,0.37-0.855,0.501c-0.396-0.072-0.861,0.15-0.867,0.675
					c-0.014,1.931-0.139,3.884-0.494,5.784c-0.242,1.297-0.756,2.539-0.834,3.868c-0.121,1.974,2.965,2.45,4.324,2.648
					c2.271,0.335,4.561,0.278,6.848,0.394c4.514,0.221,9.051,0.217,13.57,0.239c4.66,0.022,9.318-0.019,13.979-0.089
					c2.316-0.035,5.539,0.055,5.92-2.983C127.926,209.084,127.5,207.637,127.164,206.274z"/>
				<path class="st37" d="M110.521,213.863L110.521,213.863c-0.893,0-1.785-0.003-2.676-0.008l-1.359-0.006
					c-4.01-0.017-8.154-0.033-12.225-0.234c-0.68-0.033-1.373-0.051-2.043-0.069c-1.584-0.044-3.221-0.087-4.83-0.325
					c-1.287-0.188-4.705-0.689-4.568-2.947c0.051-0.85,0.271-1.661,0.484-2.447c0.129-0.477,0.264-0.971,0.354-1.459
					c0.314-1.67,0.475-3.545,0.49-5.73c0.006-0.686,0.586-1.017,1.113-0.969c0.234-0.105,0.463-0.242,0.693-0.412
					c0.082-0.105,0.172-0.205,0.264-0.304c0.049-0.129,0.098-0.255,0.158-0.379c0.301-0.636,0.725-1.129,1.258-1.47
					c0.729-1.482,1.109-3.255,1.408-4.805c0.266-1.373,0.436-2.788,0.602-4.156c0.184-1.521,0.373-3.096,0.693-4.624
					c0.377-1.802,0.699-3.409,0.986-4.907c0.129-1.936,0.287-3.9,0.438-5.799c0.209-2.623,0.428-5.336,0.57-8.01
					c0.354-6.521,0.982-11.566,2.041-16.359c0.514-2.312,1.082-4.539,2.406-6.347c1.121-1.534,2.623-2.581,4.467-3.115
					c1.885-1.122,3.908-1.553,5.76-1.216c1.521,0.278,3.025,0.897,4.596,1.891c3.068,1.23,5.555,3.375,7.191,6.205
					c0.174,0.303,0.342,0.613,0.514,0.951c0.738,1.043,1.268,2.096,1.625,3.217c0.867,2.727,1.127,5.598,1.266,8.047
					c0.109,1.201,0.189,2.498,0.24,3.957c0.076,2.154,0.107,4.293,0.127,5.914c0.168,5.572,0.357,11.895,1.092,18.041
					c0.586,4.889,1.553,9.773,2.424,13.908c0.117,0.553,0.23,1.109,0.346,1.664c0.312,1.53,0.637,3.11,1.016,4.646l0.105,0.424
					c0.318,1.268,0.648,2.581,0.482,3.901c-0.396,3.163-3.58,3.202-5.904,3.231l-0.293,0.005
					C117.68,213.832,113.98,213.863,110.521,213.863z M85.154,200.233c-0.045,0-0.432,0.013-0.434,0.407
					c-0.018,2.221-0.182,4.129-0.5,5.832c-0.096,0.512-0.232,1.014-0.365,1.504c-0.215,0.792-0.418,1.542-0.467,2.328
					c-0.104,1.736,2.938,2.185,4.082,2.353c1.576,0.231,3.195,0.275,4.762,0.319c0.676,0.018,1.371,0.035,2.059,0.07
					c4.055,0.197,8.195,0.215,12.199,0.232l1.357,0.006c0.891,0.006,1.783,0.008,2.674,0.008l0,0c3.457,0,7.152-0.031,11.301-0.096
					l0.297-0.003c2.232-0.03,5.01-0.063,5.346-2.731c0.15-1.217-0.164-2.475-0.471-3.692l-0.107-0.427
					c-0.381-1.547-0.707-3.133-1.021-4.668c-0.111-0.556-0.227-1.11-0.344-1.662c-0.873-4.148-1.844-9.048-2.432-13.959
					c-0.738-6.171-0.928-12.506-1.098-18.096c-0.018-1.624-0.049-3.756-0.125-5.905c-0.053-1.449-0.129-2.736-0.238-3.937
					c-0.139-2.424-0.395-5.25-1.24-7.915c-0.342-1.07-0.852-2.077-1.559-3.077l-0.021-0.035c-0.172-0.338-0.338-0.645-0.51-0.941
					c-1.576-2.728-3.975-4.793-6.932-5.972l-0.047-0.024c-1.518-0.962-2.961-1.559-4.416-1.823
					c-1.727-0.313-3.621,0.095-5.396,1.161l-0.07,0.028c-1.756,0.505-3.131,1.456-4.197,2.916c-1.26,1.718-1.811,3.882-2.309,6.132
					c-1.055,4.762-1.678,9.777-2.029,16.268c-0.145,2.682-0.361,5.397-0.572,8.023c-0.152,1.902-0.309,3.871-0.438,5.807
					l-0.004,0.037c-0.287,1.506-0.611,3.121-0.992,4.934c-0.314,1.504-0.504,3.066-0.686,4.575c-0.166,1.38-0.338,2.804-0.607,4.196
					c-0.311,1.612-0.709,3.467-1.494,5.026l-0.037,0.073l-0.07,0.044c-0.471,0.281-0.844,0.708-1.109,1.269
					c-0.061,0.127-0.111,0.258-0.16,0.391l-0.021,0.055l-0.041,0.043c-0.104,0.104-0.201,0.217-0.289,0.331l-0.055,0.052
					c-0.301,0.227-0.598,0.402-0.912,0.536l-0.078,0.033l-0.086-0.017C85.219,200.238,85.186,200.233,85.154,200.233z"/>
			</g>
			<g>
				<path class="st82" d="M103.656,135.79c-0.033-2.667,0.342-5.796-1.455-8.151c-1.631-2.134-4.83-2.438-7.557-2.394
					c-0.256,0.003-0.479,0.056-0.666,0.138c-0.355-0.014-0.723,0.107-1.037,0.418c-2.645,2.616-7.35,2.694-10.621,4.554
					c-0.744,0.421-0.877,1.078-0.539,1.749c2.658,5.266,2.658,11.078,2.814,16.711c0.166,5.986,0.17,11.974-0.059,17.959
					c-0.229,6.027-0.828,27.957-1.506,33.961c-0.285,2.539-2.658,7.128,0.207,9.096c2.785,1.908,7.707,1.424,11.035,1.441
					c2.955,0.018,6.945,0.648,8.641-2.021c0.705-1.112,0.709-2.511,0.732-3.737c0.051-2.66,0.045-21.213,0.076-23.871
					c0.074-5.982,0.105-11.963,0.121-17.944C103.869,154.392,103.777,145.094,103.656,135.79z"/>
				<path class="st37" d="M97.389,211.633c-0.002,0,0,0-0.002,0c-0.576,0-1.156-0.019-1.715-0.038
					c-0.492-0.019-0.955-0.036-1.4-0.038h-0.197c-0.5,0-1.033,0.01-1.588,0.02c-0.604,0.012-1.23,0.024-1.869,0.024
					c-2.623,0-5.566-0.185-7.539-1.536c-2.307-1.583-1.484-4.671-0.822-7.152c0.217-0.816,0.422-1.589,0.492-2.21
					c0.539-4.772,1.029-19.665,1.32-28.563c0.074-2.27,0.137-4.15,0.184-5.377c0.217-5.687,0.236-11.555,0.061-17.939l-0.027-0.958
					c-0.137-5.271-0.279-10.722-2.758-15.632c-0.432-0.855-0.188-1.649,0.65-2.127c1.379-0.783,3.012-1.259,4.592-1.719
					c2.197-0.639,4.469-1.301,5.973-2.787c0.33-0.328,0.74-0.504,1.18-0.504c0.223-0.087,0.463-0.133,0.719-0.138
					c0.154-0.003,0.309-0.003,0.465-0.003c2.32,0,5.604,0.26,7.322,2.514c1.572,2.058,1.543,4.701,1.518,7.033
					c-0.006,0.436-0.008,0.865-0.004,1.283c0.107,8.294,0.215,18.094,0.188,27.913c-0.02,7.241-0.057,12.774-0.121,17.946
					c-0.014,1.154-0.02,5.383-0.027,9.861c-0.01,5.861-0.02,12.508-0.049,14.013l-0.002,0.12c-0.023,1.229-0.049,2.622-0.775,3.766
					C101.906,211.369,99.539,211.633,97.389,211.633z M94.074,210.986h0.199c0.455,0.004,0.922,0.02,1.418,0.037
					c0.555,0.02,1.127,0.039,1.695,0.039c1.998,0,4.188-0.231,5.287-1.965c0.639-1.007,0.664-2.316,0.684-3.471l0.004-0.12
					c0.029-1.499,0.039-8.142,0.049-14.001c0.006-4.479,0.014-8.711,0.027-9.867c0.062-5.17,0.102-10.703,0.121-17.943
					c0.027-9.813-0.08-19.611-0.188-27.903c-0.006-0.423,0-0.854,0.004-1.298c0.025-2.348,0.053-4.777-1.402-6.682
					c-1.191-1.561-3.373-2.287-6.867-2.287c-0.152,0-0.305,0.002-0.455,0.004c-0.203,0.004-0.393,0.042-0.559,0.115l-0.061,0.024
					l-0.102-0.001c-0.297,0-0.561,0.112-0.787,0.335c-1.605,1.592-3.947,2.272-6.213,2.931c-1.549,0.453-3.15,0.919-4.469,1.668
					c-0.717,0.407-0.627,0.974-0.424,1.375c2.535,5.022,2.68,10.539,2.818,15.874l0.027,0.956
					c0.176,6.396,0.156,12.277-0.061,17.979c-0.047,1.223-0.109,3.104-0.184,5.372c-0.293,8.907-0.783,23.813-1.322,28.609
					c-0.074,0.663-0.285,1.455-0.51,2.292c-0.646,2.428-1.379,5.182,0.594,6.535c1.846,1.264,4.684,1.434,7.217,1.434
					c0.635,0,1.26-0.01,1.859-0.021C93.035,210.996,93.57,210.986,94.074,210.986z"/>
			</g>
			<g>
				<path class="st82" d="M108.219,163.698c0.016,5.981,0.041,11.962,0.107,17.944c0.029,2.658,0.021,21.211,0.068,23.871
					c0.021,1.227,0.025,2.625,0.656,3.737c1.52,2.669,5.1,2.038,7.748,2.021c2.982-0.018,7.395,0.467,9.893-1.441
					c2.568-1.968,0.441-6.557,0.186-9.096c-0.607-6.004-1.145-27.934-1.35-33.961c-0.205-5.985-0.203-11.973-0.055-17.959
					c0.141-5.633,0.141-11.445,2.525-16.711c0.303-0.671,0.184-1.328-0.484-1.749c-2.932-1.859-7.15-1.938-9.521-4.554
					c-0.283-0.311-0.611-0.432-0.928-0.418c-0.17-0.082-0.369-0.135-0.6-0.138c-2.443-0.044-5.312,0.26-6.773,2.394
					c-1.611,2.355-1.273,5.484-1.307,8.151C108.277,145.094,108.195,154.392,108.219,163.698z"/>
				<path class="st37" d="M114.006,211.633L114.006,211.633c-1.941,0-4.078-0.264-5.203-2.24c-0.646-1.137-0.67-2.525-0.691-3.75
					l-0.002-0.124c-0.025-1.5-0.035-8.108-0.043-13.94c-0.008-4.512-0.014-8.773-0.027-9.934
					c-0.055-5.197-0.088-10.729-0.105-17.946c-0.025-9.769,0.07-19.591,0.166-27.911c0.006-0.42,0.002-0.85-0.002-1.287
					c-0.023-2.328-0.049-4.965,1.357-7.022c1.549-2.261,4.508-2.522,6.598-2.522c0.141,0,0.279,0,0.416,0.003
					c0.234,0.005,0.453,0.051,0.654,0.138c0.406,0.006,0.777,0.183,1.08,0.514c1.342,1.482,3.283,2.111,5.338,2.781
					c1.42,0.461,2.889,0.936,4.127,1.722c0.75,0.478,0.971,1.265,0.59,2.109c-2.225,4.914-2.354,10.366-2.475,15.64l-0.025,0.959
					c-0.158,6.375-0.139,12.244,0.053,17.943c0.043,1.23,0.1,3.122,0.166,5.406c0.264,8.888,0.701,23.766,1.184,28.535
					c0.062,0.624,0.246,1.396,0.441,2.211c0.592,2.478,1.328,5.559-0.736,7.139c-1.781,1.361-4.432,1.546-6.789,1.546
					c-0.572,0-1.137-0.013-1.678-0.024c-0.498-0.01-0.975-0.02-1.422-0.02h-0.176c-0.398,0.002-0.814,0.02-1.254,0.038
					C115.045,211.614,114.525,211.633,114.006,211.633z M116.053,125.525c-3.117,0-5.064,0.724-6.125,2.276
					c-1.307,1.907-1.283,4.341-1.26,6.692c0.004,0.441,0.008,0.875,0.004,1.298c-0.098,8.319-0.193,18.14-0.168,27.903
					c0.018,7.215,0.051,12.749,0.107,17.943c0.012,1.163,0.02,5.426,0.025,9.939c0.008,5.828,0.018,12.436,0.043,13.929l0.004,0.126
					c0.018,1.158,0.041,2.467,0.615,3.477c0.98,1.722,2.93,1.953,4.707,1.953l0,0c0.51,0,1.021-0.02,1.52-0.039
					c0.443-0.018,0.863-0.033,1.271-0.037h0.18c0.453,0,0.934,0.01,1.434,0.02c0.537,0.012,1.098,0.021,1.666,0.021
					c2.262,0,4.797-0.169,6.441-1.426c1.771-1.354,1.111-4.115,0.529-6.553c-0.199-0.836-0.389-1.623-0.455-2.285
					c-0.484-4.791-0.922-19.681-1.184-28.578c-0.068-2.281-0.125-4.174-0.166-5.402c-0.195-5.71-0.213-11.592-0.055-17.975
					l0.023-0.961c0.125-5.33,0.254-10.843,2.527-15.861c0.184-0.408,0.27-0.982-0.377-1.393c-1.178-0.746-2.609-1.211-3.996-1.66
					c-2.035-0.664-4.141-1.346-5.586-2.939c-0.195-0.217-0.424-0.326-0.672-0.326l-0.104,0.002l-0.064-0.031
					c-0.143-0.07-0.305-0.105-0.48-0.109C116.324,125.527,116.189,125.525,116.053,125.525z"/>
			</g>
			<g>
				<path class="st90" d="M105.5,101.389c0.137,1.031,1.904,0.926,2.623,0.912c1.312-0.02,2.615-0.225,3.926-0.251
					c0.545-0.009,0.547-0.856,0-0.845c-0.016,0-0.029,0.002-0.045,0.002C110.961,100.951,105.211,99.184,105.5,101.389z"/>
				<path class="st37" d="M107.59,102.596c-0.549,0-2.217,0-2.371-1.171c-0.049-0.359,0.031-0.661,0.238-0.897
					c0.307-0.348,0.859-0.518,1.691-0.518c1.484,0,3.527,0.549,4.512,0.811c0.15,0.042,0.277,0.075,0.371,0.098h0.012l0,0
					c0.408,0,0.695,0.291,0.701,0.694c0.004,0.404-0.293,0.716-0.689,0.725c-0.639,0.011-1.291,0.069-1.92,0.124
					c-0.656,0.055-1.334,0.115-2.008,0.127l-0.141,0.002C107.869,102.593,107.734,102.596,107.59,102.596z M107.148,100.58
					c-0.809,0-1.131,0.174-1.262,0.324c-0.094,0.107-0.129,0.252-0.104,0.446c0.061,0.454,0.65,0.675,1.807,0.675
					c0.141,0,0.271-0.004,0.385-0.006l0.143-0.003c0.654-0.012,1.322-0.067,1.967-0.126c0.641-0.055,1.303-0.111,1.959-0.125
					c0.113-0.003,0.131-0.095,0.129-0.147c0-0.129-0.084-0.129-0.113-0.129l-0.123-0.007c-0.102-0.023-0.246-0.062-0.424-0.109
					C110.553,101.116,108.557,100.58,107.148,100.58z"/>
			</g>
			<g>
				<g>
					<path class="st90" d="M111.439,118.566C111.484,118.689,111.469,118.633,111.439,118.566L111.439,118.566z"/>
					<path class="st37" d="M111.621,118.924h-0.154c-0.199,0-0.26-0.16-0.295-0.257l0.211-0.087l-0.148-0.105l0.148,0.105
						l0.082-0.035l0.004-0.191l-0.002,0.191l0.232-0.096c0.039,0.09,0.094,0.211,0.008,0.344L111.621,118.924z"/>
				</g>
				<g>
					<path class="st90" d="M116.414,126.72c-0.035-0.966-0.172-1.911-0.467-2.748c0.08-0.171,0.135-0.357,0.156-0.556
						c0.162-1.529-0.426-2.956-1.088-4.301c-0.059-0.115-0.127-0.209-0.201-0.292c0.1-1.215-0.158-2.343-0.896-3.362
						c-0.23-0.319-0.557-0.54-0.912-0.609c-0.42-0.391-0.986-0.744-1.549-0.891c-0.9-0.234-1.594,0.835-2.223,1.299
						c-0.498,0.366-1.045,0.665-1.617,0.893c-0.117-0.119-0.27-0.207-0.469-0.229c-1.08-0.121-2.021,0.012-2.973,0.414l-0.236-0.235
						c-0.221-0.366-0.631-0.429-0.998-0.263c-1.029,0.465-1.971,0.062-2.85-0.527c-0.227-0.154-0.408-0.5-0.615-0.689
						c-0.211-0.195-0.447-0.375-0.707-0.499c-0.402-0.189-1.004-0.31-1.43-0.139c-0.473,0.189-0.709,0.749-0.939,1.165
						c-0.312,0.565-0.605,1.137-0.879,1.721c-0.402,0.856-0.725,1.76-0.803,2.708c-0.023,0.314,0.229,0.597,0.525,0.698
						c-0.012,0.154,0.039,0.297,0.131,0.414c-0.328,1.257-0.414,2.53,0.102,3.832c0.08,0.203,0.234,0.376,0.422,0.471
						c0.053,0.166,0.135,0.316,0.234,0.454c-0.193,1.455-0.424,2.89-0.316,4.365c0.062,0.866,0.766,1.405,1.621,1.233
						c0.082-0.016,0.16-0.029,0.24-0.043c-0.098,0.484-0.172,0.976-0.326,1.446c-0.275,0.843-0.822,1.893,0.193,2.487
						c0.162,0.094,0.35,0.145,0.539,0.156c-0.08,0.512-0.205,1.01-0.395,1.507c-0.248,0.652,0.27,1.403,0.895,1.573
						c0.105,0.029,0.207,0.041,0.307,0.044c-0.035,0.131-0.07,0.262-0.104,0.394c-0.113,0.445,0.02,0.913,0.334,1.245
						c0.209,0.22,0.494,0.281,0.785,0.308c0.068,0.006,0.789,0.004,0.797,0.07c0.1,0.856-0.301,1.695-0.031,2.559
						c0.115,0.377,0.361,0.678,0.734,0.797c0.213,0.064,0.629,0.025,0.744,0.191c0.104,0.148,0.031,0.605,0.041,0.788
						c0.014,0.259,0.02,0.519,0.023,0.777c0.008,0.731,0.533,1.181,1.145,1.239c0.098,0.83,0.941,1.397,1.875,0.963
						c0.246-0.111,0.467-0.24,0.68-0.379c0.086-0.045,0.535,0.262,0.617,0.299c0.277,0.117,0.512,0.134,0.793,0.027
						c0.969-0.365,1.42-1.186,2.039-1.936c0.25-0.305,0.676-0.186,0.994-0.39c0.377-0.242,0.576-0.667,0.629-1.101
						c0.023-0.206,0.018-0.407-0.008-0.609c0.527-0.158,0.922-0.647,0.922-1.219v-0.256c0.219-0.166,0.395-0.404,0.502-0.684
						c0.332-0.859,0.467-1.712,0.447-2.594c-0.002-0.104,0.309-0.333,0.371-0.432c0.168-0.256,0.143-0.768,0.359-0.967
						c0.162-0.149,0.449-0.108,0.635-0.262c0.209-0.17,0.33-0.422,0.381-0.683c0.217-1.095,0.256-2.183,0.252-3.28
						c0.053,0.008,0.105,0.017,0.158,0.017c0.58,0.003,0.961-0.313,1.15-0.842c0.203-0.573,0.107-1.188,0.074-1.78
						c-0.033-0.589,0.09-1.139,0.133-1.724c0.01-0.134-0.033-0.472,0.035-0.581C116.67,127.746,116.676,127.154,116.414,126.72z
						 M107.629,120.5c-0.801-0.982-1.869-1.145-3.029-0.682c-0.916,0.367-1.637,0.948-2.686,0.797
						c-0.625-0.09-1.238-0.285-1.807-0.557c-0.346-0.166-0.689-0.316-1-0.544c-0.455-0.335-0.273-0.675,0.037-1.093
						c-0.01,0.016-0.021,0.029-0.031,0.047c0.211-0.232,0.467-0.49,0.514-0.812c0.031,0.012,0.234,0.052,0.242,0.066
						c0.105,0.237,0.189,0.441,0.252,0.582c0.184,0.42,0.857,0.473,1.146,0.146c0.371-0.417,0.742-0.562,1.125-0.569
						c0.324,0.079,0.65,0.144,0.979,0.19c0.332,0.105,0.678,0.227,1.039,0.291c0.646,0.117,1.205-0.022,1.725-0.295
						c0.367-0.055,0.797-0.248,1.16-0.248c0.512,0,1.023-0.062,1.514-0.195c0.457-0.125,0.855-0.383,1.291-0.521
						c0.15,0.018,0.469,0.491,0.57,0.6c0.193,0.206,0.406,0.407,0.604,0.616c0.365,0.385-0.088,0.557-0.436,0.731
						c-0.531,0.264-1.066,0.53-1.605,0.771c-0.518,0.232-1.047,0.551-1.598,0.685C107.633,120.504,107.631,120.502,107.629,120.5z"
						/>
					<path class="st37" d="M104.594,147.983c-0.711,0-1.303-0.471-1.477-1.146c-0.701-0.161-1.178-0.744-1.189-1.486
						c-0.002-0.255-0.008-0.512-0.021-0.768c-0.002-0.061,0-0.148,0.008-0.248c0.004-0.099,0.014-0.29,0-0.379
						c-0.061-0.02-0.184-0.034-0.264-0.041c-0.111-0.012-0.229-0.023-0.33-0.055c-0.439-0.139-0.768-0.487-0.92-0.983
						c-0.174-0.555-0.104-1.081-0.035-1.589c0.037-0.284,0.074-0.555,0.068-0.82c-0.098-0.008-0.238-0.012-0.416-0.017
						c-0.07-0.002-0.119-0.003-0.137-0.003c-0.301-0.027-0.682-0.096-0.967-0.396c-0.391-0.408-0.541-0.975-0.404-1.512
						c0.008-0.027,0.014-0.056,0.023-0.084c-0.01-0.003-0.018-0.006-0.025-0.008c-0.418-0.113-0.795-0.432-1.004-0.843
						c-0.184-0.365-0.213-0.758-0.08-1.106c0.141-0.373,0.25-0.758,0.33-1.172c-0.127-0.032-0.244-0.08-0.352-0.144
						c-1.096-0.642-0.711-1.722-0.432-2.511c0.039-0.106,0.076-0.211,0.109-0.311c0.105-0.326,0.174-0.66,0.24-1.01
						c-0.955,0.102-1.717-0.553-1.789-1.52c-0.098-1.339,0.08-2.662,0.254-3.939l0.051-0.376c-0.07-0.11-0.127-0.221-0.172-0.331
						c-0.201-0.129-0.361-0.329-0.453-0.558c-0.463-1.169-0.51-2.408-0.145-3.886c-0.047-0.09-0.08-0.182-0.096-0.279
						c-0.348-0.189-0.564-0.549-0.535-0.91c0.07-0.859,0.334-1.751,0.828-2.805c0.273-0.583,0.572-1.168,0.887-1.737
						c0.031-0.058,0.062-0.116,0.096-0.175c0.215-0.41,0.484-0.916,0.988-1.118c0.441-0.177,1.115-0.108,1.656,0.147
						c0.258,0.121,0.514,0.299,0.779,0.544c0.107,0.101,0.199,0.223,0.289,0.34c0.1,0.129,0.201,0.262,0.293,0.323
						c1.068,0.717,1.801,0.854,2.572,0.505c0.504-0.229,1.059-0.087,1.342,0.343l0.078,0.08c0.941-0.364,1.879-0.479,2.936-0.361
						c0.18,0.018,0.344,0.08,0.488,0.181c0.502-0.212,0.971-0.479,1.398-0.792c0.15-0.113,0.314-0.27,0.486-0.437
						c0.461-0.446,0.984-0.951,1.648-0.951c0.109,0,0.219,0.015,0.328,0.042c0.545,0.143,1.129,0.473,1.613,0.909
						c0.393,0.095,0.748,0.341,1.008,0.7c0.717,0.992,1.039,2.147,0.957,3.434c0.064,0.086,0.119,0.172,0.164,0.262
						c0.678,1.376,1.283,2.869,1.115,4.459c-0.02,0.184-0.064,0.362-0.135,0.537c0.254,0.759,0.402,1.651,0.445,2.656
						c0.275,0.514,0.26,1.172-0.045,1.668c-0.012,0.059-0.006,0.2-0.006,0.27c0.004,0.08,0.006,0.151,0.002,0.199
						c-0.016,0.207-0.039,0.408-0.066,0.609c-0.043,0.369-0.086,0.719-0.066,1.076c0.006,0.1,0.014,0.198,0.02,0.297
						c0.039,0.523,0.078,1.063-0.111,1.596c-0.223,0.624-0.678,0.986-1.291,1.029c-0.004,0.919-0.047,1.976-0.258,3.039
						c-0.068,0.352-0.234,0.646-0.479,0.846c-0.143,0.117-0.309,0.158-0.439,0.189c-0.074,0.017-0.156,0.036-0.184,0.062
						c-0.055,0.049-0.096,0.238-0.127,0.375c-0.041,0.187-0.084,0.379-0.186,0.537c-0.043,0.066-0.111,0.131-0.191,0.207
						c-0.037,0.034-0.098,0.092-0.133,0.133c0.012,0.924-0.143,1.787-0.469,2.63c-0.107,0.282-0.273,0.528-0.482,0.716v0.123
						c0,0.6-0.361,1.15-0.902,1.407c0.008,0.159,0.004,0.308-0.014,0.452c-0.066,0.566-0.344,1.043-0.758,1.31
						c-0.184,0.118-0.379,0.153-0.549,0.184c-0.195,0.034-0.307,0.058-0.381,0.147c-0.123,0.151-0.24,0.305-0.357,0.457
						c-0.469,0.611-0.953,1.244-1.799,1.564c-0.344,0.131-0.643,0.121-1.006-0.033c-0.029-0.014-0.096-0.049-0.176-0.096
						c-0.062-0.039-0.191-0.117-0.277-0.161c-0.207,0.131-0.408,0.24-0.613,0.335C105.104,147.925,104.848,147.983,104.594,147.983z
						 M98.039,130.645l-0.139,0.715c-0.074,0.389-0.148,0.789-0.277,1.18c-0.035,0.106-0.072,0.215-0.113,0.327
						c-0.314,0.886-0.461,1.449,0.182,1.825c0.113,0.067,0.254,0.106,0.414,0.117l0.311,0.023l-0.049,0.308
						c-0.09,0.561-0.223,1.07-0.41,1.563c-0.076,0.196-0.055,0.426,0.057,0.645c0.135,0.268,0.383,0.479,0.646,0.553
						c0.068,0.019,0.145,0.027,0.236,0.03l0.363,0.009l-0.123,0.457c-0.025,0.097-0.049,0.191-0.072,0.285
						c-0.088,0.347,0.01,0.712,0.262,0.979c0.123,0.129,0.299,0.193,0.605,0.219c0.014,0.002,0.049,0.002,0.096,0.004
						c0.635,0.012,0.924,0.018,0.959,0.319c0.047,0.401-0.006,0.788-0.055,1.162c-0.062,0.468-0.121,0.909,0.012,1.346
						c0.07,0.221,0.221,0.503,0.547,0.605c0.049,0.015,0.135,0.024,0.221,0.033c0.246,0.025,0.523,0.054,0.674,0.271
						c0.119,0.17,0.115,0.416,0.098,0.747c-0.004,0.075-0.008,0.142-0.006,0.188c0.014,0.262,0.018,0.525,0.021,0.789
						c0.01,0.603,0.453,0.916,0.891,0.961l0.229,0.021l0.025,0.229c0.061,0.497,0.459,0.86,0.951,0.86
						c0.17,0,0.346-0.041,0.521-0.123c0.205-0.096,0.41-0.21,0.645-0.361l0.07-0.044l0.105-0.005c0.143,0,0.295,0.078,0.604,0.264
						c0.049,0.029,0.088,0.053,0.109,0.064c0.215,0.09,0.371,0.098,0.574,0.02c0.695-0.262,1.109-0.803,1.549-1.377
						c0.121-0.158,0.244-0.316,0.371-0.473c0.211-0.255,0.492-0.305,0.717-0.347c0.137-0.022,0.256-0.044,0.344-0.103
						c0.271-0.174,0.453-0.5,0.5-0.896c0.02-0.167,0.018-0.343-0.008-0.538l-0.027-0.239l0.229-0.069
						c0.424-0.129,0.717-0.517,0.717-0.945v-0.396l0.113-0.087c0.18-0.137,0.32-0.329,0.41-0.561
						c0.307-0.795,0.447-1.607,0.428-2.482c-0.004-0.193,0.143-0.332,0.314-0.492c0.043-0.041,0.084-0.078,0.105-0.107
						c0.043-0.064,0.074-0.207,0.105-0.346c0.053-0.234,0.111-0.498,0.297-0.67c0.135-0.125,0.303-0.166,0.436-0.197
						c0.088-0.021,0.17-0.041,0.211-0.076c0.178-0.146,0.25-0.361,0.281-0.516c0.225-1.131,0.252-2.266,0.248-3.227l-0.002-0.323
						l0.367,0.047c0.025,0.003,0.051,0.009,0.078,0.009c0.438,0,0.725-0.215,0.881-0.655c0.148-0.418,0.115-0.875,0.08-1.362
						c-0.008-0.101-0.016-0.203-0.021-0.305c-0.023-0.412,0.025-0.802,0.072-1.179c0.023-0.19,0.047-0.384,0.062-0.581
						c0.002-0.035,0-0.082-0.002-0.138c-0.008-0.249-0.008-0.438,0.08-0.575c0.213-0.339,0.217-0.813,0.012-1.156l-0.039-0.062
						l-0.002-0.073c-0.037-1.024-0.189-1.921-0.451-2.665l-0.039-0.111l0.049-0.107c0.07-0.146,0.115-0.303,0.131-0.461
						c0.145-1.363-0.318-2.643-1.059-4.146c-0.041-0.08-0.092-0.153-0.158-0.229l-0.082-0.091l0.01-0.123
						c0.102-1.21-0.176-2.249-0.842-3.169c-0.193-0.268-0.453-0.442-0.734-0.496l-0.082-0.014l-0.061-0.059
						c-0.42-0.393-0.953-0.699-1.426-0.824c-0.494-0.129-0.977,0.324-1.436,0.766c-0.188,0.182-0.363,0.352-0.545,0.486
						c-0.512,0.375-1.078,0.689-1.684,0.928l-0.178,0.071l-0.133-0.138c-0.08-0.082-0.176-0.129-0.293-0.143
						c-1.025-0.112-1.922,0.01-2.832,0.393l-0.176,0.075l-0.412-0.424c-0.131-0.216-0.379-0.267-0.639-0.149
						c-0.334,0.15-0.682,0.227-1.031,0.227c-0.828,0-1.553-0.417-2.094-0.777c-0.17-0.115-0.301-0.289-0.428-0.453
						c-0.078-0.105-0.152-0.201-0.223-0.268c-0.223-0.203-0.43-0.352-0.637-0.446c-0.395-0.188-0.912-0.249-1.199-0.135
						c-0.311,0.126-0.516,0.514-0.697,0.854c-0.033,0.063-0.066,0.127-0.1,0.188c-0.309,0.556-0.602,1.131-0.869,1.701
						c-0.465,0.989-0.713,1.82-0.777,2.609c-0.014,0.178,0.158,0.348,0.334,0.406l0.209,0.069l-0.018,0.221
						c-0.006,0.078,0.018,0.153,0.07,0.221l0.086,0.11l-0.035,0.137c-0.367,1.408-0.338,2.568,0.092,3.654
						c0.055,0.139,0.162,0.258,0.285,0.32l0.107,0.054l0.037,0.114c0.037,0.123,0.102,0.246,0.191,0.373l0.066,0.093l-0.08,0.599
						c-0.176,1.305-0.342,2.537-0.248,3.82c0.043,0.6,0.455,1.002,1.021,1.002c0.084,0,0.17-0.01,0.258-0.028
						c0.055-0.011,0.107-0.019,0.16-0.03L98.039,130.645z M102.252,120.925c-0.125,0-0.252-0.009-0.379-0.025
						c-0.637-0.093-1.271-0.289-1.889-0.585l-0.139-0.066c-0.303-0.143-0.615-0.291-0.906-0.504
						c-0.223-0.163-0.352-0.354-0.383-0.564c-0.053-0.34,0.148-0.646,0.357-0.928l0.008,0.003l0.029-0.032
						c0.178-0.193,0.361-0.397,0.393-0.609l0.053-0.361l0.34,0.139c-0.002-0.003,0.021,0.004,0.049,0.012
						c0.17,0.041,0.283,0.068,0.344,0.203c0.068,0.154,0.127,0.291,0.178,0.408l0.074,0.176c0.061,0.139,0.234,0.188,0.365,0.188
						c0.129,0,0.244-0.044,0.309-0.117c0.391-0.438,0.826-0.655,1.332-0.664l0.037-0.002l0.035,0.009
						c0.324,0.078,0.645,0.141,0.951,0.184l0.047,0.012l0.176,0.057c0.27,0.087,0.549,0.178,0.83,0.229
						c0.521,0.094,1.014,0.009,1.539-0.267l0.043-0.025l0.049-0.007c0.131-0.019,0.281-0.062,0.438-0.105
						c0.252-0.071,0.512-0.145,0.764-0.145c0.496,0,0.98-0.062,1.439-0.187c0.225-0.061,0.438-0.159,0.662-0.265
						c0.197-0.089,0.4-0.186,0.615-0.254l0.062-0.02l0.064,0.008c0.207,0.029,0.387,0.241,0.635,0.561
						c0.043,0.055,0.08,0.104,0.104,0.129c0.098,0.104,0.199,0.206,0.301,0.307c0.102,0.104,0.203,0.205,0.301,0.307
						c0.172,0.18,0.24,0.365,0.207,0.549c-0.057,0.312-0.365,0.463-0.641,0.597l-0.08,0.04c-0.57,0.283-1.086,0.537-1.617,0.776
						c-0.148,0.065-0.299,0.142-0.449,0.215c-0.383,0.19-0.777,0.385-1.197,0.487l-0.182,0.043l-0.113-0.148
						c-0.678-0.834-1.602-1.033-2.701-0.597c-0.227,0.092-0.449,0.2-0.662,0.304C103.5,120.651,102.938,120.925,102.252,120.925z
						 M99.322,118.659c-0.094,0.132-0.219,0.323-0.201,0.433c0.01,0.072,0.092,0.145,0.156,0.193
						c0.246,0.18,0.521,0.311,0.812,0.447l0.141,0.066c0.564,0.271,1.145,0.449,1.725,0.535c0.1,0.015,0.199,0.02,0.297,0.02
						c0.553,0,1.033-0.232,1.541-0.48c0.223-0.107,0.453-0.221,0.701-0.319c1.279-0.51,2.412-0.286,3.238,0.63
						c0.305-0.098,0.613-0.25,0.912-0.396c0.158-0.08,0.314-0.155,0.471-0.227c0.521-0.232,1.031-0.483,1.596-0.766l0.084-0.041
						c0.094-0.048,0.258-0.126,0.318-0.182c-0.01-0.014-0.023-0.033-0.047-0.057c-0.096-0.102-0.193-0.197-0.293-0.297
						c-0.105-0.105-0.211-0.213-0.311-0.318c-0.031-0.033-0.082-0.097-0.141-0.172c-0.059-0.074-0.178-0.229-0.26-0.311
						c-0.139,0.053-0.279,0.117-0.424,0.185c-0.238,0.111-0.482,0.224-0.754,0.298c-0.51,0.135-1.043,0.207-1.59,0.207
						c-0.174,0-0.395,0.062-0.607,0.121c-0.15,0.043-0.309,0.088-0.463,0.113c-0.625,0.32-1.23,0.417-1.863,0.305
						c-0.32-0.06-0.617-0.156-0.904-0.248l-0.148-0.049c-0.307-0.043-0.625-0.105-0.945-0.181c-0.332,0.015-0.605,0.161-0.881,0.471
						c-0.174,0.196-0.443,0.308-0.736,0.308c-0.398,0-0.748-0.208-0.887-0.53l-0.078-0.179c-0.012-0.03-0.025-0.061-0.041-0.095
						c-0.107,0.178-0.246,0.331-0.369,0.464l-0.047,0.052H99.322z"/>
				</g>
			</g>
			<g>
				<g>
					<path class="st55" d="M86.031,152.143c-0.973-3.068-3.91-5.357-6.049-7.623c-2.689-2.849-5.416-5.7-8.053-8.594
						c-1.348-1.477-2.576-3.02-4.17-4.244c-1.99-1.527-4.312-0.869-6.166,0.52c-0.5,0.377-0.986,0.768-1.461,1.172
						c-0.07,0.059-0.707,0.582-0.717,0.607c-1.209,0.867-2.74,1.478-4.059,2.143c-2.869,1.447-5.562,3.059-7.963,5.219
						c-1.416,1.271-1.107,2.936-0.09,3.998c0.137,0.283,0.311,0.557,0.518,0.809c4.734,5.77,9.408,11.77,13.031,18.303
						c1.211,2.18,2.99,5.842,5.93,5.839c2.875-0.002,5.256-2.716,7.055-4.663c0.85-0.916,1.633-1.864,2.576-2.695
						c1.441-1.268,3.23-2.172,4.832-3.221c1.242-0.812,2.516-1.662,3.658-2.61C86.367,155.892,86.578,153.868,86.031,152.143z"/>
					<path class="st37" d="M66.783,170.577h-0.006c-2.896-0.003-4.709-3.313-5.908-5.505c-0.092-0.168-0.18-0.329-0.266-0.482
						c-3.629-6.544-8.395-12.645-13.002-18.258c-0.209-0.258-0.389-0.535-0.533-0.829c-0.611-0.652-0.945-1.481-0.916-2.278
						c0.029-0.779,0.393-1.504,1.051-2.098c2.125-1.908,4.6-3.531,8.025-5.259c0.365-0.187,0.748-0.365,1.135-0.548
						c0.99-0.468,2.014-0.949,2.863-1.557c0.074-0.07,0.234-0.205,0.625-0.53l0.096-0.077c0.523-0.444,1.008-0.831,1.477-1.184
						c1.27-0.951,2.588-1.454,3.818-1.454c0.977,0,1.883,0.317,2.691,0.937c1.273,0.979,2.332,2.174,3.354,3.326
						c0.281,0.318,0.564,0.637,0.854,0.952c2.068,2.269,4.223,4.546,6.309,6.748c0.58,0.616,1.162,1.229,1.742,1.843
						c0.465,0.494,0.963,0.982,1.488,1.498c1.889,1.854,3.844,3.771,4.623,6.234c0.518,1.63,0.469,3.869-1.217,5.265
						c-1.172,0.97-2.461,1.829-3.682,2.628c-0.498,0.326-1.02,0.642-1.525,0.945c-1.129,0.684-2.297,1.391-3.277,2.252
						c-0.684,0.604-1.275,1.262-1.9,1.955c-0.215,0.241-0.432,0.481-0.652,0.721l-0.225,0.242
						C72.07,167.966,69.666,170.571,66.783,170.577z M59.656,134.146l-0.01,0.021l-0.064,0.047
						c-0.896,0.643-1.953,1.141-2.975,1.624c-0.383,0.179-0.76,0.358-1.121,0.541c-3.379,1.704-5.816,3.3-7.902,5.175
						c-0.541,0.486-0.838,1.072-0.861,1.692c-0.023,0.657,0.264,1.349,0.789,1.897l0.031,0.032l0.02,0.044
						c0.129,0.266,0.291,0.519,0.48,0.75c4.625,5.636,9.408,11.76,13.061,18.344c0.086,0.155,0.174,0.317,0.266,0.484
						c1.203,2.197,2.85,5.209,5.408,5.209v0.284l0.004-0.284c2.635-0.004,4.846-2.402,6.625-4.328l0.223-0.243
						c0.221-0.236,0.434-0.476,0.648-0.714c0.607-0.676,1.238-1.376,1.949-2.003c1.018-0.896,2.205-1.614,3.357-2.311
						c0.5-0.302,1.018-0.616,1.506-0.938c1.209-0.788,2.482-1.636,3.633-2.589c1.467-1.213,1.496-3.199,1.037-4.652
						c-0.736-2.324-2.641-4.194-4.48-6c-0.529-0.519-1.029-1.01-1.504-1.512c-0.578-0.615-1.16-1.229-1.742-1.842
						c-2.086-2.205-4.244-4.485-6.314-6.757c-0.289-0.317-0.574-0.638-0.857-0.958c-1.053-1.188-2.045-2.307-3.275-3.252
						c-0.707-0.542-1.496-0.818-2.344-0.818c-1.396,0-2.662,0.73-3.477,1.341c-0.461,0.343-0.934,0.726-1.449,1.16l-0.1,0.083
						C60.1,133.771,59.766,134.047,59.656,134.146z"/>
				</g>
				<path class="st37" d="M68.92,132.795c-0.768,0.479-1.416,1.121-2.053,1.757c-0.262,0.26,0.141,0.664,0.402,0.404
					c0.604-0.604,1.211-1.216,1.941-1.669C69.523,133.095,69.236,132.601,68.92,132.795z"/>
				<path class="st37" d="M60.246,156.225c-0.127,0.243-0.324,0.422-0.609,0.43c-0.369,0.012-0.369,0.582,0,0.572
					c0.48-0.017,0.881-0.29,1.102-0.713C60.908,156.188,60.416,155.898,60.246,156.225z"/>
				<path class="st37" d="M61.004,156.881c-0.406,0.391-0.9,0.641-1.443,0.783c-0.355,0.095-0.205,0.644,0.15,0.552
					c0.637-0.17,1.221-0.472,1.697-0.931C61.672,157.028,61.268,156.625,61.004,156.881z"/>
				<path class="st37" d="M62.203,157.55c-0.752,0.445-1.531,0.828-2.357,1.112c-0.346,0.119-0.197,0.67,0.152,0.551
					c0.871-0.299,1.699-0.701,2.494-1.17C62.809,157.855,62.521,157.363,62.203,157.55z"/>
				<path class="st37" d="M79.484,144.461h-2.586c0.029,0,0.059,0,0.092-0.012c0.578-0.184,1.176-0.268,1.781-0.275
					c0.367-0.006,0.367-0.577,0-0.571c-0.652,0.009-1.311,0.098-1.932,0.295c-0.303,0.097-0.23,0.521,0.021,0.563h-0.945
					c-0.367,0-0.367,0.568,0,0.568h3.568C79.852,145.029,79.852,144.461,79.484,144.461z"/>
				<path class="st37" d="M68.711,167.38c0.189-0.728,0.111-1.39-0.256-2.085c-0.17-0.326-0.664-0.037-0.492,0.287
					c0.352,0.668,0.357,1.223,0.113,1.922c-0.049,0.139,0.055,0.322,0.201,0.352c0.908,0.175,0.973,0.85,0.799,1.645
					c-0.078,0.361,0.471,0.512,0.551,0.152C69.85,168.644,69.691,167.711,68.711,167.38z"/>
				<path class="st37" d="M81.77,158.912c-0.963-0.426-1.84-0.988-2.711-1.57c-0.309-0.205-0.594,0.291-0.289,0.492
					c0.873,0.582,1.748,1.146,2.711,1.572C81.814,159.553,82.105,159.061,81.77,158.912z"/>
				<path class="st37" d="M82.91,158.057c-0.879-0.451-1.682-1.02-2.637-1.314c-0.354-0.107-0.502,0.443-0.15,0.551
					c0.904,0.277,1.666,0.826,2.5,1.255C82.949,158.717,83.238,158.225,82.91,158.057z"/>
				<path class="st37" d="M83.967,157.529c-0.518-0.508-1.121-0.912-1.838-1.072c-0.359-0.078-0.512,0.471-0.152,0.551
					c0.627,0.141,1.135,0.48,1.588,0.926C83.826,158.193,84.23,157.787,83.967,157.529z"/>
				<path class="st37" d="M50.596,147.111c-0.293,0.279-0.691,0.338-1.082,0.344c-0.369,0.006-0.369,0.576,0,0.572
					c0.545-0.008,1.08-0.127,1.486-0.512C51.266,147.262,50.863,146.857,50.596,147.111z"/>
				<path class="st84" d="M66.346,131.072c-1.021,0.01-1.994,0.115-2.947,0.496c-0.865,0.346-1.533,0.933-2.189,1.57
					c-0.879,0.854-1.75,1.367-2.885,1.82c-0.967,0.385-1.75,0.838-2.604,1.428c-0.416,0.287-0.895,0.373-1.346,0.578
					c-0.502,0.229-0.969,0.539-1.447,0.812c-0.957,0.546-1.887,1.074-2.76,1.754c-0.779,0.606-1.604,1.162-2.363,1.793
					c-0.629,0.52-0.963,1.19-0.994,2.002c-0.006,0.186,0.277,0.184,0.285,0c0.039-1.043,0.672-1.656,1.471-2.227
					c0.807-0.578,1.57-1.205,2.371-1.789c0.811-0.592,1.705-1.04,2.572-1.539c0.822-0.473,1.76-0.725,2.537-1.266
					c0.838-0.576,1.635-0.986,2.584-1.363c0.789-0.316,1.521-0.671,2.168-1.225c0.758-0.651,1.381-1.403,2.273-1.883
					c1.012-0.547,2.145-0.668,3.273-0.678C66.529,131.357,66.529,131.07,66.346,131.072z"/>
			</g>
			<g>
				<path class="st68" d="M54.045,149.502c-0.334-0.617-1.002-0.799-1.664-0.723c-0.479,0.057-0.883,0.27-1.242,0.555
					c-1.107,0.406-2.035,1.631-1.445,2.584c0.033,0.09,0.076,0.177,0.131,0.26c0.02,0.066,0.059,0.115,0.113,0.144
					c0.068,0.072,0.143,0.144,0.232,0.206c0.172,0.121,0.391,0.105,0.57,0.016c0.117-0.014,0.227-0.061,0.314-0.144
					c0.902-0.265,1.953-0.622,2.631-1.258C54.109,150.746,54.332,150.037,54.045,149.502z"/>
				<path class="st37" d="M50.453,152.898L50.453,152.898c-0.162,0-0.318-0.047-0.447-0.138c-0.088-0.062-0.168-0.131-0.25-0.217
					c-0.086-0.059-0.15-0.142-0.189-0.237c-0.051-0.083-0.096-0.172-0.131-0.265c-0.236-0.396-0.275-0.854-0.113-1.324
					c0.238-0.696,0.893-1.335,1.674-1.636c0.443-0.34,0.887-0.531,1.352-0.586c0.105-0.014,0.211-0.019,0.314-0.019
					c0.744,0,1.324,0.317,1.633,0.889c0.371,0.688,0.064,1.536-0.412,1.984c-0.693,0.649-1.699,1.013-2.689,1.306
					c-0.105,0.082-0.23,0.137-0.367,0.162C50.705,152.873,50.578,152.898,50.453,152.898z M50.094,152.08l0.021,0.012l0.033,0.035
					c0.062,0.07,0.123,0.121,0.186,0.166c0.07,0.051,0.18,0.045,0.277-0.006l0.045-0.022l0.053-0.005
					c0.061-0.009,0.111-0.031,0.15-0.068l0.051-0.046l0.064-0.019c0.896-0.264,1.896-0.613,2.516-1.191
					c0.328-0.309,0.531-0.875,0.303-1.299c-0.262-0.486-0.76-0.59-1.131-0.59c-0.082,0-0.166,0.007-0.248,0.016
					c-0.375,0.045-0.727,0.201-1.1,0.494l-0.078,0.041c-0.635,0.237-1.188,0.762-1.375,1.305c-0.109,0.317-0.084,0.609,0.076,0.866
					l0.025,0.056c0.025,0.068,0.059,0.133,0.1,0.195L50.094,152.08z"/>
			</g>
			<g>
				<path class="st68" d="M55.939,150.796c-0.393-0.728-1.18-0.941-1.959-0.851c-0.562,0.064-1.039,0.318-1.465,0.652
					c-1.301,0.48-2.395,1.92-1.699,3.043c0.039,0.105,0.09,0.209,0.154,0.306c0.023,0.077,0.07,0.136,0.133,0.169
					c0.078,0.086,0.168,0.168,0.273,0.243c0.203,0.142,0.461,0.123,0.674,0.017c0.137-0.016,0.266-0.07,0.369-0.167
					c1.062-0.312,2.299-0.733,3.098-1.481C56.016,152.26,56.279,151.426,55.939,150.796z"/>
				<path class="st37" d="M51.711,154.746L51.711,154.746c-0.184,0-0.354-0.054-0.496-0.154c-0.102-0.071-0.197-0.154-0.293-0.256
					c-0.094-0.062-0.166-0.154-0.209-0.264c-0.061-0.096-0.113-0.199-0.154-0.308c-0.271-0.454-0.318-0.979-0.131-1.521
					c0.277-0.809,1.039-1.551,1.947-1.899c0.518-0.396,1.031-0.62,1.572-0.685c0.123-0.014,0.246-0.021,0.365-0.021
					c0.855,0,1.523,0.364,1.877,1.022c0.426,0.787,0.072,1.759-0.477,2.272c-0.811,0.759-1.99,1.187-3.154,1.53
					c-0.121,0.096-0.268,0.161-0.424,0.187C51.998,154.713,51.852,154.746,51.711,154.746z M54.312,150.209
					c-0.098,0-0.197,0.01-0.299,0.021c-0.451,0.053-0.871,0.24-1.322,0.59l-0.076,0.043c-0.762,0.283-1.424,0.911-1.648,1.566
					c-0.133,0.389-0.102,0.746,0.094,1.059l0.025,0.056c0.031,0.089,0.072,0.168,0.121,0.243l0.039,0.081l0.043,0.022l0.025,0.03
					c0.076,0.083,0.148,0.149,0.229,0.202c0.047,0.034,0.104,0.051,0.168,0.051l0,0c0.068,0,0.141-0.018,0.211-0.053l0.045-0.023
					l0.051-0.007c0.057-0.007,0.139-0.028,0.207-0.092l0.049-0.046l0.066-0.019c1.061-0.312,2.244-0.725,2.982-1.417
					c0.398-0.372,0.645-1.068,0.365-1.586C55.365,150.336,54.762,150.209,54.312,150.209z"/>
			</g>
			<g>
				<path class="st68" d="M57.42,152.629c-0.391-0.723-1.17-0.936-1.945-0.844c-0.561,0.064-1.031,0.314-1.453,0.645
					c-1.295,0.479-2.379,1.91-1.689,3.025c0.037,0.105,0.088,0.207,0.154,0.305c0.021,0.078,0.068,0.134,0.131,0.166
					c0.078,0.085,0.166,0.168,0.271,0.241c0.201,0.142,0.459,0.126,0.668,0.017c0.135-0.014,0.264-0.069,0.367-0.164
					c1.057-0.312,2.283-0.73,3.078-1.472C57.496,154.082,57.758,153.255,57.42,152.629z"/>
				<path class="st37" d="M53.221,156.555L53.221,156.555c-0.182,0-0.352-0.053-0.496-0.153c-0.1-0.069-0.193-0.153-0.289-0.251
					c-0.094-0.063-0.166-0.156-0.209-0.265c-0.061-0.095-0.111-0.198-0.152-0.307c-0.27-0.451-0.316-0.974-0.131-1.511
					c0.275-0.805,1.033-1.541,1.936-1.891c0.514-0.393,1.025-0.615,1.562-0.677c0.123-0.015,0.244-0.021,0.363-0.021
					c0.852,0,1.514,0.36,1.867,1.014c0.422,0.784,0.07,1.751-0.475,2.261c-0.805,0.756-1.979,1.179-3.135,1.522
					c-0.121,0.095-0.266,0.158-0.422,0.185C53.506,156.521,53.361,156.555,53.221,156.555z M55.805,152.051
					c-0.096,0-0.197,0.006-0.297,0.018c-0.449,0.052-0.865,0.24-1.312,0.588l-0.074,0.043c-0.758,0.279-1.414,0.902-1.637,1.553
					c-0.135,0.385-0.104,0.739,0.092,1.052l0.025,0.056c0.031,0.086,0.07,0.168,0.121,0.24l0.037,0.08l0.043,0.023l0.025,0.029
					c0.076,0.084,0.146,0.147,0.225,0.2c0.047,0.034,0.104,0.051,0.168,0.051l0,0c0.066,0,0.139-0.019,0.207-0.054l0.045-0.023
					l0.051-0.006c0.082-0.009,0.15-0.041,0.207-0.092l0.049-0.043l0.064-0.02c1.105-0.328,2.23-0.722,2.963-1.406
					c0.395-0.372,0.639-1.062,0.363-1.576C56.852,152.174,56.252,152.051,55.805,152.051z"/>
			</g>
			<g>
				<path class="st68" d="M58.309,154.593c-0.336-0.622-1.008-0.806-1.674-0.728c-0.482,0.056-0.889,0.272-1.252,0.557
					c-1.113,0.412-2.047,1.645-1.451,2.604c0.031,0.09,0.074,0.178,0.131,0.26c0.02,0.068,0.059,0.115,0.113,0.145
					c0.066,0.072,0.143,0.145,0.234,0.207c0.172,0.122,0.393,0.107,0.574,0.017c0.117-0.015,0.227-0.062,0.314-0.146
					c0.91-0.266,1.965-0.624,2.648-1.266C58.373,155.844,58.598,155.131,58.309,154.593z"/>
				<path class="st37" d="M54.695,158.012L54.695,158.012c-0.166,0-0.32-0.049-0.449-0.142c-0.088-0.059-0.172-0.132-0.254-0.217
					c-0.084-0.059-0.15-0.143-0.189-0.241c-0.051-0.083-0.096-0.17-0.131-0.264c-0.236-0.4-0.277-0.858-0.115-1.33
					c0.24-0.701,0.898-1.344,1.684-1.648c0.447-0.34,0.893-0.533,1.361-0.589c0.105-0.009,0.211-0.019,0.316-0.019
					c0.748,0,1.33,0.316,1.643,0.896c0.371,0.691,0.062,1.543-0.418,1.99c-0.697,0.654-1.709,1.021-2.705,1.317
					c-0.105,0.083-0.232,0.137-0.369,0.162C54.947,157.981,54.82,158.012,54.695,158.012z M54.332,157.189l0.021,0.012l0.031,0.036
					c0.064,0.069,0.123,0.12,0.188,0.165c0.035,0.024,0.074,0.037,0.123,0.037l0,0c0.049,0,0.107-0.016,0.158-0.043l0.047-0.021
					l0.051-0.007c0.061-0.007,0.113-0.03,0.152-0.067l0.051-0.047l0.064-0.02c0.902-0.264,1.908-0.615,2.533-1.199
					c0.33-0.309,0.533-0.881,0.305-1.307c-0.264-0.49-0.766-0.594-1.139-0.594c-0.082,0-0.168,0.004-0.25,0.015
					c-0.379,0.045-0.732,0.203-1.109,0.497l-0.076,0.044c-0.641,0.236-1.197,0.765-1.385,1.312
					c-0.109,0.319-0.084,0.612,0.076,0.872l0.025,0.055c0.025,0.068,0.059,0.135,0.1,0.197L54.332,157.189z"/>
			</g>
			<path class="st37" d="M128.43,177.633c-0.211-1.012-0.152-2.545-1.025-3.266c-0.281-0.23-0.688,0.168-0.402,0.404
				c0.758,0.625,0.691,2.122,0.877,3.014C127.953,178.145,128.504,177.992,128.43,177.633z"/>
			<path class="st37" d="M131.674,176.758c-0.02-1.055-0.557-2.023-1.637-2.273c-0.357-0.083-0.51,0.466-0.15,0.551
				c0.832,0.191,1.201,0.916,1.217,1.723c0.004,0.161,0.115,0.247,0.24,0.267c0,0.071,0.002,0.138-0.002,0.209
				c-0.014,0.184,0.273,0.182,0.285,0c0.008-0.108,0.006-0.216,0.002-0.321C131.654,176.871,131.676,176.82,131.674,176.758z"/>
			<path class="st37" d="M132.627,174.379c-0.369-0.014-0.369,0.559,0,0.571c0.018,0,0.035,0.003,0.053,0.005
				c0.363,0.209,0.732,0.418,1.027,0.718c0.076,0.077,0.135,0.161,0.186,0.251c0.166,0.462,0.195,1.02,0.16,1.499
				c-0.025,0.368,0.545,0.366,0.572,0C134.723,176.033,134.256,174.436,132.627,174.379z"/>
			<g>
				<path class="st14" d="M72.385,147.217c-0.66-0.543-1.014-1.367-1.502-2.055c-0.506-0.713-1.104-1.371-1.678-2.029
					c-0.85-0.975-1.723-1.922-2.557-2.909c0.568-1.064,1.137-2.05,1.295-3.267c0.072-0.545-0.785-0.539-0.855,0
					c-0.117,0.902-0.539,1.759-0.996,2.59c-0.342-0.424-0.674-0.857-0.988-1.307c-0.316-0.447-1.059-0.021-0.74,0.432
					c0.406,0.577,0.836,1.133,1.281,1.678c-0.156,0.284-0.309,0.564-0.441,0.845c-0.207,0.435-0.398,0.875-0.59,1.315
					c-0.951-0.93-1.84-1.914-2.436-3.128c-0.244-0.495-0.982-0.062-0.74,0.433c0.678,1.38,1.721,2.49,2.816,3.545
					c-0.268,0.645-0.533,1.285-0.814,1.921c-0.045,0.099-0.086,0.198-0.129,0.298c-1.279-1.357-2.621-2.656-3.84-4.072
					c-0.361-0.418-0.965,0.191-0.607,0.607c1.299,1.502,2.715,2.891,4.078,4.329c-0.436,1.052-0.842,2.118-1.256,3.177
					c-1.92-2.021-3.875-4.01-5.783-6.043c-0.379-0.402-0.984,0.204-0.605,0.605c1.994,2.123,4.039,4.201,6.043,6.316
					c-0.475,1.188-0.969,2.366-1.543,3.512c-0.246,0.494,0.492,0.928,0.74,0.433c0.529-1.062,1.006-2.147,1.461-3.243
					c0.895,0.954,1.781,1.918,2.646,2.902c0.365,0.415,0.971-0.192,0.605-0.605c-0.945-1.075-1.916-2.127-2.896-3.168
					c0.426-1.054,0.836-2.115,1.256-3.172c1.387,1.52,2.645,3.129,4.104,4.59c0.391,0.393,0.996-0.214,0.605-0.605
					c-1.543-1.545-2.879-3.237-4.342-4.852c-0.004-0.006-0.008-0.009-0.012-0.014c0.201-0.496,0.406-0.992,0.617-1.486
					c0.113-0.265,0.225-0.531,0.338-0.795c0.064,0.062,0.131,0.124,0.195,0.185c1.488,1.405,2.586,3.208,4.168,4.501
					c0.424,0.344,1.033-0.258,0.605-0.607c-1.477-1.207-2.484-2.883-3.859-4.205c-0.248-0.24-0.498-0.477-0.75-0.714
					c0.301-0.708,0.615-1.407,0.951-2.099c0.666,0.78,1.352,1.543,2.037,2.308c0.729,0.815,1.457,1.642,2.09,2.534
					c0.471,0.663,0.785,1.4,1.424,1.924C72.203,148.168,72.812,147.566,72.385,147.217z"/>
				<path class="st134" d="M72.672,146.881c-0.66-0.539-1.016-1.366-1.504-2.053c-0.506-0.715-1.102-1.373-1.676-2.029
					c-0.852-0.975-1.725-1.924-2.557-2.91c0.566-1.064,1.135-2.051,1.295-3.266c0.072-0.546-0.787-0.541-0.857,0
					c-0.117,0.902-0.539,1.758-0.996,2.589c-0.342-0.425-0.672-0.858-0.988-1.306c-0.314-0.449-1.059-0.021-0.738,0.431
					c0.404,0.579,0.836,1.135,1.279,1.678c-0.156,0.284-0.307,0.563-0.439,0.845c-0.207,0.434-0.402,0.875-0.592,1.318
					c-0.951-0.934-1.84-1.916-2.436-3.131c-0.244-0.494-0.98-0.062-0.738,0.434c0.676,1.379,1.719,2.49,2.814,3.545
					c-0.268,0.643-0.533,1.285-0.814,1.92c-0.045,0.1-0.084,0.199-0.127,0.299c-1.281-1.357-2.621-2.658-3.842-4.072
					c-0.361-0.418-0.965,0.191-0.605,0.605c1.297,1.502,2.713,2.891,4.078,4.33c-0.438,1.054-0.842,2.117-1.256,3.178
					c-1.922-2.021-3.875-4.012-5.785-6.043c-0.379-0.402-0.982,0.203-0.605,0.605c1.994,2.124,4.039,4.2,6.041,6.315
					c-0.471,1.188-0.967,2.366-1.541,3.515c-0.246,0.491,0.492,0.924,0.738,0.43c0.531-1.062,1.008-2.148,1.463-3.244
					c0.896,0.956,1.781,1.918,2.646,2.904c0.365,0.414,0.969-0.193,0.605-0.607c-0.945-1.074-1.914-2.125-2.896-3.167
					c0.426-1.054,0.838-2.115,1.258-3.172c1.385,1.521,2.643,3.128,4.102,4.589c0.391,0.393,0.996-0.213,0.605-0.605
					c-1.543-1.544-2.877-3.236-4.34-4.851c-0.006-0.005-0.01-0.008-0.014-0.014c0.201-0.497,0.406-0.993,0.617-1.487
					c0.115-0.263,0.227-0.53,0.338-0.792c0.066,0.062,0.131,0.122,0.197,0.184c1.488,1.403,2.586,3.208,4.166,4.497
					c0.424,0.348,1.033-0.255,0.605-0.604c-1.477-1.206-2.484-2.885-3.857-4.206c-0.248-0.239-0.5-0.476-0.752-0.713
					c0.303-0.708,0.615-1.409,0.953-2.099c0.664,0.78,1.352,1.541,2.035,2.307c0.729,0.814,1.459,1.641,2.09,2.534
					c0.471,0.663,0.783,1.399,1.424,1.926C72.488,147.834,73.1,147.232,72.672,146.881z"/>
				<path class="st85" d="M72.672,147.167c-0.66-0.541-1.016-1.368-1.504-2.054c-0.506-0.713-1.102-1.372-1.676-2.029
					c-0.852-0.976-1.725-1.924-2.557-2.91c0.566-1.064,1.135-2.051,1.295-3.266c0.072-0.547-0.787-0.539-0.857,0
					c-0.117,0.902-0.539,1.758-0.996,2.59c-0.342-0.426-0.672-0.857-0.988-1.307c-0.314-0.449-1.059-0.021-0.738,0.432
					c0.404,0.578,0.836,1.133,1.279,1.677c-0.156,0.284-0.307,0.565-0.439,0.845c-0.207,0.436-0.402,0.874-0.592,1.318
					c-0.951-0.934-1.84-1.916-2.436-3.129c-0.244-0.496-0.98-0.062-0.738,0.432c0.676,1.378,1.719,2.492,2.814,3.547
					c-0.268,0.643-0.533,1.283-0.814,1.92c-0.045,0.098-0.084,0.197-0.127,0.297c-1.281-1.357-2.621-2.656-3.842-4.07
					c-0.361-0.42-0.965,0.189-0.605,0.605c1.297,1.502,2.713,2.89,4.078,4.328c-0.438,1.054-0.842,2.117-1.256,3.178
					c-1.922-2.021-3.875-4.01-5.785-6.043c-0.379-0.402-0.982,0.203-0.605,0.604c1.994,2.126,4.039,4.2,6.041,6.318
					c-0.471,1.187-0.967,2.366-1.541,3.512c-0.246,0.491,0.492,0.926,0.738,0.433c0.531-1.062,1.008-2.148,1.463-3.246
					c0.896,0.958,1.781,1.92,2.646,2.903c0.365,0.415,0.969-0.192,0.605-0.604c-0.945-1.074-1.914-2.127-2.896-3.168
					c0.426-1.053,0.838-2.117,1.258-3.174c1.385,1.521,2.643,3.13,4.102,4.592c0.391,0.391,0.996-0.213,0.605-0.604
					c-1.543-1.549-2.877-3.238-4.34-4.854c-0.006-0.003-0.01-0.009-0.014-0.013c0.201-0.497,0.406-0.994,0.617-1.487
					c0.115-0.265,0.227-0.529,0.338-0.792c0.066,0.061,0.131,0.123,0.197,0.185c1.488,1.403,2.586,3.206,4.166,4.497
					c0.424,0.347,1.033-0.258,0.605-0.605c-1.477-1.205-2.484-2.885-3.857-4.204c-0.248-0.239-0.5-0.478-0.752-0.714
					c0.303-0.707,0.615-1.408,0.953-2.099c0.664,0.78,1.352,1.54,2.035,2.306c0.729,0.816,1.459,1.642,2.09,2.535
					c0.471,0.662,0.783,1.4,1.424,1.926C72.488,148.119,73.1,147.518,72.672,147.167z"/>
			</g>
			<polygon class="st31" points="89.486,99.877 90.096,101.783 91.238,101.594 90.572,99.739 			"/>
			<polygon class="st31" points="95.102,98.807 95.781,101.021 96.922,100.832 96.186,98.669 			"/>
			<polygon class="st31" points="101.477,98.281 102.084,100.188 103.346,100.32 102.561,98.142 			"/>
			<polygon class="st31" points="107.35,98.069 107.961,99.976 109.197,100.023 108.438,97.932 			"/>
			<polygon class="st31" points="113.656,98.167 114.266,100.074 115.58,100.32 114.742,98.029 			"/>
		</g>
	</g>
	<path class="st80" d="M282.66,199.97c-1.758-0.369-3.328,0.144-4.703,1.206c-0.041-3.646-0.609-7.798-3.361-9.471
		c-6.131-3.726-7.453,3.757-7.523,11.323c-0.205,0.179-0.4,0.384-0.586,0.616c-2.596-3.455-5.896-5.805-9.959-4.044
		c-0.984,0.428-1.391,1.803-1.121,2.76c1.693,6.041,5.797,10.341,9.857,14.924c1.035,1.169,2.398,0.909,3.262,0.066
		c0.816,0.62,1.965,0.461,2.807-0.154c-0.014,0.386-0.014,0.748,0.004,1.077c0.117,2.209,2.537,2.987,3.959,1.874
		c0.748,0.62,1.777,0.852,2.705,0.234C281.938,217.758,291.729,201.874,282.66,199.97z"/>
	<path class="st80" d="M67.662,203.092c-1.213-0.255-2.297,0.099-3.242,0.831c-0.029-2.513-0.422-5.376-2.318-6.528
		c-4.227-2.568-5.137,2.59-5.186,7.805c-0.141,0.123-0.275,0.265-0.404,0.426c-1.789-2.383-4.064-4.002-6.865-2.788
		c-0.678,0.295-0.959,1.243-0.773,1.902c1.168,4.164,3.996,7.128,6.797,10.287c0.713,0.806,1.652,0.627,2.248,0.046
		c0.562,0.428,1.354,0.317,1.934-0.106c-0.01,0.266-0.01,0.516,0.004,0.742c0.08,1.522,1.748,2.06,2.729,1.292
		c0.516,0.428,1.225,0.587,1.863,0.162C67.162,215.354,73.912,204.404,67.662,203.092z"/>
	<path class="st80" d="M394.135,205.003c-1.332-0.279-2.521,0.109-3.562,0.914c-0.033-2.761-0.463-5.908-2.549-7.176
		c-4.645-2.823-5.646,2.847-5.701,8.58c-0.154,0.135-0.303,0.29-0.443,0.467c-1.967-2.618-4.467-4.398-7.545-3.064
		c-0.746,0.324-1.055,1.366-0.85,2.091c1.283,4.577,4.393,7.835,7.469,11.309c0.785,0.886,1.818,0.688,2.473,0.05
		c0.617,0.47,1.486,0.351,2.125-0.116c-0.01,0.292-0.01,0.566,0.004,0.814c0.088,1.675,1.922,2.265,3,1.421
		c0.566,0.47,1.346,0.646,2.049,0.178C393.588,218.481,401.006,206.446,394.135,205.003z"/>
	<path class="st80" d="M489.469,205.003c-1.334-0.279-2.523,0.109-3.564,0.914c-0.031-2.761-0.463-5.908-2.547-7.176
		c-4.645-2.823-5.646,2.847-5.701,8.58c-0.154,0.135-0.303,0.29-0.443,0.467c-1.967-2.618-4.467-4.398-7.545-3.064
		c-0.746,0.324-1.055,1.366-0.852,2.091c1.285,4.577,4.393,7.835,7.471,11.309c0.783,0.886,1.816,0.688,2.471,0.05
		c0.619,0.47,1.488,0.351,2.125-0.116c-0.01,0.292-0.008,0.566,0.004,0.814c0.088,1.675,1.924,2.265,3,1.421
		c0.566,0.47,1.348,0.646,2.049,0.178C488.92,218.481,496.338,206.446,489.469,205.003z"/>
</g>
</svg>
