<?xml version="1.0" encoding="utf-8"?>
<!-- Generator: Adobe Illustrator 16.0.0, SVG Export Plug-In . SVG Version: 6.00 Build 0)  -->
<!DOCTYPE svg PUBLIC "-//W3C//DTD SVG 1.1//EN" "http://www.w3.org/Graphics/SVG/1.1/DTD/svg11.dtd">
<svg version="1.1" id="Layer_1" xmlns="http://www.w3.org/2000/svg" xmlns:xlink="http://www.w3.org/1999/xlink" x="0px" y="0px"
	 width="163.151px" height="163.151px" viewBox="0 0 163.151 163.151" style="enable-background:new 0 0 163.151 163.151;"
	 xml:space="preserve">
<style type="text/css">
<![CDATA[
	.st0{opacity:0.6;fill:#FFFFFF;}
	.st1{fill:#494244;}
	.st2{fill:#AFA8A0;}
	.st3{fill:none;stroke:#D1D2D3;stroke-width:6;stroke-miterlimit:10;}
	.st4{clip-path:url(#SVGID_7_);fill:url(#SVGID_8_);}
	.st5{fill:#E3F4FC;}
	.st6{fill:#E3F4FD;}
	.st7{fill:#E4B97F;}
	.st8{fill:#E4F4FC;}
	.st9{fill:#E4F5FD;}
	.st10{fill:#E6E6E6;}
	.st11{fill:#E6E7E8;}
	.st12{fill:#E9F5F6;}
	.st13{fill:#E9F6F7;}
	.st14{fill:#808184;}
	.st15{fill:#808285;}
	.st16{fill:#B0844F;}
	.st17{fill:#816026;}
	.st18{opacity:0.24;}
	.st19{opacity:0.34;}
	.st20{fill:#B58D58;}
	.st21{fill:none;stroke:#BE1E2D;stroke-linecap:round;stroke-miterlimit:10;}
	.st22{fill:#ED1C24;}
	.st23{opacity:0.2;fill:#221F1F;}
	.st24{fill:none;stroke:#FFFFFF;stroke-miterlimit:10;}
	.st25{fill-rule:evenodd;clip-rule:evenodd;fill:#E4B97F;}
	.st26{fill:#8A5F3C;}
	.st27{fill:#8B5E3C;}
	.st28{fill:#58595B;}
	.st29{fill:#592713;}
	.st30{fill:#592815;}
	.st31{fill:#594A42;}
	.st32{fill:#8DC63F;}
	.st33{fill:#BE1E2D;}
	.st34{fill:#221F1F;}
	.st35{fill:#231F20;}
	.st36{fill:#F26522;}
	.st37{fill:#BE1E2D;stroke:#231F20;stroke-miterlimit:10;}
	.st38{fill:#F4F4F4;}
	.st39{opacity:0.7;fill:url(#SVGID_12_);}
	.st40{opacity:0.7;fill:url(#SVGID_13_);}
	.st41{clip-path:url(#SVGID_26_);fill:#E8615B;}
	.st42{fill:#F7941E;}
	.st43{clip-path:url(#SVGID_3_);}
	.st44{clip-path:url(#SVGID_5_);}
	.st45{clip-path:url(#SVGID_7_);}
	.st46{fill:#C09464;}
	.st47{fill:#929497;}
	.st48{opacity:0.24;fill:#221F1F;}
	.st49{fill:#93091A;}
	.st50{fill:#C2986B;}
	.st51{fill:url(#SVGID_1_);}
	.st52{fill:#939598;}
	.st53{opacity:0.24;fill:#231F20;}
	.st54{fill:#C49A6C;}
	.st55{fill:#C4A883;}
	.st56{fill:#C5925F;}
	.st57{fill:#FAC6B4;}
	.st58{fill:#FBB040;}
	.st59{fill:#FBC7B4;}
	.st60{opacity:0.75;fill:#FFFFFF;}
	.st61{clip-path:url(#SVGID_21_);fill:#E8615B;}
	.st62{opacity:0.21;fill:#221F1F;}
	.st63{fill:#FFDE17;}
	.st64{fill:#FFEFE3;}
	.st65{fill:#FFF0E2;}
	.st66{fill:#FFF0E3;}
	.st67{fill:#FFFFFF;}
	.st68{fill:#27AAE1;stroke:#FFFFFF;stroke-width:2;stroke-miterlimit:10;}
	.st69{fill-rule:evenodd;clip-rule:evenodd;fill:#231F20;}
	.st70{fill:#231F20;stroke:#BE1E2D;stroke-miterlimit:10;}
	.st71{fill:#675675;}
	.st72{fill:#CBA277;}
	.st73{fill:#CC5C3A;}
	.st74{fill:#9E9790;}
	.st75{fill:#CEA06E;}
	.st76{fill:#CEAF8A;}
	.st77{fill-rule:evenodd;clip-rule:evenodd;fill:#929497;}
	.st78{fill:#6B6188;}
	.st79{fill:#6C6288;}
	.st80{opacity:0.34;fill:#FFFFFF;}
	.st81{fill:#6D6E71;}
	.st82{fill:#D0D8AD;}
	.st83{opacity:0.21;fill:#FFFFFF;}
	.st84{fill-rule:evenodd;clip-rule:evenodd;fill:#FFFFFF;}
	.st85{clip-path:url(#SVGID_10_);fill:url(#SVGID_11_);}
	.st86{fill:#D1D2D3;}
	.st87{fill:#D1D3D4;}
	.st88{fill:#231F20;stroke:#FFFFFF;stroke-width:2;stroke-miterlimit:10;}
	.st89{fill:#D39A4F;}
	.st90{opacity:0.13;fill:#221F1F;}
	.st91{fill:#FFFFFF;stroke:#8DC63F;stroke-miterlimit:10;}
	.st92{fill:#D7AB77;}
	.st93{fill:#D7DF23;}
	.st94{fill:url(#SVGID_14_);}
	.st95{fill:url(#SVGID_15_);}
	.st96{fill:url(#SVGID_16_);}
	.st97{fill:url(#SVGID_17_);}
	.st98{fill:url(#SVGID_18_);}
	.st99{fill:url(#SVGID_27_);}
	.st100{fill:url(#SVGID_28_);}
	.st101{fill:url(#SVGID_29_);}
	.st102{fill:url(#SVGID_30_);}
	.st103{fill:url(#SVGID_31_);}
	.st104{fill:url(#SVGID_32_);}
	.st105{fill:url(#SVGID_33_);}
	.st106{fill:url(#SVGID_34_);}
	.st107{fill:url(#SVGID_35_);}
	.st108{fill:url(#SVGID_36_);}
	.st109{fill:url(#SVGID_37_);}
	.st110{fill:url(#SVGID_38_);}
	.st111{fill:url(#SVGID_39_);}
	.st112{fill:url(#SVGID_40_);}
	.st113{clip-path:url(#SVGID_21_);}
	.st114{clip-path:url(#SVGID_26_);}
	.st115{clip-path:url(#SVGID_42_);}
	.st116{fill:#A31123;}
	.st117{fill:#A6A5A5;}
	.st118{fill:#788E7A;}
	.st119{fill:#A81124;}
	.st120{fill:#A87C51;}
	.st121{fill:#A97C50;}
	.st122{fill:#A9CA78;}
	.st123{fill:#414042;}
	.st124{fill:#424143;}
]]>
</style>
<g>
	<g>
		<defs>
			<path id="SVGID_25_" d="M158.192,81.575c0,42.315-34.303,76.619-76.617,76.619c-42.315,0-76.618-34.304-76.618-76.619
				c0-42.312,34.303-76.616,76.618-76.616C123.89,4.959,158.192,39.263,158.192,81.575z"/>
		</defs>
		<clipPath id="SVGID_1_">
			<use xlink:href="#SVGID_25_"  style="overflow:visible;"/>
		</clipPath>
		<circle style="clip-path:url(#SVGID_1_);fill:#E8615B;" cx="81.575" cy="76.659" r="81.534"/>
		<g style="clip-path:url(#SVGID_1_);">
			<g>
				<g>
					<path class="st6" d="M137.853,112.875c0,0,10.16,11.646,12.949,26.359s6.509,70.142,6.509,70.142h-27.402l-3.45-33.195v-46.414
						l3.45-15.789L137.853,112.875z"/>
					<path class="st35" d="M158.011,210.03h-28.693l-3.514-33.85v-46.486l3.562-16.302l8.749-1.215l0.232,0.267
						c0.103,0.118,10.308,11.951,13.098,26.669c2.765,14.584,6.48,69.664,6.518,70.22L158.011,210.03z M130.5,208.72h26.109
						c-0.441-6.469-3.87-55.748-6.451-69.362c-2.494-13.161-11.068-23.966-12.573-25.785l-7.134,0.991l-3.338,15.272v46.31
						L130.5,208.72z"/>
				</g>
				<g>
					<path class="st6" d="M32.129,115.807c4.941,1.262,6.836,5.246,7.92,9.802c2.734,6.288,4.219,13.322,5.124,19.893
						c0.936,6.783,2.827,16.886-4.265,21.066c-2.307,1.356-4.77,2.051-7.32,2.581c-0.32,0.07-0.641,0.137-0.962,0.195
						c-0.401,0.078-0.806,0.156-1.214,0.23c-3.604,0.666-8.316,1.832-11.78,0.093c-3.101-1.557-5.146-5.424-7.153-8.14
						c-1.533-2.07-2.855-4.263-4.092-6.506c-1.468-2.227-2.868-4.525-3.91-6.964c-0.134-0.2-0.232-0.434-0.311-0.682
						c-1.849-4.147-1.721-9.203,0.969-13.042c2.141-3.057,5.201-5.751,8.111-8.068c0.177-0.141,0.363-0.268,0.547-0.402
						c2.137-2.029,4.363-3.796,6.566-5.697c1.371-1.329,2.745-2.659,4.104-4.002l2.666-2.368L32.129,115.807z"/>
					<path class="st35" d="M24.081,171.233c-1.875,0-3.428-0.32-4.744-0.981c-2.566-1.29-4.417-4.017-6.05-6.421
						c-0.463-0.682-0.9-1.322-1.336-1.915c-1.363-1.841-2.678-3.931-4.139-6.578c-1.295-1.959-2.793-4.358-3.916-6.969
						c-0.137-0.212-0.248-0.465-0.344-0.76c-2.035-4.596-1.637-9.823,1.045-13.652c2.307-3.293,5.615-6.113,8.24-8.205
						c0.127-0.101,0.262-0.198,0.395-0.292l0.143-0.102c1.472-1.396,3.004-2.685,4.488-3.933c0.688-0.58,1.379-1.161,2.068-1.755
						l0.373-0.363c1.236-1.199,2.473-2.399,3.7-3.609l2.992-2.659l5.337,2.144c5.549,1.438,7.375,6.203,8.34,10.216
						c2.358,5.444,4.043,11.991,5.148,20.013l0.164,1.177c0.982,6.912,2.325,16.377-4.744,20.542
						c-2.533,1.492-5.221,2.183-7.521,2.66c-0.321,0.07-0.647,0.138-0.976,0.199c-0.4,0.076-0.807,0.153-1.215,0.229
						c-0.347,0.065-0.704,0.134-1.07,0.204C28.486,170.801,26.25,171.233,24.081,171.233z M27.26,114.556l-2.359,2.097
						c-1.203,1.19-2.444,2.395-3.684,3.597l-0.402,0.389c-0.721,0.623-1.415,1.207-2.107,1.791c-1.481,1.243-3.01,2.528-4.463,3.908
						l-0.25,0.187c-0.113,0.083-0.229,0.164-0.34,0.253c-2.555,2.036-5.774,4.778-7.983,7.933
						c-2.425,3.463-2.773,8.214-0.908,12.399l0.026,0.07c0.068,0.219,0.144,0.386,0.23,0.514l0.059,0.108
						c1.086,2.537,2.558,4.891,3.854,6.862c1.461,2.638,2.746,4.681,4.071,6.474c0.454,0.613,0.896,1.267,1.367,1.958
						c1.544,2.273,3.294,4.851,5.555,5.987c1.13,0.566,2.489,0.841,4.156,0.841c2.042,0,4.216-0.418,6.134-0.786
						c0.369-0.073,0.729-0.142,1.078-0.208c0.404-0.073,0.809-0.15,1.209-0.227c0.317-0.059,0.631-0.124,0.945-0.193
						c2.201-0.458,4.76-1.111,7.13-2.505c6.313-3.721,5.043-12.686,4.113-19.231l-0.165-1.182
						c-1.094-7.928-2.753-14.38-5.076-19.723l-0.036-0.106c-0.932-3.909-2.546-8.071-7.445-9.321l-0.083-0.025L27.26,114.556z"/>
				</g>
				<g>
					<path class="st78" d="M89.45,16.274c-8.017-1.617-16.891-0.928-23.902,2.414c-4.797,2.286-9.728,4.434-14.011,7.62
						c-2.328,1.73-4.381,3.989-5.615,6.623c-0.818,1.756-1.32,3.906-1.979,5.665c17.801-3.25,36.115-5.89,54.253-4.838
						c5.838,0.338,12.139,0.965,17.762,2.659c-0.286-0.088-2.196-4.821-2.581-5.338c-3.662-4.925-9.639-9.218-15.077-11.865
						C95.591,17.896,92.585,16.907,89.45,16.274z"/>
					<path class="st35" d="M42.924,39.448l0.405-1.082c0.251-0.669,0.476-1.39,0.715-2.154c0.378-1.203,0.767-2.446,1.284-3.557
						c1.199-2.557,3.21-4.931,5.818-6.873c3.776-2.81,8.076-4.833,12.235-6.794c0.629-0.295,1.257-0.592,1.884-0.892
						c4.55-2.167,10.004-3.312,15.774-3.312c2.873,0,5.748,0.286,8.537,0.85c3.249,0.653,6.28,1.661,9.012,2.992
						c6.229,3.033,11.951,7.544,15.313,12.063c0.192,0.259,0.513,0.962,1.199,2.505c0.444,1.001,1.118,2.516,1.309,2.759
						c-0.005-0.005-0.089-0.111-0.264-0.164l-0.377,1.255l0,0l0,0c-5.874-1.77-12.498-2.337-17.611-2.632
						c-2.671-0.155-5.444-0.234-8.246-0.234c-15.975,0-32.143,2.561-45.853,5.062L42.924,39.448z M81.04,16.094
						c-5.576,0-10.835,1.102-15.211,3.188c-0.627,0.298-1.257,0.596-1.891,0.893c-4.098,1.933-8.338,3.929-12.01,6.66
						c-2.438,1.812-4.308,4.017-5.415,6.375c-0.479,1.032-0.855,2.234-1.219,3.396c-0.119,0.378-0.24,0.765-0.365,1.146
						c13.526-2.45,29.331-4.883,44.982-4.883c2.827,0,5.627,0.078,8.322,0.233c4.757,0.276,10.806,0.783,16.409,2.263
						c-0.195-0.422-0.435-0.958-0.739-1.64c-0.386-0.868-0.915-2.057-1.055-2.255c-3.241-4.36-8.787-8.722-14.836-11.667
						c-2.631-1.282-5.556-2.253-8.693-2.887C86.612,16.37,83.826,16.094,81.04,16.094z"/>
				</g>
				<g>
					<polygon class="st78" points="43.064,44.065 36.465,120.265 126.458,120.265 117.16,40.17 92.86,36.123 66.463,38.72 					"/>
					<path class="st35" d="M127.193,120.921H35.752l6.702-77.386l23.945-5.468l26.483-2.605l0.085,0.015l24.785,4.128l0.059,0.488
						L127.193,120.921z M37.18,119.61h88.543l-9.157-78.876l-23.728-3.951l-26.269,2.583l-22.894,5.232L37.18,119.61z"/>
				</g>
				<g>
					<path class="st65" d="M49.706,38.72l20.537-3.506H99.71l12.053,1.752c0,0,5.358,21.693,1.787,31.177
						c-3.571,9.482-21.595,22.22-21.595,22.22s-6.483,1.574-16.776,0c-10.292-1.575-22.79-22.37-22.79-22.37
						S48.814,55.617,49.706,38.72z"/>
					<path class="st35" d="M84.103,91.715c-2.919,0-5.953-0.237-9.021-0.706c-10.478-1.604-22.738-21.819-23.257-22.68l-0.065-0.155
						c-0.038-0.125-3.593-12.676-2.706-29.489l0.028-0.521l21.162-3.604l29.561,0.007l12.489,1.816l0.105,0.428
						c0.221,0.894,5.365,22,1.763,31.564c-3.6,9.561-21.084,21.996-21.827,22.522l-0.102,0.073l-0.121,0.027
						C91.988,91.027,89.096,91.715,84.103,91.715z M52.993,67.729c0.831,1.357,12.716,20.52,22.285,21.985
						c3.002,0.457,5.972,0.692,8.824,0.692c4.27,0,6.995-0.53,7.581-0.657c1.481-1.062,17.934-13.024,21.254-21.839
						c3.187-8.465-0.991-27.286-1.71-30.36l-11.565-1.682H70.299l-19.963,3.407C49.59,54.89,52.692,66.638,52.993,67.729z"/>
					<path class="st65" d="M101.188,78.561c-0.114-0.13-0.239-0.255-0.386-0.369c-0.967-0.751-2.162-0.904-3.116,0
						c-1.126,1.075-1.551,3.009-1.833,5.111c-0.603,0.079-1.188,0.384-1.59,0.972c-0.535,0.783-1.046,1.655-1.575,2.543
						c-0.613-0.659-1.539-0.927-2.489-0.234c-0.615,0.45-1.18,0.958-1.724,1.484c-0.26-0.384-0.646-0.69-1.187-0.859
						c-0.489-0.154-0.975-0.219-1.447-0.228c-0.627-0.788-1.714-1.191-2.77-0.534c-1.141,0.711-2.54,1.556-3.748,2.549
						c-0.157-0.141-0.332-0.271-0.524-0.392c0.353-0.736,0.812-1.354,1.299-1.658c2.401-1.504,0.19-5.317-2.225-3.805
						c-1.276,0.799-2.145,1.749-2.741,2.815c-0.155-0.188-0.338-0.36-0.56-0.5c-0.132-0.085-0.266-0.167-0.396-0.25
						c-0.62-0.392-1.608-0.432-2.225,0c-0.165,0.116-0.349,0.26-0.538,0.418c-0.744-0.93-1.474-1.908-2.231-2.968
						c-0.666-0.935-1.853-1.198-2.78-0.864c-0.067-0.599-0.122-1.193-0.154-1.775c-0.068-1.22-0.93-1.914-1.874-2.082
						c-0.514-0.948-1.078-1.9-1.766-2.887c-1.614-2.312-0.057-0.295,1.574,2.042c1.321,1.894-2.973,4.118-1.991,6.227
						c0.822,5.641,2.897,11.099,5.975,15.887c3.388,5.268,10.163,4.291,15.652,4.23c2.996-0.031,6.693,0.563,9.593-0.235
						c2.324-0.641,3.878-2.973,5.447-4.639c4.052-4.302,3.991-12.46,4.021-17.924C102.886,79.434,102.099,78.745,101.188,78.561z"/>
				</g>
				<path class="st53" d="M107.082,35.45c-9.134-0.144-18.262-0.305-27.396-0.323c-8.493-0.019-17.613-0.983-25.954,1.004
					c-3.282,0.784-7.283,2.582-10.046,4.477c-1.226,0.836-1.425,3.3-1.303,4.641c0.018,0.179,0.062,0.323,0.125,0.452
					c-0.387,0.393-0.014,1.278,0.709,1.17c4.146-0.617,8.342-0.869,12.453-1.705c5.262-1.072,10.395-1.939,15.757-2.425
					c9.957-0.903,20.007-1.331,30.009-1.231c4.236,0.042,8.685-0.018,12.872,0.675c1.395,0.23,3.352,0.48,3.824-1.239
					C119.776,34.972,110.204,35.5,107.082,35.45z"/>
				<g>
					<path class="st54" d="M43.064,38.816c0,0-6.6,3.452,0,5.249c0,0,33.599-7.798,74.096-3.896c0,0,2.832-2.797-1.201-3.752
						C115.959,36.418,94.361,28.165,43.064,38.816z"/>
					<path class="st29" d="M43.053,44.743l-0.16-0.043c-2.166-0.592-3.28-1.441-3.404-2.594c-0.209-1.945,2.689-3.565,3.272-3.87
						l0.17-0.062c17.454-3.623,33.36-5.461,47.279-5.461c17.226,0,25.229,2.812,25.941,3.075c1.442,0.351,2.303,0.987,2.557,1.896
						c0.399,1.43-0.936,2.8-1.088,2.951l-0.219,0.215l-0.305-0.028c-7.506-0.725-15.312-1.091-23.202-1.091
						c-28.918,0-50.469,4.922-50.681,4.974L43.053,44.743z M43.289,39.438c-1.085,0.589-2.583,1.762-2.498,2.527
						c0.025,0.243,0.305,0.856,2.291,1.426c2.066-0.458,23.086-4.97,50.812-4.97c7.815,0,15.551,0.357,22.996,1.064
						c0.293-0.36,0.688-0.983,0.555-1.45c-0.114-0.409-0.697-0.76-1.637-0.981l-0.082-0.026c-0.08-0.03-8.109-3.003-25.517-3.003
						C76.404,34.025,60.619,35.847,43.289,39.438z"/>
				</g>
				<g>
					<circle class="st67" cx="95.856" cy="55.026" r="13.117"/>
					<path class="st35" d="M95.856,68.796c-7.593,0-13.771-6.177-13.771-13.77c0-7.594,6.179-13.772,13.771-13.772
						c7.594,0,13.771,6.179,13.771,13.772C109.627,62.619,103.45,68.796,95.856,68.796z M95.856,42.565
						c-6.871,0-12.462,5.59-12.462,12.461c0,6.872,5.591,12.462,12.462,12.462c6.87,0,12.462-5.59,12.462-12.462
						C108.318,48.155,102.727,42.565,95.856,42.565z"/>
				</g>
				<g>
					<path class="st67" d="M82.326,55.026c0,5.414-4.384,9.801-9.802,9.801c-5.407,0-9.799-4.387-9.799-9.801
						c0-5.412,4.392-9.803,9.799-9.803C77.942,45.224,82.326,49.614,82.326,55.026z"/>
					<path class="st35" d="M72.524,65.48c-5.764,0-10.452-4.689-10.452-10.454c0-5.766,4.688-10.458,10.452-10.458
						c5.766,0,10.458,4.692,10.458,10.458C82.982,60.791,78.29,65.48,72.524,65.48z M72.524,45.879
						c-5.041,0-9.143,4.104-9.143,9.147s4.102,9.146,9.143,9.146c5.044,0,9.147-4.103,9.147-9.146S77.568,45.879,72.524,45.879z"/>
				</g>
				<ellipse class="st13" cx="96.605" cy="57.484" rx="11.14" ry="8.87"/>
				<path class="st35" d="M89.689,54.42c-1.161,0-1.161,1.8,0,1.8C90.849,56.22,90.849,54.42,89.689,54.42z"/>
				<path class="st13" d="M80.917,56.719c0,3.49-3.577,6.319-7.991,6.319c-4.413,0-7.99-2.829-7.99-6.319
					c0-3.487,3.577-6.316,7.99-6.316C77.34,50.402,80.917,53.231,80.917,56.719z"/>
				<path class="st35" d="M76.746,54.12c-1.157,0-1.157,1.8,0,1.8C77.909,55.92,77.909,54.12,76.746,54.12z"/>
				<g>
					<ellipse class="st59" cx="82.739" cy="72.863" rx="9.825" ry="5.358"/>
					<path class="st35" d="M82.739,78.877c-5.878,0-10.48-2.642-10.48-6.014c0-3.368,4.603-6.011,10.48-6.011
						c5.876,0,10.479,2.643,10.479,6.011C93.218,76.235,88.615,78.877,82.739,78.877z M82.739,68.162
						c-4.971,0-9.17,2.153-9.17,4.701c0,2.551,4.199,4.704,9.17,4.704s9.171-2.153,9.171-4.704
						C91.91,70.315,87.71,68.162,82.739,68.162z"/>
				</g>
				<ellipse class="st67" cx="82.74" cy="71.34" rx="3.208" ry="1.749"/>
				<g>
					<path class="st87" d="M63.183,41.345c-0.038-0.009-0.074-0.018-0.111-0.022c-1.312-0.244-1.646,1.794-0.337,2.039
						c3.15,0.581,6.208,1.595,9.364,2.169c1.724,0.314,5.945,1.272,6.683-1.155C80.359,39.178,65.796,41.143,63.183,41.345z"/>
					<path class="st35" d="M73.28,46.413c-0.344-0.052-0.682-0.124-0.967-0.175l-0.333-0.063c-1.618-0.295-3.226-0.707-4.78-1.105
						c-1.499-0.383-3.048-0.782-4.585-1.064c-0.929-0.175-1.503-1.021-1.337-1.974c0.141-0.807,0.832-1.535,1.877-1.362l0.07,0.014
						c0.236-0.019,0.555-0.049,0.939-0.087c2.47-0.245,7.615-0.75,11.187-0.161c1.994,0.331,3.25,0.953,3.84,1.903
						c0.397,0.641,0.471,1.39,0.216,2.228C78.581,47.279,74.604,46.63,73.28,46.413z M62.952,41.965
						c-0.27-0.046-0.356,0.136-0.383,0.294c-0.022,0.118-0.034,0.396,0.285,0.457c1.579,0.293,3.15,0.694,4.672,1.086
						c1.531,0.392,3.117,0.799,4.689,1.085l0.339,0.063c0.275,0.05,0.589,0.111,0.929,0.167c2.811,0.466,4.339,0.159,4.671-0.934
						c0.142-0.467,0.117-0.846-0.075-1.153c-0.257-0.415-0.977-0.977-2.94-1.303c-3.401-0.562-8.431-0.068-10.847,0.17
						c-0.445,0.043-0.807,0.08-1.059,0.1l-0.092,0.007l-0.093-0.019l0.022-0.663L62.952,41.965L62.952,41.965z"/>
				</g>
				<g>
					<path class="st9" d="M136.998,298.334c-1.259-5.106-2.25-10.294-3.33-15.44c-2.372-11.271-4.562-22.59-5.93-34.032
						c-1.75-14.625-2.231-29.396-2.674-44.146c-0.058-4.812-0.141-9.62-0.311-14.428c-0.113-3.188-0.29-6.422-0.584-9.656
						c-0.376-6.584-1.056-13.179-3.06-19.479c-0.919-2.892-2.271-5.407-3.902-7.71c-0.402-0.786-0.819-1.566-1.266-2.335
						c-4.12-7.129-10.224-12.074-17.277-14.887c-3.402-2.158-7.072-3.83-11.033-4.553c-4.813-0.876-9.568,0.465-13.667,2.928
						c-4.273,1.22-7.854,3.581-10.63,7.375c-3.23,4.412-4.594,9.988-5.757,15.246c-2.925,13.22-4.244,26.342-4.971,39.851
						c-0.606,11.283-1.72,22.51-2.465,33.775c-0.768,4.014-1.58,8.024-2.42,12.043c-1.482,7.063-1.79,14.345-3.162,21.438
						c-0.694,3.593-1.654,8.245-3.588,12.097c-1.189,0.711-2.229,1.814-2.98,3.397c-0.156,0.331-0.285,0.669-0.413,1.008
						c-0.267,0.273-0.519,0.563-0.757,0.866c-0.641,0.482-1.328,0.9-2.085,1.223c-0.972-0.18-2.108,0.369-2.12,1.65
						c-0.033,4.713-0.34,9.488-1.209,14.126c-0.592,3.169-1.842,6.206-2.037,9.448c-0.293,4.824,7.246,5.985,10.563,6.475
						c5.549,0.812,11.142,0.684,16.725,0.958c11.028,0.537,22.111,0.532,33.149,0.585c11.384,0.056,22.768-0.041,34.15-0.216
						c5.658-0.085,13.529,0.137,14.464-7.291C138.855,305.195,137.816,301.661,136.998,298.334z"/>
					<path class="st35" d="M96.346,316.828c-2.181,0-4.361-0.007-6.541-0.017l-3.339-0.014c-9.787-0.043-19.906-0.087-29.838-0.571
						c-1.662-0.082-3.357-0.13-4.996-0.174c-3.866-0.105-7.864-0.214-11.792-0.791c-3.134-0.46-11.455-1.685-11.124-7.162
						c0.124-2.064,0.663-4.048,1.182-5.969c0.317-1.163,0.646-2.368,0.867-3.56c0.766-4.085,1.158-8.667,1.2-14.011
						c0.012-1.647,1.414-2.446,2.681-2.319c0.58-0.264,1.146-0.602,1.715-1.022c0.206-0.258,0.424-0.508,0.653-0.75
						c0.123-0.327,0.242-0.626,0.387-0.931c0.734-1.549,1.766-2.751,3.07-3.576c1.783-3.627,2.715-7.97,3.447-11.764
						c0.646-3.348,1.064-6.809,1.469-10.156c0.447-3.713,0.912-7.558,1.693-11.287c0.924-4.412,1.713-8.335,2.411-11.994
						c0.312-4.732,0.698-9.533,1.069-14.178c0.512-6.402,1.042-13.022,1.394-19.55c0.857-15.932,2.395-28.255,4.985-39.956
						c1.247-5.648,2.637-11.081,5.868-15.493c2.775-3.791,6.339-6.276,10.896-7.594c4.597-2.741,9.529-3.788,14.045-2.964
						c3.713,0.676,7.382,2.184,11.218,4.61c7.485,3.001,13.552,8.236,17.546,15.145c0.424,0.733,0.835,1.495,1.258,2.322
						c1.797,2.544,3.095,5.112,3.965,7.849c2.113,6.65,2.748,13.662,3.088,19.644c0.267,2.93,0.459,6.101,0.585,9.669
						c0.188,5.266,0.265,10.483,0.312,14.442c0.408,13.615,0.872,29.062,2.671,44.076c1.427,11.938,3.793,23.873,5.919,33.977
						c0.285,1.354,0.563,2.714,0.842,4.072c0.766,3.735,1.56,7.595,2.482,11.346l0.258,1.032c0.778,3.099,1.584,6.302,1.181,9.522
						c-0.967,7.684-8.722,7.782-14.384,7.855l-0.719,0.01C113.819,316.753,104.784,316.828,96.346,316.828z M34.374,283.537
						c-0.503,0-1.095,0.271-1.101,1.034c-0.043,5.42-0.441,10.079-1.221,14.24c-0.232,1.244-0.566,2.476-0.889,3.664
						c-0.527,1.941-1.024,3.772-1.141,5.702c-0.259,4.279,7.198,5.376,10.006,5.789c3.852,0.563,7.811,0.673,11.639,0.776
						c1.646,0.045,3.347,0.092,5.023,0.175c9.902,0.483,20.008,0.525,29.78,0.57l3.339,0.015c2.178,0.012,4.357,0.014,6.535,0.014
						c8.432,0,17.461-0.073,27.604-0.229l0.723-0.011c5.468-0.069,12.276-0.157,13.1-6.708c0.375-2.978-0.401-6.059-1.15-9.039
						l-0.261-1.039c-0.931-3.777-1.724-7.649-2.493-11.396c-0.278-1.358-0.556-2.713-0.84-4.067
						c-2.132-10.13-4.506-22.102-5.94-34.088c-1.805-15.074-2.268-30.551-2.678-44.205c-0.047-3.963-0.123-9.175-0.31-14.424
						c-0.125-3.546-0.315-6.692-0.583-9.618c-0.337-5.922-0.96-12.831-3.03-19.342c-0.835-2.624-2.083-5.085-3.814-7.53
						l-0.049-0.082c-0.419-0.824-0.826-1.576-1.246-2.303c-3.855-6.67-9.718-11.72-16.955-14.605l-0.106-0.055
						c-3.71-2.354-7.242-3.814-10.803-4.463c-4.229-0.771-8.865,0.233-13.212,2.845l-0.157,0.068
						c-4.305,1.228-7.667,3.56-10.28,7.132c-3.079,4.206-4.429,9.498-5.646,15.001c-2.574,11.631-4.102,23.887-4.955,39.744
						c-0.354,6.544-0.884,13.174-1.396,19.585c-0.372,4.651-0.757,9.463-1.071,14.199l-0.01,0.078
						c-0.701,3.681-1.493,7.623-2.424,12.056c-0.77,3.677-1.229,7.49-1.675,11.179c-0.405,3.369-0.825,6.852-1.483,10.248
						c-0.76,3.938-1.732,8.457-3.646,12.268l-0.085,0.17l-0.164,0.098c-1.154,0.691-2.072,1.739-2.725,3.116
						c-0.142,0.298-0.261,0.609-0.393,0.958l-0.047,0.127l-0.098,0.098c-0.251,0.259-0.49,0.532-0.71,0.813l-0.12,0.12
						c-0.733,0.551-1.461,0.977-2.223,1.302l-0.18,0.078l-0.195-0.036C34.538,283.545,34.455,283.537,34.374,283.537z"/>
				</g>
				<g>
					<path class="st78" d="M79.572,126.154c-0.085-6.513,0.834-14.158-3.555-19.908c-3.981-5.213-11.8-5.958-18.456-5.852
						c-0.631,0.009-1.169,0.137-1.632,0.337c-0.865-0.03-1.762,0.266-2.529,1.025c-6.459,6.39-17.959,6.576-25.947,11.118
						c-1.817,1.034-2.143,2.637-1.316,4.276c6.494,12.861,6.496,27.061,6.877,40.819c0.404,14.622,0.411,29.251-0.146,43.87
						c-0.56,14.728-2.022,68.294-3.674,82.958c-0.698,6.202-6.496,17.415,0.502,22.215c6.807,4.667,18.826,3.483,26.955,3.528
						c7.22,0.042,16.968,1.582,21.11-4.938c1.723-2.715,1.73-6.131,1.787-9.132c0.125-6.492,0.109-51.815,0.188-58.312
						c0.18-14.609,0.254-29.22,0.294-43.832C80.093,171.595,79.869,148.881,79.572,126.154z"/>
					<path class="st35" d="M64.26,311.385L64.26,311.385c-1.411,0-2.825-0.053-4.192-0.099c-1.2-0.044-2.333-0.084-3.421-0.09
						l-0.48-0.001c-1.221,0-2.523,0.023-3.879,0.049c-1.475,0.026-3.008,0.055-4.567,0.055c-6.396,0-13.581-0.446-18.394-3.744
						c-5.607-3.845-3.601-11.376-1.989-17.427c0.53-1.994,1.033-3.878,1.203-5.402c1.315-11.661,2.511-48.046,3.228-69.787
						c0.182-5.541,0.332-10.131,0.445-13.124c0.529-13.893,0.578-28.229,0.146-43.825l-0.062-2.341
						c-0.337-12.88-0.685-26.199-6.745-38.202c-1.039-2.065-0.453-3.987,1.575-5.141c3.358-1.909,7.351-3.07,11.207-4.194
						c5.37-1.563,10.925-3.181,14.606-6.82c0.804-0.794,1.792-1.215,2.863-1.215c0.537-0.214,1.125-0.326,1.745-0.338
						c0.375-0.005,0.754-0.007,1.136-0.007c5.659,0,13.665,0.635,17.852,6.117c3.835,5.022,3.762,11.47,3.7,17.158
						c-0.012,1.065-0.023,2.117-0.011,3.14c0.264,20.243,0.525,44.174,0.459,68.182c-0.049,17.657-0.139,31.177-0.295,43.841
						c-0.034,2.816-0.052,13.14-0.068,24.069c-0.023,14.328-0.048,30.567-0.119,34.247l-0.006,0.293
						c-0.054,2.998-0.118,6.396-1.884,9.177C75.274,310.739,69.504,311.385,64.26,311.385z M56.166,309.885l0.487,0.002
						c1.107,0.006,2.252,0.047,3.46,0.09c1.355,0.048,2.757,0.098,4.146,0.098l0,0c4.89,0,10.249-0.573,12.948-4.822
						c1.568-2.47,1.628-5.673,1.679-8.498l0.008-0.294c0.069-3.666,0.097-19.901,0.119-34.222
						c0.018-10.935,0.032-21.263,0.066-24.086c0.156-12.659,0.247-26.175,0.294-43.828c0.068-23.996-0.193-47.923-0.456-68.161
						c-0.014-1.033-0.003-2.093,0.011-3.171c0.063-5.744,0.129-11.685-3.433-16.349c-2.919-3.823-8.261-5.603-16.811-5.603
						c-0.376,0-0.746,0.002-1.116,0.009c-0.501,0.008-0.965,0.103-1.381,0.282l-0.134,0.059l-0.243-0.006
						c-0.731,0-1.388,0.28-1.95,0.838c-3.917,3.874-9.632,5.537-15.16,7.146c-3.785,1.103-7.701,2.241-10.926,4.074
						c-1.782,1.014-1.557,2.416-1.053,3.413c6.192,12.265,6.543,25.732,6.883,38.758l0.063,2.339
						c0.431,15.626,0.384,29.989-0.146,43.913c-0.114,2.989-0.266,7.578-0.449,13.117c-0.715,21.758-1.912,58.176-3.23,69.889
						c-0.182,1.621-0.696,3.551-1.24,5.594c-1.585,5.947-3.378,12.687,1.463,16.009c4.516,3.095,11.458,3.514,17.653,3.514
						c1.551,0,3.076-0.028,4.544-0.055C53.626,309.909,54.937,309.885,56.166,309.885z"/>
				</g>
				<g>
					<path class="st78" d="M90.717,194.327c0.035,14.612,0.104,29.223,0.262,43.832c0.073,6.497,0.057,51.82,0.17,58.312
						c0.055,3.001,0.059,6.417,1.602,9.132c3.715,6.521,12.455,4.98,18.928,4.938c7.287-0.045,18.063,1.139,24.164-3.528
						c6.275-4.8,1.076-16.013,0.45-22.215c-1.481-14.664-2.793-68.23-3.294-82.958c-0.499-14.619-0.493-29.248-0.131-43.87
						c0.342-13.759,0.342-27.958,6.165-40.819c0.741-1.64,0.449-3.242-1.18-4.276c-7.16-4.542-17.473-4.729-23.262-11.118
						c-0.689-0.76-1.491-1.056-2.267-1.025c-0.416-0.2-0.899-0.328-1.463-0.337c-5.971-0.106-12.978,0.639-16.546,5.852
						c-3.936,5.75-3.112,13.396-3.19,19.908C90.862,148.881,90.66,171.595,90.717,194.327z"/>
					<path class="st35" d="M104.854,311.385c-4.729,0-9.934-0.649-12.673-5.458c-1.576-2.767-1.633-6.15-1.682-9.136l-0.006-0.308
						c-0.065-3.662-0.088-19.814-0.107-34.063c-0.016-11.015-0.031-21.42-0.062-24.253c-0.14-12.693-0.22-26.213-0.265-43.839
						c-0.058-23.845,0.175-47.847,0.411-68.182c0.013-1.022,0-2.074-0.01-3.142c-0.056-5.68-0.118-12.117,3.314-17.128
						c3.769-5.509,10.979-6.146,16.075-6.146c0.343,0,0.685,0.002,1.021,0.007c0.567,0.012,1.101,0.124,1.589,0.338
						c0.981,0.007,1.885,0.437,2.615,1.24c3.286,3.629,8.033,5.169,13.059,6.802c3.464,1.124,7.047,2.288,10.068,4.204
						c1.816,1.151,2.348,3.058,1.425,5.098c-5.437,12.013-5.748,25.335-6.05,38.218l-0.056,2.35
						c-0.388,15.579-0.346,29.916,0.129,43.832c0.104,3.006,0.239,7.632,0.404,13.214c0.641,21.711,1.713,58.05,2.888,69.699
						c0.156,1.528,0.606,3.414,1.081,5.41c1.443,6.036,3.238,13.549-1.785,17.391c-4.337,3.317-10.803,3.766-16.557,3.766
						c-1.397,0-2.773-0.028-4.098-0.055c-1.211-0.025-2.379-0.049-3.474-0.049l-0.429,0.001c-0.975,0.006-1.989,0.046-3.063,0.09
						C107.391,311.332,106.123,311.385,104.854,311.385z M109.852,101.041c-7.627,0-12.393,1.771-14.997,5.575
						c-3.196,4.671-3.139,10.622-3.082,16.376c0.011,1.078,0.021,2.138,0.008,3.169c-0.234,20.332-0.468,44.327-0.407,68.163
						c0.042,17.623,0.123,31.139,0.262,43.829c0.031,2.839,0.046,13.246,0.061,24.265c0.021,14.247,0.044,30.39,0.109,34.043
						l0.004,0.308c0.048,2.829,0.102,6.035,1.513,8.512c2.405,4.223,7.181,4.794,11.533,4.794c1.244,0,2.499-0.05,3.714-0.098
						c1.085-0.043,2.108-0.084,3.105-0.09l0.438-0.002c1.104,0,2.278,0.024,3.501,0.049c1.314,0.026,2.682,0.055,4.07,0.055
						c5.534,0,11.733-0.416,15.762-3.495c4.347-3.324,2.731-10.083,1.307-16.047c-0.487-2.039-0.947-3.967-1.111-5.581
						c-1.181-11.696-2.253-48.064-2.893-69.794c-0.164-5.58-0.303-10.204-0.404-13.208c-0.475-13.943-0.519-28.304-0.131-43.909
						l0.056-2.346c0.307-13.017,0.621-26.473,6.167-38.728c0.459-1.015,0.67-2.436-0.932-3.454
						c-2.883-1.825-6.387-2.964-9.772-4.063c-4.968-1.613-10.104-3.281-13.626-7.168c-0.488-0.539-1.052-0.811-1.676-0.811
						l-0.244,0.008l-0.147-0.071c-0.354-0.172-0.756-0.264-1.188-0.271C110.52,101.043,110.187,101.041,109.852,101.041z"/>
				</g>
				<g>
					<path class="st87" d="M84.229,43.517c0.74,2.427,4.961,1.46,6.685,1.144c3.155-0.58,6.211-1.601,9.357-2.187
						c1.311-0.244,0.971-2.285-0.34-2.039c-0.037,0.008-0.073,0.018-0.11,0.024C97.208,40.261,82.641,38.323,84.229,43.517z"/>
					<path class="st35" d="M89.742,45.54c-1.312,0.22-5.308,0.89-6.138-1.833c-0.258-0.835-0.186-1.585,0.211-2.227
						c0.588-0.953,1.844-1.576,3.837-1.909c3.568-0.597,8.712-0.099,11.186,0.137c0.384,0.041,0.699,0.071,0.939,0.09l0.034-0.009
						h0.001c1.081-0.181,1.772,0.547,1.915,1.354c0.168,0.95-0.405,1.798-1.334,1.972c-1.535,0.289-3.083,0.688-4.581,1.075
						c-1.555,0.401-3.162,0.816-4.781,1.116l-0.333,0.059C90.417,45.42,90.092,45.482,89.742,45.54z M87.867,40.863
						c-1.964,0.329-2.682,0.891-2.939,1.308c-0.191,0.31-0.213,0.688-0.071,1.151c0.333,1.095,1.861,1.397,4.669,0.928
						c0.341-0.06,0.653-0.116,0.93-0.169l0.34-0.063c1.571-0.289,3.157-0.699,4.688-1.094c1.521-0.394,3.091-0.8,4.669-1.095
						c0.32-0.061,0.307-0.34,0.286-0.456c-0.028-0.159-0.118-0.341-0.376-0.299l-0.199,0.043l-0.091-0.007
						c-0.253-0.02-0.615-0.055-1.061-0.098C96.296,40.779,91.267,40.296,87.867,40.863z"/>
				</g>
				<g>
					<g>
						<path class="st87" d="M98.582,84.081C98.695,84.378,98.656,84.246,98.582,84.081L98.582,84.081z"/>
						<path class="st35" d="M99.007,84.916l-0.357-0.002c-0.453-0.003-0.594-0.377-0.679-0.601l0.479-0.197l-0.332-0.235
							l0.332,0.235l0.199-0.082l0.006-0.43l-0.001,0.427l0.527-0.217c0.097,0.222,0.22,0.494,0.021,0.802L99.007,84.916z"/>
					</g>
					<g>
						<path class="st87" d="M110.737,103.999c-0.086-2.361-0.421-4.666-1.143-6.717c0.195-0.412,0.333-0.87,0.384-1.353
							c0.394-3.734-1.04-7.225-2.661-10.507c-0.139-0.282-0.307-0.514-0.486-0.716c0.244-2.964-0.389-5.724-2.19-8.213
							c-0.564-0.778-1.36-1.318-2.228-1.482c-1.028-0.959-2.413-1.823-3.784-2.183c-2.198-0.574-3.895,2.039-5.431,3.172
							c-1.215,0.897-2.55,1.627-3.955,2.183c-0.278-0.29-0.654-0.504-1.142-0.559c-2.636-0.294-4.934,0.032-7.261,1.011
							l-0.572-0.573c-0.545-0.896-1.543-1.046-2.444-0.639c-2.513,1.134-4.812,0.147-6.957-1.293
							c-0.556-0.373-0.998-1.214-1.505-1.685c-0.517-0.477-1.093-0.915-1.729-1.216c-0.979-0.462-2.451-0.756-3.488-0.341
							c-1.154,0.462-1.734,1.833-2.296,2.85c-0.764,1.379-1.478,2.775-2.146,4.201c-0.985,2.092-1.772,4.294-1.96,6.614
							c-0.061,0.772,0.555,1.458,1.283,1.704c-0.03,0.38,0.093,0.729,0.314,1.017c-0.798,3.068-1.01,6.179,0.251,9.361
							c0.196,0.489,0.574,0.915,1.032,1.149c0.127,0.4,0.328,0.769,0.569,1.105c-0.469,3.556-1.036,7.062-0.771,10.664
							c0.156,2.114,1.867,3.436,3.955,3.015c0.203-0.043,0.395-0.073,0.59-0.111c-0.233,1.185-0.419,2.388-0.795,3.536
							c-0.674,2.059-2.01,4.624,0.477,6.08c0.39,0.229,0.846,0.349,1.314,0.382c-0.196,1.243-0.503,2.466-0.964,3.679
							c-0.607,1.594,0.657,3.427,2.184,3.846c0.257,0.069,0.505,0.096,0.747,0.101c-0.085,0.321-0.172,0.643-0.252,0.965
							c-0.277,1.092,0.045,2.231,0.813,3.041c0.513,0.538,1.212,0.689,1.921,0.752c0.17,0.016,1.927,0.01,1.946,0.173
							c0.243,2.094-0.732,4.138-0.078,6.251c0.285,0.918,0.883,1.656,1.795,1.939c0.521,0.163,1.535,0.067,1.819,0.477
							c0.25,0.357,0.078,1.477,0.101,1.921c0.034,0.633,0.045,1.268,0.053,1.903c0.024,1.783,1.307,2.881,2.8,3.026
							c0.242,2.024,2.3,3.409,4.582,2.35c0.597-0.275,1.14-0.592,1.659-0.924c0.209-0.11,1.304,0.641,1.508,0.728
							c0.676,0.286,1.248,0.329,1.938,0.067c2.362-0.89,3.466-2.895,4.979-4.729c0.613-0.741,1.653-0.456,2.427-0.952
							c0.923-0.59,1.412-1.626,1.538-2.691c0.06-0.498,0.043-0.993-0.016-1.483c1.284-0.389,2.248-1.583,2.248-2.979v-0.622
							c0.537-0.407,0.962-0.988,1.229-1.673c0.807-2.098,1.139-4.182,1.09-6.333c-0.003-0.253,0.753-0.812,0.911-1.055
							c0.405-0.63,0.348-1.879,0.874-2.361c0.395-0.363,1.1-0.268,1.554-0.642c0.507-0.417,0.802-1.028,0.927-1.663
							c0.529-2.678,0.626-5.339,0.618-8.017c0.127,0.019,0.255,0.041,0.387,0.041c1.416,0.002,2.345-0.765,2.808-2.057
							c0.496-1.4,0.264-2.905,0.183-4.349c-0.08-1.439,0.221-2.784,0.324-4.211c0.025-0.327-0.08-1.153,0.088-1.422
							C111.362,106.507,111.376,105.06,110.737,103.999z M99.174,96.464c0.042,0.479,0.131,1.073-0.252,1.467
							c-1.385,1.415-1.958,1.439-3.979,1.094c-1.513-0.258-2.902-0.987-3.858-2.256c-0.334-0.441-0.579-0.756-0.42-1.35
							c0.553-2.066-1.425-3.585-2.833-4.289c-1.205-0.602-2.828-1.6-4.485-2.129c-1.119,0.218-2.157,0.766-3.269,1.038
							c-0.569,0.141-1.131,0.258-1.72,0.279c-0.115,0.007-0.193,0.012-0.272,0.016c-0.105,0.099-0.209,0.194-0.313,0.274
							c-0.585,0.666-1.264,1.086-2.13,1.423c-0.694,0.271-1.094,0.915-1.455,1.578c-0.03,0.148-0.063,0.291-0.084,0.453
							c-0.146,1.227-0.532,2.845-1.947,3.226c-2.083,0.561-3.427-0.046-5.384-0.543c-1.362-0.349-0.607-1.689-0.523-2.717
							c0.011-0.141,0.07-0.244,0.148-0.329c-0.098-1.077-0.261-1.961,0.249-2.956c0.561-1.095,1.282-1.66,1.64-2.933
							c0.176-0.62,0.424-0.768,0.931-1.095c1.33-0.859,1.524-0.62,2.444-1.812c0.148-0.214,0.344-0.381,0.585-0.504
							c0.292-0.229,0.731-0.283,1.092-0.227c1.269,0.198,2.216-0.233,3.339-0.545c1.07-0.295,2.141-0.539,3.214-0.809
							c0.994-0.248,2.151-0.895,3.193-0.84c2.533,0.133,5.592,0.695,7.979,1.578c2.333,0.858,3.363,2.176,5.138,3.871
							c1.414,1.35,2.843,3.074,3.053,5.106C99.387,93.866,99.062,95.14,99.174,96.464z"/>
						<path class="st35" d="M81.862,155.796c-1.7,0-3.107-1.146-3.487-2.779c-1.69-0.347-2.854-1.734-2.878-3.506
							c-0.009-0.627-0.018-1.255-0.051-1.88c-0.009-0.147,0.002-0.356,0.014-0.59c0.016-0.293,0.048-0.9-0.025-1.062
							c-0.078-0.05-0.514-0.096-0.746-0.12c-0.266-0.028-0.543-0.057-0.777-0.13c-1.029-0.321-1.794-1.138-2.155-2.303
							c-0.412-1.327-0.242-2.595-0.077-3.821c0.099-0.746,0.194-1.455,0.163-2.159c-0.244-0.02-0.632-0.036-1.155-0.047
							c-0.164-0.002-0.281-0.007-0.322-0.011c-0.708-0.062-1.606-0.223-2.271-0.921c-0.914-0.963-1.271-2.291-0.95-3.558l0.092-0.35
							c-0.066-0.014-0.132-0.03-0.198-0.047c-0.97-0.268-1.874-1.028-2.361-1.989c-0.432-0.854-0.5-1.771-0.191-2.584
							c0.364-0.959,0.642-1.952,0.841-3.02c-0.349-0.079-0.669-0.202-0.955-0.369c-2.571-1.508-1.655-4.079-0.987-5.959
							c0.095-0.261,0.187-0.519,0.268-0.768c0.281-0.86,0.457-1.784,0.626-2.678c-2.317,0.355-4.229-1.206-4.403-3.552
							c-0.239-3.263,0.196-6.487,0.618-9.604l0.129-0.964c-0.189-0.288-0.337-0.575-0.448-0.867
							c-0.482-0.305-0.873-0.776-1.09-1.321c-1.128-2.846-1.235-5.858-0.335-9.464c-0.138-0.234-0.224-0.489-0.259-0.751
							c-0.744-0.39-1.369-1.173-1.292-2.115c0.168-2.087,0.808-4.249,2.009-6.805c0.671-1.429,1.398-2.853,2.163-4.233l0.231-0.431
							c0.517-0.975,1.16-2.189,2.342-2.662c1.031-0.413,2.654-0.245,3.926,0.353c0.621,0.292,1.231,0.722,1.871,1.312
							c0.25,0.231,0.473,0.523,0.688,0.807c0.248,0.323,0.504,0.661,0.749,0.822c2.655,1.786,4.493,2.122,6.423,1.249
							c1.175-0.529,2.455-0.207,3.104,0.797l0.271,0.27c2.306-0.908,4.602-1.198,7.189-0.908c0.44,0.047,0.847,0.208,1.188,0.466
							c1.266-0.528,2.449-1.194,3.52-1.987c0.38-0.278,0.781-0.668,1.208-1.079c1.106-1.07,2.359-2.281,3.926-2.281
							c0.254,0,0.512,0.032,0.765,0.1c1.321,0.347,2.736,1.146,3.906,2.206c0.937,0.222,1.788,0.81,2.411,1.668
							c1.746,2.41,2.522,5.22,2.31,8.354c0.165,0.205,0.302,0.422,0.417,0.653c1.649,3.341,3.118,6.962,2.714,10.81
							c-0.047,0.452-0.162,0.896-0.34,1.321c0.628,1.866,0.995,4.062,1.095,6.534c0.676,1.229,0.635,2.819-0.114,4.005
							c-0.025,0.086-0.012,0.497-0.004,0.695c0.005,0.188,0.009,0.358,0,0.474c-0.036,0.499-0.097,0.99-0.158,1.479
							c-0.109,0.908-0.216,1.766-0.166,2.658c0.014,0.239,0.032,0.48,0.048,0.722c0.095,1.264,0.189,2.569-0.263,3.844
							c-0.539,1.511-1.657,2.364-3.16,2.42c-0.008,2.276-0.108,4.896-0.63,7.534c-0.162,0.828-0.548,1.514-1.118,1.981
							c-0.323,0.268-0.706,0.361-1.017,0.435c-0.217,0.053-0.42,0.103-0.515,0.188c-0.164,0.15-0.263,0.598-0.35,0.992
							c-0.099,0.442-0.201,0.899-0.434,1.261c-0.092,0.144-0.229,0.275-0.445,0.479c-0.106,0.101-0.293,0.275-0.373,0.378
							c0.035,2.254-0.334,4.358-1.13,6.43c-0.267,0.688-0.677,1.284-1.192,1.736v0.361c0,1.443-0.889,2.762-2.211,3.348
							c0.028,0.415,0.02,0.804-0.025,1.182c-0.158,1.336-0.81,2.464-1.787,3.09c-0.424,0.271-0.883,0.354-1.286,0.428
							c-0.491,0.087-0.802,0.155-1.015,0.41c-0.304,0.369-0.592,0.746-0.877,1.119c-1.133,1.48-2.304,3.012-4.332,3.776
							c-0.804,0.302-1.496,0.285-2.346-0.078c-0.069-0.028-0.223-0.116-0.412-0.231c-0.178-0.106-0.551-0.33-0.764-0.427
							c-0.527,0.335-1.033,0.613-1.548,0.849C83.065,155.656,82.46,155.796,81.862,155.796z M65.667,113.771l-0.301,1.538
							c-0.18,0.941-0.361,1.915-0.671,2.859c-0.083,0.257-0.179,0.523-0.274,0.795c-0.773,2.17-1.154,3.663,0.506,4.638
							c0.295,0.175,0.657,0.277,1.076,0.307l0.598,0.045l-0.093,0.591c-0.216,1.355-0.54,2.597-0.993,3.789
							c-0.198,0.521-0.146,1.122,0.143,1.695c0.351,0.69,0.992,1.235,1.671,1.422c0.182,0.05,0.378,0.076,0.614,0.081l0.695,0.016
							l-0.427,1.637c-0.227,0.895,0.028,1.839,0.681,2.525c0.323,0.34,0.794,0.516,1.57,0.582c0.034,0.003,0.126,0.005,0.247,0.008
							c1.503,0.031,2.126,0.045,2.197,0.649c0.11,0.964-0.015,1.899-0.136,2.804c-0.155,1.161-0.303,2.256,0.037,3.351
							c0.178,0.57,0.571,1.309,1.432,1.575c0.152,0.049,0.355,0.066,0.565,0.088c0.568,0.059,1.213,0.127,1.542,0.602
							c0.265,0.376,0.256,0.956,0.213,1.733c-0.01,0.189-0.02,0.356-0.014,0.474c0.035,0.638,0.045,1.279,0.053,1.922
							c0.022,1.565,1.173,2.377,2.304,2.487l0.441,0.043l0.052,0.439c0.153,1.292,1.191,2.229,2.467,2.229
							c0.438,0,0.886-0.105,1.334-0.314c0.512-0.235,1.019-0.517,1.595-0.889l0.136-0.087l0.216-0.011
							c0.311,0,0.682,0.191,1.396,0.621c0.126,0.075,0.228,0.139,0.281,0.165c0.57,0.24,0.984,0.257,1.52,0.057
							c1.733-0.653,2.759-1.996,3.846-3.415c0.293-0.383,0.589-0.771,0.903-1.15c0.479-0.58,1.137-0.698,1.668-0.795
							c0.332-0.059,0.648-0.116,0.887-0.269c0.699-0.448,1.168-1.283,1.288-2.293c0.05-0.418,0.045-0.861-0.016-1.354l-0.055-0.46
							l0.441-0.132c1.094-0.332,1.857-1.34,1.857-2.453v-0.895l0.218-0.166c0.457-0.347,0.817-0.843,1.048-1.434
							c0.757-1.968,1.102-3.968,1.055-6.122c-0.008-0.403,0.33-0.722,0.721-1.09c0.115-0.109,0.226-0.207,0.279-0.278
							c0.122-0.193,0.203-0.552,0.278-0.898c0.13-0.582,0.263-1.181,0.682-1.568c0.306-0.277,0.675-0.367,1-0.445
							c0.231-0.056,0.448-0.107,0.577-0.215c0.466-0.383,0.658-0.942,0.737-1.344c0.548-2.773,0.615-5.555,0.607-7.907l-0.003-0.632
							l0.627,0.084c0.162,0.022,0.235,0.036,0.313,0.036l0,0c1.118,0,1.888-0.569,2.287-1.691c0.374-1.056,0.292-2.189,0.203-3.394
							c-0.018-0.249-0.035-0.494-0.05-0.74c-0.057-0.992,0.061-1.939,0.174-2.855c0.058-0.471,0.116-0.942,0.152-1.426
							c0.006-0.088,0-0.215-0.004-0.356c-0.021-0.58-0.019-1.015,0.175-1.319c0.548-0.867,0.562-2.092,0.029-2.975l-0.074-0.122
							l-0.005-0.144c-0.091-2.51-0.465-4.715-1.112-6.552L109,97.252l0.097-0.205c0.18-0.378,0.291-0.771,0.335-1.174
							c0.354-3.371-0.786-6.517-2.606-10.204c-0.106-0.215-0.235-0.404-0.406-0.595l-0.158-0.177l0.021-0.236
							c0.247-2.998-0.436-5.563-2.087-7.844c-0.492-0.68-1.161-1.128-1.883-1.265l-0.156-0.028l-0.117-0.11
							c-1.048-0.978-2.373-1.744-3.549-2.052c-1.278-0.334-2.497,0.799-3.645,1.908c-0.454,0.438-0.882,0.854-1.318,1.174
							c-1.237,0.913-2.609,1.671-4.081,2.251l-0.342,0.136l-0.258-0.266c-0.216-0.226-0.485-0.356-0.806-0.392
							c-2.53-0.28-4.738,0.023-6.985,0.971l-0.343,0.146l-0.913-0.941c-0.297-0.486-0.725-0.589-1.031-0.589
							c-0.229,0-0.477,0.058-0.717,0.166c-0.796,0.358-1.623,0.54-2.457,0.54c-1.98,0-3.729-1.002-5.033-1.879
							c-0.396-0.264-0.708-0.673-1.01-1.069c-0.195-0.257-0.381-0.498-0.562-0.667c-0.555-0.512-1.075-0.88-1.59-1.123
							c-1.002-0.47-2.306-0.623-3.048-0.326c-0.809,0.322-1.324,1.296-1.779,2.155l-0.24,0.449c-0.754,1.358-1.47,2.76-2.129,4.169
							c-1.146,2.432-1.752,4.473-1.909,6.424c-0.042,0.525,0.438,0.979,0.911,1.139l0.405,0.139l-0.033,0.428
							c-0.019,0.225,0.05,0.439,0.201,0.636l0.165,0.214l-0.068,0.262c-0.904,3.473-0.831,6.339,0.23,9.019
							c0.146,0.368,0.435,0.69,0.769,0.86l0.206,0.104l0.069,0.221c0.101,0.316,0.261,0.629,0.493,0.954l0.127,0.178l-0.187,1.389
							c-0.434,3.201-0.843,6.228-0.611,9.374c0.132,1.77,1.555,2.874,3.298,2.517L65.667,113.771z M96.522,99.76
							c-0.458,0-0.96-0.069-1.674-0.191c-1.761-0.302-3.216-1.154-4.205-2.469c-0.354-0.468-0.738-0.978-0.512-1.824
							c0.521-1.946-1.816-3.288-2.546-3.652c-0.315-0.158-0.661-0.345-1.028-0.539c-0.991-0.533-2.11-1.134-3.244-1.514
							c-0.517,0.114-1.022,0.3-1.556,0.498c-0.497,0.185-1.012,0.375-1.549,0.505c-0.568,0.141-1.184,0.272-1.833,0.297
							l-0.063,0.003c-0.068,0.062-0.136,0.118-0.204,0.172c-0.532,0.62-1.255,1.104-2.266,1.498
							c-0.505,0.198-0.828,0.703-1.135,1.26c-0.028,0.138-0.047,0.228-0.058,0.325c-0.095,0.781-0.377,3.16-2.352,3.692
							c-1.697,0.459-3.196,0.137-4.732-0.29c-0.297-0.082-0.605-0.17-0.932-0.252c-1.551-0.396-1.245-1.77-1.062-2.593
							c0.053-0.239,0.108-0.479,0.126-0.701c0.012-0.155,0.057-0.3,0.131-0.434l-0.014-0.145c-0.097-0.967-0.188-1.882,0.34-2.914
							c0.232-0.453,0.482-0.813,0.725-1.158c0.363-0.524,0.68-0.976,0.876-1.672c0.228-0.807,0.604-1.05,1.125-1.385
							c0.486-0.313,0.812-0.484,1.078-0.624c0.507-0.266,0.717-0.376,1.265-1.086c0.187-0.269,0.451-0.496,0.771-0.658
							c0.269-0.227,0.896-0.363,1.43-0.281c0.898,0.14,1.602-0.078,2.448-0.335c0.215-0.065,0.432-0.132,0.656-0.195
							c0.738-0.203,1.476-0.383,2.214-0.563l1.013-0.248c0.32-0.08,0.658-0.206,1.003-0.331c0.713-0.262,1.447-0.53,2.197-0.53
							l0.157,0.005c2.716,0.142,5.833,0.759,8.139,1.611c2.048,0.752,3.176,1.868,4.481,3.161c0.268,0.264,0.546,0.54,0.848,0.828
							c1.265,1.207,2.977,3.087,3.219,5.449c0.074,0.732,0.021,1.437-0.032,2.117c-0.049,0.629-0.096,1.221-0.044,1.822l0.01,0.108
							c0.045,0.496,0.113,1.243-0.418,1.788C98.399,99.253,97.684,99.76,96.522,99.76z M83.38,88.434l0.134,0.042
							c1.274,0.408,2.492,1.061,3.565,1.637c0.356,0.192,0.691,0.371,1,0.524c0.917,0.46,3.854,2.173,3.116,4.924
							c-0.083,0.313-0.005,0.437,0.314,0.858c0.831,1.102,2.045,1.811,3.524,2.062c0.637,0.11,1.109,0.177,1.488,0.177
							c0.646,0,1.067-0.153,2.007-1.114c0.162-0.165,0.146-0.483,0.107-0.915l-0.011-0.118c-0.06-0.689-0.008-1.356,0.042-2
							c0.052-0.66,0.101-1.285,0.035-1.92c-0.155-1.522-1.072-3.035-2.884-4.765c-0.304-0.291-0.59-0.572-0.861-0.841
							c-1.313-1.3-2.263-2.239-4.087-2.911c-2.209-0.816-5.204-1.409-7.816-1.546c0,0-0.008,0-0.011,0
							c-0.647,0-1.288,0.234-1.906,0.461c-0.384,0.141-0.759,0.275-1.115,0.365l-1.019,0.251c-0.728,0.177-1.454,0.355-2.183,0.555
							c-0.212,0.058-0.421,0.124-0.625,0.185c-0.884,0.271-1.805,0.55-2.944,0.373c-0.245-0.045-0.53,0.008-0.667,0.116
							c-0.25,0.138-0.375,0.245-0.475,0.386c-0.68,0.882-1.028,1.088-1.64,1.409c-0.245,0.127-0.544,0.284-0.955,0.55
							c-0.491,0.316-0.585,0.377-0.701,0.783c-0.245,0.873-0.645,1.447-1.03,2.002c-0.232,0.331-0.451,0.643-0.646,1.029
							c-0.383,0.743-0.312,1.432-0.227,2.305l0.057,0.592l-0.164,0.18c-0.029,0.273-0.091,0.566-0.157,0.856
							c-0.233,1.052-0.165,1.176,0.26,1.284c0.335,0.085,0.651,0.174,0.957,0.259c1.464,0.408,2.69,0.677,4.149,0.288
							c0.843-0.229,1.35-1.131,1.544-2.761c0.017-0.148,0.045-0.281,0.073-0.417l0.073-0.232c0.384-0.707,0.868-1.49,1.739-1.83
							c0.85-0.33,1.422-0.71,1.916-1.271c0.166-0.143,0.256-0.227,0.348-0.31l0.146-0.141l0.475-0.026
							c0.528-0.019,1.028-0.12,1.62-0.264c0.476-0.118,0.938-0.288,1.429-0.47c0.596-0.22,1.211-0.447,1.865-0.575L83.38,88.434z"/>
					</g>
				</g>
				<polygon class="st29" points="44.958,38.43 46.449,43.087 49.236,42.621 47.611,38.093 				"/>
				<polygon class="st29" points="58.674,35.813 60.335,41.225 63.123,40.76 61.327,35.476 				"/>
				<polygon class="st29" points="74.245,34.528 75.735,39.184 78.815,39.508 76.898,34.188 				"/>
				<polygon class="st29" points="88.599,34.014 90.089,38.669 93.106,38.784 91.25,33.675 				"/>
				<polygon class="st29" points="104,34.253 105.489,38.909 108.7,39.512 106.652,33.912 				"/>
			</g>
		</g>
	</g>
	<path class="st33" d="M81.575,163.151C36.594,163.151,0,126.557,0,81.575C0,36.596,36.594,0,81.575,0s81.576,36.596,81.576,81.575
		C163.151,126.557,126.557,163.151,81.575,163.151z M81.575,9.917c-39.514,0-71.66,32.146-71.66,71.658
		c0,39.516,32.146,71.661,71.66,71.661c39.513,0,71.66-32.146,71.66-71.661C153.235,42.062,121.088,9.917,81.575,9.917z"/>
</g>
</svg>
