<?xml version="1.0" encoding="utf-8"?>
<!-- Generator: Adobe Illustrator 16.0.0, SVG Export Plug-In . SVG Version: 6.00 Build 0)  -->
<!DOCTYPE svg PUBLIC "-//W3C//DTD SVG 1.1//EN" "http://www.w3.org/Graphics/SVG/1.1/DTD/svg11.dtd" [
	<!ENTITY ns_extend "http://ns.adobe.com/Extensibility/1.0/">
	<!ENTITY ns_ai "http://ns.adobe.com/AdobeIllustrator/10.0/">
	<!ENTITY ns_graphs "http://ns.adobe.com/Graphs/1.0/">
	<!ENTITY ns_vars "http://ns.adobe.com/Variables/1.0/">
	<!ENTITY ns_imrep "http://ns.adobe.com/ImageReplacement/1.0/">
	<!ENTITY ns_sfw "http://ns.adobe.com/SaveForWeb/1.0/">
	<!ENTITY ns_custom "http://ns.adobe.com/GenericCustomNamespace/1.0/">
	<!ENTITY ns_adobe_xpath "http://ns.adobe.com/XPath/1.0/">
]>
<svg version="1.1" id="Layer_1" xmlns:x="&ns_extend;" xmlns:i="&ns_ai;" xmlns:graph="&ns_graphs;"
	 xmlns="http://www.w3.org/2000/svg" xmlns:xlink="http://www.w3.org/1999/xlink" x="0px" y="0px" width="95.726px"
	 height="95.655px" viewBox="0 0 95.726 95.655" style="enable-background:new 0 0 95.726 95.655;" xml:space="preserve">
<style type="text/css">
<![CDATA[
	.st0{opacity:0.6;fill:#FFFFFF;}
	.st1{fill:#494244;}
	.st2{fill:#AFA8A0;}
	.st3{fill:none;stroke:#D1D2D3;stroke-width:6;stroke-miterlimit:10;}
	.st4{clip-path:url(#SVGID_7_);fill:url(#SVGID_8_);}
	.st5{fill:#E3F4FC;}
	.st6{fill:#E3F4FD;}
	.st7{fill:#E4B97F;}
	.st8{fill:#E4F4FC;}
	.st9{fill:#E4F5FD;}
	.st10{fill:#E6E6E6;}
	.st11{fill:#E6E7E8;}
	.st12{fill:#E9F4D3;}
	.st13{fill:#E9F5F6;}
	.st14{fill:#E9F6F7;}
	.st15{fill:#808184;}
	.st16{fill:#808285;}
	.st17{fill:#B0844F;}
	.st18{fill:#816026;}
	.st19{opacity:0.24;}
	.st20{opacity:0.34;}
	.st21{fill:#B58D58;}
	.st22{fill:none;stroke:#BE1E2D;stroke-linecap:round;stroke-miterlimit:10;}
	.st23{fill:#ED1C24;}
	.st24{opacity:0.2;fill:#221F1F;}
	.st25{fill:none;stroke:#FFFFFF;stroke-miterlimit:10;}
	.st26{fill-rule:evenodd;clip-rule:evenodd;fill:#E4B97F;}
	.st27{fill:#8A5F3C;}
	.st28{fill:#8B5E3C;}
	.st29{fill:#58595B;}
	.st30{fill:#592713;}
	.st31{fill:#592815;}
	.st32{fill:#594A42;}
	.st33{fill:#8DC63F;}
	.st34{clip-path:url(#SVGID_43_);fill:url(#SVGID_44_);}
	.st35{fill:#BE1E2D;}
	.st36{fill:#221F1F;}
	.st37{fill:#231F20;}
	.st38{fill:#F26522;}
	.st39{fill:#BE1E2D;stroke:#231F20;stroke-miterlimit:10;}
	.st40{fill:#F4F4F4;}
	.st41{opacity:0.7;fill:url(#SVGID_13_);}
	.st42{opacity:0.7;fill:url(#SVGID_14_);}
	.st43{fill:#F7941E;}
	.st44{clip-path:url(#SVGID_11_);fill:url(#SVGID_12_);}
	.st45{clip-path:url(#SVGID_3_);}
	.st46{clip-path:url(#SVGID_5_);}
	.st47{clip-path:url(#SVGID_7_);}
	.st48{fill:#C09464;}
	.st49{fill:#929497;}
	.st50{opacity:0.24;fill:#221F1F;}
	.st51{fill:#93091A;}
	.st52{fill:#C2986B;}
	.st53{fill:url(#SVGID_1_);}
	.st54{fill:url(#SVGID_9_);}
	.st55{fill:#939598;}
	.st56{opacity:0.24;fill:#231F20;}
	.st57{fill:#C49A6C;}
	.st58{fill:#C4A883;}
	.st59{fill:#C5925F;}
	.st60{fill:#FAC6B4;}
	.st61{fill:#FBB040;}
	.st62{fill:#FBC7B4;}
	.st63{opacity:0.75;fill:#FFFFFF;}
	.st64{opacity:0.21;fill:#221F1F;}
	.st65{fill:#FFDE17;}
	.st66{fill:#FFEFE3;}
	.st67{fill:#FFF0E2;}
	.st68{fill:#FFF0E3;}
	.st69{fill:#FFFFFF;}
	.st70{fill:#27AAE1;stroke:#FFFFFF;stroke-width:2;stroke-miterlimit:10;}
	.st71{fill-rule:evenodd;clip-rule:evenodd;fill:#231F20;}
	.st72{fill:#231F20;stroke:#BE1E2D;stroke-miterlimit:10;}
	.st73{fill:#675675;}
	.st74{fill:#CBA277;}
	.st75{fill:#CC5C3A;}
	.st76{fill:#9E9790;}
	.st77{fill:#CEA06E;}
	.st78{fill:#CEAF8A;}
	.st79{fill-rule:evenodd;clip-rule:evenodd;fill:#929497;}
	.st80{clip-path:url(#SVGID_23_);fill:#E8615B;}
	.st81{fill:#6B6188;}
	.st82{fill:#6C6288;}
	.st83{opacity:0.34;fill:#FFFFFF;}
	.st84{fill:#6D6E71;}
	.st85{fill:#D0D8AD;}
	.st86{opacity:0.21;fill:#FFFFFF;}
	.st87{fill-rule:evenodd;clip-rule:evenodd;fill:#FFFFFF;}
	.st88{fill:#D1D2D3;}
	.st89{fill:#D1D3D4;}
	.st90{fill:#231F20;stroke:#FFFFFF;stroke-width:2;stroke-miterlimit:10;}
	.st91{fill:#D39A4F;}
	.st92{opacity:0.13;fill:#221F1F;}
	.st93{fill:#FFFFFF;stroke:#8DC63F;stroke-miterlimit:10;}
	.st94{fill:#D7AB77;}
	.st95{fill:#D7DF23;}
	.st96{fill:url(#SVGID_15_);}
	.st97{fill:url(#SVGID_16_);}
	.st98{fill:url(#SVGID_17_);}
	.st99{fill:url(#SVGID_18_);}
	.st100{fill:url(#SVGID_19_);}
	.st101{fill:url(#SVGID_26_);}
	.st102{fill:url(#SVGID_27_);}
	.st103{fill:url(#SVGID_28_);}
	.st104{fill:url(#SVGID_29_);}
	.st105{fill:url(#SVGID_30_);}
	.st106{fill:url(#SVGID_31_);}
	.st107{fill:url(#SVGID_32_);}
	.st108{fill:url(#SVGID_33_);}
	.st109{fill:url(#SVGID_34_);}
	.st110{fill:url(#SVGID_35_);}
	.st111{fill:url(#SVGID_36_);}
	.st112{fill:url(#SVGID_37_);}
	.st113{fill:url(#SVGID_38_);}
	.st114{fill:url(#SVGID_39_);}
	.st115{clip-path:url(#SVGID_23_);}
	.st116{clip-path:url(#SVGID_41_);}
	.st117{clip-path:url(#SVGID_43_);}
	.st118{fill:#A31123;}
	.st119{fill:#A6A5A5;}
	.st120{fill:#788E7A;}
	.st121{fill:#A81124;}
	.st122{fill:#A87C51;}
	.st123{fill:#A97C50;}
	.st124{fill:#A9CA78;}
	.st125{fill:#414042;}
	.st126{fill:#424143;}
]]>
</style>
<metadata>
	<sfw  xmlns="&ns_sfw;">
		<slices></slices>
		<sliceSourceBounds  width="16383" height="3143.144" bottomLeftOrigin="true" x="-7941" y="-2918.811"></sliceSourceBounds>
	</sfw>
</metadata>
<g>
	<path class="st88" d="M73.496,95.655H22.23C9.973,95.655,0,85.682,0,73.424V22.23C0,9.973,9.973,0,22.23,0h51.265
		c12.258,0,22.23,9.973,22.23,22.23v51.194C95.726,85.682,85.753,95.655,73.496,95.655z M22.23,6C13.281,6,6,13.281,6,22.23v51.194
		c0,8.95,7.281,16.23,16.23,16.23h51.265c8.95,0,16.23-7.281,16.23-16.23V22.23c0-8.95-7.281-16.23-16.23-16.23H22.23z"/>
</g>
<g>
	<defs>
		<path id="SVGID_40_" d="M93.103,73.424c0,10.621-8.61,19.23-19.23,19.23H22.678c-10.621,0-19.23-8.61-19.23-19.23V22.23
			C3.448,11.61,12.057,3,22.678,3h51.194c10.621,0,19.23,8.61,19.23,19.23V73.424z"/>
	</defs>
	<clipPath id="SVGID_1_">
		<use xlink:href="#SVGID_40_"  style="overflow:visible;"/>
	</clipPath>
	<g style="clip-path:url(#SVGID_1_);">
		<defs>
			<rect id="SVGID_42_" x="3.448" y="3" width="89.655" height="89.655"/>
		</defs>
		<clipPath id="SVGID_3_">
			<use xlink:href="#SVGID_42_"  style="overflow:visible;"/>
		</clipPath>
		<linearGradient id="SVGID_5_" gradientUnits="userSpaceOnUse" x1="47.9155" y1="92.7427" x2="47.9155" y2="2.9121">
			<stop  offset="0" style="stop-color:#F9BD3E"/>
			<stop  offset="1" style="stop-color:#F16E29"/>
		</linearGradient>
		<rect x="3" y="2.912" style="clip-path:url(#SVGID_3_);fill:url(#SVGID_5_);" width="89.832" height="89.831"/>
		<g class="st45">
			<g>
				<g>
					<path class="st82" d="M62.518-17.599c-13.19-2.663-27.792-1.526-39.332,3.974C15.294-9.864,7.182-6.333,0.13-1.088
						C-3.698,1.761-7.078,5.476-9.109,9.81c-1.35,2.891-2.17,6.428-3.258,9.323c29.294-5.349,59.43-9.692,89.28-7.962
						c9.604,0.556,19.975,1.589,29.228,4.375c-0.473-0.142-3.617-7.931-4.249-8.781C95.866-1.338,86.031-8.403,77.085-12.761
						C72.625-14.933,67.679-16.557,62.518-17.599z"/>
					<path class="st36" d="M-14.152,20.625l0.711-1.896c0.413-1.099,0.784-2.285,1.176-3.541c0.619-1.981,1.26-4.031,2.115-5.864
						C-8.173,5.11-4.856,1.191-0.555-2.008c6.221-4.628,13.3-7.963,20.146-11.188c1.035-0.488,2.07-0.975,3.102-1.466
						c7.497-3.573,16.482-5.461,25.985-5.461c4.735,0,9.468,0.47,14.067,1.399c5.349,1.08,10.342,2.739,14.842,4.931
						C87.844-8.796,97.274-1.368,102.813,6.08c0.321,0.431,0.85,1.591,1.982,4.134c0.729,1.641,1.833,4.118,2.143,4.526
						c-0.006-0.007-0.155-0.2-0.466-0.292l-0.661,2.197c0,0,0,0,0-0.001v0.001c-9.664-2.912-20.555-3.843-28.963-4.331
						c-4.394-0.254-8.959-0.383-13.569-0.383c-26.281,0-52.883,4.209-75.438,8.329L-14.152,20.625z M48.678-17.828
						c-9.164,0-17.808,1.811-24.998,5.238c-1.035,0.493-2.073,0.981-3.111,1.471C13.825-7.942,6.852-4.657,0.815-0.167
						C-3.183,2.808-6.256,6.426-8.07,10.297c-0.79,1.693-1.407,3.667-2.004,5.576c-0.184,0.59-0.371,1.188-0.564,1.78
						c22.235-4.021,48.202-8.015,73.917-8.015c4.654,0,9.264,0.13,13.702,0.388c7.789,0.451,17.684,1.28,26.874,3.687
						c-0.312-0.677-0.689-1.518-1.155-2.564c-0.633-1.422-1.5-3.371-1.731-3.704C95.642,0.283,86.524-6.888,76.582-11.729
						c-4.325-2.107-9.133-3.704-14.292-4.745C57.842-17.373,53.261-17.828,48.678-17.828z"/>
				</g>
				<g>
					<polygon class="st82" points="-0.794,21.599 -9.507,117.596 109.318,117.596 97.04,16.688 64.955,11.59 30.101,14.861 					"/>
					<path class="st36" d="M110.352,118.475H-10.511l8.857-97.59l31.664-6.897l34.975-3.282l0.12,0.019l32.769,5.207
						L110.352,118.475z M-8.503,116.718h116.788L96.206,17.446l-31.282-4.971L30.25,15.73L0.065,22.312L-8.503,116.718z"/>
				</g>
				<g>
					<path class="st67" d="M83.202,16.39l-14.533-2.42H48.574l0,0H28.481l-14.532,2.42c-0.927,4.557-6.144,31.574-2.145,43.737
						c4.17,12.683,24.827,29.9,26.747,31.48c0.757,0.185,4.179,0.941,9.528,0.941c0.165,0,0.331-0.004,0.495-0.005
						c0.165,0.001,0.331,0.005,0.496,0.005c5.349,0,8.771-0.757,9.528-0.941c1.92-1.58,22.578-18.797,26.748-31.48
						C89.344,47.964,84.128,20.947,83.202,16.39z"/>
					<path class="st36" d="M49.07,93.427c-0.102,0-0.204-0.002-0.306-0.003l-0.196-0.002l-0.182,0.002
						c-0.103,0.001-0.205,0.003-0.307,0.003c-5.358,0-8.807-0.741-9.736-0.967l-0.194-0.048l-0.155-0.127
						C35.673,90.376,15.2,73.262,10.971,60.401c-4.04-12.286,1.056-38.963,2.119-44.186l0.121-0.592l15.199-2.531h40.333
						l0.072,0.012l15.127,2.519l0.121,0.592c1.062,5.223,6.157,31.9,2.118,44.186c-4.229,12.86-24.703,29.975-27.024,31.884
						L59,92.412l-0.195,0.048C57.876,92.686,54.428,93.427,49.07,93.427z M48.567,91.666l0.224,0.003
						c0.093,0.001,0.186,0.003,0.278,0.003c4.89,0,8.162-0.651,9.127-0.872c1.363-1.128,6.682-5.607,12.303-11.381
						c7.487-7.692,12.333-14.458,14.012-19.566c1.625-4.942,1.879-13.364,0.736-24.356c-0.849-8.158-2.229-15.531-2.788-18.341
						l-13.864-2.309H28.554l-13.864,2.309c-0.558,2.81-1.938,10.183-2.787,18.341c-1.144,10.992-0.89,19.414,0.735,24.356
						c1.68,5.108,6.526,11.874,14.013,19.566c5.62,5.774,10.939,10.253,12.302,11.381c0.966,0.221,4.238,0.872,9.127,0.872
						c0.093,0,0.186-0.001,0.278-0.003L48.567,91.666z"/>
				</g>
				<path class="st50" d="M79.411,10.743c-11.505-0.181-23.007-0.384-34.514-0.408c-10.701-0.023-22.193-1.238-32.698,1.267
					c-4.136,0.986-9.178,3.252-12.659,5.638c-1.541,1.055-1.794,4.159-1.637,5.849c0.02,0.224,0.079,0.406,0.154,0.569
					c-0.485,0.493-0.018,1.609,0.896,1.473c5.222-0.779,10.507-1.095,15.684-2.149c6.63-1.349,13.098-2.441,19.85-3.053
					c12.549-1.14,25.209-1.676,37.811-1.551c5.337,0.052,10.941-0.021,16.215,0.85c1.758,0.29,4.224,0.606,4.82-1.56
					C95.404,10.14,83.345,10.805,79.411,10.743z"/>
				<g>
					<circle class="st69" cx="65.269" cy="35.405" r="16.525"/>
					<path class="st36" d="M65.269,52.809c-9.597,0-17.403-7.808-17.403-17.403s7.807-17.403,17.403-17.403
						s17.404,7.807,17.404,17.403S74.865,52.809,65.269,52.809z M65.269,19.76c-8.628,0-15.647,7.019-15.647,15.646
						c0,8.627,7.019,15.646,15.647,15.646s15.647-7.019,15.647-15.646C80.916,26.778,73.896,19.76,65.269,19.76z"/>
				</g>
				<g>
					<path class="st69" d="M48.224,35.405c0,6.821-5.525,12.347-12.35,12.347c-6.812,0-12.344-5.526-12.344-12.347
						c0-6.817,5.532-12.348,12.344-12.348C42.698,23.057,48.224,28.588,48.224,35.405z"/>
					<path class="st36" d="M35.874,48.63c-7.291,0-13.223-5.933-13.223-13.225c0-7.293,5.932-13.227,13.223-13.227
						c7.294,0,13.228,5.933,13.228,13.227C49.102,42.698,43.168,48.63,35.874,48.63z M35.874,23.935
						c-6.322,0-11.466,5.145-11.466,11.47c0,6.324,5.144,11.468,11.466,11.468c6.325,0,11.471-5.144,11.471-11.468
						C47.345,29.08,42.199,23.935,35.874,23.935z"/>
				</g>
				<ellipse class="st13" cx="66.214" cy="38.502" rx="14.035" ry="11.175"/>
				<path class="st36" d="M57.499,34.642c-1.462,0-1.462,2.267,0,2.267C58.961,36.909,58.961,34.642,57.499,34.642z"/>
				<ellipse class="st13" cx="36.379" cy="37.54" rx="10.067" ry="7.959"/>
				<path class="st36" d="M41.194,34.265c-1.461,0-1.461,2.268,0,2.268S42.656,34.265,41.194,34.265z"/>
				<g>
					<path class="st88" d="M23.932,19.686c-0.047-0.002-0.094-0.006-0.142-0.007c-1.68-0.032-1.677,2.572,0,2.604
						c4.034,0.077,8.043,0.708,12.084,0.774c2.208,0.035,7.65,0.357,8.068-2.812C44.837,13.462,27.139,18.898,23.932,19.686z"/>
					<path class="st36" d="M37.518,23.961c-0.418,0.01-0.867-0.009-1.23-0.018l-0.427-0.009c-2.075-0.033-4.159-0.215-6.175-0.392
						c-1.94-0.169-3.948-0.344-5.912-0.382c-1.221-0.023-2.133-0.982-2.121-2.228c0.012-1.236,0.898-2.133,2.107-2.133l0.082,0.002
						c0.292-0.074,0.68-0.178,1.146-0.303c3.024-0.811,9.317-2.499,13.882-2.499c2.562,0,4.265,0.521,5.206,1.594
						c0.636,0.725,0.884,1.655,0.738,2.765C44.339,23.955,39.215,23.961,37.518,23.961z M23.768,20.557
						c-0.103,0-0.355,0.007-0.358,0.392c-0.001,0.167,0.048,0.449,0.398,0.456c2.023,0.039,4.061,0.217,6.03,0.388
						c1.985,0.173,4.038,0.353,6.051,0.386l0.437,0.008c0.351,0.007,0.752,0.017,1.185,0.017c3.559,0,5.377-0.678,5.561-2.074
						c0.079-0.594-0.025-1.044-0.317-1.376c-0.398-0.454-1.396-0.996-3.885-0.996c-4.333,0-10.475,1.647-13.426,2.439
						c-0.548,0.146-0.991,0.266-1.301,0.341l-0.119,0.029l-0.122-0.004l-0.111-0.884l-0.016,0.878
						C23.771,20.557,23.77,20.557,23.768,20.557z"/>
				</g>
				<g>
					<path class="st88" d="M53.416,19.145c0.417,3.171,5.861,2.848,8.067,2.812c4.043-0.065,8.053-0.697,12.085-0.774
						c1.677-0.032,1.681-2.636,0-2.604c-0.047,0.001-0.095,0.005-0.141,0.007C70.22,17.798,52.52,12.362,53.416,19.145z"/>
					<path class="st36" d="M59.845,22.861c-1.688,0-6.827,0-7.3-3.602c-0.146-1.108,0.102-2.039,0.738-2.764
						c0.94-1.072,2.643-1.594,5.205-1.594c4.566,0,10.86,1.688,13.884,2.499c0.465,0.125,0.852,0.228,1.143,0.302l0.037-0.002
						c0,0,0,0,0.001,0c1.255,0,2.141,0.897,2.153,2.133c0.012,1.246-0.9,2.205-2.121,2.229c-1.963,0.038-3.97,0.213-5.911,0.382
						c-2.016,0.177-4.102,0.359-6.178,0.392l-0.428,0.008C60.707,22.851,60.292,22.861,59.845,22.861z M58.487,16.658
						c-2.489,0-3.486,0.541-3.884,0.995c-0.292,0.333-0.396,0.783-0.317,1.376c0.184,1.396,2.001,2.074,5.558,2.074
						c0.433,0,0.835-0.009,1.186-0.017l0.438-0.009c2.013-0.033,4.067-0.212,6.053-0.385c1.97-0.171,4.007-0.35,6.03-0.389
						c0.349-0.007,0.399-0.288,0.397-0.455c-0.003-0.393-0.264-0.393-0.35-0.393l-0.382-0.019c-0.31-0.075-0.753-0.195-1.3-0.341
						C68.965,18.305,62.822,16.658,58.487,16.658z"/>
				</g>
				<g>
					<g>
						<path class="st88" d="M68.704,72.01C68.846,72.385,68.797,72.22,68.704,72.01L68.704,72.01z"/>
						<path class="st36" d="M69.27,73.112h-0.478c-0.61-0.001-0.798-0.496-0.91-0.791l0.653-0.27l-0.46-0.325l0.46,0.325
							l0.251-0.103l0.007-0.593l0,0.59l0.713-0.294c0.123,0.274,0.29,0.65,0.023,1.06L69.27,73.112z"/>
					</g>
					<g>
						<path class="st88" d="M84.016,97.104c-0.108-2.976-0.529-5.88-1.44-8.461c0.249-0.521,0.421-1.097,0.484-1.706
							c0.497-4.706-1.31-9.103-3.35-13.235c-0.177-0.359-0.389-0.649-0.616-0.903c0.308-3.734-0.488-7.211-2.759-10.347
							c-0.711-0.982-1.713-1.663-2.806-1.869c-1.294-1.208-3.042-2.296-4.767-2.748c-2.771-0.723-4.907,2.57-6.841,3.996
							c-1.533,1.129-3.215,2.049-4.984,2.75c-0.352-0.367-0.826-0.636-1.439-0.704c-3.321-0.37-6.216,0.04-9.146,1.274l-0.722-0.722
							c-0.688-1.128-1.945-1.318-3.078-0.807c-3.168,1.429-6.063,0.187-8.766-1.628c-0.701-0.47-1.257-1.53-1.897-2.122
							c-0.65-0.6-1.374-1.152-2.179-1.532c-1.233-0.581-3.09-0.951-4.394-0.429c-1.456,0.583-2.186,2.311-2.894,3.59
							c-0.961,1.738-1.86,3.495-2.705,5.293c-1.238,2.636-2.229,5.411-2.466,8.333c-0.079,0.973,0.697,1.837,1.616,2.149
							c-0.037,0.477,0.116,0.916,0.396,1.278c-1.005,3.865-1.271,7.786,0.317,11.794c0.245,0.618,0.721,1.153,1.297,1.445
							c0.161,0.509,0.415,0.972,0.719,1.397c-0.59,4.478-1.306,8.894-0.971,13.433c0.195,2.664,2.353,4.329,4.984,3.796
							c0.254-0.05,0.494-0.091,0.741-0.137c-0.295,1.492-0.527,3.007-1.001,4.455c-0.849,2.594-2.532,5.825,0.599,7.66
							c0.493,0.288,1.067,0.437,1.656,0.48c-0.249,1.566-0.632,3.104-1.215,4.634c-0.765,2.008,0.829,4.316,2.75,4.844
							c0.324,0.088,0.637,0.12,0.943,0.126c-0.107,0.407-0.216,0.811-0.319,1.217c-0.349,1.375,0.057,2.811,1.027,3.832
							c0.644,0.676,1.524,0.868,2.419,0.946c0.213,0.02,2.429,0.012,2.453,0.218c0.305,2.637-0.924,5.213-0.097,7.876
							c0.358,1.155,1.11,2.086,2.259,2.444c0.655,0.204,1.935,0.083,2.292,0.599c0.314,0.451,0.098,1.86,0.126,2.42
							c0.042,0.798,0.056,1.599,0.066,2.397c0.032,2.247,1.646,3.63,3.528,3.813c0.303,2.55,2.896,4.293,5.771,2.961
							c0.752-0.348,1.437-0.746,2.09-1.165c0.264-0.139,1.644,0.807,1.901,0.917c0.851,0.36,1.572,0.414,2.44,0.085
							c2.977-1.123,4.366-3.65,6.272-5.958c0.772-0.935,2.083-0.575,3.06-1.2c1.164-0.744,1.778-2.049,1.936-3.391
							c0.075-0.629,0.057-1.252-0.018-1.87c1.618-0.49,2.831-1.993,2.831-3.755v-0.783c0.675-0.512,1.213-1.245,1.547-2.107
							c1.019-2.642,1.434-5.267,1.375-7.977c-0.006-0.32,0.948-1.023,1.146-1.33c0.511-0.792,0.438-2.367,1.103-2.975
							c0.499-0.458,1.384-0.338,1.957-0.809c0.639-0.525,1.011-1.296,1.168-2.095c0.667-3.372,0.789-6.724,0.778-10.097
							c0.163,0.021,0.32,0.05,0.486,0.05c1.785,0.002,2.957-0.965,3.537-2.592c0.626-1.763,0.334-3.659,0.232-5.479
							c-0.102-1.812,0.279-3.507,0.41-5.304c0.03-0.412-0.103-1.454,0.11-1.791C84.804,100.263,84.823,98.439,84.016,97.104z
							 M56.98,77.962c-2.463-3.028-5.754-3.519-9.322-2.097c-2.821,1.124-5.038,2.917-8.267,2.451
							c-1.92-0.277-3.812-0.881-5.561-1.719c-1.06-0.507-2.119-0.97-3.073-1.67c-1.402-1.028-0.845-2.072,0.112-3.366
							c-0.032,0.049-0.067,0.098-0.099,0.148c0.649-0.715,1.438-1.511,1.583-2.504c0.096,0.039,0.723,0.167,0.745,0.214
							c0.323,0.724,0.586,1.354,0.773,1.78c0.568,1.299,2.642,1.458,3.533,0.455c1.142-1.285,2.285-1.731,3.459-1.754
							c0.997,0.244,2.001,0.441,3.015,0.584c1.021,0.323,2.082,0.7,3.199,0.903c1.989,0.361,3.708-0.068,5.303-0.912
							c1.133-0.165,2.455-0.76,3.577-0.76c1.567-0.001,3.143-0.198,4.657-0.606c1.403-0.377,2.63-1.176,3.969-1.606
							c0.461,0.062,1.441,1.518,1.755,1.852c0.6,0.634,1.25,1.254,1.856,1.892c1.127,1.186-0.267,1.717-1.34,2.252
							c-1.632,0.815-3.276,1.631-4.943,2.376c-1.589,0.711-3.217,1.694-4.915,2.106C56.992,77.975,56.985,77.968,56.98,77.962z"/>
						<path class="st36" d="M47.64,162.543c-2.191,0-4.011-1.45-4.546-3.532c-2.154-0.49-3.626-2.287-3.658-4.568
							c-0.011-0.788-0.023-1.576-0.065-2.362c-0.01-0.188,0.002-0.461,0.019-0.764c0.016-0.302,0.048-0.894,0.002-1.166
							c-0.185-0.062-0.567-0.102-0.81-0.127c-0.346-0.037-0.704-0.074-1.015-0.17c-1.355-0.422-2.363-1.495-2.837-3.023
							c-0.531-1.709-0.314-3.33-0.104-4.896c0.116-0.871,0.229-1.705,0.208-2.521c-0.301-0.02-0.729-0.036-1.283-0.048
							c-0.21-0.004-0.364-0.009-0.416-0.014c-0.925-0.081-2.101-0.293-2.979-1.217c-1.197-1.259-1.662-2.998-1.241-4.653
							c0.021-0.086,0.044-0.174,0.066-0.261c-0.024-0.005-0.048-0.012-0.073-0.019c-1.29-0.354-2.444-1.326-3.089-2.598
							c-0.569-1.123-0.658-2.331-0.249-3.404c0.436-1.146,0.771-2.331,1.017-3.602c-0.391-0.102-0.752-0.25-1.081-0.443
							c-3.373-1.976-2.189-5.301-1.325-7.727c0.117-0.329,0.232-0.652,0.334-0.964c0.326-0.997,0.531-2.022,0.735-3.101
							c-2.932,0.317-5.282-1.696-5.5-4.675c-0.304-4.125,0.246-8.19,0.777-12.121l0.156-1.162c-0.216-0.338-0.39-0.674-0.524-1.016
							c-0.617-0.405-1.115-1.014-1.394-1.718c-1.427-3.602-1.571-7.411-0.446-11.961c-0.148-0.27-0.249-0.557-0.298-0.853
							c-1.065-0.588-1.734-1.69-1.644-2.803c0.215-2.649,1.024-5.393,2.547-8.635c0.842-1.793,1.761-3.592,2.731-5.345
							c0.096-0.173,0.193-0.356,0.292-0.542c0.665-1.254,1.493-2.817,3.045-3.438c1.36-0.542,3.433-0.333,5.094,0.452
							c0.799,0.376,1.583,0.926,2.4,1.681c0.329,0.305,0.614,0.678,0.891,1.041c0.303,0.397,0.617,0.809,0.899,0.998
							c3.288,2.207,5.542,2.626,7.915,1.557c1.554-0.704,3.259-0.273,4.128,1.054l0.243,0.243c2.896-1.122,5.784-1.476,9.033-1.115
							c0.553,0.062,1.063,0.253,1.503,0.562c1.544-0.653,2.989-1.473,4.301-2.441c0.466-0.344,0.969-0.83,1.501-1.344
							c1.419-1.372,3.027-2.926,5.074-2.926c0.337,0,0.677,0.044,1.01,0.131c1.678,0.438,3.474,1.451,4.964,2.791
							c1.207,0.295,2.3,1.056,3.099,2.162c2.211,3.053,3.203,6.609,2.949,10.572c0.198,0.256,0.363,0.521,0.502,0.804
							c2.089,4.233,3.952,8.825,3.436,13.716c-0.059,0.566-0.199,1.121-0.415,1.654c0.778,2.335,1.238,5.082,1.366,8.173
							c0.851,1.581,0.802,3.608-0.137,5.14c-0.033,0.17-0.019,0.612-0.012,0.831c0.008,0.243,0.013,0.461,0.001,0.609
							c-0.046,0.636-0.123,1.259-0.199,1.877c-0.14,1.134-0.272,2.206-0.209,3.313c0.017,0.303,0.039,0.607,0.062,0.914
							c0.118,1.607,0.24,3.271-0.343,4.909c-0.685,1.92-2.087,3.031-3.972,3.164c-0.013,2.834-0.147,6.078-0.794,9.352
							c-0.215,1.085-0.724,1.987-1.472,2.603c-0.441,0.364-0.947,0.485-1.355,0.584c-0.227,0.055-0.483,0.118-0.566,0.194
							c-0.166,0.152-0.294,0.731-0.388,1.154c-0.127,0.573-0.258,1.166-0.57,1.65c-0.132,0.205-0.344,0.405-0.589,0.638
							c-0.114,0.106-0.305,0.286-0.412,0.407c0.037,2.847-0.435,5.5-1.438,8.102c-0.334,0.866-0.845,1.619-1.488,2.202v0.372
							c0,1.85-1.112,3.542-2.777,4.333c0.025,0.486,0.012,0.947-0.042,1.396c-0.205,1.74-1.056,3.209-2.334,4.026
							c-0.565,0.362-1.162,0.471-1.688,0.565c-0.595,0.107-0.942,0.181-1.167,0.454c-0.382,0.463-0.744,0.937-1.102,1.403
							c-1.443,1.886-2.935,3.834-5.538,4.818c-1.06,0.4-1.977,0.375-3.093-0.099c-0.092-0.04-0.294-0.154-0.542-0.303
							c-0.196-0.119-0.594-0.357-0.857-0.487c-0.636,0.398-1.254,0.737-1.882,1.026C49.208,162.361,48.42,162.543,47.64,162.543z
							 M27.466,109.179l-0.43,2.204c-0.225,1.193-0.457,2.428-0.849,3.626c-0.107,0.327-0.227,0.665-0.349,1.008
							c-0.971,2.725-1.417,4.464,0.558,5.622c0.348,0.203,0.778,0.326,1.277,0.363l0.952,0.071l-0.149,0.942
							c-0.273,1.723-0.686,3.296-1.262,4.809c-0.23,0.605-0.169,1.31,0.174,1.985c0.419,0.826,1.181,1.478,1.989,1.7
							c0.214,0.059,0.446,0.089,0.729,0.095l1.114,0.025l-0.372,1.41c-0.078,0.293-0.155,0.583-0.229,0.876
							c-0.271,1.065,0.033,2.19,0.812,3.009c0.378,0.398,0.917,0.595,1.86,0.678c0.041,0.003,0.151,0.005,0.299,0.008
							c1.951,0.042,2.841,0.06,2.949,0.983c0.143,1.236-0.017,2.425-0.171,3.576c-0.193,1.441-0.375,2.801,0.041,4.142
							c0.21,0.678,0.673,1.552,1.681,1.866c0.145,0.045,0.416,0.073,0.675,0.101c0.757,0.079,1.614,0.168,2.077,0.835
							c0.366,0.524,0.356,1.284,0.301,2.299c-0.012,0.229-0.025,0.435-0.018,0.577c0.042,0.808,0.055,1.62,0.067,2.43
							c0.026,1.857,1.393,2.821,2.735,2.952l0.704,0.069l0.083,0.702c0.182,1.533,1.413,2.646,2.926,2.646
							c0.523,0,1.062-0.126,1.604-0.377c0.634-0.292,1.264-0.646,1.985-1.108l0.217-0.139l0.326-0.014
							c0.437,0,0.904,0.239,1.854,0.81c0.149,0.09,0.271,0.165,0.339,0.199c0.658,0.277,1.137,0.301,1.769,0.064
							c2.133-0.806,3.411-2.475,4.764-4.242c0.371-0.485,0.745-0.974,1.142-1.455c0.646-0.782,1.513-0.938,2.208-1.064
							c0.42-0.076,0.782-0.141,1.055-0.315c0.833-0.533,1.394-1.537,1.537-2.754c0.061-0.513,0.055-1.057-0.018-1.662l-0.088-0.731
							l0.706-0.213c1.3-0.395,2.207-1.593,2.207-2.915v-1.218l0.348-0.265c0.548-0.416,0.983-1.012,1.258-1.724
							c0.944-2.448,1.375-4.948,1.317-7.641c-0.012-0.589,0.441-1.018,0.966-1.512c0.134-0.128,0.263-0.241,0.331-0.329
							c0.131-0.203,0.227-0.639,0.32-1.061c0.16-0.724,0.342-1.544,0.915-2.071c0.417-0.382,0.93-0.506,1.342-0.605
							c0.268-0.065,0.521-0.126,0.651-0.233c0.544-0.449,0.771-1.111,0.865-1.587c0.688-3.482,0.771-6.971,0.762-9.925l-0.003-1
							l1.123,0.144c0.082,0.011,0.162,0.026,0.245,0.026c1.343,0,2.228-0.657,2.708-2.009c0.459-1.29,0.356-2.699,0.247-4.192
							c-0.023-0.316-0.046-0.631-0.064-0.943c-0.071-1.265,0.077-2.466,0.22-3.627c0.073-0.591,0.147-1.185,0.191-1.791
							c0.007-0.103,0-0.254-0.006-0.424c-0.024-0.767-0.022-1.343,0.25-1.771c0.656-1.04,0.67-2.5,0.034-3.554l-0.118-0.195
							l-0.008-0.228c-0.115-3.151-0.583-5.91-1.391-8.201l-0.121-0.343l0.157-0.327c0.216-0.454,0.352-0.93,0.403-1.418
							c0.443-4.2-0.984-8.137-3.265-12.756c-0.124-0.251-0.277-0.477-0.483-0.707l-0.251-0.281l0.031-0.376
							c0.308-3.731-0.541-6.923-2.595-9.758c-0.592-0.818-1.394-1.358-2.258-1.522l-0.25-0.047l-0.186-0.173
							c-1.298-1.212-2.939-2.162-4.39-2.541c-1.524-0.398-3.007,0.995-4.418,2.359c-0.576,0.556-1.12,1.082-1.68,1.494
							c-1.571,1.158-3.314,2.121-5.182,2.859l-0.548,0.218l-0.409-0.425c-0.245-0.255-0.54-0.399-0.902-0.439
							c-3.156-0.351-5.909,0.032-8.709,1.211l-0.544,0.229l-1.269-1.304c-0.406-0.668-1.169-0.823-1.966-0.463
							c-1.029,0.464-2.097,0.7-3.174,0.7c-2.543,0-4.779-1.282-6.442-2.399c-0.523-0.351-0.926-0.879-1.316-1.39
							c-0.242-0.318-0.471-0.617-0.688-0.817c-0.682-0.631-1.323-1.083-1.957-1.382c-1.214-0.573-2.807-0.763-3.692-0.409
							c-0.954,0.382-1.586,1.575-2.145,2.629c-0.104,0.196-0.206,0.388-0.307,0.572c-0.951,1.719-1.853,3.481-2.679,5.24
							c-1.43,3.045-2.188,5.597-2.385,8.031c-0.044,0.547,0.485,1.063,1.022,1.246l0.647,0.219l-0.053,0.68
							c-0.019,0.238,0.054,0.465,0.215,0.675l0.264,0.34l-0.108,0.418c-1.129,4.338-1.038,7.913,0.284,11.249
							c0.168,0.424,0.496,0.792,0.878,0.986l0.329,0.166l0.111,0.353c0.121,0.381,0.315,0.757,0.596,1.151l0.201,0.282l-0.246,1.839
							c-0.543,4.02-1.056,7.815-0.766,11.758c0.155,2.115,1.852,3.422,3.934,3c0.17-0.034,0.334-0.063,0.497-0.093L27.466,109.179z
							 M40.433,79.27c-0.384,0-0.777-0.029-1.166-0.084c-1.96-0.283-3.917-0.887-5.815-1.795l-0.424-0.202
							c-0.932-0.441-1.896-0.897-2.789-1.553c-0.684-0.501-1.081-1.087-1.18-1.74c-0.159-1.043,0.458-1.983,1.104-2.857l0.019,0.013
							l0.089-0.097c0.55-0.603,1.118-1.225,1.214-1.877l0.163-1.112l1.04,0.427c-0.006-0.008,0.072,0.014,0.154,0.034
							c0.522,0.128,0.867,0.213,1.057,0.629c0.208,0.469,0.391,0.893,0.545,1.252l0.233,0.539c0.187,0.428,0.722,0.58,1.122,0.58
							c0.396,0,0.752-0.133,0.95-0.355c1.198-1.349,2.539-2.019,4.098-2.049l0.115-0.001l0.111,0.026
							c0.997,0.244,1.982,0.436,2.928,0.568l0.143,0.033l0.54,0.174c0.829,0.269,1.686,0.546,2.551,0.703
							c1.604,0.291,3.119,0.03,4.735-0.824l0.133-0.071l0.15-0.022c0.409-0.06,0.869-0.189,1.355-0.327
							c0.77-0.218,1.566-0.442,2.349-0.442c1.524-0.001,3.014-0.195,4.428-0.577c0.69-0.186,1.346-0.49,2.039-0.812
							c0.604-0.28,1.228-0.57,1.89-0.783l0.19-0.061l0.197,0.027c0.644,0.087,1.193,0.738,1.956,1.719
							c0.135,0.175,0.247,0.323,0.319,0.399c0.3,0.318,0.614,0.631,0.929,0.946c0.312,0.313,0.624,0.626,0.926,0.945
							c0.524,0.551,0.738,1.119,0.636,1.686c-0.174,0.96-1.128,1.424-1.971,1.835l-0.249,0.122
							c-1.752,0.875-3.335,1.658-4.976,2.393c-0.458,0.205-0.92,0.433-1.386,0.663c-1.174,0.581-2.389,1.182-3.681,1.495
							l-0.562,0.137l-0.347-0.462c-2.084-2.561-4.932-3.176-8.312-1.83c-0.701,0.28-1.383,0.612-2.042,0.933
							C44.268,78.428,42.538,79.27,40.433,79.27z M31.419,72.298c-0.289,0.402-0.676,0.993-0.625,1.334
							c0.033,0.217,0.281,0.439,0.483,0.586c0.757,0.557,1.604,0.958,2.501,1.382l0.431,0.204c1.737,0.832,3.522,1.383,5.307,1.642
							c0.306,0.044,0.614,0.066,0.915,0.066c1.701,0,3.177-0.719,4.739-1.479c0.688-0.336,1.399-0.682,2.161-0.985
							c3.935-1.569,7.424-0.882,9.967,1.937c0.938-0.295,1.884-0.764,2.806-1.22c0.486-0.24,0.968-0.478,1.446-0.692
							c1.61-0.72,3.176-1.494,4.909-2.36l0.264-0.13c0.287-0.14,0.791-0.385,0.975-0.558c-0.026-0.041-0.071-0.099-0.143-0.174
							c-0.292-0.307-0.594-0.611-0.896-0.913c-0.326-0.326-0.65-0.652-0.961-0.98c-0.097-0.103-0.25-0.296-0.43-0.527
							c-0.179-0.23-0.547-0.704-0.799-0.958c-0.429,0.163-0.859,0.362-1.307,0.571c-0.73,0.339-1.486,0.689-2.322,0.915
							c-1.562,0.421-3.207,0.636-4.885,0.636c-0.539,0-1.216,0.191-1.871,0.376c-0.469,0.133-0.952,0.269-1.426,0.35
							c-1.921,0.986-3.785,1.286-5.739,0.932c-0.981-0.18-1.894-0.475-2.778-0.76l-0.461-0.148c-0.943-0.136-1.92-0.324-2.908-0.562
							c-1.022,0.048-1.862,0.5-2.71,1.455c-0.535,0.601-1.36,0.946-2.264,0.946c-1.226,0-2.298-0.641-2.732-1.632l-0.238-0.551
							c-0.04-0.093-0.081-0.189-0.125-0.29c-0.331,0.547-0.76,1.016-1.136,1.428L31.422,72.3L31.419,72.298z"/>
					</g>
				</g>
				<g>
					<ellipse class="st60" cx="48.743" cy="57.878" rx="12.377" ry="6.75"/>
					<path class="st36" d="M48.743,65.507c-7.434,0-13.256-3.351-13.256-7.628s5.823-7.627,13.256-7.627
						c7.433,0,13.256,3.35,13.256,7.627S56.176,65.507,48.743,65.507z M48.743,52.008c-6.233,0-11.499,2.689-11.499,5.871
						c0,3.183,5.266,5.872,11.499,5.872c6.233,0,11.499-2.688,11.499-5.872C60.242,54.697,54.977,52.008,48.743,52.008z"/>
				</g>
				<ellipse class="st69" cx="48.744" cy="55.958" rx="4.041" ry="2.203"/>
				<g>
					<path class="st52" d="M-1.24,14.985c0,0-8.313,4.347,0,6.614c0,0,42.329-9.825,93.348-4.91c0,0,3.57-3.522-1.512-4.728
						C90.596,11.961,63.384,1.566-1.24,14.985z"/>
					<path class="st31" d="M-1.257,22.504l-0.214-0.059c-2.753-0.75-4.168-1.833-4.329-3.31c-0.269-2.484,3.412-4.542,4.152-4.929
						l0.229-0.083c21.991-4.565,42.034-6.881,59.573-6.881c21.688,0,31.781,3.536,32.699,3.876c1.836,0.447,2.931,1.262,3.256,2.424
						c0.513,1.832-1.189,3.578-1.384,3.771l-0.292,0.288l-0.409-0.04c-9.454-0.911-19.287-1.373-29.225-1.373
						c-36.431,0-63.57,6.201-63.84,6.264L-1.257,22.504z M-0.938,15.819c-1.354,0.734-3.217,2.188-3.115,3.127
						c0.066,0.604,1.121,1.251,2.836,1.746c2.681-0.595,29.134-6.26,64.016-6.26c9.839,0,19.576,0.45,28.949,1.338
						c0.378-0.474,0.819-1.226,0.669-1.757c-0.141-0.497-0.859-0.922-2.024-1.199l-0.109-0.034C90.184,12.743,80.073,9,58.154,9
						C40.769,9,20.887,11.294-0.938,15.819z"/>
				</g>
				<polygon class="st31" points="1.146,14.497 3.023,20.363 6.537,19.777 4.487,14.071 				"/>
				<polygon class="st31" points="18.426,11.2 20.517,18.018 24.031,17.432 21.767,10.773 				"/>
				<polygon class="st31" points="38.042,9.581 39.918,15.446 43.798,15.855 41.383,9.154 				"/>
				<polygon class="st31" points="56.125,8.933 58.002,14.798 61.803,14.943 59.466,8.506 				"/>
				<polygon class="st31" points="75.53,9.233 77.406,15.1 81.45,15.859 78.871,8.808 				"/>
			</g>
		</g>
	</g>
</g>
</svg>
